<svg width="20" height="20" viewBox="0 0 20 20" fill="none" xmlns="http://www.w3.org/2000/svg">
<mask id="mask0_3528_40062" style="mask-type:alpha" maskUnits="userSpaceOnUse" x="0" y="0" width="20" height="20">
<rect width="20" height="20" fill="#D9D9D9"/>
</mask>
<g mask="url(#mask0_3528_40062)">
<path d="M10.7769 10.0001L8.46443 12.3126L9.23047 13.0786L12.309 10.0001L9.23047 6.92154L8.46443 7.68758L10.7769 10.0001ZM10.0028 17.5834C8.96332 17.5834 7.98269 17.3861 7.06089 16.9913C6.13908 16.5966 5.33227 16.0535 4.64047 15.362C3.94866 14.6704 3.40526 13.864 3.01026 12.9426C2.6154 12.0212 2.41797 11.0408 2.41797 10.0015C2.41797 8.94821 2.61533 7.96411 3.01005 7.04925C3.40477 6.13439 3.9479 5.33105 4.63943 4.63925C5.33096 3.94744 6.13741 3.40404 7.0588 3.00904C7.98019 2.61418 8.96054 2.41675 9.99984 2.41675C11.0532 2.41675 12.0373 2.61411 12.9521 3.00883C13.867 3.40355 14.6703 3.94668 15.3621 4.63821C16.0539 5.32973 16.5973 6.13272 16.9923 7.04716C17.3872 7.96161 17.5846 8.94543 17.5846 9.99862C17.5846 11.0381 17.3873 12.0187 16.9926 12.9405C16.5978 13.8623 16.0547 14.6691 15.3632 15.3609C14.6716 16.0527 13.8687 16.5961 12.9542 16.9911C12.0398 17.386 11.056 17.5834 10.0028 17.5834Z" fill="#1C1B1F"/>
</g>
</svg>
