<svg width="20" height="20" viewBox="0 0 20 20" fill="none" xmlns="http://www.w3.org/2000/svg">
<mask id="mask0_3823_24046" style="mask-type:alpha" maskUnits="userSpaceOnUse" x="0" y="0" width="20" height="20">
<rect width="20" height="20" fill="#D9D9D9"/>
</mask>
<g mask="url(#mask0_3823_24046)">
<path d="M4.42443 17.9167C4.00887 17.9167 3.65387 17.7696 3.35943 17.4753C3.06512 17.1808 2.91797 16.8258 2.91797 16.4103V6.92321C2.91797 6.50765 3.06512 6.15265 3.35943 5.85821C3.65387 5.5639 4.00887 5.41675 4.42443 5.41675H6.2513C6.2513 4.37619 6.61616 3.49105 7.34589 2.76133C8.07561 2.03161 8.96075 1.66675 10.0013 1.66675C11.0419 1.66675 11.927 2.03161 12.6567 2.76133C13.3864 3.49105 13.7513 4.37619 13.7513 5.41675H15.5782C15.9937 5.41675 16.3487 5.5639 16.6432 5.85821C16.9375 6.15265 17.0846 6.50765 17.0846 6.92321V16.4103C17.0846 16.8258 16.9375 17.1808 16.6432 17.4753C16.3487 17.7696 15.9937 17.9167 15.5782 17.9167H4.42443ZM4.42443 16.6667H15.5782C15.6423 16.6667 15.7011 16.64 15.7544 16.5865C15.8079 16.5332 15.8346 16.4745 15.8346 16.4103V6.92321C15.8346 6.85904 15.8079 6.80029 15.7544 6.74696C15.7011 6.69348 15.6423 6.66675 15.5782 6.66675H4.42443C4.36026 6.66675 4.30151 6.69348 4.24818 6.74696C4.19471 6.80029 4.16797 6.85904 4.16797 6.92321V16.4103C4.16797 16.4745 4.19471 16.5332 4.24818 16.5865C4.30151 16.64 4.36026 16.6667 4.42443 16.6667ZM10.0013 11.2501C11.0419 11.2501 11.927 10.8852 12.6567 10.1555C13.3864 9.42578 13.7513 8.54064 13.7513 7.50008H12.5013C12.5013 8.19453 12.2582 8.7848 11.7721 9.27091C11.286 9.75703 10.6957 10.0001 10.0013 10.0001C9.30686 10.0001 8.71658 9.75703 8.23047 9.27091C7.74436 8.7848 7.5013 8.19453 7.5013 7.50008H6.2513C6.2513 8.54064 6.61616 9.42578 7.34589 10.1555C8.07561 10.8852 8.96075 11.2501 10.0013 11.2501ZM7.5013 5.41675H12.5013C12.5013 4.7223 12.2582 4.13203 11.7721 3.64591C11.286 3.1598 10.6957 2.91675 10.0013 2.91675C9.30686 2.91675 8.71658 3.1598 8.23047 3.64591C7.74436 4.13203 7.5013 4.7223 7.5013 5.41675Z" fill="#37383C" fill-opacity="0.6"/>
</g>
</svg>
