<svg width="16" height="16" viewBox="0 0 16 16" fill="none" xmlns="http://www.w3.org/2000/svg">
<path d="M7.90521 3.0001C8.10646 2.97577 8.29021 3.03254 8.43896 3.17042L10.7052 6.31722C10.9152 6.58486 11.309 6.64974 11.6065 6.45509L14.354 4.56539C14.704 4.43563 15.0365 4.66271 15.0102 5.01146L14.1352 10.1534L1.86771 10.1372L1.00146 5.01146C0.975208 4.67083 1.30771 4.44374 1.65771 4.56539L4.40521 6.45509C4.62396 6.60108 4.92146 6.60108 5.14896 6.4632C6.02396 5.41697 6.75021 4.2572 7.57271 3.17042C7.66896 3.08121 7.78271 3.01632 7.91396 3.0001H7.90521Z" fill="white"/>
<path d="M14.1541 11.1104V12.4486C14.1541 12.7162 13.7953 13.0244 13.4978 13.0001H2.44656C2.17531 12.9919 1.85156 12.7 1.85156 12.4486V11.1104H14.1541Z" fill="white"/>
</svg>
