<svg width="20" height="20" viewBox="0 0 20 20" fill="none" xmlns="http://www.w3.org/2000/svg">
<mask id="mask0_3668_3957" style="mask-type:alpha" maskUnits="userSpaceOnUse" x="0" y="0" width="20" height="20">
<rect width="20" height="20" fill="#D9D9D9"/>
</mask>
<g mask="url(#mask0_3668_3957)">
<path d="M9.98396 16.1377C9.31201 15.6421 8.58979 15.2591 7.81729 14.9888C7.04493 14.7185 6.24472 14.5834 5.41667 14.5834C4.90819 14.5834 4.40875 14.6397 3.91833 14.7523C3.42792 14.8651 2.95514 15.031 2.5 15.25C2.20306 15.3867 1.92049 15.3664 1.65229 15.189C1.3841 15.0118 1.25 14.7607 1.25 14.4359V5.404C1.25 5.22442 1.29757 5.05851 1.39271 4.90629C1.48771 4.75407 1.61965 4.64323 1.78854 4.57379C2.35257 4.29921 2.94042 4.09331 3.55208 3.95608C4.16375 3.81872 4.78528 3.75004 5.41667 3.75004C6.2275 3.75004 7.01701 3.8649 7.78521 4.09462C8.5534 4.32435 9.29167 4.64754 10 5.06421V14.6346C10.7031 14.1902 11.4448 13.8622 12.2252 13.6507C13.0056 13.4391 13.7917 13.3334 14.5833 13.3334C15.0619 13.3334 15.4981 13.363 15.8919 13.4223C16.2855 13.4816 16.7414 13.5919 17.2596 13.7532C17.3183 13.7693 17.3731 13.7707 17.424 13.7573C17.4747 13.7439 17.5 13.6998 17.5 13.625V4.26608C17.6442 4.30886 17.7849 4.35643 17.9223 4.40879C18.0595 4.46115 18.1933 4.52685 18.3237 4.60587C18.4658 4.67532 18.5724 4.77678 18.6433 4.91025C18.7144 5.04386 18.75 5.18706 18.75 5.33983V14.4198C18.75 14.7447 18.6119 14.9944 18.3356 15.169C18.0595 15.3437 17.7649 15.3654 17.4519 15.234C17.0022 15.0203 16.5361 14.8584 16.0538 14.7484C15.5714 14.6384 15.0812 14.5834 14.5833 14.5834C13.75 14.5834 12.9418 14.7145 12.1587 14.9767C11.3756 15.2391 10.6506 15.6261 9.98396 16.1377ZM11.6667 12.5V5.00004L15.8333 0.833374V8.75004L11.6667 12.5Z" fill="#37383C" fill-opacity="0.28"/>
</g>
</svg>
