<svg width="20" height="20" viewBox="0 0 20 20" fill="none" xmlns="http://www.w3.org/2000/svg">
<mask id="mask0_3668_2548" style="mask-type:alpha" maskUnits="userSpaceOnUse" x="0" y="0" width="20" height="20">
<rect width="20" height="20" fill="#D9D9D9"/>
</mask>
<g mask="url(#mask0_3668_2548)">
<path d="M4.75776 17.5833C4.38804 17.5833 4.07227 17.4525 3.81047 17.1908C3.5488 16.929 3.41797 16.6132 3.41797 16.2435V6.75644C3.41797 6.38672 3.5488 6.07095 3.81047 5.80915C4.07227 5.54748 4.38804 5.41665 4.75776 5.41665H6.41797C6.41797 4.4222 6.76707 3.57637 7.46526 2.87915C8.16332 2.18192 9.01026 1.83331 10.0061 1.83331C11.0018 1.83331 11.8471 2.18192 12.5421 2.87915C13.2371 3.57637 13.5846 4.4222 13.5846 5.41665H15.2448C15.6146 5.41665 15.9303 5.54748 16.1921 5.80915C16.4538 6.07095 16.5846 6.38672 16.5846 6.75644V16.2435C16.5846 16.6132 16.4538 16.929 16.1921 17.1908C15.9303 17.4525 15.6146 17.5833 15.2448 17.5833H4.75776ZM4.75776 16.5H15.2448C15.309 16.5 15.3678 16.4732 15.4211 16.4198C15.4746 16.3664 15.5013 16.3077 15.5013 16.2435V6.75644C15.5013 6.69227 15.4746 6.63352 15.4211 6.58019C15.3678 6.52672 15.309 6.49998 15.2448 6.49998H4.75776C4.69359 6.49998 4.63484 6.52672 4.58151 6.58019C4.52804 6.63352 4.5013 6.69227 4.5013 6.75644V16.2435C4.5013 16.3077 4.52804 16.3664 4.58151 16.4198C4.63484 16.4732 4.69359 16.5 4.75776 16.5ZM10.0061 11.5833C11.0018 11.5833 11.8471 11.2347 12.5421 10.5375C13.2371 9.84026 13.5846 8.99442 13.5846 7.99998H12.5013C12.5013 8.69442 12.2582 9.2847 11.7721 9.77081C11.286 10.2569 10.6957 10.5 10.0013 10.5C9.30686 10.5 8.71658 10.2569 8.23047 9.77081C7.74436 9.2847 7.5013 8.69442 7.5013 7.99998H6.41797C6.41797 8.99887 6.76707 9.84581 7.46526 10.5408C8.16332 11.2358 9.01026 11.5833 10.0061 11.5833ZM7.5013 5.41665H12.5013C12.5013 4.7222 12.2582 4.13192 11.7721 3.64581C11.286 3.1597 10.6957 2.91665 10.0013 2.91665C9.30686 2.91665 8.71658 3.1597 8.23047 3.64581C7.74436 4.13192 7.5013 4.7222 7.5013 5.41665Z" fill="#171719"/>
</g>
</svg>
