<svg width="20" height="20" viewBox="0 0 20 20" fill="none" xmlns="http://www.w3.org/2000/svg">
<path d="M10.2518 1.68457C10.1433 1.68065 10.0326 1.68923 9.92139 1.71143L3.58919 2.97771C2.71655 3.15248 2.08203 3.92625 2.08203 4.81608V15.1839C2.08203 16.0735 2.71662 16.8478 3.58919 17.0223L9.92139 18.2886C10.7315 18.4505 11.4806 17.8712 11.6133 17.0833H15.6237C16.8819 17.0833 17.9154 16.0499 17.9154 14.7917V5.625C17.9154 4.36676 16.8819 3.33334 15.6237 3.33334H11.6654V3.14128C11.6654 2.3475 11.0112 1.71203 10.2518 1.68457ZM10.1663 2.93702C10.3077 2.90879 10.4154 2.99679 10.4154 3.14128V16.8587C10.4154 17.0032 10.3076 17.0913 10.1663 17.063V17.0622L3.83496 15.7959H3.83415C3.53795 15.7368 3.33203 15.4858 3.33203 15.1839V4.81608C3.33203 4.51425 3.53844 4.26268 3.83496 4.20329L10.1663 2.93702ZM11.6654 4.58334H15.6237C16.2063 4.58334 16.6654 5.04241 16.6654 5.625V14.7917C16.6654 15.3743 16.2063 15.8333 15.6237 15.8333H11.6654V4.58334ZM13.1237 6.25C13.0409 6.24883 12.9587 6.26413 12.8818 6.29502C12.8049 6.3259 12.735 6.37175 12.676 6.4299C12.617 6.48806 12.5702 6.55735 12.5382 6.63376C12.5063 6.71017 12.4898 6.79218 12.4898 6.875C12.4898 6.95783 12.5063 7.03983 12.5382 7.11625C12.5702 7.19266 12.617 7.26195 12.676 7.3201C12.735 7.37826 12.8049 7.42411 12.8818 7.45499C12.9587 7.48587 13.0409 7.50117 13.1237 7.5H14.7904C14.8732 7.50117 14.9554 7.48587 15.0323 7.45499C15.1091 7.42411 15.1791 7.37826 15.2381 7.3201C15.297 7.26195 15.3439 7.19266 15.3758 7.11625C15.4078 7.03983 15.4243 6.95783 15.4243 6.875C15.4243 6.79218 15.4078 6.71017 15.3758 6.63376C15.3439 6.55735 15.297 6.48806 15.2381 6.4299C15.1791 6.37175 15.1091 6.3259 15.0323 6.29502C14.9554 6.26413 14.8732 6.24883 14.7904 6.25H13.1237ZM5.41455 7.14926C5.2942 7.14604 5.17124 7.17769 5.06217 7.24691C4.77134 7.43233 4.68593 7.81829 4.87093 8.10954L6.11605 10.0659L4.87093 12.0223C4.68593 12.3136 4.77134 12.6995 5.06217 12.8849C5.16634 12.9508 5.28246 12.9826 5.39746 12.9826C5.60371 12.9826 5.80645 12.8808 5.92562 12.6937L6.85661 11.2305L7.7876 12.6929C7.90718 12.88 8.1095 12.9826 8.31575 12.9826C8.43076 12.9826 8.54606 12.9516 8.65023 12.8849C8.94106 12.6995 9.02729 12.3127 8.84229 12.0215L7.59798 10.0659L8.84229 8.11036C9.02729 7.81911 8.94106 7.43233 8.65023 7.24691C8.35981 7.06191 7.97343 7.1473 7.7876 7.43897L6.85661 8.90137L5.92562 7.43815C5.80973 7.25586 5.61513 7.15461 5.41455 7.14926ZM13.1237 9.58334C13.0409 9.58217 12.9587 9.59747 12.8818 9.62835C12.8049 9.65923 12.735 9.70508 12.676 9.76324C12.617 9.82139 12.5702 9.89069 12.5382 9.9671C12.5063 10.0435 12.4898 10.1255 12.4898 10.2083C12.4898 10.2912 12.5063 10.3732 12.5382 10.4496C12.5702 10.526 12.617 10.5953 12.676 10.6534C12.735 10.7116 12.8049 10.7574 12.8818 10.7883C12.9587 10.8192 13.0409 10.8345 13.1237 10.8333H14.7904C14.8732 10.8345 14.9554 10.8192 15.0323 10.7883C15.1091 10.7574 15.1791 10.7116 15.2381 10.6534C15.297 10.5953 15.3439 10.526 15.3758 10.4496C15.4078 10.3732 15.4243 10.2912 15.4243 10.2083C15.4243 10.1255 15.4078 10.0435 15.3758 9.9671C15.3439 9.89069 15.297 9.82139 15.2381 9.76324C15.1791 9.70508 15.1091 9.65923 15.0323 9.62835C14.9554 9.59747 14.8732 9.58217 14.7904 9.58334H13.1237ZM13.1237 12.9167C13.0409 12.9155 12.9587 12.9308 12.8818 12.9617C12.8049 12.9926 12.735 13.0384 12.676 13.0966C12.617 13.1547 12.5702 13.224 12.5382 13.3004C12.5063 13.3768 12.4898 13.4588 12.4898 13.5417C12.4898 13.6245 12.5063 13.7065 12.5382 13.7829C12.5702 13.8593 12.617 13.9286 12.676 13.9868C12.735 14.0449 12.8049 14.0908 12.8818 14.1217C12.9587 14.1525 13.0409 14.1678 13.1237 14.1667H14.7904C14.8732 14.1678 14.9554 14.1525 15.0323 14.1217C15.1091 14.0908 15.1791 14.0449 15.2381 13.9868C15.297 13.9286 15.3439 13.8593 15.3758 13.7829C15.4078 13.7065 15.4243 13.6245 15.4243 13.5417C15.4243 13.4588 15.4078 13.3768 15.3758 13.3004C15.3439 13.224 15.297 13.1547 15.2381 13.0966C15.1791 13.0384 15.1091 12.9926 15.0323 12.9617C14.9554 12.9308 14.8732 12.9155 14.7904 12.9167H13.1237Z" fill="#171719"/>
</svg>
