<svg width="20" height="20" viewBox="0 0 20 20" fill="none" xmlns="http://www.w3.org/2000/svg">
<mask id="mask0_3668_386" style="mask-type:alpha" maskUnits="userSpaceOnUse" x="0" y="0" width="20" height="20">
<rect width="20" height="20" fill="#D9D9D9"/>
</mask>
<g mask="url(#mask0_3668_386)">
<path d="M9.9987 16.939L9.07891 16.1121C7.69752 14.8589 6.55516 13.782 5.65182 12.8815C4.74849 11.9808 4.03266 11.1792 3.50432 10.4767C2.97599 9.77431 2.60689 9.13354 2.39703 8.55438C2.18703 7.97535 2.08203 7.38778 2.08203 6.79167C2.08203 5.60903 2.48078 4.61889 3.27828 3.82125C4.07592 3.02375 5.06606 2.625 6.2487 2.625C6.9762 2.625 7.6637 2.79514 8.3112 3.13542C8.9587 3.47569 9.5212 3.96368 9.9987 4.59938C10.4762 3.96368 11.0387 3.47569 11.6862 3.13542C12.3337 2.79514 13.0212 2.625 13.7487 2.625C14.9313 2.625 15.9215 3.02375 16.7191 3.82125C17.5166 4.61889 17.9154 5.60903 17.9154 6.79167C17.9154 7.38778 17.8104 7.97535 17.6004 8.55438C17.3905 9.13354 17.0214 9.77431 16.4931 10.4767C15.9647 11.1792 15.2502 11.9808 14.3495 12.8815C13.449 13.782 12.3053 14.8589 10.9185 16.1121L9.9987 16.939Z" fill="#37383C" fill-opacity="0.28"/>
</g>
</svg>
