<svg width="32" height="32" viewBox="0 0 32 32" fill="none" xmlns="http://www.w3.org/2000/svg">
<path d="M16.0009 23.8846C16.3484 23.8846 16.6362 23.7707 16.8642 23.5429C17.0923 23.3151 17.2063 23.0275 17.2063 22.68C17.2063 22.3325 17.0924 22.0447 16.8646 21.8167C16.6369 21.5883 16.3492 21.4742 16.0017 21.4742C15.6542 21.4742 15.3664 21.5881 15.1384 21.8158C14.9103 22.0436 14.7963 22.3314 14.7963 22.6792C14.7963 23.0267 14.9102 23.3145 15.138 23.5425C15.3657 23.7706 15.6534 23.8846 16.0009 23.8846ZM15.0163 17.9358H17.1101V7.67084H15.0163V17.9358ZM16.0113 31.8333C13.8194 31.8333 11.7639 31.4178 9.84505 30.5867C7.92589 29.7556 6.24894 28.6231 4.81422 27.1892C3.37977 25.755 2.24672 24.0782 1.41505 22.1588C0.583663 20.239 0.167969 18.1824 0.167969 15.9888C0.167969 13.8024 0.583524 11.7472 1.41464 9.82334C2.24575 7.89917 3.37825 6.22445 4.81214 4.79917C6.2463 3.37389 7.92311 2.24542 9.84255 1.41375C11.7623 0.582366 13.8189 0.166672 16.0126 0.166672C18.1989 0.166672 20.2541 0.582227 22.178 1.41334C24.1021 2.24445 25.7769 3.37237 27.2021 4.79709C28.6274 6.22181 29.7559 7.89723 30.5876 9.82334C31.4189 11.7495 31.8346 13.805 31.8346 15.99C31.8346 18.1819 31.4191 20.2374 30.588 22.1563C29.7569 24.0754 28.6289 25.7506 27.2042 27.1817C25.7795 28.6131 24.1041 29.7461 22.178 30.5808C20.2519 31.4158 18.1963 31.8333 16.0113 31.8333ZM16.0151 29.7392C19.8334 29.7392 23.0756 28.4033 25.7417 25.7317C28.4076 23.06 29.7405 19.8115 29.7405 15.9863C29.7405 12.1679 28.4092 8.9257 25.7467 6.25959C23.0842 3.59375 19.8357 2.26084 16.0013 2.26084C12.1852 2.26084 8.9413 3.59209 6.26964 6.25459C3.59797 8.91709 2.26214 12.1656 2.26214 16C2.26214 19.8161 3.59797 23.06 6.26964 25.7317C8.9413 28.4033 12.1898 29.7392 16.0151 29.7392Z" fill="white"/>
</svg>
