<svg width="24" height="24" viewBox="0 0 24 24" fill="none" xmlns="http://www.w3.org/2000/svg">
<path d="M12 2.0007C14.5627 2.0007 17.1169 2.01772 19.6796 2.0007C21.2461 1.99218 22.5317 3.05642 22.8893 4.41865C22.9659 4.70813 23 4.9976 23 5.29559C23 9.05874 23 12.8304 23 16.5936C23 18.4156 21.5526 19.8714 19.7306 19.8714C15.3119 19.8714 10.8847 19.8714 6.46594 19.8714C6.09133 19.8714 5.75929 19.9481 5.43576 20.1354C4.32043 20.7654 3.20511 21.3869 2.08978 22.0084C1.82585 22.1617 1.56192 22.1872 1.29799 22.0084C1.11068 21.8807 1.00851 21.6934 1 21.4635C1 21.4039 1 21.3443 1 21.2933C1 15.9806 1 10.6679 1 5.35518C1 3.6524 2.08127 2.34977 3.75851 2.03475C3.97988 1.99218 4.20124 2.0007 4.4226 2.0007C6.94272 2.0007 9.47136 2.0007 11.9915 2.0007H12ZM10.6207 8.16478C10.6207 8.87144 10.6207 9.56958 10.6207 10.2762C10.6207 10.2762 10.6207 10.2933 10.6207 10.3018C10.6463 10.9744 11.1316 11.5278 11.8382 11.63C12.6471 11.7491 13.3793 11.068 13.3793 10.2422C13.3793 8.89698 13.3537 7.55178 13.3878 6.20658C13.4048 5.51695 12.8259 4.73367 11.9489 4.75069C11.2593 4.76772 10.5952 5.44884 10.6122 6.11292C10.6293 6.79404 10.6122 7.47515 10.6122 8.16478H10.6207ZM13.3452 15.7507C13.3452 14.993 12.8173 14.397 12.1447 14.397C11.2337 14.397 10.6378 14.9334 10.6207 15.7422C10.6037 16.4999 11.3359 17.1555 12 17.13C12.8003 17.0959 13.3452 16.568 13.3452 15.7507Z" fill="#FFD759"/>
<path d="M10.6214 8.16475C10.6214 7.48363 10.6384 6.80252 10.6214 6.11289C10.6044 5.45732 11.2685 4.76769 11.9581 4.75066C12.835 4.72512 13.414 5.51692 13.397 6.20655C13.3629 7.55175 13.3884 8.89695 13.3884 10.2421C13.3884 11.068 12.6477 11.7491 11.8474 11.6299C11.1493 11.5278 10.6555 10.9658 10.6299 10.3017C10.6299 10.3017 10.6299 10.2847 10.6299 10.2762C10.6299 9.56955 10.6299 8.87141 10.6299 8.16475H10.6214Z" fill="#FFB347"/>
<path d="M13.3458 15.7507C13.3458 16.568 12.801 17.0959 12.0006 17.1299C11.3366 17.1555 10.6044 16.4999 10.6214 15.7422C10.6384 14.9419 11.2344 14.397 12.1454 14.397C12.818 14.397 13.3458 14.9929 13.3458 15.7507Z" fill="#FFB347"/>
</svg>
