<svg width="38" height="38" viewBox="0 0 38 38" fill="none" xmlns="http://www.w3.org/2000/svg">
<g clip-path="url(#clip0_3528_68376)">
<path d="M19 35C27.8366 35 35 27.8366 35 19C35 10.1634 27.8366 3 19 3C10.1634 3 3 10.1634 3 19C3 27.8366 10.1634 35 19 35Z" fill="#231815"/>
<path d="M19 35C27.8366 35 35 27.8366 35 19C35 10.1634 27.8366 3 19 3C10.1634 3 3 10.1634 3 19C3 27.8366 10.1634 35 19 35Z" fill="#2083FE"/>
<path d="M5.24642 34.8798L10.4964 32.5598L5.50642 27.2998L3.12642 32.7198C2.86642 33.3198 2.98642 34.0398 3.46642 34.5198C3.94642 34.9998 4.64642 35.1198 5.23642 34.8798H5.24642Z" fill="#2083FE"/>
<path d="M18.9997 27.5702C23.7328 27.5702 27.5697 23.7333 27.5697 19.0002C27.5697 14.2671 23.7328 10.4302 18.9997 10.4302C14.2666 10.4302 10.4297 14.2671 10.4297 19.0002C10.4297 23.7333 14.2666 27.5702 18.9997 27.5702Z" fill="#FFCB47"/>
<path d="M19.5691 14.2925L20.9691 16.2825L23.2891 17.0025C23.7491 17.1425 23.9291 17.7025 23.6391 18.0825L22.1791 20.0325L22.2191 22.4625C22.2191 22.9425 21.7491 23.2925 21.2991 23.1325L18.9991 22.3425L16.6991 23.1325C16.2391 23.2925 15.7691 22.9425 15.7791 22.4625L15.8191 20.0325L14.3591 18.0825C14.0691 17.6925 14.2491 17.1425 14.7091 17.0025L17.0291 16.2825L18.4291 14.2925C18.7091 13.9025 19.2891 13.9025 19.5691 14.2925Z" fill="white"/>
</g>
<defs>
<clipPath id="clip0_3528_68376">
<rect width="32" height="32" fill="white" transform="translate(3 3)"/>
</clipPath>
</defs>
</svg>
