<svg width="20" height="20" viewBox="0 0 20 20" fill="none" xmlns="http://www.w3.org/2000/svg">
<g clip-path="url(#clip0_3528_68630)">
<mask id="mask0_3528_68630" style="mask-type:alpha" maskUnits="userSpaceOnUse" x="0" y="0" width="20" height="20">
<rect width="20" height="20" fill="#D9D9D9"/>
</mask>
<g mask="url(#mask0_3528_68630)">
<path d="M9.99302 13.7757C10.1589 13.7757 10.2993 13.7196 10.4145 13.6074C10.5296 13.4952 10.5872 13.3561 10.5872 13.1903C10.5872 13.0245 10.5311 12.884 10.4189 12.7688C10.3066 12.6538 10.1676 12.5963 10.0018 12.5963C9.83594 12.5963 9.69545 12.6524 9.58031 12.7645C9.46517 12.8767 9.4076 13.0157 9.4076 13.1815C9.4076 13.3474 9.46372 13.4879 9.57594 13.603C9.68816 13.7181 9.82719 13.7757 9.99302 13.7757ZM9.45573 11.0642H10.5391V6.06425H9.45573V11.0642ZM10.0045 17.5834C8.96128 17.5834 7.97878 17.3861 7.05698 16.9913C6.13517 16.5966 5.32837 16.0535 4.63656 15.362C3.94476 14.6704 3.40135 13.8642 3.00635 12.9434C2.61149 12.0227 2.41406 11.0389 2.41406 9.99196C2.41406 8.94501 2.61142 7.96411 3.00615 7.04925C3.40087 6.13439 3.94399 5.33105 4.63552 4.63925C5.32705 3.94744 6.13323 3.40404 7.05406 3.00904C7.97476 2.61418 8.95858 2.41675 10.0055 2.41675C11.0525 2.41675 12.0334 2.61411 12.9482 3.00883C13.8631 3.40355 14.6664 3.94668 15.3582 4.63821C16.05 5.32973 16.5934 6.13425 16.9884 7.05175C17.3833 7.96939 17.5807 8.9498 17.5807 9.993C17.5807 11.0362 17.3834 12.0187 16.9886 12.9405C16.5939 13.8623 16.0508 14.6691 15.3593 15.3609C14.6677 16.0527 13.8632 16.5961 12.9457 16.9911C12.0281 17.386 11.0477 17.5834 10.0045 17.5834Z" fill="#37383C" fill-opacity="0.16"/>
</g>
</g>
<defs>
<clipPath id="clip0_3528_68630">
<rect width="20" height="20" fill="white"/>
</clipPath>
</defs>
</svg>
