<svg width="28" height="28" viewBox="0 0 28 28" fill="none" xmlns="http://www.w3.org/2000/svg">
<rect x="0.5" y="0.5" width="27" height="27" rx="13.5" stroke="#70737C" stroke-opacity="0.08"/>
<mask id="mask0_3528_68666" style="mask-type:alpha" maskUnits="userSpaceOnUse" x="2" y="2" width="24" height="24">
<rect x="2" y="2" width="24" height="24" fill="#D9D9D9"/>
</mask>
<g mask="url(#mask0_3528_68666)">
<path d="M13 19H9C7.61667 19 6.4375 18.5125 5.4625 17.5375C4.4875 16.5625 4 15.3833 4 14C4 12.6167 4.4875 11.4375 5.4625 10.4625C6.4375 9.4875 7.61667 9 9 9H13V11H9C8.16667 11 7.45833 11.2917 6.875 11.875C6.29167 12.4583 6 13.1667 6 14C6 14.8333 6.29167 15.5417 6.875 16.125C7.45833 16.7083 8.16667 17 9 17H13V19ZM10 15V13H18V15H10ZM15 19V17H19C19.8333 17 20.5417 16.7083 21.125 16.125C21.7083 15.5417 22 14.8333 22 14C22 13.1667 21.7083 12.4583 21.125 11.875C20.5417 11.2917 19.8333 11 19 11H15V9H19C20.3833 9 21.5625 9.4875 22.5375 10.4625C23.5125 11.4375 24 12.6167 24 14C24 15.3833 23.5125 16.5625 22.5375 17.5375C21.5625 18.5125 20.3833 19 19 19H15Z" fill="#37383C" fill-opacity="0.6"/>
</g>
</svg>
