<svg width="25" height="24" viewBox="0 0 25 24" fill="none" xmlns="http://www.w3.org/2000/svg">
<mask id="mask0_3528_69102" style="mask-type:alpha" maskUnits="userSpaceOnUse" x="0" y="0" width="25" height="24">
<rect x="0.328125" width="24" height="24" fill="#D9D9D9"/>
</mask>
<g mask="url(#mask0_3528_69102)">
<path d="M17.1336 21.5C16.3851 21.5 15.7496 21.2383 15.2271 20.7148C14.7048 20.1912 14.4436 19.5556 14.4436 18.8078C14.4436 18.7078 14.4782 18.4648 14.5474 18.0788L7.43587 13.8923C7.19487 14.1423 6.90854 14.3381 6.57687 14.4798C6.24521 14.6214 5.88987 14.6923 5.51087 14.6923C4.76571 14.6923 4.13229 14.4294 3.61063 13.9038C3.08896 13.3781 2.82812 12.7435 2.82812 12C2.82812 11.2565 3.08896 10.6219 3.61063 10.0962C4.13229 9.57058 4.76571 9.30775 5.51087 9.30775C5.88987 9.30775 6.24521 9.37858 6.57687 9.52025C6.90854 9.66192 7.19487 9.85775 7.43587 10.1077L14.5474 5.93075C14.5077 5.80775 14.4805 5.68725 14.4656 5.56925C14.451 5.45125 14.4436 5.32558 14.4436 5.19225C14.4436 4.44442 14.7055 3.80875 15.2294 3.28525C15.7534 2.76175 16.3896 2.5 17.1381 2.5C17.8866 2.5 18.522 2.762 19.0444 3.286C19.5669 3.80983 19.8281 4.446 19.8281 5.1945C19.8281 5.943 19.5664 6.5785 19.0429 7.101C18.5194 7.62333 17.8837 7.8845 17.1359 7.8845C16.755 7.8845 16.4009 7.81208 16.0734 7.66725C15.7457 7.52242 15.4614 7.325 15.2204 7.075L8.10888 11.2615C8.14854 11.3847 8.17579 11.5052 8.19063 11.623C8.20529 11.741 8.21263 11.8667 8.21263 12C8.21263 12.1333 8.20529 12.259 8.19063 12.377C8.17579 12.4948 8.14854 12.6153 8.10888 12.7385L15.2204 16.925C15.4614 16.675 15.7457 16.4776 16.0734 16.3328C16.4009 16.1879 16.755 16.1155 17.1359 16.1155C17.8837 16.1155 18.5194 16.3774 19.0429 16.9012C19.5664 17.4253 19.8281 18.0615 19.8281 18.81C19.8281 19.5585 19.5661 20.1939 19.0421 20.7163C18.5183 21.2388 17.8821 21.5 17.1336 21.5Z" fill="#37383C" fill-opacity="0.28"/>
</g>
</svg>
