<svg width="25" height="24" viewBox="0 0 25 24" fill="none" xmlns="http://www.w3.org/2000/svg">
<g clip-path="url(#clip0_3528_68399)">
<path d="M12.5 24C19.1274 24 24.5 18.6274 24.5 12C24.5 5.37258 19.1274 0 12.5 0C5.87258 0 0.5 5.37258 0.5 12C0.5 18.6274 5.87258 24 12.5 24Z" fill="#2083FE"/>
<path d="M20.9902 20.4878L23.7502 23.2478L16.7422 23.0958L20.9902 20.4878Z" fill="#2083FE"/>
<path d="M12.5531 13.5999C13.4368 13.5999 14.1531 12.8836 14.1531 11.9999C14.1531 11.1162 13.4368 10.3999 12.5531 10.3999C11.6695 10.3999 10.9531 11.1162 10.9531 11.9999C10.9531 12.8836 11.6695 13.5999 12.5531 13.5999Z" fill="white"/>
<path d="M8.37344 13.5999C9.25709 13.5999 9.97344 12.8836 9.97344 11.9999C9.97344 11.1162 9.25709 10.3999 8.37344 10.3999C7.48978 10.3999 6.77344 11.1162 6.77344 11.9999C6.77344 12.8836 7.48978 13.5999 8.37344 13.5999Z" fill="white"/>
<path d="M16.7406 13.5999C17.6243 13.5999 18.3406 12.8836 18.3406 11.9999C18.3406 11.1162 17.6243 10.3999 16.7406 10.3999C15.857 10.3999 15.1406 11.1162 15.1406 11.9999C15.1406 12.8836 15.857 13.5999 16.7406 13.5999Z" fill="white"/>
</g>
<defs>
<clipPath id="clip0_3528_68399">
<rect width="24" height="24" fill="white" transform="translate(0.5)"/>
</clipPath>
</defs>
</svg>
