<svg width="28" height="28" viewBox="0 0 28 28" fill="none" xmlns="http://www.w3.org/2000/svg">
<g clip-path="url(#clip0_3528_68671)">
<path d="M28 0H0V28H28V0Z" fill="#FAE100"/>
<path d="M13.9709 5.13477C8.41647 5.13477 3.91406 8.6934 3.91406 13.0857C3.91406 15.9436 5.82061 18.4483 8.68422 19.8497C8.47344 20.634 7.92274 22.6943 7.8126 23.1349C7.67588 23.6818 8.01199 23.6742 8.23417 23.528C8.40698 23.4121 10.9895 21.6556 12.1042 20.8979C12.71 20.9872 13.3328 21.0347 13.9709 21.0347C19.5253 21.0347 24.0277 17.476 24.0277 13.0857C24.0277 8.69529 19.5253 5.13477 13.9709 5.13477Z" fill="#371D1E"/>
<path d="M6.95292 11.6216H7.98785C7.98785 11.6216 7.99355 14.4643 7.98785 15.127C7.98785 15.6113 9.06455 15.617 9.06265 15.1346L9.06645 11.6595C9.06645 11.6595 9.41396 11.6614 10.0957 11.6614C10.7394 11.6614 10.7394 10.6493 10.0957 10.6493C9.37028 10.6493 6.94722 10.6284 6.94722 10.6284C6.33956 10.6284 6.34146 11.6216 6.94722 11.6216" fill="#FAE100"/>
<mask id="mask0_3528_68671" style="mask-type:luminance" maskUnits="userSpaceOnUse" x="6" y="10" width="5" height="6">
<path d="M6.95292 11.6216H7.98785C7.98785 11.6216 7.99355 14.4643 7.98785 15.127C7.98785 15.6113 9.06455 15.617 9.06265 15.1346L9.06645 11.6595C9.06645 11.6595 9.41396 11.6614 10.0957 11.6614C10.7394 11.6614 10.7394 10.6493 10.0957 10.6493C9.37028 10.6493 6.94722 10.6284 6.94722 10.6284C6.33956 10.6284 6.34146 11.6216 6.94722 11.6216" fill="white"/>
</mask>
<g mask="url(#mask0_3528_68671)">
<path d="M10.7417 10.6284H6.34375V15.617H10.7417V10.6284Z" fill="#FAE100"/>
</g>
<path d="M11.9078 11.8039L12.4832 13.6079H11.283L11.9078 11.8039ZM11.2621 10.9589C11.0077 11.5191 10.0867 14.1681 9.78286 14.8707C9.56258 15.3777 10.514 15.7917 10.7342 15.2847L10.9412 14.5612H12.8345C12.8345 14.5612 12.7699 14.5916 13.0206 15.2543C13.2238 15.7917 14.2074 15.4195 14.0042 14.8821C13.7137 14.1149 12.7072 11.3501 12.523 10.9589C12.4395 10.7785 12.1357 10.6475 11.8413 10.6475C11.5983 10.6475 11.3609 10.7367 11.2602 10.9589" fill="#FAE100"/>
<mask id="mask1_3528_68671" style="mask-type:luminance" maskUnits="userSpaceOnUse" x="9" y="10" width="6" height="6">
<path d="M11.9078 11.8039L12.4832 13.6079H11.283L11.9078 11.8039ZM11.2621 10.9589C11.0077 11.5191 10.0867 14.1681 9.78286 14.8707C9.56258 15.3777 10.514 15.7917 10.7342 15.2847L10.9412 14.5612H12.8345C12.8345 14.5612 12.7699 14.5916 13.0206 15.2543C13.2238 15.7917 14.2074 15.4195 14.0042 14.8821C13.7137 14.1149 12.7072 11.3501 12.523 10.9589C12.4395 10.7785 12.1357 10.6475 11.8413 10.6475C11.5983 10.6475 11.3609 10.7367 11.2602 10.9589" fill="white"/>
</mask>
<g mask="url(#mask1_3528_68671)">
<path d="M14.2111 10.6494H9.5625V15.7956H14.2111V10.6494Z" fill="#FAE100"/>
</g>
<path d="M14.3672 11.1241C14.3672 12.0242 14.3729 14.9258 14.3729 14.9258C14.3729 14.9258 14.2893 15.5031 14.785 15.5031C15.2806 15.5031 16.3763 15.4974 16.8624 15.4974C17.3485 15.4974 17.3466 14.4625 16.8605 14.4625C16.3744 14.4625 15.4857 14.4568 15.4857 14.4568C15.4857 14.4568 15.4895 11.7735 15.4876 11.1203C15.4876 10.8051 15.2065 10.6475 14.9274 10.6475C14.6482 10.6475 14.3653 10.807 14.3672 11.1222" fill="#FAE100"/>
<mask id="mask2_3528_68671" style="mask-type:luminance" maskUnits="userSpaceOnUse" x="14" y="10" width="4" height="6">
<path d="M14.3672 11.1241C14.3672 12.0242 14.3729 14.9258 14.3729 14.9258C14.3729 14.9258 14.2893 15.5031 14.785 15.5031C15.2806 15.5031 16.3763 15.4974 16.8624 15.4974C17.3485 15.4974 17.3466 14.4625 16.8605 14.4625C16.3744 14.4625 15.4857 14.4568 15.4857 14.4568C15.4857 14.4568 15.4895 11.7735 15.4876 11.1203C15.4876 10.8051 15.2065 10.6475 14.9274 10.6475C14.6482 10.6475 14.3653 10.807 14.3672 11.1222" fill="white"/>
</mask>
<g mask="url(#mask2_3528_68671)">
<path d="M17.3483 10.6494H14.2891V15.5031H17.3483V10.6494Z" fill="#FAE100"/>
</g>
<path d="M17.482 10.9815C17.4934 11.3765 17.4688 14.9465 17.4688 15.2105C17.4688 15.6283 18.5322 15.6264 18.5322 15.2105C18.5322 14.7263 18.5322 13.8053 18.5322 13.8053L18.8436 13.5546L20.2089 15.4156C20.4843 15.7802 21.3521 15.1212 21.0768 14.7585L19.6279 12.8501C19.6279 12.8501 20.6115 11.7867 20.9989 11.4012C21.2249 11.1771 20.5242 10.4707 20.2982 10.6967C20.0798 10.9132 18.5379 12.457 18.5379 12.457C18.5379 12.457 18.5512 11.4886 18.5379 10.9531C18.5322 10.7499 18.2834 10.6511 18.027 10.6511C17.7536 10.6511 17.4744 10.7632 17.4801 10.9815" fill="#FAE100"/>
<mask id="mask3_3528_68671" style="mask-type:luminance" maskUnits="userSpaceOnUse" x="17" y="10" width="5" height="6">
<path d="M17.482 10.9815C17.4934 11.3765 17.4688 14.9465 17.4688 15.2105C17.4688 15.6283 18.5322 15.6264 18.5322 15.2105C18.5322 14.7263 18.5322 13.8053 18.5322 13.8053L18.8436 13.5546L20.2089 15.4156C20.4843 15.7802 21.3521 15.1212 21.0768 14.7585L19.6279 12.8501C19.6279 12.8501 20.6115 11.7867 20.9989 11.4012C21.2249 11.1771 20.5242 10.4707 20.2982 10.6967C20.0798 10.9132 18.5379 12.457 18.5379 12.457C18.5379 12.457 18.5512 11.4886 18.5379 10.9531C18.5322 10.7499 18.2834 10.6511 18.027 10.6511C17.7536 10.6511 17.4744 10.7632 17.4801 10.9815" fill="white"/>
</mask>
<g mask="url(#mask3_3528_68671)">
<path d="M21.3521 10.4727H17.4688V15.7821H21.3521V10.4727Z" fill="#FAE100"/>
</g>
</g>
<defs>
<clipPath id="clip0_3528_68671">
<rect width="28" height="28" fill="white"/>
</clipPath>
</defs>
</svg>
