<svg width="28" height="28" viewBox="0 0 28 28" fill="none" xmlns="http://www.w3.org/2000/svg">
<g clip-path="url(#clip0_3528_68718)">
<rect width="28" height="28" rx="14" fill="#A1A1A1"/>
<g clip-path="url(#clip1_3528_68718)">
<path d="M28 0H0V28H28V0Z" fill="black"/>
<path d="M20.2828 19.9792L15.3633 12.8323L14.8069 12.024L11.2877 6.91133L10.9962 6.48779H6.67188L7.72662 8.02054L12.4056 14.8191L12.9619 15.6267L16.7217 21.0892L17.0132 21.5124H21.3376L20.2828 19.9796V19.9792ZM17.5272 20.5336L13.6213 14.8587L13.065 14.0508L8.53256 7.46574H10.4822L14.1475 12.7912L14.7039 13.5991L19.4769 20.5336H17.5272Z" fill="white"/>
<path d="M13.0662 14.0508L13.6226 14.8587L12.9631 15.6262L7.90376 21.5119H6.65625L12.4068 14.8187L13.0662 14.0508Z" fill="white"/>
<path d="M20.8178 6.48779L15.3642 12.8323L14.7048 13.5995L14.1484 12.7916L14.8078 12.024L18.5022 7.72433L19.5702 6.48779H20.8178Z" fill="white"/>
</g>
</g>
<defs>
<clipPath id="clip0_3528_68718">
<rect width="28" height="28" rx="14" fill="white"/>
</clipPath>
<clipPath id="clip1_3528_68718">
<rect width="28" height="28" fill="white"/>
</clipPath>
</defs>
</svg>
