<svg width="42" height="42" viewBox="0 0 42 42" fill="none" xmlns="http://www.w3.org/2000/svg">
<rect width="42" height="42" rx="21" fill="#FA2828"/>
<g clip-path="url(#clip0_3015_29806)">
<path d="M15 13.9459C15 12.8598 15.8595 12 16.9453 12H22.2275C26.448 12 29 14.5023 29 18.1172V18.1678C29 22.2644 25.8148 24.3861 21.8471 24.3861H18.8906V28.0516C18.8906 29.1378 18.0311 29.9976 16.9453 29.9976C15.8595 29.9976 15 29.1378 15 28.0516V13.9459ZM21.9747 20.9229C23.92 20.9229 25.0588 19.7597 25.0588 18.2424V18.1919C25.0588 16.4482 23.8454 15.5114 21.9001 15.5114H18.893V20.9205H21.9771L21.9747 20.9229Z" fill="white"/>
</g>
<defs>
<clipPath id="clip0_3015_29806">
<rect width="14" height="18" fill="white" transform="translate(15 12)"/>
</clipPath>
</defs>
</svg>
