<svg width="20" height="20" viewBox="0 0 20 20" fill="none" xmlns="http://www.w3.org/2000/svg">
<rect width="20" height="20" rx="10" fill="#2083FE"/>
<path d="M9.99659 14.1064C8.33671 14.1064 7.15163 13.2023 7.11365 11.8881H8.52663C8.56081 12.5186 9.18374 12.9289 9.99279 12.9289C10.8512 12.9289 11.4703 12.4579 11.4665 11.7704C11.4703 11.0677 10.8664 10.5663 9.85225 10.5663H9.16095V9.48757H9.85225C10.6803 9.48757 11.2576 9.02797 11.2576 8.34807C11.2576 7.69475 10.7639 7.25414 10.0118 7.25414C9.2749 7.25414 8.64438 7.66436 8.61779 8.31388H7.27697C7.30736 7.01105 8.49244 6.11464 10.0194 6.11464C11.5919 6.11464 12.6136 7.07942 12.606 8.2683C12.6136 9.14572 12.0363 9.77244 11.1817 9.95097V10.0117C12.2832 10.1599 12.9061 10.8626 12.8985 11.8425C12.9061 13.153 11.6793 14.1064 9.99659 14.1064Z" fill="white"/>
</svg>
