<svg width="20" height="20" viewBox="0 0 20 20" fill="none" xmlns="http://www.w3.org/2000/svg">
<mask id="mask0_5011_12307" style="mask-type:alpha" maskUnits="userSpaceOnUse" x="0" y="0" width="20" height="20">
<rect width="20" height="20" fill="#D9D9D9"/>
</mask>
<g mask="url(#mask0_5011_12307)">
<path d="M13.1433 10.8112L12.2075 9.87534C12.3325 9.1852 12.1356 8.56471 11.6169 8.01388C11.0983 7.46319 10.4618 7.25034 9.7075 7.37534L8.77167 6.43951C8.95972 6.35506 9.15257 6.29173 9.35021 6.24951C9.54785 6.20728 9.76417 6.18617 9.99917 6.18617C10.9447 6.18617 11.7474 6.51603 12.4071 7.17575C13.0668 7.83548 13.3967 8.63812 13.3967 9.58367C13.3967 9.81867 13.3756 10.0377 13.3333 10.2408C13.2911 10.4437 13.2278 10.6338 13.1433 10.8112ZM15.794 13.4041L14.8742 12.542C15.4019 12.1392 15.8707 11.6983 16.2804 11.2191C16.6901 10.7399 17.0408 10.1948 17.3325 9.58367C16.6381 8.18089 15.6415 7.06631 14.3429 6.23992C13.0443 5.41353 11.5964 5.00034 9.99917 5.00034C9.59639 5.00034 9.20056 5.02812 8.81167 5.08367C8.42278 5.13923 8.04083 5.22256 7.66583 5.33367L6.69479 4.36263C7.22146 4.15319 7.75938 3.99881 8.30854 3.8995C8.85771 3.80006 9.42125 3.75034 9.99917 3.75034C11.9521 3.75034 13.7133 4.28881 15.2827 5.36575C16.8522 6.4427 17.9969 7.84867 18.7171 9.58367C18.4083 10.3283 18.0096 11.0233 17.5208 11.6687C17.0319 12.3139 16.4563 12.8924 15.794 13.4041ZM16.4671 18.2247L13.0954 14.8785C12.6681 15.0367 12.1944 15.166 11.6746 15.2664C11.1549 15.3668 10.5964 15.417 9.99917 15.417C8.04083 15.417 6.27965 14.8785 4.71563 13.8016C3.15146 12.7246 2.00667 11.3187 1.28125 9.58367C1.58889 8.84756 1.98632 8.16089 2.47354 7.52367C2.96076 6.88631 3.49708 6.33367 4.0825 5.86575L1.77479 3.53242L2.65313 2.6543L17.3452 17.3464L16.4671 18.2247ZM4.96083 6.74388C4.52056 7.0943 4.09236 7.51555 3.67625 8.00763C3.26014 8.49957 2.92333 9.02492 2.66583 9.58367C3.36028 10.9864 4.35681 12.101 5.65542 12.9274C6.95403 13.7538 8.40195 14.167 9.99917 14.167C10.3785 14.167 10.7562 14.1349 11.1323 14.0708C11.5083 14.0067 11.8272 13.9405 12.089 13.8722L11.0344 12.792C10.8923 12.8496 10.7278 12.8955 10.5408 12.9297C10.3539 12.964 10.1733 12.9812 9.99917 12.9812C9.05361 12.9812 8.25097 12.6513 7.59125 11.9916C6.93153 11.3319 6.60167 10.5292 6.60167 9.58367C6.60167 9.41492 6.61882 9.23839 6.65313 9.05409C6.68729 8.86978 6.73319 8.70124 6.79083 8.54846L4.96083 6.74388Z" fill="#37383C" fill-opacity="0.6"/>
</g>
</svg>
