<svg width="24" height="18" viewBox="0 0 24 18" fill="none" xmlns="http://www.w3.org/2000/svg">
<g clip-path="url(#clip0_3234_30228)">
<path d="M0 15.6857V2.19071C0.0438333 2.17381 0.0432071 2.13185 0.0544786 2.09553C0.376967 1.03978 1.1021 0.5 2.19981 0.5C8.72847 0.5 15.2571 0.5 21.7858 0.500626C21.9417 0.500626 22.1001 0.5 22.2523 0.526926C23.3056 0.714783 23.99 1.5495 23.9906 2.64658C23.9919 6.81701 23.9768 10.9874 24 15.1572C24.0069 16.4497 23.0231 17.3934 21.7626 17.3865C16.8664 17.3596 11.9696 17.3758 7.07282 17.3758C5.40966 17.3758 3.74587 17.379 2.08271 17.3746C1.12777 17.3721 0.353798 16.7822 0.0801524 15.8711C0.0613667 15.8085 0.0732643 15.7271 0.00062619 15.6857H0ZM21.2592 3.47315C21.2473 3.34729 21.1947 3.22894 21.0638 3.16319C20.9185 3.08992 20.7751 3.09932 20.6474 3.20326C20.405 3.39989 20.1652 3.59964 19.9248 3.7994C18.1176 5.301 16.3091 6.80135 14.5057 8.30734C14.3648 8.42507 14.2771 8.43258 14.1388 8.30421C13.8808 8.06626 13.604 7.84897 13.331 7.6273C12.5107 6.96103 11.4637 6.96604 10.6465 7.63857C10.381 7.85711 10.1105 8.06876 9.85686 8.30045C9.72286 8.42256 9.63582 8.43759 9.49054 8.30985C9.07976 7.94979 8.6527 7.60851 8.23253 7.2591C6.64138 5.93721 5.05085 4.6147 3.45908 3.29281C3.20296 3.0799 2.97566 3.06425 2.82287 3.24459C2.66068 3.43621 2.71078 3.64285 2.97253 3.86076C2.97879 3.86577 2.98442 3.87078 2.99069 3.87579C4.95442 5.50702 6.91627 7.1395 8.88376 8.76634C9.03718 8.89283 9.07413 8.95294 8.89378 9.10198C6.93068 10.7213 4.97571 12.3507 3.01824 13.9775C2.95812 14.0276 2.89363 14.0733 2.84165 14.1309C2.70264 14.285 2.69262 14.4534 2.81598 14.6206C2.92431 14.7677 3.13471 14.8009 3.30002 14.702C3.36014 14.6663 3.41336 14.6193 3.46722 14.5749C5.98889 12.4796 8.51118 10.3844 11.0322 8.28856C11.6878 7.74314 12.2971 7.73939 12.9502 8.28229C15.1 10.0682 17.249 11.8547 19.3988 13.6406C19.8133 13.985 20.2253 14.3319 20.6449 14.6694C20.8183 14.8085 21.0419 14.7809 21.1696 14.6287C21.3024 14.4697 21.2855 14.2655 21.122 14.1046C21.0663 14.0501 21.0043 14.0025 20.9442 13.9524C18.9867 12.3262 17.0299 10.6988 15.0693 9.0763C14.9397 8.9686 14.9309 8.91162 15.0668 8.80141C15.6366 8.33928 16.1977 7.8665 16.7625 7.39749C18.1796 6.22025 19.5973 5.04364 21.015 3.86703C21.1371 3.76558 21.2548 3.66351 21.2585 3.47315H21.2592Z" fill="#BDDAFE"/>
<path d="M21.263 3.47272C21.2586 3.66308 21.1415 3.76515 21.0194 3.86659C19.6017 5.0432 18.1847 6.21981 16.767 7.39705C16.2021 7.86607 15.6411 8.33884 15.0712 8.80097C14.9354 8.91118 14.9441 8.96816 15.0737 9.07587C17.0344 10.6983 18.9912 12.3258 20.9487 13.952C21.0088 14.0021 21.0714 14.0497 21.1265 14.1042C21.2899 14.2651 21.3068 14.4692 21.1741 14.6283C21.047 14.7811 20.8228 14.8086 20.6493 14.669C20.2298 14.3315 19.8178 13.9846 19.4032 13.6402C17.2535 11.8543 15.1044 10.0678 12.9547 8.28186C12.3016 7.73895 11.6923 7.74271 11.0367 8.28812C8.51566 10.384 5.99336 12.4792 3.47169 14.5744C3.41784 14.6195 3.36399 14.6659 3.3045 14.7016C3.13919 14.8005 2.92879 14.7667 2.82045 14.6202C2.69709 14.453 2.70711 14.2845 2.84613 14.1305C2.8981 14.0729 2.9626 14.0272 3.02271 13.9771C4.97956 12.3502 6.93515 10.7209 8.89826 9.10154C9.0786 8.95314 9.04103 8.89302 8.88824 8.7659C6.92138 7.13906 4.95889 5.50658 2.99516 3.87536C2.9889 3.87035 2.98326 3.86534 2.977 3.86033C2.71525 3.64241 2.66516 3.43577 2.82734 3.24416C2.98013 3.06319 3.20681 3.07947 3.46355 3.29237C5.0547 4.61426 6.64585 5.93678 8.237 7.25866C8.65717 7.60808 9.08424 7.94935 9.49502 8.30941C9.64029 8.43715 9.72733 8.42213 9.86134 8.30002C10.1149 8.06895 10.3855 7.85668 10.651 7.63813C11.4681 6.96561 12.5158 6.9606 13.3354 7.62686C13.6078 7.84854 13.8852 8.06582 14.1432 8.30378C14.2816 8.43152 14.3687 8.42463 14.5102 8.30691C16.3136 6.80029 18.122 5.30057 19.9292 3.79896C20.1697 3.59921 20.4095 3.39945 20.6519 3.20283C20.7796 3.09951 20.923 3.08949 21.0683 3.16275C21.1998 3.22913 21.2517 3.34685 21.2636 3.47272H21.263Z" fill="white"/>
</g>
<defs>
<clipPath id="clip0_3234_30228">
<rect width="24" height="16.8871" fill="white" transform="translate(0 0.5)"/>
</clipPath>
</defs>
</svg>
