<svg width="20" height="20" viewBox="0 0 20 20" fill="none" xmlns="http://www.w3.org/2000/svg">
<mask id="mask0_2967_30305" style="mask-type:alpha" maskUnits="userSpaceOnUse" x="0" y="0" width="20" height="20">
<rect width="20" height="20" fill="#D9D9D9"/>
</mask>
<g mask="url(#mask0_2967_30305)">
<path d="M10.0055 17.5827C8.95997 17.5827 7.9767 17.3853 7.05573 16.9906C6.13476 16.5959 5.32837 16.0528 4.63656 15.3612C3.94476 14.6697 3.40135 13.8635 3.00635 12.9427C2.61149 12.022 2.41406 11.0382 2.41406 9.99122C2.41406 8.94428 2.61142 7.96338 3.00615 7.04852C3.40087 6.13365 3.94399 5.33032 4.63552 4.63852C5.32705 3.94671 6.13323 3.40331 7.05406 3.00831C7.97476 2.61345 8.95858 2.41602 10.0055 2.41602C11.0525 2.41602 12.0334 2.61345 12.9482 3.00831C13.8631 3.40303 14.6664 3.94622 15.3582 4.63789C16.05 5.32956 16.5934 6.13268 16.9884 7.04727C17.3833 7.96185 17.5807 8.94588 17.5807 9.99935V11.0571C17.5807 11.76 17.3334 12.3566 16.8389 12.8471C16.3443 13.3375 15.7443 13.5827 15.0391 13.5827C14.5614 13.5827 14.13 13.4486 13.7449 13.1804C13.3598 12.9122 13.0513 12.5676 12.8195 12.1466C12.4755 12.5762 12.058 12.923 11.5672 13.1868C11.0762 13.4507 10.553 13.5827 9.9974 13.5827C9.00295 13.5827 8.15712 13.2336 7.4599 12.5354C6.76267 11.8373 6.41406 10.9904 6.41406 9.99456C6.41406 8.99886 6.76316 8.15352 7.46135 7.45852C8.15941 6.76351 9.00635 6.41602 10.0022 6.41602C10.9979 6.41602 11.8432 6.76463 12.5382 7.46185C13.2332 8.15907 13.5807 9.0049 13.5807 9.99935V11.0571C13.5807 11.4546 13.725 11.7943 14.0134 12.0764C14.3019 12.3584 14.6438 12.4993 15.0391 12.4993C15.4343 12.4993 15.7762 12.3584 16.0647 12.0764C16.3532 11.7943 16.4974 11.4546 16.4974 11.0571V9.99935C16.4974 8.19379 15.8655 6.65907 14.6016 5.39518C13.3377 4.13129 11.803 3.49935 9.9974 3.49935C8.19184 3.49935 6.65712 4.13129 5.39323 5.39518C4.12934 6.65907 3.4974 8.19379 3.4974 9.99935C3.4974 11.8049 4.12934 13.3396 5.39323 14.6035C6.65712 15.8674 8.19184 16.4993 9.9974 16.4993H13.9974V17.5827H10.0055ZM9.9974 12.4993C10.6918 12.4993 11.2821 12.2563 11.7682 11.7702C12.2543 11.2841 12.4974 10.6938 12.4974 9.99935C12.4974 9.3049 12.2543 8.71463 11.7682 8.22852C11.2821 7.7424 10.6918 7.49935 9.9974 7.49935C9.30295 7.49935 8.71267 7.7424 8.22656 8.22852C7.74045 8.71463 7.4974 9.3049 7.4974 9.99935C7.4974 10.6938 7.74045 11.2841 8.22656 11.7702C8.71267 12.2563 9.30295 12.4993 9.9974 12.4993Z" fill="#37383C" fill-opacity="0.6"/>
</g>
</svg>
