<svg width="16" height="16" viewBox="0 0 16 16" fill="none" xmlns="http://www.w3.org/2000/svg">
<path d="M7.9974 10.3071L11.0759 7.22852L10.3099 6.46247L7.9974 8.77497L5.6849 6.46247L4.91885 7.22852L7.9974 10.3071ZM7.99885 15.5827C6.95941 15.5827 5.97878 15.3853 5.05698 14.9906C4.13517 14.5959 3.32837 14.0528 2.63656 13.3612C1.94476 12.6697 1.40135 11.8632 1.00635 10.9418C0.611493 10.0205 0.414062 9.04011 0.414062 8.00081C0.414062 6.94747 0.611424 5.96338 1.00615 5.04852C1.40087 4.13365 1.94399 3.33032 2.63552 2.63852C3.32705 1.94671 4.13351 1.40331 5.0549 1.00831C5.97628 0.613446 6.95663 0.416016 7.99594 0.416016C9.04927 0.416016 10.0334 0.613376 10.9482 1.0081C11.8631 1.40282 12.6664 1.94595 13.3582 2.63747C14.05 3.329 14.5934 4.13199 14.9884 5.04643C15.3833 5.96088 15.5807 6.9447 15.5807 7.99789C15.5807 9.03733 15.3834 10.018 14.9886 10.9398C14.5939 11.8616 14.0508 12.6684 13.3593 13.3602C12.6677 14.052 11.8648 14.5954 10.9503 14.9904C10.0359 15.3853 9.05205 15.5827 7.99885 15.5827ZM7.9974 14.4993C9.80295 14.4993 11.3377 13.8674 12.6016 12.6035C13.8655 11.3396 14.4974 9.8049 14.4974 7.99935C14.4974 6.19379 13.8655 4.65907 12.6016 3.39518C11.3377 2.13129 9.80295 1.49935 7.9974 1.49935C6.19184 1.49935 4.65712 2.13129 3.39323 3.39518C2.12934 4.65907 1.4974 6.19379 1.4974 7.99935C1.4974 9.8049 2.12934 11.3396 3.39323 12.6035C4.65712 13.8674 6.19184 14.4993 7.9974 14.4993Z" fill="#37383C" fill-opacity="0.28"/>
</svg>
