<svg width="40" height="40" viewBox="0 0 40 40" fill="none" xmlns="http://www.w3.org/2000/svg">
<g clip-path="url(#clip0_2967_31501)">
<path d="M5.42243 0H22.143C22.5878 0.155569 22.9219 0.45731 23.2507 0.777845C25.1702 2.64989 27.1015 4.51045 29.0136 6.38877C29.2552 6.62577 29.3711 6.60385 29.5957 6.37937C30.598 5.37496 31.595 4.36324 32.642 3.40477C34.2786 1.9065 36.8546 1.9159 38.5167 3.37971C40.4575 5.08888 40.5001 7.91 38.5965 9.79458C36.7195 11.6531 34.8319 13.5011 32.9389 15.3439C32.7314 15.5454 32.6569 15.7459 32.6569 16.0267C32.6644 22.002 32.6442 27.9773 32.6772 33.9516C32.6835 35.1878 31.8727 35.8498 30.7874 35.7798C30.0745 35.7339 29.3552 35.7798 28.6391 35.7662C28.4124 35.7621 28.3454 35.832 28.3486 36.0534C28.3603 36.8343 28.3571 37.6153 28.3518 38.3963C28.3454 39.3568 27.708 39.9969 26.7376 39.9969C18.3667 40 9.99468 40 1.62375 39.9969C0.643754 39.9969 0 39.3683 0 38.4088C0 27.5534 0 16.697 0.00106406 5.84062C0.00106406 4.85605 0.639498 4.23586 1.64397 4.22959C2.38668 4.22542 3.13045 4.21185 3.8721 4.23586C4.20515 4.2463 4.33284 4.18261 4.31581 3.81927C4.28176 3.06544 4.30091 2.30952 4.3073 1.55465C4.31262 0.910444 4.60949 0.43956 5.19791 0.144084C5.27559 0.104409 5.38412 0.103365 5.42137 0.00104409L5.42243 0ZM13.8625 21.716C11.8334 21.716 9.84465 21.716 7.85593 21.716C7.72398 21.716 7.58566 21.7285 7.4601 21.6972C7.21536 21.6356 7.07384 21.4716 7.09193 21.2117C7.10896 20.9736 7.25261 20.8295 7.4867 20.7888C7.60268 20.7679 7.72505 20.7784 7.84422 20.7784C10.0873 20.7784 12.3292 20.7752 14.5722 20.7825C14.801 20.7825 14.967 20.7241 15.1309 20.5612C16.2215 19.4774 17.3239 18.4041 18.4199 17.3256C18.488 17.2577 18.6008 17.2107 18.5859 17.0458H18.1624C14.7521 17.0458 11.3418 17.0458 7.93147 17.0458C7.79847 17.0458 7.66546 17.0499 7.53352 17.0385C7.27389 17.0176 7.11534 16.8756 7.09406 16.6198C7.07065 16.342 7.22707 16.176 7.49308 16.1217C7.62077 16.0956 7.75697 16.1071 7.88998 16.1071C11.6855 16.1071 15.4799 16.1061 19.2754 16.1092C19.5063 16.1092 19.6989 16.0873 19.8808 15.9046C20.9683 14.8177 22.0717 13.7454 23.1666 12.6658C23.2337 12.6 23.356 12.5551 23.305 12.387H22.8421C17.8793 12.387 12.9166 12.387 7.95382 12.387C7.80804 12.387 7.66014 12.3944 7.51649 12.3745C7.24409 12.3369 7.08342 12.1793 7.09087 11.9005C7.09832 11.6426 7.25261 11.4933 7.51011 11.462C7.65376 11.4442 7.80166 11.4484 7.94744 11.4484C13.2815 11.4484 18.6167 11.439 23.9508 11.4609C24.5542 11.463 24.7585 11.0684 25.1607 10.6967C24.4914 10.6967 23.9349 10.7019 23.3784 10.6956C22.4473 10.6862 21.8014 10.0744 21.7642 9.1629C21.7504 8.82462 21.7355 8.4832 21.7674 8.14805C21.8004 7.80246 21.6865 7.71789 21.3333 7.71893C16.861 7.73146 12.3899 7.72729 7.91764 7.72729C7.78463 7.72729 7.6495 7.73981 7.52075 7.71893C7.25473 7.67613 7.08236 7.52578 7.09087 7.24492C7.09938 6.96928 7.26218 6.81789 7.5399 6.79387C7.65801 6.78343 7.77825 6.7897 7.89849 6.7897C12.3835 6.7897 16.8685 6.78552 21.3535 6.797C21.6876 6.797 21.7706 6.70721 21.7685 6.38563C21.7525 4.69317 21.7514 3.00071 21.7685 1.30824C21.7717 0.985618 21.6631 0.930281 21.3652 0.931325C16.2694 0.939678 11.1737 0.936546 6.07895 0.93759C5.43945 0.93759 5.26176 1.11613 5.26176 1.75511C5.26176 12.5102 5.26176 23.2643 5.26176 34.0195C5.26176 34.6532 5.44265 34.8318 6.08853 34.8318C14.3552 34.8318 22.6229 34.8318 30.8895 34.8318C31.5205 34.8318 31.7046 34.6564 31.7057 34.0529C31.7057 28.3626 31.7057 22.6734 31.7036 16.9831C31.7036 16.8766 31.7568 16.7524 31.711 16.7127C30.3224 18.0742 28.9413 19.4273 27.5633 20.7773C28.1028 20.7773 28.6816 20.7752 29.2615 20.7773C29.684 20.7794 29.9032 20.9465 29.8798 21.2607C29.8521 21.6324 29.5935 21.717 29.2658 21.716C28.4433 21.7118 27.6208 21.7212 26.7983 21.7107C26.5705 21.7076 26.4035 21.7619 26.2386 21.9258C25.1575 23.0012 24.0647 24.0641 22.9794 25.1353C22.9049 25.2084 22.7751 25.2596 22.8027 25.4413H23.2326C25.183 25.4413 27.1334 25.4413 29.0849 25.4413C29.2307 25.4413 29.3786 25.4381 29.5212 25.4632C29.7436 25.5018 29.8659 25.649 29.8819 25.8693C29.8989 26.1053 29.7957 26.2807 29.5574 26.3413C29.419 26.3768 29.269 26.3778 29.1243 26.3778C26.7759 26.3799 24.4265 26.382 22.0781 26.3747C21.8217 26.3747 21.6333 26.4394 21.4503 26.6242C20.7757 27.307 20.0766 27.9648 19.4031 28.6476C19.1615 28.892 18.8913 29.0413 18.5603 29.1248C17.5473 29.3806 16.5376 29.6489 15.5267 29.9141C15.4022 29.9465 15.2788 29.9841 15.1543 30.0196C15.1607 30.0446 15.1671 30.0697 15.1745 30.0948H15.6086C20.0936 30.0948 24.5786 30.0948 29.0636 30.0948C29.2094 30.0948 29.3584 30.0864 29.4999 30.1146C29.751 30.1647 29.8957 30.3255 29.884 30.5844C29.8723 30.8413 29.7276 30.9937 29.4658 31.0229C29.335 31.0376 29.2009 31.0323 29.0679 31.0323C22.0089 31.0323 14.9489 31.0323 7.88998 31.0323C7.7442 31.0323 7.59523 31.0397 7.45371 31.0125C7.23558 30.9697 7.11002 30.8246 7.093 30.6043C7.07597 30.385 7.17387 30.218 7.38561 30.147C7.50692 30.1062 7.64524 30.0979 7.77506 30.0968C8.66461 30.0927 9.5531 30.0843 10.4426 30.101C10.7087 30.1062 10.8406 30.0457 10.9098 29.7721C11.1651 28.7635 11.4312 27.756 11.728 26.7589C11.8291 26.4196 11.7344 26.3695 11.4173 26.3736C10.2501 26.3872 9.08172 26.3788 7.91445 26.3788C7.82188 26.3788 7.72824 26.3809 7.63567 26.3778C7.31539 26.3653 7.08555 26.2348 7.09513 25.8902C7.10364 25.5666 7.32815 25.4433 7.63141 25.4423C8.86572 25.4402 10.1 25.4402 11.3333 25.4402C12.0813 25.4402 12.0973 25.4444 12.2728 24.7167C12.5356 23.6235 12.7825 22.5293 13.8157 21.835C13.8317 21.8235 13.8338 21.7911 13.8625 21.7139V21.716ZM0.95765 22.1117C0.95765 27.4751 0.95765 32.8376 0.95765 38.201C0.95765 38.911 1.11407 39.0614 1.84933 39.0614C5.28517 39.0614 8.721 39.0614 12.1568 39.0614C16.9728 39.0614 21.7876 39.0614 26.6035 39.0614C27.1994 39.0614 27.3941 38.8713 27.3963 38.2961C27.3994 37.6059 27.3707 36.9147 27.4069 36.2267C27.4282 35.832 27.2867 35.7652 26.9185 35.7662C19.9936 35.7767 13.0687 35.7746 6.14386 35.7735C4.88295 35.7735 4.30624 35.2024 4.30624 33.9547C4.30624 26.0009 4.30624 18.0481 4.30624 10.0942C4.30624 8.59701 4.2924 7.09979 4.31581 5.60361C4.3222 5.22983 4.19664 5.14839 3.84656 5.16092C3.18472 5.18598 2.52075 5.16718 1.85678 5.16823C1.10449 5.16823 0.956586 5.31545 0.956586 6.06197C0.956586 11.4119 0.956586 16.7618 0.956586 22.1117H0.95765ZM15.997 25.1145C16.1524 25.0748 16.2226 24.9558 16.313 24.8681C18.837 22.3946 21.3599 19.9191 23.8827 17.4436C27.0526 14.3332 30.2203 11.2208 33.3975 8.11777C33.622 7.89852 33.6667 7.77636 33.4114 7.54457C32.8751 7.06011 32.3601 6.55164 31.8653 6.02647C31.6408 5.78842 31.5237 5.79364 31.2896 6.02438C28.0155 9.2527 24.7287 12.4695 21.4461 15.6895C19.0168 18.0721 16.5886 20.4568 14.153 22.8331C13.9689 23.0127 13.9147 23.114 14.1339 23.3165C14.7031 23.8428 15.2458 24.3972 15.8002 24.9391C15.864 25.0017 15.9353 25.0591 15.9991 25.1155L15.997 25.1145ZM18.8232 27.8688C18.9104 27.7873 18.9881 27.7184 19.0626 27.6464C19.8415 26.8831 20.6193 26.1189 21.3982 25.3546C26.3301 20.5132 31.262 15.6697 36.2003 10.8345C36.4141 10.6246 36.445 10.5056 36.2077 10.2895C35.6746 9.80189 35.1532 9.29864 34.6627 8.76928C34.4201 8.50722 34.2967 8.54063 34.0572 8.77555C29.8723 12.8966 25.6778 17.0082 21.4854 21.1208C19.9659 22.6118 18.4465 24.1027 16.9281 25.5937C16.8142 25.7054 16.644 25.7869 16.8568 25.9873C17.4601 26.5543 18.0432 27.1421 18.6348 27.7205C18.6891 27.7738 18.7561 27.8155 18.8232 27.8677V27.8688ZM22.7623 1.6413C22.7378 1.76242 22.725 1.80001 22.725 1.83655C22.724 4.24526 22.7208 6.65396 22.7261 9.06163C22.7272 9.54504 22.9474 9.75177 23.4369 9.75595C24.2466 9.76221 25.0553 9.75177 25.8651 9.76221C26.0726 9.76534 26.2109 9.68808 26.3492 9.55026C27.0111 8.89249 27.6718 8.23367 28.3518 7.59364C28.5699 7.389 28.5891 7.27311 28.3582 7.05176C26.6035 5.36765 24.8638 3.66892 23.1187 1.97541C23.0166 1.87622 22.9123 1.78121 22.7634 1.64235L22.7623 1.6413ZM39.0285 7.0267C39.0253 4.39978 36.9015 2.79815 34.6989 3.34734C33.7731 3.57809 33.1507 4.20662 32.508 4.82994C32.2973 5.03354 32.293 5.14422 32.508 5.35094C33.8114 6.60907 35.0968 7.8839 36.3939 9.14829C36.6365 9.38529 36.8525 9.80397 37.1419 9.79875C37.4537 9.79353 37.6665 9.36963 37.9208 9.12741C38.6391 8.44457 39.0253 7.61557 39.0285 7.02566V7.0267ZM17.7729 28.349C16.3226 26.928 14.8861 25.5206 13.4561 24.1184C13.4646 24.1059 13.4348 24.1362 13.4252 24.1716C12.9283 25.9894 12.4367 27.8082 11.9323 29.6239C11.8536 29.9079 12.0026 29.8703 12.1696 29.8264C14.0477 29.3326 15.9247 28.8366 17.774 28.349H17.7729Z" fill="#1F6FED"/>
<path d="M13.8664 21.7161C13.8377 21.7934 13.8355 21.8258 13.8196 21.8372C12.7874 22.5316 12.5406 23.6258 12.2767 24.7189C12.1011 25.4456 12.0852 25.4425 11.3371 25.4425C10.1028 25.4425 8.86852 25.4425 7.63528 25.4446C7.33096 25.4446 7.10751 25.5688 7.09899 25.8925C7.08942 26.237 7.31925 26.3675 7.63953 26.3801C7.73211 26.3832 7.82574 26.3811 7.91832 26.3811C9.08559 26.3811 10.2539 26.3895 11.4212 26.3759C11.7383 26.3717 11.833 26.4229 11.7319 26.7612C11.435 27.7593 11.169 28.7658 10.9136 29.7744C10.8445 30.0479 10.7125 30.1085 10.4465 30.1033C9.55803 30.0876 8.66848 30.0949 7.77893 30.0991C7.64805 30.0991 7.51078 30.1085 7.38948 30.1492C7.17667 30.2202 7.07984 30.3873 7.09687 30.6065C7.11389 30.8268 7.23945 30.973 7.45758 31.0148C7.5991 31.0419 7.74807 31.0346 7.89384 31.0346C14.9528 31.0346 22.0128 31.0346 29.0718 31.0346C29.2048 31.0346 29.3378 31.0398 29.4697 31.0252C29.7315 30.996 29.8762 30.8435 29.8879 30.5867C29.8996 30.3267 29.7549 30.1659 29.5038 30.1169C29.3633 30.0887 29.2133 30.097 29.0675 30.097C24.5825 30.097 20.0975 30.097 15.6125 30.097H15.1784C15.172 30.072 15.1656 30.0469 15.1582 30.0218C15.2826 29.9863 15.4061 29.9488 15.5306 29.9164C16.5414 29.6522 17.5512 29.3829 18.5642 29.1271C18.8951 29.0435 19.1665 28.8942 19.4069 28.6499C20.0794 27.966 20.7796 27.3083 21.4542 26.6265C21.6372 26.4417 21.8245 26.3759 22.082 26.3769C24.4303 26.3842 26.7798 26.3822 29.1281 26.3801C29.2729 26.3801 29.4229 26.378 29.5612 26.3435C29.7996 26.283 29.9028 26.1076 29.8858 25.8716C29.8698 25.6513 29.7474 25.5041 29.525 25.4655C29.3825 25.4404 29.2346 25.4435 29.0888 25.4435C27.1384 25.4425 25.1879 25.4435 23.2365 25.4435H22.8066C22.7779 25.2629 22.9087 25.2117 22.9832 25.1376C24.0686 24.0664 25.1613 23.0035 26.2424 21.9281C26.4074 21.7642 26.5744 21.7099 26.8021 21.713C27.6246 21.7245 28.4472 21.7151 29.2697 21.7182C29.5985 21.7203 29.857 21.6347 29.8836 21.263C29.907 20.9487 29.6878 20.7817 29.2654 20.7796C28.6866 20.7765 28.1067 20.7796 27.5672 20.7796C28.9451 19.4296 30.3252 18.0765 31.7149 16.715C31.7606 16.7546 31.7074 16.8789 31.7074 16.9854C31.7106 22.6757 31.7106 28.3649 31.7095 34.0552C31.7095 34.6586 31.5244 34.834 30.8934 34.834C22.6268 34.834 14.359 34.834 6.0924 34.834C5.44758 34.834 5.26562 34.6555 5.26562 34.0217C5.26562 23.2666 5.26562 12.5125 5.26562 1.75738C5.26562 1.11735 5.44332 0.939858 6.08282 0.939858C11.1786 0.939858 16.2743 0.941946 21.3691 0.933594C21.667 0.933594 21.7755 0.98893 21.7723 1.31051C21.7542 3.00297 21.7553 4.69544 21.7723 6.3879C21.7755 6.70844 21.6925 6.80032 21.3573 6.79927C16.8723 6.78779 12.3874 6.79196 7.90236 6.79196C7.78318 6.79196 7.66294 6.7857 7.54377 6.79614C7.26605 6.82015 7.10325 6.97155 7.09474 7.24719C7.08622 7.52805 7.2586 7.67735 7.52462 7.7212C7.65443 7.74208 7.78957 7.72955 7.92151 7.72955C12.3937 7.72955 16.8649 7.73373 21.3371 7.7212C21.6893 7.7212 21.8043 7.80473 21.7713 8.15032C21.7393 8.48547 21.7542 8.82689 21.7681 9.16517C21.8053 10.0756 22.4501 10.6875 23.3822 10.6979C23.9387 10.7042 24.4952 10.6989 25.1645 10.6989C24.7623 11.0706 24.558 11.4653 23.9547 11.4632C18.6206 11.4413 13.2865 11.4507 7.9513 11.4507C7.80553 11.4507 7.65869 11.4465 7.51398 11.4643C7.25647 11.4956 7.10219 11.6449 7.09474 11.9028C7.08622 12.1815 7.2469 12.3392 7.52036 12.3768C7.66401 12.3966 7.81191 12.3893 7.95769 12.3893C12.9204 12.3893 17.8832 12.3893 22.846 12.3893H23.3088C23.3599 12.5574 23.2375 12.6023 23.1705 12.6681C22.0756 13.7477 20.9722 14.8199 19.8847 15.9068C19.7017 16.0896 19.5101 16.1115 19.2792 16.1115C15.4838 16.1083 11.6893 16.1094 7.89384 16.1094C7.7619 16.1094 7.62464 16.0969 7.49695 16.124C7.23094 16.1783 7.07452 16.3443 7.09793 16.622C7.11921 16.8778 7.27776 17.0198 7.53739 17.0407C7.66933 17.0512 7.80233 17.048 7.93534 17.048C11.3456 17.048 14.7559 17.048 18.1662 17.048H18.5897C18.6036 17.213 18.4918 17.26 18.4237 17.3278C17.3278 18.4074 16.2265 19.4797 15.1347 20.5635C14.9709 20.7263 14.806 20.7859 14.5761 20.7848C12.3331 20.7775 10.0911 20.7806 7.84809 20.7806C7.72891 20.7806 7.60655 20.7712 7.49057 20.7911C7.25541 20.8328 7.11283 20.9759 7.0958 21.2139C7.07771 21.4739 7.21923 21.6368 7.46396 21.6994C7.58952 21.7308 7.72785 21.7182 7.85979 21.7182C9.84852 21.7182 11.8372 21.7182 13.8664 21.7182V21.7161Z" fill="white"/>
<path d="M0.960938 22.1123C0.960938 16.7624 0.960938 11.4125 0.960938 6.06259C0.960938 5.31711 1.10884 5.1699 1.86113 5.16885C2.52404 5.16885 3.18801 5.1866 3.85091 5.16155C4.20099 5.14797 4.32548 5.22941 4.32016 5.60424C4.29675 7.10041 4.31059 8.59763 4.31059 10.0949C4.31059 18.0487 4.31059 26.0015 4.31059 33.9554C4.31059 35.203 4.8873 35.7742 6.14821 35.7742C13.0731 35.7742 19.998 35.7773 26.9228 35.7669C27.2921 35.7669 27.4325 35.8326 27.4112 36.2273C27.3751 36.9154 27.4027 37.6065 27.4006 38.2967C27.3985 38.872 27.2027 39.062 26.6079 39.062C21.792 39.063 16.9771 39.062 12.1612 39.062C8.72535 39.062 5.28952 39.062 1.85368 39.062C1.11842 39.062 0.962002 38.9116 0.962002 38.2017C0.962002 32.8382 0.962002 27.4758 0.962002 22.1123H0.960938Z" fill="#BDDAFE"/>
<path d="M16.0004 25.1139C15.9365 25.0575 15.8652 25.0012 15.8014 24.9375C15.247 24.3956 14.7054 23.8412 14.1351 23.315C13.9159 23.1124 13.9702 23.0111 14.1542 22.8316C16.5899 20.4542 19.018 18.0705 21.4473 15.6879C24.731 12.468 28.0168 9.25112 31.2909 6.02281C31.525 5.79206 31.642 5.7858 31.8665 6.02489C32.3613 6.55007 32.8774 7.05854 33.4126 7.543C33.668 7.77478 33.6243 7.8959 33.3988 8.1162C30.2215 11.2192 27.0538 14.3316 23.884 17.442C21.3611 19.9175 18.8393 22.393 16.3143 24.8665C16.2238 24.9552 16.1536 25.0732 15.9982 25.1129L16.0004 25.1139Z" fill="white"/>
<path d="M18.8257 27.8695C18.7587 27.8172 18.6916 27.7755 18.6374 27.7222C18.0447 27.1438 17.4627 26.556 16.8593 25.9891C16.6465 25.7886 16.8168 25.7071 16.9306 25.5954C18.449 24.1045 19.9685 22.6135 21.488 21.1226C25.6804 17.0089 29.8749 12.8983 34.0598 8.77728C34.2982 8.54236 34.4216 8.51 34.6653 8.77102C35.1558 9.29933 35.6772 9.80258 36.2103 10.2912C36.4465 10.5073 36.4167 10.6264 36.2028 10.8362C31.2645 15.6724 26.3337 20.5149 21.4007 25.3563C20.6229 26.1206 19.844 26.8838 19.0651 27.6481C18.9906 27.7212 18.913 27.7891 18.8257 27.8705V27.8695Z" fill="white"/>
<path d="M22.7594 1.64167C22.9084 1.78053 23.0127 1.87659 23.1148 1.97473C24.8599 3.66824 26.5996 5.36801 28.3542 7.05108C28.5851 7.27243 28.566 7.38832 28.3479 7.59296C27.669 8.23299 27.0071 8.89181 26.3453 9.54958C26.207 9.6874 26.0686 9.76362 25.8612 9.76153C25.0525 9.75109 24.2427 9.76153 23.433 9.75527C22.9435 9.75109 22.7233 9.54436 22.7222 9.06095C22.7158 6.65224 22.7201 4.24353 22.7211 1.83587C22.7211 1.79933 22.735 1.76278 22.7584 1.64062L22.7594 1.64167Z" fill="#BDDAFE"/>
<path d="M39.0313 7.02624C39.0271 7.61615 38.6419 8.44515 37.9236 9.12799C37.6693 9.37021 37.4565 9.79411 37.1447 9.79933C36.8564 9.80455 36.6393 9.38588 36.3967 9.14887C35.1007 7.88448 33.8142 6.6086 32.5108 5.35152C32.2958 5.1448 32.3012 5.03412 32.5108 4.83053C33.1535 4.20721 33.7759 3.57867 34.7017 3.34792C36.9043 2.79873 39.0292 4.39932 39.0313 7.02728V7.02624Z" fill="#BDDAFE"/>
<path d="M17.7696 28.3491C15.9202 28.8367 14.0433 29.3337 12.1652 29.8265C11.9981 29.8703 11.8492 29.9079 11.9279 29.6239C12.4323 27.8083 12.9239 25.9895 13.4208 24.1717C13.4304 24.1362 13.4601 24.1049 13.4516 24.1185C14.8817 25.5196 16.3182 26.9281 17.7685 28.3491H17.7696Z" fill="#BDDAFE"/>
</g>
<defs>
<clipPath id="clip0_2967_31501">
<rect width="40" height="40" fill="white"/>
</clipPath>
</defs>
</svg>
