<svg width="790" height="618" viewBox="0 0 790 618" fill="none" xmlns="http://www.w3.org/2000/svg">
<rect width="790" height="618" rx="12" fill="#1F6FED"/>
<path d="M70.7624 82V75.6354H72.0138V82H70.7624ZM70.605 73.9157C70.605 73.5055 70.9613 73.174 71.3964 73.174C71.8232 73.174 72.1796 73.5055 72.1796 73.9157C72.1796 74.326 71.8232 74.6575 71.3964 74.6575C70.9613 74.6575 70.605 74.326 70.605 73.9157ZM75.0936 78.2251V82H73.8422V75.6354H75.0438V76.6754H75.1226C75.4168 75.9959 76.0425 75.5525 76.9996 75.5525C78.3049 75.5525 79.1668 76.3812 79.1668 77.9517V82H77.9154V78.105C77.9154 77.1851 77.414 76.634 76.5728 76.634C75.711 76.634 75.0936 77.2099 75.0936 78.2251ZM83.9635 75.6354V76.634H82.6665V80.1271C82.6665 80.8439 83.0229 80.9724 83.4289 80.9765C83.6071 80.9765 83.8847 80.9599 84.0505 80.9517V82.029C83.8847 82.058 83.6154 82.0829 83.2756 82.0829C82.2936 82.0829 81.411 81.5442 81.4151 80.384V76.634H80.4828V75.6354H81.4151V74.1105H82.6665V75.6354H83.9635ZM88.163 82.1285C86.2859 82.1285 85.1298 80.8356 85.1298 78.8591C85.1298 76.9033 86.3025 75.5525 88.0718 75.5525C89.5221 75.5525 90.9019 76.4517 90.9019 78.7514V79.1948H86.3729C86.4061 80.4088 87.1188 81.1008 88.1712 81.1008C88.8798 81.1008 89.3398 80.7942 89.5511 80.4006H90.819C90.5373 81.4406 89.5594 82.1285 88.163 82.1285ZM86.3771 78.2583H89.6712C89.6671 77.2928 89.0414 76.5801 88.0884 76.5801C87.0856 76.5801 86.4351 77.3633 86.3771 78.2583ZM92.4447 82V75.6354H93.6546V76.6506H93.7209C93.953 75.9627 94.5911 75.5401 95.3328 75.5401C95.4903 75.5401 95.7389 75.5525 95.8673 75.5691V76.7624C95.7637 76.7376 95.4695 76.6878 95.2168 76.6878C94.3425 76.6878 93.6961 77.2887 93.6961 78.1215V82H92.4447ZM98.3578 78.2251V82H97.1065V75.6354H98.3081V76.6754H98.3868C98.681 75.9959 99.3067 75.5525 100.264 75.5525C101.569 75.5525 102.431 76.3812 102.431 77.9517V82H101.18V78.105C101.18 77.1851 100.678 76.634 99.8371 76.634C98.9752 76.634 98.3578 77.2099 98.3578 78.2251ZM107 82.1285C105.123 82.1285 103.967 80.8356 103.967 78.8591C103.967 76.9033 105.139 75.5525 106.909 75.5525C108.359 75.5525 109.739 76.4517 109.739 78.7514V79.1948H105.21C105.243 80.4088 105.956 81.1008 107.008 81.1008C107.717 81.1008 108.177 80.7942 108.388 80.4006H109.656C109.374 81.4406 108.396 82.1285 107 82.1285ZM105.214 78.2583H108.508C108.504 77.2928 107.878 76.5801 106.925 76.5801C105.923 76.5801 105.272 77.3633 105.214 78.2583ZM114.257 75.6354V76.634H112.96V80.1271C112.96 80.8439 113.316 80.9724 113.722 80.9765C113.9 80.9765 114.178 80.9599 114.344 80.9517V82.029C114.178 82.058 113.909 82.0829 113.569 82.0829C112.587 82.0829 111.704 81.5442 111.708 80.384V76.634H110.776V75.6354H111.708V74.1105H112.96V75.6354H114.257ZM119.111 82V73.5138H120.362V76.6671H120.429C120.661 76.2693 121.079 75.5525 122.26 75.5525C123.797 75.5525 124.937 76.7624 124.937 78.8301C124.937 80.8895 123.814 82.1243 122.272 82.1243C121.112 82.1243 120.661 81.4199 120.429 81.0097H120.333V82H119.111ZM120.333 78.8177C120.333 80.1478 120.93 81.0594 121.991 81.0594C123.093 81.0594 123.665 80.0939 123.665 78.8177C123.665 77.558 123.105 76.6174 121.991 76.6174C120.917 76.6174 120.333 77.4917 120.333 78.8177ZM129.175 82.1285C127.377 82.1285 126.2 80.8149 126.2 78.8467C126.2 76.866 127.377 75.5525 129.175 75.5525C130.969 75.5525 132.142 76.866 132.142 78.8467C132.142 80.8149 130.969 82.1285 129.175 82.1285ZM127.459 78.8425C127.459 80.0608 128.015 81.0843 129.179 81.0843C130.331 81.0843 130.882 80.0608 130.882 78.8425C130.882 77.6285 130.331 76.5925 129.179 76.5925C128.015 76.5925 127.459 77.6285 127.459 78.8425ZM136.368 82.1285C134.57 82.1285 133.393 80.8149 133.393 78.8467C133.393 76.866 134.57 75.5525 136.368 75.5525C138.162 75.5525 139.335 76.866 139.335 78.8467C139.335 80.8149 138.162 82.1285 136.368 82.1285ZM134.652 78.8425C134.652 80.0608 135.208 81.0843 136.372 81.0843C137.524 81.0843 138.075 80.0608 138.075 78.8425C138.075 77.6285 137.524 76.5925 136.372 76.5925C135.208 76.5925 134.652 77.6285 134.652 78.8425ZM140.872 82V73.5138H142.123V78.3246H142.231L144.754 75.6354H146.25L143.681 78.366L146.424 82H144.895L142.736 79.1326L142.123 79.7459V82H140.872ZM151.109 77.3715C150.993 76.866 150.595 76.5387 149.903 76.5387C149.191 76.5387 148.677 76.9116 148.681 77.3923C148.677 77.7693 148.979 78.0387 149.676 78.2003L150.695 78.4323C151.859 78.7017 152.431 79.261 152.431 80.1561C152.431 81.308 151.457 82.1285 149.829 82.1285C148.304 82.1285 147.401 81.4489 147.243 80.2597H148.524C148.631 80.8398 149.066 81.1257 149.816 81.1257C150.629 81.1257 151.151 80.7901 151.151 80.2555C151.151 79.8453 150.848 79.5801 150.169 79.4268L149.174 79.2072C148.03 78.9586 147.43 78.3453 147.43 77.4627C147.43 76.3315 148.416 75.5525 149.895 75.5525C151.308 75.5525 152.195 76.2776 152.311 77.3715H151.109ZM156.944 75.6354V76.634H155.647V80.1271C155.647 80.8439 156.003 80.9724 156.409 80.9765C156.587 80.9765 156.865 80.9599 157.031 80.9517V82.029C156.865 82.058 156.596 82.0829 156.256 82.0829C155.274 82.0829 154.391 81.5442 154.395 80.384V76.634H153.463V75.6354H154.395V74.1105H155.647V75.6354H156.944ZM161.085 82.1285C159.287 82.1285 158.11 80.8149 158.11 78.8467C158.11 76.866 159.287 75.5525 161.085 75.5525C162.88 75.5525 164.052 76.866 164.052 78.8467C164.052 80.8149 162.88 82.1285 161.085 82.1285ZM159.37 78.8425C159.37 80.0608 159.925 81.0843 161.089 81.0843C162.241 81.0843 162.792 80.0608 162.792 78.8425C162.792 77.6285 162.241 76.5925 161.089 76.5925C159.925 76.5925 159.37 77.6285 159.37 78.8425ZM165.589 82V75.6354H166.799V76.6506H166.865C167.097 75.9627 167.736 75.5401 168.477 75.5401C168.635 75.5401 168.883 75.5525 169.012 75.5691V76.7624C168.908 76.7376 168.614 76.6878 168.361 76.6878C167.487 76.6878 166.84 77.2887 166.84 78.1215V82H165.589ZM172.799 82.1285C170.922 82.1285 169.766 80.8356 169.766 78.8591C169.766 76.9033 170.938 75.5525 172.708 75.5525C174.158 75.5525 175.538 76.4517 175.538 78.7514V79.1948H171.009C171.042 80.4088 171.755 81.1008 172.807 81.1008C173.516 81.1008 173.976 80.7942 174.187 80.4006H175.455C175.173 81.4406 174.195 82.1285 172.799 82.1285ZM171.013 78.2583H174.307C174.303 77.2928 173.677 76.5801 172.724 76.5801C171.722 76.5801 171.071 77.3633 171.013 78.2583ZM177.901 82.0787C177.441 82.0787 177.06 81.7058 177.068 81.25C177.06 80.7942 177.441 80.4213 177.901 80.4213C178.349 80.4213 178.73 80.7942 178.73 81.25C178.73 81.7058 178.349 82.0787 177.901 82.0787Z" fill="white"/>
<path d="M85.8543 93.4972V101.079H88.7334V103.061H85.8543V112.869H83.4613V93.4972H85.8543ZM70.547 107.566C75.2721 105.196 77.8246 101.899 78.2956 97.4779H71.5801V95.5104H80.7265C80.7113 101.215 78.3488 106.229 71.8916 109.405L70.547 107.566ZM104.958 99.3923V101.056H99.2526V102.378H106.895V104.148H89.2706V102.378H96.8521V101.056H91.4584V93.8315H104.813V95.4952H93.859V96.6195H104.335V98.2224H93.859V99.3923H104.958ZM91.3141 106.898V105.204H104.722V109.709H93.6767V111.015H105.254V112.74H91.3369V108.083H102.367V106.898H91.3141ZM123.985 93.5124V105.386H121.592V93.5124H123.985ZM108.807 96.5359V94.6139H117.764V100.357H111.185V102.537C114.505 102.515 116.89 102.408 119.663 101.99L119.967 103.912C116.898 104.398 114.261 104.497 110.501 104.497H108.845V98.5262H115.401V96.5359H108.807ZM110.744 108.25V106.305H123.985V112.899H121.592V108.25H110.744ZM147.366 93.5124V107.544H144.973V93.5124H147.366ZM131.55 99.6354C131.542 96.8094 133.829 94.7887 136.784 94.7887C139.739 94.7887 142.01 96.8094 142.01 99.6354C142.01 102.507 139.739 104.512 136.784 104.505C133.829 104.512 131.542 102.507 131.55 99.6354ZM133.882 99.6354C133.874 101.36 135.12 102.423 136.784 102.423C138.402 102.423 139.663 101.36 139.663 99.6354C139.663 97.9565 138.402 96.8702 136.784 96.8702C135.12 96.8702 133.874 97.9565 133.882 99.6354ZM134.52 112.535V106.115H136.928V110.597H147.913V112.535H134.52ZM166.067 93.4972V112.945H163.697V102.439H160.058V100.509H163.697V93.4972H166.067ZM150.676 108.455V95.1761H159.746V97.1133H153.069V100.6H158.987V102.492H153.069V106.495C156.032 106.48 158.235 106.381 160.734 105.963L160.985 107.901C158.151 108.334 155.667 108.44 152.195 108.455H150.676ZM171.701 95.2065V102.439C173.525 102.408 175.295 102.271 177.224 101.831L177.452 103.753C175.044 104.3 172.94 104.429 170.63 104.429H169.339V95.2065H171.701ZM170.805 110.954C174.702 110.461 177.186 108.41 177.194 106.222V105.622H179.556V106.222C179.549 108.41 182.04 110.461 185.968 110.954L185.071 112.808C181.987 112.367 179.571 111.015 178.364 109.116C177.163 111.015 174.763 112.367 171.686 112.808L170.805 110.954ZM175.143 99.6354V97.7362H178.857V93.8695H181.106V104.885H178.857V99.6354H175.143ZM182.8 106.602V93.5124H185.071V106.602H182.8ZM198.926 98.1616C198.926 101.762 200.65 105.302 203.75 106.67L202.299 108.577C200.104 107.498 198.561 105.439 197.726 102.902C196.883 105.584 195.302 107.809 193.069 108.934L191.565 106.997C194.725 105.523 196.487 101.778 196.503 98.1616V95.0546H198.926V98.1616ZM201.6 101.702V99.7721H205.664V93.4972H208.034V112.945H205.664V101.702H201.6ZM226.606 93.4972V104.771H224.221V100.061H220.863V98.1008H224.221V93.4972H226.606ZM210.296 102.834C213.388 101.808 215.044 99.2403 215.044 96.6727V96.5131H210.995V94.576H221.494V96.5131H217.475V96.6878C217.475 99.02 219.04 101.428 222.041 102.454L220.848 104.338C218.675 103.601 217.141 102.119 216.29 100.281C215.439 102.317 213.821 103.943 211.527 104.718L210.296 102.834ZM213.684 112.671V105.614H226.606V112.671H213.684ZM216.07 110.742H224.266V107.506H216.07V110.742ZM85.8543 123.497V130.881H88.8474V132.894H85.8543V142.899H83.4613V123.497H85.8543ZM71.3218 138.356V125.077H73.6996V129.932H78.2804V125.077H80.6506V138.356H71.3218ZM73.6996 136.396H78.2804V131.8H73.6996V136.396ZM98.0675 124.584C102.231 124.591 105.307 126.673 105.307 129.818C105.307 132.742 102.808 134.68 99.2526 135.029V138.592H106.986V140.552H89.2326V138.592H96.8825V135.029C93.35 134.68 90.8507 132.735 90.8583 129.818C90.8507 126.673 93.9273 124.591 98.0675 124.584ZM93.1981 129.818C93.1981 131.93 95.2188 133.175 98.0675 133.183C100.939 133.175 102.96 131.93 102.96 129.818C102.96 127.797 100.939 126.506 98.0675 126.513C95.2188 126.506 93.1981 127.797 93.1981 129.818ZM125.573 138.683V140.658H107.819V138.683H115.469V135.515H109.924V129.164H121.106V126.749H109.893V124.819H123.469V131.056H112.309V133.563H123.917V135.515H117.839V138.683H125.573ZM142.124 123.497V127.463H144.456V129.4H142.124V133.403H139.723V123.497H142.124ZM126.968 132.522V124.667H131.96V126.581H129.24V130.6C130.174 130.57 131.124 130.486 132.172 130.273L132.385 132.188C130.683 132.522 129.369 132.537 127.903 132.522H126.968ZM129.02 136.024V134.155H142.124V139.238H131.405V140.78H142.785V142.671H129.05V137.498H139.784V136.024H129.02ZM132.97 132.477V124.667H138.166V126.581H135.272V130.585C136.654 130.562 137.581 130.479 138.698 130.198L138.903 132.127C137.399 132.469 136.244 132.484 133.965 132.477H132.97Z" fill="white"/>
<ellipse cx="721.094" cy="496.675" rx="33" ry="25.4692" transform="rotate(-53.5442 721.094 496.675)" fill="#BDDAFE"/>
<ellipse cx="740.096" cy="444.553" rx="16.5882" ry="9.73299" transform="rotate(-23.5666 740.096 444.553)" fill="#BDDAFE"/>
<path d="M130.174 317.037C108.38 330.223 89.4002 347.536 75.1189 368.735C61.2816 389.283 50.5685 413.651 49.1649 438.659C48.4265 451.77 50.137 465.104 55.5304 477.165C60.6525 488.613 69.1976 498.595 79.503 505.705C98.94 519.118 123.369 523.641 146.556 524.716C175.448 526.052 204.656 524.158 233.108 518.947C257.793 514.427 282.384 507.194 303.12 492.616C307.674 489.417 311.906 485.795 315.761 481.783C322.008 475.279 327.443 468.831 329.361 459.757C332.807 443.468 318.863 429.81 304.999 424.312C290.755 418.666 275.033 418.395 260.024 420.241C247.868 421.737 235.771 424.556 224.069 428.158C200.52 435.41 177.497 446.751 162.537 467.087C153.65 479.168 147.775 494.615 150.348 509.768C152.529 522.606 160.898 533.724 171.779 540.612C182.352 547.306 193.978 550.884 206.163 553.333C218.163 555.742 230.37 557.128 242.608 557.516C268.396 558.328 294.339 555.308 319.077 547.916C332.044 544.039 344.717 539.406 356.893 533.464C362.38 530.784 367.758 527.883 372.996 524.746C378.867 521.229 384.787 517.58 389.83 512.911C401.273 502.306 408.504 488.011 406.385 472.107C404.127 455.162 389.682 444.105 373.481 441.827C358.879 439.776 343.904 445.308 332.433 454.123C321.162 462.784 313.332 475.208 307.521 487.984C301.954 500.221 298.541 513.267 299.455 526.769C299.948 534.059 302.696 540.819 306.646 546.876C310.976 553.514 317.553 557.961 324.443 561.576C336.848 568.083 351.349 571.299 365.226 572.471C379.772 573.7 394.599 572.69 409.023 570.577C433.879 566.937 458.574 560.616 482.623 553.424C529.886 539.284 576.085 519.526 614.602 488.091C624.165 480.288 632.97 471.73 641.385 462.706C643.802 460.116 644.541 454.904 643.975 451.591C643.377 448.111 641.123 444.177 638.127 442.194C634.914 440.067 630.897 438.762 627.015 439.604C623.132 440.446 620.374 442.491 617.619 445.453C615.496 447.729 619.469 443.534 618.031 445.019C617.614 445.452 617.202 445.886 616.78 446.318C615.84 447.289 614.892 448.249 613.938 449.198C611.927 451.206 609.877 453.173 607.793 455.106C603.749 458.857 599.58 462.469 595.295 465.938C591.135 469.308 586.862 472.552 582.506 475.66C580.448 477.132 578.366 478.569 576.266 479.984C573.962 481.536 571.31 482.88 569.151 484.621C572.439 481.964 569.197 484.583 568.148 485.222C566.999 485.919 565.85 486.611 564.692 487.292C562.375 488.659 560.039 489.997 557.692 491.303C552.845 493.999 547.928 496.567 542.958 499.019C533.086 503.888 522.99 508.298 512.744 512.313C502.438 516.353 491.976 519.999 481.419 523.319C480.875 523.492 478.897 524.102 481.06 523.437C483.522 522.675 480.604 523.57 480.267 523.679C479.104 524.033 477.942 524.381 476.775 524.729C474.011 525.551 471.24 526.35 468.464 527.134C463.066 528.653 457.643 530.101 452.211 531.48C441.06 534.309 429.835 536.941 418.542 539.134C412.187 540.368 405.799 541.447 399.375 542.263C396.435 542.635 393.484 542.953 390.53 543.208C388.973 543.343 387.412 543.457 385.854 543.55C384.99 543.601 384.122 543.641 383.259 543.687C380.191 543.857 386.374 543.67 383.048 543.687C376.864 543.727 370.713 543.59 364.566 542.89C361.523 542.546 358.492 542.081 355.485 541.487C354.255 541.244 350.552 539.907 354.335 541.289C352.754 540.71 351.023 540.422 349.406 539.935C346.45 539.036 343.534 538.003 340.679 536.824C339.576 536.366 338.485 535.889 337.409 535.376C337.022 535.19 334.55 533.706 336.681 535.067C338.811 536.427 336.484 534.931 336.022 534.643C334.761 533.864 333.544 533.016 332.393 532.085C331.95 531.725 331.512 531.249 331.048 530.935C331.354 531.144 333.395 533.46 331.906 531.636C331.446 531.069 329.022 527.619 330.36 529.849C331.698 532.079 330.356 529.733 330.158 529.339C329.859 528.745 329.588 528.134 329.338 527.519C328.788 526.162 329.139 525.17 329.549 528.525C329.487 528.034 329.255 527.452 329.144 526.978C328.9 525.936 328.715 524.875 328.584 523.813C328.498 523.14 328.459 522.467 328.389 521.791C328.182 519.794 328.301 525.814 328.436 522.86C328.5 521.47 328.526 520.092 328.664 518.704C328.776 517.582 328.929 516.464 329.108 515.354C329.225 514.649 330.132 510.397 329.506 513.096C328.879 515.795 329.958 511.571 330.163 510.885C330.571 509.529 331.021 508.182 331.501 506.849C332.41 504.331 333.436 501.851 334.522 499.403C335.031 498.257 335.56 497.119 336.104 495.992C336.376 495.429 336.653 494.866 336.941 494.31C337.222 493.753 337.509 493.197 337.807 492.641L336.885 494.336C337.311 494.236 338.721 491.188 339.027 490.702C339.767 489.511 340.537 488.338 341.341 487.19C342.053 486.17 342.796 485.169 343.562 484.191C344.039 483.58 344.53 482.98 345.032 482.382C345.331 482.027 345.635 481.672 345.944 481.324C346.783 480.401 346.773 480.399 345.913 481.315L345.26 481.999C345.583 481.662 345.911 481.331 346.249 481.006C346.804 480.461 347.369 479.921 347.947 479.399C348.833 478.602 349.741 477.833 350.678 477.099C351.74 476.271 352.848 475.522 353.952 474.747C355.611 473.583 350.711 476.501 353.443 475.097C354.104 474.756 354.748 474.372 355.413 474.038C356.606 473.429 357.826 472.871 359.072 472.373C359.62 472.153 360.187 471.962 360.736 471.742C363.579 470.602 358.09 472.391 360.063 471.939C361.363 471.641 362.629 471.303 363.947 471.081C364.526 470.985 365.108 470.901 365.695 470.833C366.132 470.781 366.568 470.735 367.009 470.705C368.171 470.62 367.591 470.626 365.273 470.728C366.379 470.948 367.663 470.744 368.802 470.841C369.544 470.904 370.279 470.988 371.01 471.103C371.654 471.203 373.537 471.764 371.307 471.085C368.766 470.305 373.037 471.704 373.705 471.976C373.685 471.969 375.219 472.759 375.35 472.714C373.475 471.648 373.014 471.402 373.968 471.981C374.351 472.209 374.727 472.457 375.092 472.715C375.013 472.659 376.447 473.819 376.506 473.804C375.875 474.004 374.159 471.283 376.001 473.422C376.36 473.842 376.673 474.3 377.026 474.72C378.203 476.133 375.432 471.352 376.485 473.907C376.681 474.38 376.926 474.883 377.143 475.342C378.116 477.384 376.79 474.238 376.792 473.943C376.798 475.108 377.328 476.662 377.522 477.846C377.983 480.685 377.627 474.769 377.497 476.721C377.451 477.397 377.452 478.071 377.396 478.745C377.298 479.837 377.034 480.897 376.911 481.975C377.417 477.572 377.135 480.943 376.557 482.472C376.363 482.985 376.16 483.492 375.937 483.992C375.713 484.491 374.522 487.313 375.565 484.866C376.609 482.419 375.418 484.968 375.109 485.427C374.775 485.926 374.426 486.418 374.067 486.899C373.629 487.493 371.778 489.048 371.794 489.682C371.775 488.706 374.066 487.394 372.192 489.227C371.761 489.648 371.324 490.063 370.879 490.466C369.65 491.588 368.364 492.651 367.047 493.664C366.083 494.406 365.1 495.12 364.099 495.816C363.6 496.167 363.092 496.507 362.584 496.846C362.184 497.112 359.69 498.293 361.871 497.339C364.052 496.386 361.513 497.557 361.132 497.782C360.611 498.094 360.09 498.406 359.57 498.713C358.215 499.511 356.852 500.293 355.485 501.058C350.553 503.82 345.515 506.386 340.385 508.754C335.255 511.122 330.039 513.297 324.743 515.268C322.095 516.254 319.431 517.191 316.751 518.079C316.157 518.278 315.558 518.472 314.959 518.665C314.507 518.81 311.951 520.037 314.083 518.947C316.192 517.866 313.676 519.06 313.193 519.201C312.439 519.422 311.685 519.642 310.932 519.852C299.905 522.972 288.64 525.263 277.275 526.701C271.667 527.408 266.032 527.913 260.392 528.202C259.609 528.24 258.826 528.273 258.042 528.311C256.046 528.408 261.154 528.23 259.152 528.273C257.743 528.302 256.327 528.341 254.913 528.358C251.933 528.389 248.949 528.361 245.97 528.271C234.518 527.935 223.095 526.721 211.829 524.612C210.593 524.378 209.363 524.14 208.134 523.886C207.566 523.767 203.45 522.831 206.328 523.507C209.191 524.176 205.185 523.182 204.498 522.988C203.248 522.637 202 522.26 200.759 521.858C198.529 521.13 196.334 520.317 194.175 519.401C193.225 518.996 192.282 518.57 191.352 518.12C190.774 517.841 190.208 517.542 189.635 517.259C188.034 516.462 192.736 519.085 190.636 517.79C188.72 516.609 186.831 515.415 185.069 514.007C184.527 513.574 181.63 510.968 183.679 512.884C185.453 514.541 184.16 513.348 183.763 512.887C183.296 512.34 182.794 511.821 182.334 511.259C181.807 510.622 180.633 509.498 180.411 508.654C180.407 508.638 182.3 512.072 181.279 509.989C181.069 509.558 180.821 509.138 180.606 508.705C180.177 507.825 179.259 506.305 179.21 505.31C179.216 505.458 180.131 509.301 179.656 506.598C179.496 505.67 179.264 504.762 179.136 503.822C179.057 503.245 179.094 502.5 178.947 501.959C179.667 504.633 178.947 504.456 179.02 503.088C179.092 501.72 179.177 500.279 179.386 498.872C179.448 498.462 179.979 496.823 179.807 496.542C179.957 496.784 178.743 500.141 179.596 497.607C180.104 496.092 180.566 494.573 181.172 493.089C181.659 491.899 182.23 490.76 182.762 489.595C184.108 486.651 181.414 491.769 182.538 489.995C182.944 489.36 183.31 488.696 183.715 488.062C185.04 485.969 186.49 483.947 188.046 482.015C188.816 481.059 189.615 480.121 190.433 479.206C191.251 478.291 192.639 477.628 189.805 479.845C190.211 479.532 190.602 479.039 190.959 478.684C192.804 476.87 194.744 475.155 196.76 473.532C198.575 472.073 200.445 470.694 202.372 469.389C202.829 469.081 203.291 468.784 203.743 468.476C206.161 466.83 201.301 469.936 203.008 468.92C204.201 468.211 205.383 467.501 206.599 466.826C211.128 464.303 215.839 462.115 220.651 460.185C222.885 459.29 225.144 458.45 227.414 457.663C228.62 457.245 229.834 456.85 231.049 456.449C233.358 455.687 230.055 456.75 229.849 456.809C230.667 456.579 231.478 456.317 232.297 456.077C243.128 452.916 254.298 450.421 265.505 449.083C268.059 448.779 271.716 447.872 274.249 448.36C271.008 447.733 272.584 448.416 273.901 448.415C274.581 448.414 275.266 448.419 275.944 448.429C277.811 448.466 279.677 448.562 281.531 448.73C282.878 448.854 284.216 449.013 285.55 449.214C286.214 449.317 286.883 449.425 287.545 449.549C287.845 449.605 291.152 450.16 288.592 449.722C286.385 449.344 288.554 449.734 289.124 449.89C289.939 450.119 290.747 450.362 291.547 450.632C293.082 451.142 294.607 451.705 296.085 452.368C296.564 452.584 297.037 452.863 297.519 453.053C294.139 451.701 295.382 451.803 296.286 452.414C297.412 453.174 298.493 453.956 299.594 454.756C300.695 455.556 300.117 456.12 298.652 453.788C298.893 454.175 299.45 454.615 299.734 454.939C300.074 455.331 300.375 455.756 300.715 456.148C302.491 458.158 299.402 453.24 300.333 455.536C300.426 455.771 300.728 456.65 300.936 456.892C299.602 455.31 300.12 453.702 300.487 455.735C300.888 457.962 299.662 456.033 300.505 454.388C300.413 454.569 300.319 455.84 300.322 455.909L300.541 454.876C300.877 453.561 300.84 453.504 300.437 454.698L300.06 455.53L300.99 453.799C300.86 453.78 298.545 457.197 298.263 457.543C297.441 458.553 296.055 459.674 295.427 460.803C295.542 460.593 297.956 458.251 296.229 459.939C295.82 460.341 295.421 460.75 295.013 461.147C293.076 463.036 291.039 464.825 288.922 466.512C287.033 468.027 285.078 469.456 283.073 470.811C282.48 471.211 281.879 471.594 281.286 471.988C279.61 473.107 284.521 470.075 281.921 471.587C280.68 472.307 279.454 473.039 278.194 473.731C273.631 476.234 268.894 478.414 264.056 480.331C261.615 481.301 259.145 482.199 256.659 483.038C255.558 483.408 254.392 483.682 253.321 484.129C257.448 482.415 253.154 484.16 251.902 484.515C228.42 491.189 203.716 494.369 179.376 495.525C178.666 495.56 177.953 495.584 177.243 495.618C173.685 495.792 179.741 495.556 177.443 495.617C175.843 495.659 174.241 495.71 172.642 495.736C169.443 495.798 166.239 495.811 163.038 495.789C157.004 495.743 150.961 495.58 144.942 495.177C139.845 494.834 134.754 494.313 129.705 493.537C127.375 493.179 125.055 492.77 122.747 492.298C121.564 492.06 117.383 490.864 122.133 492.216C120.816 491.843 119.47 491.551 118.147 491.183C113.462 489.874 108.849 488.262 104.418 486.246C103.328 485.753 102.248 485.23 101.185 484.687C100.122 484.144 98.791 482.952 102.077 485.197C101.653 484.907 101.144 484.667 100.707 484.407C98.6759 483.21 96.7031 481.907 94.8147 480.497C93.7697 479.719 92.7446 478.9 91.7539 478.054C91.3556 477.714 90.9688 477.364 90.5763 477.02C88.8266 475.486 91.4934 477.864 91.5921 477.985C89.9919 476.06 88.1424 474.364 86.6016 472.372C85.8643 471.414 85.1771 470.428 84.491 469.433C83.1229 467.453 85.0174 470.233 85.1114 470.454C84.8915 469.963 84.5301 469.463 84.2664 468.989C82.9073 466.546 81.7438 463.99 80.777 461.365C80.5868 460.84 80.407 460.316 80.2225 459.787C79.4259 457.516 80.5721 460.828 80.6046 461.032C80.4092 459.816 79.9462 458.59 79.6814 457.383C79.1074 454.781 78.6951 452.142 78.4367 449.492C78.3669 448.763 78.2143 444.463 78.2192 447.225C78.2242 449.987 78.2233 445.486 78.2318 444.923C78.2724 442.34 78.4288 439.758 78.6999 437.186C78.9711 434.615 79.3507 432.013 79.8316 429.452C80.0452 428.309 80.2949 427.174 80.5294 426.033C81.1514 423.007 79.7848 428.915 80.3229 426.892C80.5487 426.051 80.7543 425.202 80.9853 424.36C82.4108 419.185 84.2042 414.125 86.2814 409.177C87.2607 406.85 88.2958 404.545 89.3914 402.266C89.9697 401.059 90.5626 399.864 91.1706 398.675C91.4389 398.149 91.7177 397.623 91.9917 397.092C93.4725 394.224 90.2753 400.104 91.8708 397.301C94.5143 392.647 97.306 388.092 100.371 383.706C103.435 379.32 106.716 375.093 110.207 371.034C111.177 369.908 112.162 368.794 113.162 367.697C113.558 367.262 113.99 366.836 114.367 366.383C114.199 366.588 111.917 368.928 113.63 367.174C115.601 365.151 117.6 363.163 119.662 361.234C123.466 357.685 127.44 354.328 131.573 351.176C133.699 349.553 135.867 347.987 138.072 346.478C139.056 345.806 140.043 345.145 141.04 344.501C141.479 344.218 142.132 343.898 142.542 343.539C139.707 346.04 141.35 344.29 142.393 343.656C145.79 341.601 148.491 339.445 149.975 335.592C151.287 332.192 151.312 327.489 149.622 324.185C146.334 317.767 137.185 312.706 130.156 316.956L130.174 317.037Z" fill="#1161DE" fill-opacity="0.7"/>
<path d="M80.6077 169.17V174.463H82.721V175.437H80.6077V182.181H79.4579V169.17H80.6077ZM70.6112 178.804C73.9779 177.131 75.8115 174.624 76.0704 171.532H71.2224V170.568H77.241C77.2307 174.256 75.5007 177.613 71.2535 179.705L70.6112 178.804ZM94.0989 173.262V174.101H90.1313V175.282H95.4974V176.162H83.6465V175.282H88.9815V174.101H85.2004V169.429H94.0264V170.278H86.3606V171.325H93.6742V172.143H86.3606V173.262H94.0989ZM85.0761 177.954V177.105H93.9746V179.923H86.2363V181.176H94.3682V182.046H85.1072V179.094H92.8454V177.954H85.0761ZM107.497 169.18V177.126H106.347V169.18H107.497ZM97.3967 170.9V169.957H103.353V173.541H98.5465V175.427C100.877 175.427 102.618 175.349 104.721 175.033L104.866 175.976C102.669 176.318 100.888 176.39 98.4844 176.39H97.4278V172.63H102.214V170.9H97.3967ZM98.733 178.794V177.84H107.497V182.191H106.347V178.794H98.733ZM120.605 169.18V178.7H119.455V169.18H120.605ZM110.152 173.282C110.152 171.407 111.623 170.092 113.571 170.092C115.518 170.092 116.979 171.407 116.979 173.282C116.979 175.178 115.518 176.494 113.571 176.483C111.623 176.494 110.152 175.178 110.152 173.282ZM111.281 173.282C111.271 174.577 112.255 175.479 113.571 175.479C114.866 175.479 115.86 174.577 115.86 173.282C115.86 172.008 114.866 171.097 113.571 171.097C112.255 171.097 111.271 172.008 111.281 173.282ZM112.193 181.901V177.727H113.343V180.948H121.009V181.901H112.193ZM133.754 169.17V182.212H132.614V175.044H129.859V174.09H132.614V169.17H133.754ZM123.561 179.073V170.361H129.641V171.314H124.721V174.028H129.061V174.961H124.721V178.11C127.114 178.105 128.647 178.042 130.429 177.716L130.563 178.669C128.668 178.98 127.072 179.063 124.555 179.073H123.561ZM137.912 170.351V175.385C139.263 175.375 140.626 175.297 142.18 174.971L142.293 175.924C140.553 176.287 139.113 176.369 137.59 176.369H136.772V170.351H137.912ZM137.756 181.228C140.025 180.896 142.221 179.508 142.221 177.799V177.312H143.36V177.799C143.36 179.508 145.557 180.896 147.836 181.228L147.39 182.129C145.443 181.803 143.583 180.808 142.786 179.363C141.993 180.808 140.139 181.803 138.191 182.129L137.756 181.228ZM140.636 173.096V172.153H143.454V169.45H144.541V176.825H143.454V173.096H140.636ZM146.064 177.996V169.18H147.162V177.996H146.064ZM153.754 172.671C153.754 175.023 155.267 177.395 157.162 178.265L156.468 179.198C154.987 178.436 153.765 176.877 153.184 175.028C152.61 176.975 151.387 178.643 149.901 179.436L149.165 178.514C151.071 177.571 152.584 175.064 152.594 172.671V170.299H153.754V172.671ZM155.743 174.557V173.614H158.83V169.17H159.97V182.212H158.83V174.557H155.743ZM173.078 169.17V176.794H171.928V173.396H169.286V172.433H171.928V169.17H173.078ZM162.335 175.758C164.262 175.075 165.65 173.334 165.65 171.48V170.972H162.708V170.009H169.721V170.972H166.81V171.48C166.81 173.158 168.116 174.785 170.022 175.458L169.421 176.369C167.95 175.841 166.816 174.748 166.251 173.402C165.686 174.904 164.485 176.095 162.936 176.66L162.335 175.758ZM164.562 182.015V177.436H173.078V182.015H164.562ZM165.712 181.073H171.948V178.358H165.712V181.073ZM189.379 169.17V174.298H191.555V175.292H189.379V182.191H188.229V169.17H189.379ZM179.839 179.063V170.278H180.978V173.718H184.79V170.278H185.93V179.063H179.839ZM180.978 178.099H184.79V174.64H180.978V178.099ZM198.333 170.019C201.109 170.03 203.098 171.376 203.098 173.427C203.098 175.365 201.379 176.649 198.903 176.815V179.55H204.331V180.513H192.408V179.55H197.763V176.815C195.308 176.644 193.578 175.365 193.578 173.427C193.578 171.376 195.578 170.03 198.333 170.019ZM194.687 173.427C194.687 174.93 196.23 175.903 198.333 175.914C200.446 175.903 201.99 174.93 201.99 173.427C201.99 171.956 200.446 170.962 198.333 170.972C196.23 170.962 194.687 171.956 194.687 173.427ZM217.439 179.602V180.575H205.516V179.602H210.871V177.146H207.007V173.127H214.797V171.086H206.976V170.133H215.937V174.07H208.147V176.193H216.237V177.146H212.011V179.602H217.439ZM229.034 169.17V172.019H230.775V172.972H229.034V175.924H227.885V169.17H229.034ZM219.121 175.157V169.999H222.405V170.952H220.219V174.22C220.892 174.204 221.711 174.147 222.601 173.945L222.726 174.898C221.483 175.157 220.488 175.168 219.69 175.157H219.121ZM220.498 177.416V176.483H229.034V179.633H221.659V181.083H229.521V182.015H220.53V178.762H227.916V177.416H220.498ZM223.161 175.116V169.999H226.621V170.952H224.269V174.184C225.315 174.184 226.123 174.127 227.097 173.894L227.211 174.847C226.03 175.106 225.129 175.126 223.782 175.116H223.161ZM243.603 176.038V176.97H231.731V176.038H243.603ZM233.047 172.205C233.047 170.579 234.839 169.615 237.657 169.626C240.464 169.615 242.256 170.579 242.256 172.205C242.256 173.831 240.464 174.805 237.657 174.805C234.839 174.805 233.047 173.831 233.047 172.205ZM233.265 181.901V178.12H234.425V180.948H242.277V181.901H233.265ZM234.238 172.205C234.228 173.241 235.564 173.863 237.657 173.863C239.749 173.863 241.086 173.241 241.086 172.205C241.086 171.19 239.749 170.558 237.657 170.558C235.564 170.558 234.228 171.19 234.238 172.205ZM259.211 170.485V171.936C259.2 173.604 259.2 175.282 258.744 177.706L257.615 177.571C258.071 175.271 258.071 173.562 258.071 171.936V171.439H249.991V170.485H259.211ZM248.748 180.347V179.384H251.69V175.095H252.84V179.384H254.943V175.095H256.072V179.384H260.619V180.347H248.748ZM272.536 169.17V182.191H271.386V169.17H272.536ZM261.928 178.721C263.042 178.711 264.316 178.7 265.637 178.659V177.245C264.073 177.074 263.057 176.183 263.068 174.878C263.057 173.407 264.311 172.454 266.186 172.454C268.071 172.454 269.345 173.407 269.345 174.878C269.345 176.167 268.335 177.058 266.787 177.234V178.617C268.051 178.56 269.325 178.462 270.526 178.307L270.62 179.187C267.709 179.653 264.518 179.695 262.104 179.695L261.928 178.721ZM262.208 171.708V170.776H265.637V169.18H266.787V170.776H270.184V171.708H262.208ZM264.145 174.878C264.135 175.779 264.984 176.369 266.186 176.359C267.408 176.369 268.247 175.779 268.247 174.878C268.247 173.966 267.408 173.355 266.186 173.355C264.984 173.355 264.135 173.966 264.145 174.878ZM286.12 169.17V182.191H285.012V169.17H286.12ZM275.129 174.785C275.129 172.019 276.227 170.268 277.916 170.268C279.501 170.268 280.573 171.791 280.718 174.246H282.401V169.45H283.51V181.528H282.401V175.199H280.723C280.609 177.737 279.527 179.322 277.916 179.311C276.227 179.322 275.129 177.561 275.129 174.785ZM276.207 174.785C276.196 176.898 276.87 178.234 277.916 178.224C278.983 178.234 279.656 176.898 279.656 174.785C279.656 172.671 278.983 171.345 277.916 171.345C276.87 171.345 276.196 172.671 276.207 174.785ZM292.65 172.671C292.65 175.023 294.163 177.395 296.058 178.265L295.364 179.198C293.883 178.436 292.661 176.877 292.08 175.028C291.506 176.975 290.283 178.643 288.797 179.436L288.061 178.514C289.967 177.571 291.48 175.064 291.49 172.671V170.299H292.65V172.671ZM294.639 174.557V173.614H297.726V169.17H298.866V182.212H297.726V174.557H294.639ZM316.949 174.971V175.852H311.583V177.074H315.426V179.892H307.688V181.155H315.82V182.046H306.559V179.073H314.297V177.934H306.528V177.074H310.444V175.852H305.098V174.971H316.949ZM305.73 173.49C308.123 173.334 310.159 172.516 310.371 171.211H306.31V170.309H310.454V169.097H311.583V170.309H315.748V171.211H311.661C311.868 172.516 313.904 173.334 316.307 173.49L315.955 174.37C313.779 174.189 311.816 173.505 311.019 172.267C310.221 173.505 308.258 174.189 306.072 174.37L305.73 173.49ZM80.7113 193.17V197.127H82.6692V198.101H80.7113V202.7H79.5511V193.17H80.7113ZM70.549 200.266C73.6723 199.292 75.6975 197.443 75.941 195.138H71.0877V194.175H77.1892C77.1892 197.531 74.7963 200.017 71.0463 201.188L70.549 200.266ZM72.5483 205.901V201.727H73.6982V204.948H81.3018V205.901H72.5483ZM91.2087 197.438V198.381H88.5775V200.199C89.7947 200.142 91.0067 200.059 92.1307 199.934L92.2135 200.784C89.4166 201.167 86.3192 201.25 83.8641 201.25L83.688 200.307C84.8327 200.302 86.1172 200.287 87.4276 200.245V198.381H84.8793V194.019H91.1051V194.972H86.0395V197.438H91.2087ZM85.9152 205.901V202.244H87.065V204.948H94.8033V205.901H85.9152ZM93.2184 202.918V193.18H94.3682V202.918H93.2184ZM112.576 203.55V204.513H100.653V203.55H106.008V200.369H102.062V194.258H111.095V200.369H107.148V203.55H112.576ZM103.18 199.448H109.976V195.19H103.18V199.448ZM125.642 199.748V200.68H113.761V199.748H125.642ZM115.263 198.308V193.74H124.161V194.672H116.412V197.355H124.275V198.308H115.263ZM115.294 205.891V202.089H116.433V204.927H124.379V205.891H115.294ZM135.356 196.671C135.356 199.023 136.868 201.395 138.764 202.265L138.07 203.198C136.589 202.436 135.366 200.877 134.786 199.028C134.211 200.975 132.989 202.643 131.502 203.436L130.767 202.514C132.673 201.571 134.185 199.064 134.196 196.671V194.299H135.356V196.671ZM137.345 198.557V197.614H140.432V193.17H141.571V206.212H140.432V198.557H137.345ZM148.412 195.573C148.412 197.262 149.717 198.878 151.623 199.541L151.022 200.442C149.551 199.919 148.417 198.831 147.852 197.49C147.293 198.987 146.086 200.183 144.538 200.753L143.937 199.841C145.864 199.157 147.252 197.417 147.252 195.584V195.014H144.31V194.071H151.323V195.014H148.412V195.573ZM145.915 202.607V201.664H154.679V206.191H153.529V202.607H145.915ZM150.908 197.541V196.578H153.529V193.17H154.679V200.97H153.529V197.541H150.908ZM159.127 204.006L157.998 207.994H156.91L157.718 204.006H159.127ZM170.823 193.46C173.662 193.46 175.423 194.372 175.423 195.936C175.423 197.469 173.662 198.37 170.823 198.37C167.995 198.37 166.214 197.469 166.214 195.936C166.214 194.372 167.995 193.46 170.823 193.46ZM164.898 200.442V199.499H176.77V200.442H164.898ZM166.348 206.015V201.737H175.309V206.015H166.348ZM167.405 195.936C167.395 196.878 168.721 197.448 170.823 197.459C172.916 197.448 174.252 196.878 174.252 195.936C174.252 194.962 172.916 194.382 170.823 194.382C168.721 194.382 167.395 194.962 167.405 195.936ZM167.488 205.073H174.19V202.659H167.488V205.073ZM188.189 193.18V197.117H190.147V198.09H188.189V202.742H187.039V193.18H188.189ZM178.565 200.546V194.113H179.694V196.309H183.486V194.113H184.625V200.546H178.565ZM179.694 199.613H183.486V197.22H179.694V199.613ZM180.036 205.901V201.809H181.176V204.948H188.79V205.901H180.036ZM193.248 204.006L192.119 207.994H191.031L191.839 204.006H193.248ZM202.955 205H199.661V194.392H203.09C206.187 194.392 208.011 196.381 208.011 199.675C208.011 202.99 206.187 205 202.955 205ZM200.977 203.829H202.873C205.473 203.829 206.726 202.255 206.726 199.675C206.726 197.117 205.473 195.563 203.007 195.563H200.977V203.829ZM210.077 194.392L213.195 203.291H213.32L216.448 194.392H217.836L213.952 205H212.563L208.679 194.392H210.077ZM222.711 205H219.417V194.392H222.846C225.943 194.392 227.766 196.381 227.766 199.675C227.766 202.99 225.943 205 222.711 205ZM220.733 203.829H222.628C225.228 203.829 226.482 202.255 226.482 199.675C226.482 197.117 225.228 195.563 222.763 195.563H220.733V203.829ZM230.677 204.006L229.548 207.994H228.46L229.268 204.006H230.677ZM247.18 193.17V206.212H246.03V193.17H247.18ZM237.297 202.98V194.413H243.492V195.376H238.458V201.985C240.99 201.985 242.648 201.908 244.601 201.55L244.725 202.524C242.705 202.887 240.985 202.97 238.354 202.98H237.297ZM254.217 197.169C254.217 199.375 255.823 201.623 257.739 202.452L257.097 203.363C255.574 202.669 254.264 201.172 253.653 199.375C253.042 201.281 251.726 202.939 250.239 203.684L249.556 202.773C251.42 201.882 253.047 199.416 253.057 197.169V195.47H249.981V194.506H257.315V195.47H254.217V197.169ZM259.138 206.191V193.17H260.288V206.191H259.138ZM269.242 193.968V194.921H264.476V196.309H268.889V197.21H264.476V198.753C266.88 198.753 268.258 198.707 269.936 198.422L270.039 199.354C268.278 199.655 266.838 199.686 264.29 199.686H263.337V193.968H269.242ZM265.005 201.716V200.794H273.447V203.809H266.175V205.124H273.945V206.046H265.036V202.939H272.308V201.716H265.005ZM269.801 197.106V196.164H272.308V193.17H273.447V200.204H272.308V197.106H269.801ZM285.606 193.46C288.444 193.46 290.205 194.372 290.205 195.936C290.205 197.469 288.444 198.37 285.606 198.37C282.778 198.37 280.996 197.469 280.996 195.936C280.996 194.372 282.778 193.46 285.606 193.46ZM279.68 200.442V199.499H291.552V200.442H279.68ZM281.13 206.015V201.737H290.091V206.015H281.13ZM282.187 195.936C282.177 196.878 283.503 197.448 285.606 197.459C287.698 197.448 289.034 196.878 289.034 195.936C289.034 194.962 287.698 194.382 285.606 194.382C283.503 194.382 282.177 194.962 282.187 195.936ZM282.27 205.073H288.972V202.659H282.27V205.073ZM303.52 193.18V203.073H302.36V201.716H299.677V200.877H302.36V193.18H303.52ZM292.716 199.209C295.14 199.199 298.403 199.178 301.189 198.826L301.272 199.665C300.107 199.852 298.89 199.971 297.688 200.043V202.617H296.538V200.1C295.222 200.152 293.964 200.157 292.871 200.152L292.716 199.209ZM293.762 195.977C293.762 194.61 295.067 193.709 296.994 193.709C298.9 193.709 300.205 194.61 300.216 195.977C300.205 197.365 298.9 198.235 296.994 198.235C295.067 198.235 293.762 197.365 293.762 195.977ZM294.591 205.901V202.099H295.74V204.948H303.841V205.901H294.591ZM294.86 195.977C294.849 196.827 295.72 197.376 296.994 197.376C298.227 197.376 299.107 196.827 299.117 195.977C299.107 195.138 298.227 194.568 296.994 194.579C295.72 194.568 294.849 195.138 294.86 195.977ZM77.3239 218.019V223.313H71.212V218.019H77.3239ZM72.1547 229.249C74.3923 229 76.547 227.736 76.547 226.431H72.6934V225.54H76.5677V224.266H77.7072V225.54H81.6022V226.431H77.7279C77.7279 227.705 79.8204 228.969 82.058 229.249L81.654 230.15C79.7013 229.881 77.9144 228.953 77.1374 227.741C76.3553 228.974 74.5269 229.875 72.5691 230.15L72.1547 229.249ZM72.3412 222.401H76.1948V218.952H72.3412V222.401ZM80.1312 224.649V217.17H81.2604V224.649H80.1312ZM97.935 217.802V218.9C97.935 220.102 97.935 221.427 97.5725 223.22L96.433 223.116C96.5935 222.349 96.6816 221.671 96.7334 221.055L88.8086 221.427L88.6429 220.443L96.78 220.184C96.7955 219.734 96.7955 219.309 96.7955 218.9V218.744H88.964V217.802H97.935ZM87.5552 225.032V224.09H92.3929V222.173H93.5531V224.09H99.406V225.032H87.5552ZM89.0676 229.984V226.141H90.2175V229.041H98.2354V229.984H89.0676ZM111.706 217.18V226.939H110.618V217.18H111.706ZM101.264 224.763V218.247H106.226V219.2H102.372V221.003H105.698V221.914H102.372V223.81C104.258 223.805 105.423 223.753 106.816 223.468L106.941 224.401C105.428 224.701 104.196 224.763 102.082 224.763H101.264ZM103.211 229.901V225.851H104.382V228.948H112.11V229.901H103.211ZM106.309 221.811V220.878H108.07V217.45H109.178V226.597H108.07V221.811H106.309ZM125.684 227.55V228.513H113.761V227.55H125.684ZM114.486 224.432C116.951 223.986 119.116 222.37 119.127 220.215H114.869V219.273H119.137V217.481H120.266V219.273H124.534V220.215H120.287C120.287 222.37 122.442 223.986 124.917 224.432L124.451 225.364C122.39 224.944 120.515 223.82 119.702 222.122C118.883 223.82 117.003 224.944 114.942 225.364L114.486 224.432ZM129.002 228.006L127.873 231.994H126.786L127.594 228.006H129.002ZM139.249 219.221C139.238 221.075 140.564 222.712 142.481 223.354L141.839 224.256C140.399 223.717 139.269 222.66 138.705 221.288C138.151 222.847 136.959 224.059 135.385 224.649L134.763 223.717C136.763 223.012 138.099 221.282 138.109 219.262V217.916H139.249V219.221ZM136.887 227.726C136.877 226.162 138.534 225.26 141.248 225.26C143.952 225.26 145.609 226.162 145.609 227.726C145.609 229.28 143.952 230.16 141.248 230.16C138.534 230.16 136.877 229.28 136.887 227.726ZM138.026 227.726C138.016 228.669 139.249 229.238 141.248 229.238C143.237 229.238 144.47 228.669 144.47 227.726C144.47 226.752 143.237 226.172 141.248 226.172C139.249 226.172 138.016 226.752 138.026 227.726ZM141.517 220.91V219.956H144.418V217.17H145.568V224.887H144.418V220.91H141.517ZM159.753 222.671V223.603H154.377V224.898H158.22V227.809H150.482V229.135H158.614V230.046H149.352V226.949H157.091V225.789H149.321V224.898H153.227V223.603H147.881V222.671H159.753ZM149.425 221.573V217.605H158.21V221.573H149.425ZM150.554 220.651H157.06V218.527H150.554V220.651ZM176.78 223.365V224.328H164.898V223.365H176.78ZM166.328 227.819C166.328 226.317 168.016 225.468 170.823 225.468C173.62 225.468 175.299 226.317 175.309 227.819C175.299 229.321 173.62 230.16 170.823 230.16C168.016 230.16 166.328 229.321 166.328 227.819ZM166.4 222.122V217.698H175.299V218.651H167.54V221.179H175.381V222.122H166.4ZM167.498 227.819C167.488 228.731 168.741 229.249 170.823 229.249C172.895 229.249 174.149 228.731 174.159 227.819C174.149 226.907 172.895 226.379 170.823 226.369C168.741 226.379 167.488 226.907 167.498 227.819ZM182.263 218.123C184.315 218.123 185.765 219.366 185.775 221.179C185.765 222.992 184.315 224.235 182.263 224.235C180.212 224.235 178.741 222.992 178.752 221.179C178.741 219.366 180.212 218.123 182.263 218.123ZM178.078 226.358C180.482 226.369 183.797 226.348 186.676 225.923L186.77 226.773C183.786 227.332 180.585 227.343 178.234 227.343L178.078 226.358ZM179.881 221.179C179.871 222.391 180.875 223.23 182.263 223.23C183.641 223.23 184.646 222.391 184.646 221.179C184.646 219.967 183.641 219.128 182.263 219.128C180.875 219.128 179.871 219.967 179.881 221.179ZM187.536 230.212V217.17H188.686V230.212H187.536ZM206.179 217.17V230.191H205.071V223.292H203.248V229.528H202.149V217.45H203.248V222.329H205.071V217.17H206.179ZM195.499 226.68V218.693H200.492V226.68H195.499ZM196.587 225.758H199.404V219.615H196.587V225.758ZM211.942 221.179C211.942 223.271 213.009 225.416 214.781 226.369L214.118 227.229C212.823 226.519 211.885 225.172 211.414 223.598C210.948 225.271 210.016 226.731 208.721 227.519L208.027 226.648C209.798 225.613 210.844 223.334 210.855 221.179V220.537H208.379V219.584H210.855V217.646H211.953V219.584H214.387V220.537H211.942V221.179ZM213.486 223.282V222.308H215.537V217.481H216.625V229.508H215.537V223.282H213.486ZM218.158 230.191V217.17H219.256V230.191H218.158ZM233.141 223.22V224.121H221.217V223.22H233.141ZM222.657 226.027V225.167H231.649V227.933H223.828V229.176H232.074V230.015H222.678V227.135H230.51V226.027H222.657ZM222.73 218.392V217.564H231.608V220.257H223.911V221.396H231.835V222.235H222.771V219.47H230.458V218.392H222.73ZM250.126 223.665V224.608H238.255V223.665H243.621V222.09H239.757V217.698H248.655V218.641H240.907V221.127H248.769V222.09H244.76V223.665H250.126ZM239.57 226.825V225.882H248.666V230.285H247.526V226.825H239.57ZM255.765 221.169C255.755 223.251 257.267 225.55 259.153 226.452L258.49 227.363C257.034 226.643 255.796 225.11 255.211 223.349C254.605 225.255 253.3 226.939 251.839 227.684L251.145 226.773C253.02 225.861 254.626 223.385 254.636 221.169V219.47H251.611V218.506H258.697V219.47H255.765V221.169ZM260.292 230.191V217.17H261.442V222.432H263.617V223.416H261.442V230.191H260.292ZM276.352 222.64V223.572H264.47V222.64H276.352ZM265.91 225.633V224.732H274.809V227.757H267.071V229.104H275.202V230.036H265.941V226.887H273.68V225.633H265.91ZM266.055 221.573V217.615H274.798V218.548H267.205V220.63H274.933V221.573H266.055ZM288.31 217.17V230.212H287.16V217.17H288.31ZM278.065 222.712C278.065 219.946 279.443 218.185 281.39 218.175C283.317 218.185 284.716 219.946 284.716 222.712C284.716 225.488 283.317 227.249 281.39 227.249C279.443 227.249 278.065 225.488 278.065 222.712ZM279.174 222.712C279.174 224.836 280.085 226.224 281.39 226.224C282.696 226.224 283.597 224.836 283.597 222.712C283.597 220.599 282.696 219.211 281.39 219.2C280.085 219.211 279.174 220.599 279.174 222.712Z" fill="#BDDAFE"/>
<path d="M82.3999 248.11V249.064H70.5283V248.11H75.8943V246.738C73.403 246.619 71.8439 245.676 71.8439 244.143C71.8439 242.537 73.636 241.564 76.4537 241.564C79.261 241.564 81.0532 242.537 81.0532 244.143C81.0532 245.676 79.5045 246.614 77.0338 246.738V248.11H82.3999ZM72.0615 253.901V250.12H73.2217V252.948H81.0739V253.901H72.0615ZM73.0352 244.143C73.0249 245.2 74.3612 245.811 76.4537 245.811C78.5463 245.811 79.8826 245.2 79.8826 244.143C79.8826 243.138 78.5463 242.496 76.4537 242.496C74.3612 242.496 73.0249 243.138 73.0352 244.143ZM93.7156 241.17V246.349H95.891V247.323H93.7156V254.212H92.5761V241.17H93.7156ZM84.1438 243.335V242.382H90.0692V247.044H85.3144V250.089C87.7332 250.089 89.4217 250.001 91.4055 249.633L91.5195 250.586C89.4684 250.959 87.728 251.052 85.2108 251.063H84.1749V246.09H88.9193V243.335H84.1438ZM107.497 241.18V250.7H106.347V241.18H107.497ZM97.0445 245.282C97.0445 243.407 98.5155 242.092 100.463 242.092C102.41 242.092 103.871 243.407 103.871 245.282C103.871 247.178 102.41 248.494 100.463 248.483C98.5155 248.494 97.0445 247.178 97.0445 245.282ZM98.1736 245.282C98.1632 246.577 99.1474 247.479 100.463 247.479C101.758 247.479 102.752 246.577 102.752 245.282C102.752 244.008 101.758 243.097 100.463 243.097C99.1474 243.097 98.1632 244.008 98.1736 245.282ZM99.0852 253.901V249.727H100.235V252.948H107.901V253.901H99.0852ZM118.111 243.273C118.111 245.044 119.458 246.671 121.343 247.313L120.722 248.224C119.282 247.696 118.142 246.619 117.578 245.262C117.019 246.8 115.853 248.002 114.33 248.587L113.709 247.665C115.667 246.94 116.972 245.2 116.982 243.19V241.843H118.111V243.273ZM115.449 251.788C115.449 250.296 117.086 249.426 119.769 249.426C122.442 249.426 124.058 250.296 124.058 251.788C124.058 253.3 122.442 254.16 119.769 254.16C117.086 254.16 115.449 253.3 115.449 251.788ZM116.599 251.788C116.589 252.71 117.801 253.238 119.769 253.249C121.737 253.238 122.939 252.71 122.939 251.788C122.939 250.897 121.737 250.348 119.769 250.348C117.801 250.348 116.589 250.897 116.599 251.788ZM122.794 249.095V241.17H123.944V244.568H125.901V245.531H123.944V249.095H122.794ZM138.025 241.17V254.191H136.917V241.17H138.025ZM127.034 246.785C127.034 244.019 128.132 242.268 129.821 242.268C131.406 242.268 132.478 243.791 132.623 246.246H134.306V241.45H135.415V253.528H134.306V247.199H132.628C132.514 249.737 131.432 251.322 129.821 251.311C128.132 251.322 127.034 249.561 127.034 246.785ZM128.112 246.785C128.101 248.898 128.775 250.234 129.821 250.224C130.888 250.234 131.561 248.898 131.561 246.785C131.561 244.671 130.888 243.345 129.821 243.345C128.775 243.345 128.101 244.671 128.112 246.785ZM144.555 244.671C144.555 247.023 146.067 249.395 147.963 250.265L147.269 251.198C145.788 250.436 144.565 248.877 143.985 247.028C143.41 248.975 142.188 250.643 140.701 251.436L139.966 250.514C141.872 249.571 143.384 247.064 143.395 244.671V242.299H144.555V244.671ZM146.544 246.557V245.614H149.631V241.17H150.77V254.212H149.631V246.557H146.544ZM160.215 249.281V250.7H166.523V249.281H167.663V254.015H159.065V249.281H160.215ZM157.003 246.878C159.479 246.878 162.752 246.878 165.622 246.505L165.694 247.334C164.514 247.53 163.296 247.65 162.1 247.722V249.675H160.96V247.774C159.593 247.831 158.298 247.831 157.169 247.831L157.003 246.878ZM157.594 245.169C159.489 244.723 160.805 243.542 160.815 242.144V241.481H161.986V242.144C161.986 243.48 163.322 244.578 165.197 244.992L164.69 245.863C163.167 245.516 161.976 244.718 161.411 243.625C160.857 244.79 159.665 245.676 158.122 246.07L157.594 245.169ZM160.215 253.073H166.523V251.612H160.215V253.073ZM166.513 248.649V241.18H167.663V248.649H166.513ZM181.247 241.17V254.191H180.149V241.17H181.247ZM170.111 250.545C172.939 248.867 174.358 246.515 174.576 243.791H170.67V242.827H175.726C175.721 244.112 175.518 245.355 175.073 246.515H177.414V241.522H178.512V253.528H177.414V247.448H174.648C173.861 248.96 172.602 250.301 170.784 251.374L170.111 250.545ZM197.901 241.17V248.245H196.762V245.293H194.12V244.329H196.762V241.17H197.901ZM187.169 247.551C189.096 246.857 190.484 245.137 190.484 243.283V242.91H187.542V241.957H194.555V242.91H191.644V243.283C191.644 244.961 192.949 246.598 194.855 247.251L194.255 248.152C192.784 247.613 191.649 246.531 191.085 245.194C190.52 246.691 189.319 247.888 187.77 248.452L187.169 247.551ZM189.521 254.015V248.867H190.67V250.493H196.762V248.867H197.901V254.015H189.521ZM190.67 253.073H196.762V251.415H190.67V253.073ZM210.304 241.17V246.536H212.48V247.499H210.304V254.191H209.165V241.17H210.304ZM200.153 244.215V243.262H203.499V241.325H204.648V243.262H207.901V244.215H200.153ZM200.898 248.287C200.888 246.526 202.235 245.293 204.089 245.293C205.933 245.293 207.269 246.526 207.28 248.287C207.269 250.048 205.933 251.27 204.089 251.27C202.235 251.27 200.888 250.048 200.898 248.287ZM201.996 248.287C201.986 249.468 202.877 250.307 204.089 250.296C205.291 250.307 206.171 249.468 206.182 248.287C206.171 247.106 205.291 246.256 204.089 246.256C202.877 246.256 201.986 247.106 201.996 248.287ZM223.775 242.485V243.78C223.765 245.386 223.765 247.168 223.288 249.789L222.128 249.654C222.615 247.168 222.615 245.345 222.625 243.78V243.439H214.597V242.485H223.775ZM213.333 252.347V251.384H217.984V246.733H219.124V251.384H225.204V252.347H213.333ZM241.144 241.17V250.866H239.994V247.085H237.756V246.111H239.994V244.609H237.756V243.656H239.994V241.17H241.144ZM230.381 247.903C230.898 247.903 231.463 247.898 232.059 247.888V243.169H230.743V242.227H237.653V243.169H236.327V247.738C236.933 247.696 237.523 247.644 238.088 247.582L238.14 248.442C235.612 248.836 232.639 248.877 230.526 248.887L230.381 247.903ZM232.753 253.901V250.058H233.913V252.948H241.496V253.901H232.753ZM233.177 247.867C233.846 247.857 234.535 247.831 235.218 247.8V243.169H233.177V247.867ZM254.21 241.17V254.212H253.071V241.17H254.21ZM244.193 243.335V242.382H250.253V247.012H245.394V250.089C247.554 250.084 249.476 249.991 251.807 249.613L251.921 250.576C249.528 250.959 247.549 251.052 245.301 251.052H244.214V246.07H249.093V243.335H244.193ZM266.645 241.17V246.536H268.82V247.499H266.645V254.191H265.505V241.17H266.645ZM256.493 244.215V243.262H259.839V241.325H260.989V243.262H264.241V244.215H256.493ZM257.239 248.287C257.228 246.526 258.575 245.293 260.429 245.293C262.273 245.293 263.609 246.526 263.62 248.287C263.609 250.048 262.273 251.27 260.429 251.27C258.575 251.27 257.228 250.048 257.239 248.287ZM258.337 248.287C258.326 249.468 259.217 250.307 260.429 250.296C261.631 250.307 262.511 249.468 262.522 248.287C262.511 247.106 261.631 246.256 260.429 246.256C259.217 246.256 258.326 247.106 258.337 248.287ZM280.819 241.17V254.191H279.721V241.17H280.819ZM269.683 250.545C272.511 248.867 273.931 246.515 274.148 243.791H270.243V242.827H275.298C275.293 244.112 275.091 245.355 274.645 246.515H276.987V241.522H278.085V253.528H276.987V247.448H274.221C273.433 248.96 272.175 250.301 270.357 251.374L269.683 250.545ZM296.987 242.019V243.159C296.987 244.392 296.987 245.738 296.614 247.613H298.561V248.566H293.174V254.212H292.025V248.566H286.69V247.613H295.443C295.847 245.743 295.847 244.371 295.847 243.159V242.972H288.181V242.019H296.987ZM310.55 241.17V248.152H309.4V241.17H310.55ZM300.098 244.796C300.098 243.014 301.538 241.791 303.516 241.802C305.495 241.791 306.925 243.014 306.925 244.796C306.925 246.567 305.495 247.789 303.516 247.779C301.538 247.789 300.098 246.567 300.098 244.796ZM301.227 244.796C301.217 245.987 302.18 246.826 303.516 246.826C304.842 246.826 305.806 245.987 305.806 244.796C305.806 243.604 304.842 242.765 303.516 242.776C302.18 242.765 301.217 243.604 301.227 244.796ZM302.118 254.015V248.815H303.247V250.4H309.411V248.815H310.55V254.015H302.118ZM303.247 253.073H309.411V251.322H303.247V253.073ZM80.7113 265.118V268.288H82.6796V269.241H80.7113V272.328H79.5615V265.118H80.7113ZM70.5594 267.273V266.351H73.8743V265.035H75.0138V266.351H78.3184V267.273H70.5594ZM71.3052 269.997C71.2949 268.682 72.538 267.863 74.4441 267.863C76.3294 267.863 77.5622 268.682 77.5725 269.997C77.5622 271.323 76.3294 272.131 74.4441 272.131C72.538 272.131 71.2949 271.323 71.3052 269.997ZM72.4033 273.872V273.001H80.7113V275.892H73.5635V277.155H81.1878V278.046H72.4344V275.042H79.5718V273.872H72.4033ZM72.4033 269.997C72.393 270.785 73.201 271.271 74.4441 271.271C75.6664 271.271 76.4744 270.785 76.4848 269.997C76.4744 269.22 75.6664 268.713 74.4441 268.713C73.201 268.713 72.393 269.22 72.4033 269.997ZM94.0814 266.382C94.0814 268.215 96.4744 269.8 98.8259 270.132L98.3597 271.075C96.3294 270.733 94.3249 269.609 93.491 268.008C92.6622 269.619 90.6577 270.733 88.6325 271.075L88.156 270.132C90.5075 269.8 92.8901 268.247 92.8901 266.382V265.636H94.0814V266.382ZM87.5448 273.468V272.504H99.4164V273.468H94.0193V278.191H92.8901V273.468H87.5448ZM108.964 273.903C108.964 275.058 109.591 276.285 110.823 276.99C112.067 276.223 112.724 274.913 112.724 273.903V273.188H113.853V273.903C113.843 275.249 114.827 276.586 116.505 277.155L115.925 278.005C114.625 277.549 113.714 276.637 113.263 275.545C112.859 276.606 112.067 277.606 110.86 278.119C109.591 277.632 108.788 276.679 108.399 275.586C107.928 276.637 107.032 277.539 105.784 278.005L105.204 277.155C106.851 276.544 107.845 275.156 107.856 273.903V273.188H108.964V273.903ZM104.862 268.982C104.862 267.169 106.302 265.936 108.28 265.936C110.259 265.936 111.688 267.169 111.688 268.982C111.688 270.774 110.259 272.007 108.28 272.007C106.302 272.007 104.862 270.774 104.862 268.982ZM105.991 268.982C105.981 270.194 106.944 271.044 108.28 271.054C109.606 271.044 110.57 270.194 110.57 268.982C110.57 267.77 109.606 266.91 108.28 266.921C106.944 266.91 105.981 267.77 105.991 268.982ZM114.164 272.618V265.18H115.314V272.618H114.164ZM128.184 271.271V272.204H124.164V275.581H129.593V276.544H117.669V275.581H123.025V272.204H119.192V266.227H128.059V267.169H120.342V271.271H128.184ZM142.68 272.338V273.291H130.756V272.338H136.153V270.961H132.31V267.78H139.997V266.434H132.269V265.501H141.147V268.651H133.45V270.039H141.426V270.961H137.283V272.338H142.68ZM132.093 275.229V274.286H141.219V278.067H140.059V275.229H132.093ZM152.372 268.671C152.372 271.023 153.885 273.395 155.78 274.265L155.086 275.198C153.605 274.436 152.383 272.877 151.803 271.028C151.228 272.975 150.005 274.643 148.519 275.436L147.783 274.514C149.689 273.571 151.202 271.064 151.212 268.671V266.299H152.372V268.671ZM154.361 270.557V269.614H157.448V265.17H158.588V278.212H157.448V270.557H154.361ZM171.634 265.17V278.212H170.484V265.17H171.634ZM161.658 275.063V266.278H162.808V269.718H166.682V266.278H167.821V275.063H161.658ZM162.808 274.099H166.682V270.64H162.808V274.099ZM180.504 267.086C180.504 269.314 183.053 271.302 185.321 271.727L184.783 272.691C182.82 272.235 180.753 270.842 179.909 268.925C179.065 270.831 177.003 272.23 175.035 272.691L174.507 271.727C176.765 271.292 179.292 269.324 179.303 267.086V266.081H180.504V267.086ZM174.009 276.42V275.456H185.933V276.42H174.009ZM197.197 265.17V270.536H199.372V271.499H197.197V278.191H196.057V265.17H197.197ZM187.045 268.215V267.262H190.391V265.325H191.541V267.262H194.793V268.215H187.045ZM187.791 272.287C187.78 270.526 189.127 269.293 190.981 269.293C192.825 269.293 194.161 270.526 194.172 272.287C194.161 274.048 192.825 275.27 190.981 275.27C189.127 275.27 187.78 274.048 187.791 272.287ZM188.889 272.287C188.878 273.468 189.769 274.307 190.981 274.296C192.183 274.307 193.063 273.468 193.074 272.287C193.063 271.106 192.183 270.256 190.981 270.256C189.769 270.256 188.878 271.106 188.889 272.287ZM210.667 266.485V267.78C210.657 269.386 210.657 271.168 210.18 273.789L209.02 273.654C209.507 271.168 209.507 269.345 209.517 267.78V267.439H201.489V266.485H210.667ZM200.225 276.347V275.384H204.876V270.733H206.016V275.384H212.097V276.347H200.225ZM221.644 273.903C221.644 275.058 222.271 276.285 223.504 276.99C224.747 276.223 225.405 274.913 225.405 273.903V273.188H226.534V273.903C226.523 275.249 227.507 276.586 229.186 277.155L228.606 278.005C227.305 277.549 226.394 276.637 225.943 275.545C225.539 276.606 224.747 277.606 223.54 278.119C222.271 277.632 221.468 276.679 221.08 275.586C220.608 276.637 219.712 277.539 218.464 278.005L217.884 277.155C219.531 276.544 220.525 275.156 220.536 273.903V273.188H221.644V273.903ZM217.542 268.982C217.542 267.169 218.982 265.936 220.961 265.936C222.939 265.936 224.369 267.169 224.369 268.982C224.369 270.774 222.939 272.007 220.961 272.007C218.982 272.007 217.542 270.774 217.542 268.982ZM218.671 268.982C218.661 270.194 219.624 271.044 220.961 271.054C222.286 271.044 223.25 270.194 223.25 268.982C223.25 267.77 222.286 266.91 220.961 266.921C219.624 266.91 218.661 267.77 218.671 268.982ZM226.844 272.618V265.18H227.994V272.618H226.844ZM233.001 272.981V274.503H239.507V272.981H240.667V278.015H231.862V272.981H233.001ZM230.349 272.069V271.106H242.221V272.069H230.349ZM231.023 269.272C233.343 268.951 235.695 267.584 235.695 265.926V265.315H236.876V265.926C236.876 267.532 239.248 268.972 241.537 269.272L241.113 270.184C239.098 269.883 237.114 268.853 236.29 267.402C235.462 268.868 233.468 269.883 231.458 270.184L231.023 269.272ZM233.001 277.083H239.507V275.415H233.001V277.083ZM254.189 265.17V278.191H253.05V265.17H254.189ZM244.307 274.835V266.454H245.436V273.83C247.425 273.825 249.471 273.67 251.662 273.209L251.817 274.193C249.507 274.669 247.446 274.835 245.363 274.835H244.307ZM266.645 265.17V270.318H268.82V271.282H266.645V278.212H265.495V265.17H266.645ZM257.135 274.949V266.444H263.216V267.387H258.285V273.975C260.641 273.97 262.309 273.877 264.241 273.519L264.386 274.514C262.346 274.876 260.636 274.949 258.16 274.949H257.135ZM271.051 277.083C270.533 277.083 270.098 276.658 270.108 276.14C270.098 275.622 270.533 275.198 271.051 275.198C271.569 275.198 271.993 275.622 271.993 276.14C271.993 276.658 271.569 277.083 271.051 277.083Z" fill="white"/>
<g filter="url(#filter0_d_2967_33736)">
<g clip-path="url(#clip0_2967_33736)">
<path d="M340 156C340 151.582 343.582 148 348 148H512C516.418 148 520 151.582 520 156V360C520 364.418 516.418 368 512 368H348C343.582 368 340 364.418 340 360V156Z" fill="white"/>
<path d="M375.493 176.066V189.295H373.852V176.066H375.493ZM364.528 185.654C367.993 184.007 369.599 181.774 369.889 178.76H365.202V177.47H371.547C371.541 181.412 370.013 184.758 365.383 186.959L364.528 185.654ZM388.296 182.08V183.375H384.38V186.4H389.653V187.736H377.548V186.4H382.764V183.375H379.014V177.045H388.192V178.35H380.646V182.08H388.296ZM400.383 176.196C403.398 176.201 405.149 177.004 405.149 178.47C405.149 179.806 403.698 180.588 401.166 180.728V181.567H406.423V182.867H394.36V181.567H399.555V180.723C397.048 180.578 395.608 179.801 395.613 178.47C395.608 177.004 397.369 176.201 400.383 176.196ZM395.779 184.949V183.717H404.921V186.959H397.39V187.943H405.283V189.186H395.794V185.809H403.315V184.949H395.779ZM397.317 178.47C397.307 179.195 398.363 179.537 400.383 179.542C402.424 179.537 403.476 179.195 403.476 178.47C403.476 177.781 402.424 177.413 400.383 177.408C398.363 177.413 397.307 177.781 397.317 178.47ZM418.5 176.066V189.326H416.879V176.066H418.5ZM408.187 178.537V177.216H414.424V182.183H409.876V184.846C411.958 184.835 413.755 184.732 415.822 184.385L415.967 185.716C413.714 186.104 411.735 186.187 409.358 186.187H408.198V180.888H412.766V178.537H408.187ZM431.628 176.066V189.295H429.987V176.066H431.628ZM420.663 185.654C424.128 184.007 425.734 181.774 426.024 178.76H421.337V177.47H427.682C427.676 181.412 426.149 184.758 421.518 186.959L420.663 185.654ZM375.209 199.237V200.439C375.198 202.044 375.219 203.893 374.623 206.695L373.028 206.535C373.261 205.468 373.396 204.52 373.479 203.671L365.668 204.116L365.43 202.723L373.572 202.427C373.603 201.739 373.608 201.122 373.608 200.552H365.844V199.237H375.209ZM364.44 209.674V208.332H368.895V205.069H370.511V208.332H376.503V209.674H364.44ZM388.658 198.066V211.326H387.032V203.572H383.251V202.251H387.032V198.066H388.658ZM378.247 208.177V199.506H379.884V206.815C381.666 206.789 383.422 206.659 385.286 206.291L385.468 207.628C383.339 208.068 381.36 208.182 379.33 208.177H378.247Z" fill="black"/>
<g clip-path="url(#clip1_2967_33736)">
<path d="M408.731 306.095C408.731 306.095 341.502 323.189 340.031 357.765C338.561 392.34 388.89 411.333 430.41 328.887L429.822 264.524C429.763 261.796 427.233 259.706 424.711 260.498C423.431 260.894 422.292 261.972 421.836 264.34C420.549 270.977 419.012 271.373 416.019 278.897C413.026 286.42 407.216 298.117 408.731 306.095Z" fill="#BDDAFE"/>
<path d="M350.742 337.461C350.742 337.461 357.515 329.776 363.295 326.014" stroke="#1D0C8C" stroke-miterlimit="10" stroke-linecap="round"/>
<path d="M429.123 267.767C429.123 267.767 425.211 265.068 423.74 271.983C422.27 278.898 421.292 284.97 419.828 287.669" stroke="#1D0C8C" stroke-miterlimit="10" stroke-linecap="round"/>
<path d="M451.273 306.808C451.273 306.808 518.502 323.902 519.972 358.478C521.443 393.053 471.114 412.046 429.594 329.6L429.711 264.195C429.77 261.468 432.3 259.378 434.822 260.17C436.102 260.566 437.242 261.644 437.698 264.012C438.985 270.649 440.985 272.093 443.978 279.61C446.971 287.134 452.78 298.83 451.266 306.808H451.273Z" fill="#BDDAFE"/>
<path d="M509.256 338.172C509.256 338.172 502.483 330.487 496.703 326.725" stroke="#1D0C8C" stroke-miterlimit="10" stroke-linecap="round"/>
<path d="M430.875 268.478C430.875 268.478 434.787 265.779 436.258 272.694C437.729 279.609 438.707 285.681 440.17 288.38" stroke="#1D0C8C" stroke-miterlimit="10" stroke-linecap="round"/>
<path d="M429.844 262.449C429.844 262.449 431.123 327.128 430.41 328.887" stroke="#1D0C8C" stroke-miterlimit="10" stroke-linecap="round"/>
</g>
<g clip-path="url(#clip2_2967_33736)">
<path d="M494 256.857C492.268 256.481 490.589 256.583 488.945 256.806C487.3 257.063 485.673 257.44 484.117 258.296C485.848 258.673 487.528 258.57 489.172 258.347C490.816 258.09 492.443 257.714 494 256.857Z" fill="#3652CD"/>
<path d="M480.953 258.673C477.664 258.433 474.428 258.673 471.21 259.032C467.991 259.426 464.79 259.957 461.641 260.95C464.93 261.19 468.166 260.95 471.385 260.591C474.603 260.18 477.804 259.666 480.953 258.673Z" fill="#3652CD"/>
<path d="M470.75 220C469.298 220.994 468.231 222.261 467.269 223.597C466.342 224.95 465.52 226.388 465.117 228.084C466.587 227.091 467.636 225.823 468.598 224.487C469.508 223.117 470.33 221.696 470.75 220Z" fill="#3652CD"/>
<path d="M463.266 230.618C460.852 232.827 458.84 235.328 456.916 237.879C455.044 240.466 453.26 243.12 451.86 246.049C454.274 243.84 456.286 241.339 458.21 238.787C460.082 236.201 461.866 233.546 463.266 230.618Z" fill="#3652CD"/>
<path d="M457.336 254.287C458.735 254.133 459.872 253.585 460.957 252.934C462.006 252.249 462.986 251.461 463.703 250.279C462.304 250.434 461.167 250.982 460.082 251.632C459.033 252.318 458.053 253.105 457.336 254.287Z" fill="#3652CD"/>
<path d="M465.767 249.047C468.198 248.328 470.385 247.197 472.502 245.981C474.601 244.714 476.63 243.361 478.414 241.58C475.983 242.299 473.796 243.412 471.679 244.645C469.58 245.913 467.551 247.283 465.767 249.047Z" fill="#3652CD"/>
<path d="M446.277 238.258C447.116 237.573 447.466 236.751 447.711 235.911C447.903 235.055 447.991 234.182 447.606 233.171C446.766 233.856 446.416 234.678 446.172 235.518C445.979 236.374 445.892 237.247 446.277 238.258Z" fill="#3652CD"/>
<path d="M448.079 231.561C449.164 230.088 449.794 228.495 450.301 226.851C450.756 225.207 451.106 223.528 450.983 221.713C449.899 223.186 449.269 224.778 448.762 226.423C448.307 228.067 447.957 229.745 448.079 231.561Z" fill="#3652CD"/>
<path d="M465.033 268.417C465.697 269.273 466.502 269.667 467.342 269.958C468.199 270.198 469.091 270.335 470.141 270.027C469.476 269.171 468.671 268.759 467.832 268.485C466.974 268.246 466.082 268.109 465.033 268.417Z" fill="#3652CD"/>
<path d="M471.751 270.575C473.186 271.722 474.778 272.424 476.422 273.024C478.066 273.572 479.763 274 481.617 274C480.183 272.853 478.591 272.15 476.947 271.551C475.302 271.003 473.606 270.575 471.751 270.575Z" fill="#3652CD"/>
</g>
</g>
</g>
<g filter="url(#filter1_d_2967_33736)">
<path d="M540 336C540 331.582 543.582 328 548 328H712C716.418 328 720 331.582 720 336V540C720 544.418 716.418 548 712 548H548C543.582 548 540 544.418 540 540V336Z" fill="white"/>
<path d="M574.81 356.066V361.085H576.85V362.422H574.81V369.326H573.178V356.066H574.81ZM564.984 366.078V357.315H571.179V358.635H566.605V364.727C568.672 364.711 570.298 364.618 572.122 364.291L572.308 365.664C570.252 366.021 568.47 366.084 566.072 366.078H564.984ZM589.787 357.827V359.164H587.995V360.681H589.787V362.028H587.995V363.841H586.359V356.066H587.995V357.827H589.787ZM577.693 359.987C577.683 358.117 579.221 356.812 581.267 356.817C583.308 356.812 584.825 358.117 584.836 359.987C584.825 361.847 583.308 363.157 581.267 363.162C579.221 363.157 577.683 361.847 577.693 359.987ZM579.206 366.726C579.2 365.11 580.941 364.152 583.686 364.152C586.4 364.152 588.114 365.11 588.114 366.726C588.114 368.331 586.4 369.29 583.686 369.285C580.941 369.29 579.2 368.331 579.206 366.726ZM579.294 359.987C579.283 361.09 580.128 361.779 581.267 361.785C582.396 361.779 583.24 361.09 583.246 359.987C583.24 358.894 582.396 358.18 581.267 358.185C580.128 358.18 579.283 358.894 579.294 359.987ZM580.832 366.726C580.827 367.565 581.868 367.99 583.686 367.984C585.499 367.99 586.514 367.565 586.514 366.726C586.514 365.897 585.499 365.452 583.686 365.452C581.868 365.452 580.827 365.897 580.832 366.726ZM601.103 356.077V360.236H602.952V361.577H601.103V365.97H599.466V356.077H601.103ZM590.666 358.837V357.542H593.79V356.066H595.411V357.542H598.524V358.837H590.666ZM591.35 361.924C591.345 360.402 592.671 359.392 594.603 359.392C596.504 359.392 597.825 360.402 597.83 361.924C597.825 363.432 596.504 364.426 594.603 364.421C592.671 364.426 591.345 363.432 591.35 361.924ZM592.619 369.046V365.193H594.24V367.725H601.621V369.046H592.619ZM592.93 361.924C592.919 362.717 593.593 363.178 594.603 363.173C595.602 363.178 596.276 362.717 596.286 361.924C596.276 361.116 595.602 360.645 594.603 360.645C593.593 360.645 592.919 361.116 592.93 361.924ZM575.457 378.066V391.326H573.815V378.066H575.457ZM564.865 383.702C564.86 380.843 566.315 379.03 568.325 379.025C570.309 379.03 571.769 380.843 571.769 383.702C571.769 386.581 570.309 388.394 568.325 388.389C566.315 388.394 564.86 386.581 564.865 383.702ZM566.434 383.702C566.434 385.737 567.196 386.918 568.325 386.918C569.433 386.918 570.195 385.737 570.195 383.702C570.195 381.682 569.433 380.496 568.325 380.496C567.196 380.496 566.434 381.682 566.434 383.702ZM588.871 378.066V388.089H587.322V378.066H588.871ZM578.061 385.711V379.102H579.604V381.195H581.78V379.102H583.292V381.785H584.691V378.294H586.229V387.674H584.691V383.101H583.292V385.711H578.061ZM579.604 384.396H581.78V382.443H579.604V384.396ZM580.003 391.046V386.752H581.63V389.725H589.228V391.046H580.003ZM601.419 385.007V386.297H592.132V379.102H601.3V380.423H593.784V382.008H601V383.298H593.784V385.007H601.419ZM590.656 389.694V388.363H602.761V389.694H590.656Z" fill="black"/>
<g clip-path="url(#clip3_2967_33736)">
<path d="M677.915 454.995L676.672 458.234L681.163 459.957L682.406 456.718L677.915 454.995Z" fill="#3652CD"/>
<path d="M667.627 459.429L670.087 457.939C670.847 459.199 673.467 460.979 674.937 461.799L673.527 464.309C673.067 464.049 669.017 461.739 667.617 459.419L667.627 459.429Z" fill="#8FB3FF"/>
<path d="M661.742 472.82C662.532 472.44 663.312 472 664.062 471.57C664.912 471.09 665.792 470.59 666.702 470.17C668.852 469.16 670.752 468.76 672.502 468.95C674.782 469.2 676.722 470.57 677.462 472.44C677.662 472.96 677.762 473.52 677.752 474.1C678.472 474.59 679.132 475.23 679.682 476C680.852 477.65 681.432 479.63 681.952 481.39L680.622 481.78C680.112 480.05 679.592 478.26 678.552 476.8C678.262 476.39 677.892 475.98 677.472 475.62C677.432 475.73 677.382 475.85 677.332 475.96C676.872 476.96 676.092 477.68 675.142 477.99C674.202 478.3 673.032 478.08 672.232 477.43C671.582 476.91 671.262 476.17 671.342 475.42C671.502 473.96 673.022 473.11 674.372 473.05C675.012 473.02 675.672 473.13 676.302 473.35C676.272 473.21 676.232 473.07 676.182 472.94C675.642 471.57 674.112 470.52 672.362 470.33C670.872 470.17 669.222 470.52 667.312 471.43C666.452 471.84 665.592 472.32 664.762 472.79C663.982 473.23 663.182 473.68 662.362 474.08L661.752 472.83L661.742 472.82ZM676.252 474.83C675.682 474.56 675.062 474.41 674.412 474.44C673.652 474.47 672.772 474.92 672.702 475.58C672.662 475.93 672.882 476.2 673.082 476.36C673.522 476.71 674.182 476.85 674.682 476.68C675.262 476.49 675.752 476.02 676.052 475.37C676.132 475.2 676.202 475.02 676.242 474.83H676.252Z" fill="#5758FF"/>
<path d="M680.79 467.009C680.31 466.939 679.97 466.489 680.04 465.999C680.11 465.519 680.56 465.179 681.05 465.249C681.53 465.319 681.87 465.769 681.8 466.259C681.73 466.749 681.28 467.079 680.79 467.009Z" fill="#20221E"/>
<path d="M597.744 471.866L596.328 475.895L599.225 476.912L600.64 472.884L597.744 471.866Z" fill="#8FB3FF"/>
<path d="M596.461 463.891L597.841 466.041C596.741 466.741 595.241 469.111 594.541 470.431L592.281 469.251C592.501 468.841 594.441 465.191 596.461 463.891Z" fill="#3652CD"/>
<path d="M584.448 459.01C584.808 459.7 585.218 460.38 585.618 461.04C586.068 461.78 586.528 462.55 586.928 463.34C587.878 465.22 588.278 466.89 588.158 468.44C587.998 470.46 586.828 472.22 585.198 472.92C584.748 473.11 584.248 473.21 583.738 473.22C583.328 473.87 582.768 474.47 582.108 474.98C580.678 476.06 578.928 476.62 577.388 477.13L577.008 475.96C578.528 475.47 580.098 474.95 581.368 474C581.718 473.73 582.078 473.4 582.388 473.01C582.288 472.98 582.188 472.94 582.088 472.89C581.198 472.5 580.538 471.83 580.228 471C579.928 470.18 580.098 469.14 580.648 468.41C581.098 467.82 581.738 467.52 582.408 467.57C583.708 467.68 584.498 469 584.588 470.19C584.628 470.76 584.548 471.34 584.368 471.91C584.488 471.88 584.618 471.84 584.728 471.79C585.928 471.28 586.818 469.89 586.948 468.34C587.058 467.02 586.698 465.56 585.848 463.89C585.468 463.14 585.018 462.39 584.578 461.67C584.168 460.99 583.748 460.3 583.378 459.58L584.468 459.01H584.448ZM583.038 471.92C583.258 471.41 583.378 470.86 583.338 470.28C583.288 469.6 582.878 468.84 582.288 468.8C581.968 468.77 581.738 468.98 581.608 469.16C581.308 469.56 581.208 470.14 581.368 470.58C581.558 471.09 581.978 471.51 582.558 471.76C582.718 471.83 582.878 471.88 583.038 471.92Z" fill="#5758FF"/>
<path d="M590.083 475.74C590.133 475.31 590.523 475 590.953 475.05C591.383 475.1 591.693 475.49 591.643 475.92C591.593 476.35 591.203 476.66 590.773 476.61C590.343 476.56 590.033 476.17 590.083 475.74Z" fill="#20221E"/>
<path d="M672.1 492.01H591.18V522.14H672.1V492.01Z" fill="#3652CD"/>
<path d="M678.987 488.141H584.297V495.891H678.987V488.141Z" fill="#8FB3FF"/>
<path d="M635.093 488.109H628.203V522.109H635.093V488.109Z" fill="#1D0C8C"/>
<path d="M629.747 491.56C624.847 490.18 620.207 487.9 616.127 484.87C613.827 483.17 611.617 481.07 610.847 478.32C610.077 475.57 611.347 472.09 614.107 471.33C615.657 470.9 617.337 471.4 618.667 472.31C619.987 473.22 621.007 474.5 621.967 475.78C625.227 480.14 628.057 484.82 630.417 489.72" stroke="#1D0C8C" stroke-width="2" stroke-miterlimit="10"/>
<path d="M633.529 491.56C638.429 490.18 643.069 487.9 647.149 484.87C649.439 483.17 651.659 481.07 652.429 478.32C653.199 475.57 651.929 472.09 649.169 471.33C647.619 470.9 645.939 471.4 644.609 472.31C643.289 473.22 642.269 474.5 641.309 475.78C638.049 480.14 635.219 484.82 632.859 489.72" stroke="#1D0C8C" stroke-width="2" stroke-miterlimit="10"/>
<path d="M632.088 491.321C628.138 484.211 625.928 476.141 625.688 468.011C625.598 464.981 626.168 461.331 628.938 460.091C631.348 459.011 634.298 460.521 635.648 462.791C636.998 465.061 637.098 467.841 636.978 470.481C636.658 477.331 635.068 484.051 633.478 490.721" stroke="#1D0C8C" stroke-width="3" stroke-miterlimit="10"/>
</g>
</g>
<g filter="url(#filter2_d_2967_33736)">
<path d="M540 96C540 91.5817 543.582 88 548 88H712C716.418 88 720 91.5817 720 96V300C720 304.418 716.418 308 712 308H548C543.582 308 540 304.418 540 300V96Z" fill="white"/>
<path d="M575.043 125.296V129.14H565.865V125.296H569.651V124.354H564.44V123.069H576.503V124.354H571.282V125.296H575.043ZM565.036 118.294V117.061H569.651V115.937H571.282V117.061H575.851V118.294H565.036ZM566.067 120.578C566.061 119.345 567.657 118.713 570.464 118.708C573.292 118.713 574.862 119.345 574.862 120.578C574.862 121.842 573.292 122.494 570.464 122.494C567.657 122.494 566.061 121.842 566.067 120.578ZM567.47 127.912H573.458V126.519H567.47V127.912ZM567.812 120.578C567.807 121.111 568.708 121.37 570.464 121.37C572.241 121.37 573.121 121.111 573.121 120.578C573.121 120.06 572.241 119.821 570.464 119.811C568.708 119.821 567.807 120.06 567.812 120.578ZM588.55 116.066V129.295H586.923V116.066H588.55ZM577.678 125.54C579.791 124.607 581.008 122.38 581.008 120.267V119.573H578.097V118.273H580.998V116.346H582.619V118.273H585.478V119.573H582.624V120.267C582.624 122.282 583.862 124.436 585.996 125.327L585.11 126.581C583.587 125.939 582.448 124.613 581.842 123.022C581.246 124.711 580.107 126.125 578.563 126.798L577.678 125.54ZM601.709 116.066V129.295H600.067V116.066H601.709ZM590.744 125.654C594.209 124.007 595.815 121.774 596.105 118.76H591.417V117.47H597.762C597.757 121.412 596.229 124.758 591.599 126.959L590.744 125.654ZM614.361 117.164C614.361 118.827 616.231 120.516 619.049 120.878L618.407 122.194C616.159 121.862 614.372 120.759 613.512 119.262C612.642 120.759 610.86 121.862 608.633 122.194L607.985 120.878C610.788 120.516 612.652 118.837 612.652 117.164V116.486H614.361V117.164ZM607.467 124.685V123.344H619.531V124.685H614.273V129.295H612.663V124.685H607.467ZM631.685 116.066V129.326H630.059V123.24H626.351V121.914H630.059V120.257H626.351V118.946H630.059V116.066H631.685ZM621.275 126.389V117.475H622.911V125.022C624.864 125.006 626.376 124.913 628.044 124.581L628.2 125.928C626.319 126.296 624.641 126.384 622.342 126.389H621.275ZM637.977 116.978C640.075 116.978 641.608 118.299 641.613 120.179C641.608 122.064 640.075 123.38 637.977 123.38C635.895 123.38 634.336 122.064 634.341 120.179C634.336 118.299 635.895 116.978 637.977 116.978ZM633.745 125.208C636.133 125.213 639.432 125.188 642.297 124.778L642.421 125.959C639.458 126.529 636.283 126.55 633.942 126.55L633.745 125.208ZM635.957 120.179C635.947 121.287 636.817 121.966 637.977 121.966C639.148 121.966 640.023 121.287 640.023 120.179C640.023 119.081 639.153 118.392 637.977 118.392C636.817 118.392 635.947 119.081 635.957 120.179ZM643.084 129.326V116.066H644.71V129.326H643.084ZM574.97 138.579V143.184H565.958V138.579H574.97ZM564.44 145.561V144.277H576.503V145.561H571.267V147.001H575.032V151.352H573.396V148.286H565.777V147.001H569.651V145.561H564.44ZM567.548 141.894H573.365V139.879H567.548V141.894ZM582.236 140.169C582.236 141.837 583.313 143.412 585.349 144.059L584.478 145.328C583.049 144.846 582.018 143.878 581.448 142.65C580.873 144.054 579.806 145.157 578.278 145.701L577.398 144.416C579.532 143.676 580.599 141.915 580.609 140.019V138.766H582.236V140.169ZM579.206 148.772C579.2 147.198 580.92 146.271 583.686 146.276C586.421 146.271 588.114 147.198 588.114 148.772C588.114 150.373 586.421 151.29 583.686 151.285C580.92 151.29 579.2 150.373 579.206 148.772ZM580.832 148.772C580.827 149.586 581.868 150 583.686 150.005C585.499 150 586.514 149.586 586.514 148.772C586.514 147.996 585.499 147.55 583.686 147.55C581.868 147.55 580.827 147.996 580.832 148.772ZM586.359 145.981V138.066H587.995V141.278H589.844V142.635H587.995V145.981H586.359ZM605.449 138.066V147.845H603.823V144.396H601.948V143.044H603.823V141.775H601.948V140.459H603.823V138.066H605.449ZM594.37 144.763C594.836 144.763 595.344 144.758 595.872 144.753V140.366H594.717V139.05H601.751V140.366H600.58V144.587C601.077 144.551 601.57 144.51 602.036 144.458L602.103 145.654C599.596 146.053 596.659 146.105 594.551 146.11L594.37 144.763ZM596.742 151.046V147.084H598.384V149.725H605.775V151.046H596.742ZM597.452 144.727C597.97 144.717 598.493 144.701 599.021 144.675V140.366H597.452V144.727ZM612.466 141.821C612.466 143.997 613.74 146.281 615.869 147.172L614.983 148.456C613.419 147.778 612.269 146.39 611.663 144.706C611.057 146.525 609.897 148.052 608.343 148.788L607.405 147.503C609.498 146.545 610.798 144.08 610.808 141.821V140.708H607.892V139.372H615.356V140.708H612.466V141.821ZM616.842 151.295V138.066H618.484V151.295H616.842Z" fill="black"/>
<g clip-path="url(#clip4_2967_33736)">
<path d="M658.993 204.756L606.227 192.274C603.083 191.269 600.062 192.455 599.228 195.025L580.672 235.536L595.832 259.018L674.153 228.239L658.993 204.756Z" fill="#1D0C8C"/>
<path d="M674.714 235.643L603.124 263.775L572.7 216.643C571.384 214.605 571.978 212.303 574.024 211.499L638.206 186.278C640.251 185.474 642.974 186.473 644.29 188.511L674.718 235.643H674.714Z" fill="#8FB3FF"/>
<path d="M583.539 226.239L647.721 201.014" stroke="#1D0C8C" stroke-miterlimit="10"/>
<path d="M589.344 235.229L653.529 210.008" stroke="#1D0C8C" stroke-miterlimit="10"/>
<path d="M595.148 244.22L659.334 218.998" stroke="#1D0C8C" stroke-miterlimit="10"/>
<path d="M600.953 253.214L665.135 227.992" stroke="#FEA8B6" stroke-miterlimit="10"/>
<path d="M685.812 254.062L615.486 281.697C613.277 282.563 610.339 281.485 608.918 279.287L580.672 235.535L635.241 244.014L658.993 204.756L687.239 248.511C688.66 250.709 688.02 253.196 685.812 254.062Z" fill="#BDDAFE"/>
<path d="M635.242 244.015L687.762 252.174C687.835 251.993 687.883 251.802 687.925 251.607L635.572 243.473L635.246 244.015H635.242Z" fill="#8FB3FF"/>
<path d="M634.49 243.896L611.703 281.558C611.929 281.649 612.155 281.732 612.384 281.795L635.243 244.015L634.49 243.896Z" fill="#8FB3FF"/>
<path d="M640.724 251.207C640.488 251.628 639.964 251.833 639.387 251.733L636.213 251.169C636.035 251.138 634.431 250.849 632.642 250.348C629.878 249.576 626.46 248.307 624.529 245.319C622.626 242.37 623.48 239.035 626.443 237.873C627.613 237.414 628.937 237.362 630.229 237.651C630.861 237.79 631.441 237.564 631.67 237.084C632.142 236.103 632.983 235.303 634.153 234.844C637.116 233.679 641.058 235.129 642.961 238.078C644.888 241.066 644.159 243.963 643.308 246.158C642.759 247.573 642.103 248.752 642.027 248.884L640.717 251.211L640.724 251.207Z" fill="#3652CD"/>
</g>
</g>
<defs>
<filter id="filter0_d_2967_33736" x="328" y="140" width="204" height="244" filterUnits="userSpaceOnUse" color-interpolation-filters="sRGB">
<feFlood flood-opacity="0" result="BackgroundImageFix"/>
<feColorMatrix in="SourceAlpha" type="matrix" values="0 0 0 0 0 0 0 0 0 0 0 0 0 0 0 0 0 0 127 0" result="hardAlpha"/>
<feOffset dy="4"/>
<feGaussianBlur stdDeviation="6"/>
<feComposite in2="hardAlpha" operator="out"/>
<feColorMatrix type="matrix" values="0 0 0 0 0 0 0 0 0 0 0 0 0 0 0 0 0 0 0.08 0"/>
<feBlend mode="normal" in2="BackgroundImageFix" result="effect1_dropShadow_2967_33736"/>
<feBlend mode="normal" in="SourceGraphic" in2="effect1_dropShadow_2967_33736" result="shape"/>
</filter>
<filter id="filter1_d_2967_33736" x="528" y="320" width="204" height="244" filterUnits="userSpaceOnUse" color-interpolation-filters="sRGB">
<feFlood flood-opacity="0" result="BackgroundImageFix"/>
<feColorMatrix in="SourceAlpha" type="matrix" values="0 0 0 0 0 0 0 0 0 0 0 0 0 0 0 0 0 0 127 0" result="hardAlpha"/>
<feOffset dy="4"/>
<feGaussianBlur stdDeviation="6"/>
<feComposite in2="hardAlpha" operator="out"/>
<feColorMatrix type="matrix" values="0 0 0 0 0 0 0 0 0 0 0 0 0 0 0 0 0 0 0.08 0"/>
<feBlend mode="normal" in2="BackgroundImageFix" result="effect1_dropShadow_2967_33736"/>
<feBlend mode="normal" in="SourceGraphic" in2="effect1_dropShadow_2967_33736" result="shape"/>
</filter>
<filter id="filter2_d_2967_33736" x="528" y="80" width="204" height="244" filterUnits="userSpaceOnUse" color-interpolation-filters="sRGB">
<feFlood flood-opacity="0" result="BackgroundImageFix"/>
<feColorMatrix in="SourceAlpha" type="matrix" values="0 0 0 0 0 0 0 0 0 0 0 0 0 0 0 0 0 0 127 0" result="hardAlpha"/>
<feOffset dy="4"/>
<feGaussianBlur stdDeviation="6"/>
<feComposite in2="hardAlpha" operator="out"/>
<feColorMatrix type="matrix" values="0 0 0 0 0 0 0 0 0 0 0 0 0 0 0 0 0 0 0.08 0"/>
<feBlend mode="normal" in2="BackgroundImageFix" result="effect1_dropShadow_2967_33736"/>
<feBlend mode="normal" in="SourceGraphic" in2="effect1_dropShadow_2967_33736" result="shape"/>
</filter>
<clipPath id="clip0_2967_33736">
<path d="M340 156C340 151.582 343.582 148 348 148H512C516.418 148 520 151.582 520 156V360C520 364.418 516.418 368 512 368H348C343.582 368 340 364.418 340 360V156Z" fill="white"/>
</clipPath>
<clipPath id="clip1_2967_33736">
<rect width="180" height="128" fill="white" transform="translate(340 260)"/>
</clipPath>
<clipPath id="clip2_2967_33736">
<rect width="48" height="54" fill="white" transform="translate(494 274) rotate(180)"/>
</clipPath>
<clipPath id="clip3_2967_33736">
<rect width="105.42" height="67.14" fill="white" transform="translate(577 455)"/>
</clipPath>
<clipPath id="clip4_2967_33736">
<rect width="116" height="96" fill="white" transform="translate(572 186)"/>
</clipPath>
</defs>
</svg>
