<svg width="120" height="102" viewBox="0 0 120 102" fill="none" xmlns="http://www.w3.org/2000/svg">
<g clip-path="url(#clip0_2967_31069)">
<path d="M57.4909 64.5858C57.5917 65.2416 57.1393 65.8563 56.4801 65.9566L11.0141 72.934C10.3549 73.0343 9.73701 72.5843 9.6336 71.9284L0.0140547 9.87458C-0.0867682 9.21876 0.365642 8.60408 1.02487 8.50121L46.4909 1.52375C47.1501 1.42345 47.7679 1.87352 47.8713 2.52935L57.4935 64.5858H57.4909Z" fill="#1D0C8C"/>
<path d="M54.7152 59.8358C54.816 60.4917 54.3636 61.1063 53.7044 61.2092L12.2274 67.5746C11.5681 67.6749 10.9503 67.2248 10.8469 66.569L2.25624 11.1505C2.15542 10.4947 2.60783 9.88003 3.26706 9.77716L44.7441 3.41437C45.4033 3.31407 46.0212 3.76415 46.1246 4.41997L54.7152 59.8333V59.8358Z" fill="#D8E5FE"/>
<path d="M30.2222 2.12351L26.608 2.67904C26.3392 0.953318 24.7183 -0.229738 22.9836 0.0377353C21.2489 0.302637 20.0597 1.91777 20.3286 3.64348L16.7145 4.19901C15.3934 4.40218 14.4886 5.63153 14.6928 6.94318L14.7239 7.14379C14.9281 8.45801 16.1638 9.35816 17.4823 9.15498L30.99 7.08206C32.311 6.87889 33.2158 5.64954 33.0116 4.33789L32.9806 4.13728C32.7763 2.82306 31.5406 1.92291 30.2222 2.12609V2.12351ZM23.679 4.52563C22.8853 4.64651 22.1434 4.10642 22.0219 3.31686C21.9004 2.5273 22.4433 1.78917 23.2369 1.6683C24.0306 1.54742 24.7725 2.08751 24.8941 2.87707C25.0156 3.66663 24.4727 4.40476 23.679 4.52563Z" fill="#5758FF"/>
<g opacity="0.5">
<path d="M22.6993 15.5563C22.7924 16.1504 22.3813 16.706 21.7841 16.7985L9.91805 18.6194C9.32087 18.712 8.76247 18.3031 8.6694 17.709C8.57633 17.1149 8.98738 16.5594 9.58456 16.4668L21.4506 14.6459C22.0478 14.5533 22.6062 14.9622 22.6993 15.5563Z" fill="url(#paint0_linear_2967_31069)"/>
<path d="M17.7662 23.1891C17.8593 23.7832 17.4482 24.3388 16.8511 24.4314L9.84774 25.5064C9.25056 25.599 8.69215 25.1901 8.59909 24.596C8.50602 24.0019 8.91707 23.4463 9.51425 23.3537L16.5176 22.2787C17.1147 22.1861 17.6732 22.595 17.7662 23.1891Z" fill="url(#paint1_linear_2967_31069)"/>
<path d="M32.3279 20.9548C32.421 21.5489 32.0099 22.1044 31.4127 22.197L19.6837 23.9973C19.0865 24.0899 18.5281 23.6809 18.435 23.0868C18.342 22.4927 18.753 21.9372 19.3502 21.8446L31.0793 20.0443C31.6764 19.9517 32.2348 20.3607 32.3279 20.9548Z" fill="url(#paint2_linear_2967_31069)"/>
<path d="M31.8104 29.3141C31.9035 29.9082 31.4924 30.4638 30.8952 30.5564L11.0977 33.5937C10.5006 33.6863 9.94215 33.2774 9.84909 32.6833C9.75602 32.0892 10.1671 31.5337 10.7642 31.4411L30.5617 28.4037C31.1589 28.3111 31.7173 28.72 31.8104 29.3141Z" fill="url(#paint3_linear_2967_31069)"/>
<path d="M24.5717 34.9919C24.6648 35.586 24.2537 36.1415 23.6566 36.2341L11.7931 38.055C11.1959 38.1476 10.6375 37.7386 10.5444 37.1445C10.4513 36.5504 10.8624 35.9949 11.4596 35.9023L23.3231 34.0814C23.9202 33.9889 24.4786 34.3978 24.5717 34.9919Z" fill="url(#paint4_linear_2967_31069)"/>
<path d="M35.3559 33.3376C35.4489 33.9317 35.0379 34.4872 34.4407 34.5798L27.5899 35.6317C26.9927 35.7243 26.4343 35.3153 26.3413 34.7212C26.2482 34.1271 26.6593 33.5716 27.2564 33.479L34.1072 32.4271C34.7044 32.3346 35.2628 32.7435 35.3559 33.3376Z" fill="url(#paint5_linear_2967_31069)"/>
<path d="M28.4466 41.152C28.5397 41.7461 28.1287 42.3017 27.5315 42.3942L12.8165 44.6523C12.2193 44.7449 11.6609 44.336 11.5678 43.7419C11.4748 43.1478 11.8858 42.5923 12.483 42.4997L27.198 40.2416C27.7952 40.149 28.3536 40.5579 28.4466 41.152Z" fill="url(#paint6_linear_2967_31069)"/>
<path d="M36.3834 39.9352C36.4764 40.5293 36.0654 41.0849 35.4682 41.1774L30.5899 41.9259C29.9927 42.0184 29.4343 41.6095 29.3413 41.0154C29.2482 40.4213 29.6593 39.8658 30.2564 39.7732L35.1347 39.0248C35.7319 38.9322 36.2903 39.3411 36.3834 39.9352Z" fill="url(#paint7_linear_2967_31069)"/>
<path d="M32.5673 45.0895C32.6604 45.6836 32.2494 46.2392 31.6522 46.3317L13.5118 49.1145C12.9146 49.2071 12.3562 48.7982 12.2631 48.2041C12.1701 47.61 12.5811 47.0544 13.1783 46.9619L31.3187 44.1791C31.9159 44.0865 32.4743 44.4954 32.5673 45.0895Z" fill="url(#paint8_linear_2967_31069)"/>
<path d="M25.4138 52.9405C25.5068 53.5346 25.0958 54.0901 24.4986 54.1827L14.5352 55.7129C13.9381 55.8055 13.3797 55.3966 13.2866 54.8025C13.1935 54.2084 13.6046 53.6529 14.2017 53.5603L24.1651 52.0326C24.7623 51.94 25.3207 52.3489 25.4138 52.943V52.9405Z" fill="url(#paint9_linear_2967_31069)"/>
<path d="M38.6268 50.9138C38.7198 51.5079 38.3088 52.0634 37.7116 52.156L27.3165 53.7505C26.7193 53.8431 26.1609 53.4342 26.0678 52.8401C25.9748 52.246 26.3858 51.6905 26.983 51.5979L37.3781 50.0033C37.9753 49.9107 38.5337 50.3197 38.6268 50.9138Z" fill="url(#paint10_linear_2967_31069)"/>
<path d="M23.1774 57.8513C23.2705 58.4454 22.8594 59.0009 22.2622 59.0935L15.2227 60.1736C14.6256 60.2662 14.0672 59.8573 13.9741 59.2632C13.881 58.6691 14.2921 58.1136 14.8892 58.021L21.9288 56.9408C22.5259 56.8482 23.0843 57.2572 23.1774 57.8513Z" fill="url(#paint11_linear_2967_31069)"/>
</g>
<path d="M40.5052 15.814C40.9007 15.7523 41.273 16.0249 41.3324 16.4184L41.9555 20.4305C42.0175 20.824 41.7435 21.1943 41.348 21.2535L37.315 21.8733C36.9195 21.935 36.5472 21.6624 36.4878 21.2689L35.8647 17.2568C35.8027 16.8633 36.0767 16.493 36.4723 16.4338L40.5052 15.814ZM40.4328 15.3382L36.3999 15.958C35.7406 16.0583 35.2882 16.673 35.3891 17.3314L36.0121 21.3435C36.1129 21.9993 36.7308 22.4494 37.3926 22.3491L41.4255 21.7293C42.0847 21.629 42.5371 21.0143 42.4363 20.3559L41.8133 16.3438C41.7125 15.688 41.0946 15.2379 40.4328 15.3382Z" fill="url(#paint12_linear_2967_31069)"/>
<path d="M42.2578 27.0972C42.6533 27.0355 43.0256 27.3081 43.085 27.7016L43.7081 31.7137C43.7701 32.1072 43.4961 32.4775 43.1005 32.5367L39.0676 33.1565C38.6721 33.2182 38.2998 32.9456 38.2404 32.5521L37.6173 28.54C37.5553 28.1465 37.8293 27.7762 38.2248 27.717L42.2578 27.0972ZM42.1828 26.6214L38.1499 27.2412C37.4906 27.3415 37.0382 27.9562 37.1391 28.6146L37.7621 32.6267C37.8629 33.2825 38.4808 33.7326 39.1426 33.6323L43.1755 33.0125C43.8347 32.9122 44.2871 32.2975 44.1863 31.6391L43.5633 27.627C43.4625 26.9712 42.8446 26.5211 42.1828 26.6214Z" fill="url(#paint13_linear_2967_31069)"/>
<path d="M44.0078 38.3765C44.4033 38.3148 44.7756 38.5874 44.835 38.9809L45.4581 42.993C45.5201 43.3865 45.2461 43.7568 44.8505 43.816L40.8176 44.4358C40.4221 44.4975 40.0498 44.2249 39.9904 43.8314L39.3673 39.8193C39.3053 39.4258 39.5793 39.0555 39.9748 38.9963L44.0078 38.3765ZM43.9328 37.9007L39.8999 38.5205C39.2406 38.6208 38.7882 39.2355 38.8891 39.8939L39.5121 43.906C39.6129 44.5618 40.2308 45.0119 40.8926 44.9116L44.9255 44.2918C45.5847 44.1915 46.0371 43.5768 45.9363 42.9184L45.3133 38.9063C45.2125 38.2505 44.5946 37.8004 43.9328 37.9007Z" fill="url(#paint14_linear_2967_31069)"/>
<path d="M45.7552 49.6597C46.1507 49.598 46.523 49.8706 46.5824 50.2641L47.2055 54.2762C47.2675 54.6697 46.9935 55.04 46.5979 55.0992L42.565 55.719C42.1695 55.7807 41.7972 55.5081 41.7378 55.1146L41.1147 51.1025C41.0527 50.709 41.3267 50.3387 41.7223 50.2795L45.7552 49.6597ZM45.6828 49.1839L41.6499 49.8037C40.9906 49.904 40.5382 50.5187 40.6391 51.1771L41.2621 55.1892C41.3629 55.845 41.9808 56.2951 42.6426 56.1948L46.6755 55.575C47.3347 55.4747 47.7871 54.8574 47.6863 54.2016L47.0633 50.1895C46.9625 49.5337 46.3446 49.0836 45.6828 49.1839Z" fill="url(#paint15_linear_2967_31069)"/>
<path d="M39.2712 20.1183C39.1006 20.144 38.9248 20.1054 38.78 20.0102L34.6359 17.2455C34.3179 17.0346 34.2326 16.6051 34.4446 16.2888C34.6592 15.9724 35.0883 15.8875 35.4063 16.0984L38.948 18.4594L43.1361 11.59C43.3351 11.2633 43.7617 11.1605 44.09 11.3585C44.4183 11.5565 44.5217 11.9809 44.3227 12.3075L39.7572 19.7942C39.659 19.9562 39.4987 20.0694 39.3125 20.1105C39.297 20.1131 39.2841 20.1157 39.2686 20.1183H39.2712Z" fill="#6986D9"/>
<path d="M41.0681 31.7179C40.8974 31.7436 40.7216 31.705 40.5769 31.6098L36.4328 28.8451C36.1148 28.6316 36.0295 28.2047 36.2415 27.8884C36.4561 27.572 36.8852 27.4872 37.2032 27.698L40.7449 30.059L44.9329 23.1896C45.132 22.8629 45.5586 22.7601 45.8869 22.9581C46.2152 23.1561 46.3186 23.5805 46.1195 23.9071L41.5541 31.3938C41.4558 31.5558 41.2956 31.669 41.1094 31.7102C41.0939 31.7127 41.081 31.7153 41.0655 31.7179H41.0681Z" fill="#6986D9"/>
<path d="M42.8649 43.3136C42.6943 43.3393 42.5185 43.3007 42.3737 43.2056L38.2297 40.4408C37.9117 40.2273 37.8264 39.8004 38.0384 39.4841C38.2529 39.1677 38.6821 39.0829 39.0001 39.2937L42.5418 41.6547L46.7298 34.7853C46.9289 34.4587 47.3554 34.3558 47.6838 34.5538C48.0121 34.7518 48.1155 35.1762 47.9164 35.5028L43.3509 42.9895C43.2527 43.1515 43.0924 43.2647 42.9063 43.3059C42.8908 43.3084 42.8779 43.311 42.8623 43.3136H42.8649Z" fill="#6986D9"/>
<path d="M44.6696 54.9106C44.499 54.9363 44.3232 54.8977 44.1784 54.8026L40.0343 52.0378C39.7164 51.8244 39.6311 51.3949 39.843 51.0785C40.0576 50.7622 40.4868 50.6773 40.8047 50.8908L44.3465 53.2518L48.5345 46.3849C48.7336 46.0583 49.1601 45.9554 49.4884 46.1534C49.8168 46.3515 49.9202 46.7758 49.7211 47.1024L45.1556 54.5891C45.0574 54.7511 44.8971 54.8643 44.711 54.9055C44.6955 54.908 44.6825 54.9106 44.667 54.9132L44.6696 54.9106Z" fill="#6986D9"/>
<path d="M60.4986 75.8236C60.5141 76.5566 59.9324 77.1635 59.193 77.1815L23.3104 77.9942C22.5736 78.0122 21.9635 77.4284 21.9454 76.6954L20.8363 28.2133C20.8183 27.4803 21.4025 26.8708 22.1393 26.8554L58.0219 26.0452C58.7587 26.0298 59.3688 26.6085 59.3869 27.3414L60.496 75.8236H60.4986Z" fill="white"/>
<path d="M28.1044 32.5305C29.4461 32.4997 30.5604 33.5593 30.5914 34.8941C30.6224 36.2289 29.5573 37.3373 28.2156 37.3682C26.8739 37.3991 25.7596 36.3369 25.7286 35.0047C25.6976 33.6699 26.7653 32.5614 28.1044 32.5305ZM28.0941 32.0007C26.455 32.0367 25.1599 33.3895 25.1961 35.0175C25.2348 36.6481 26.5921 37.9392 28.2285 37.9006C29.8675 37.8646 31.1653 36.5118 31.1265 34.8838C31.0903 33.2558 29.7305 31.9647 28.0941 32.0007Z" fill="white"/>
<path d="M28.37 44.0858C29.7118 44.055 30.826 45.1172 30.857 46.452C30.888 47.7867 29.8203 48.8952 28.4812 48.9261C27.1395 48.9569 26.0253 47.8948 25.9942 46.5625C25.9632 45.2278 27.0309 44.1193 28.37 44.0884M28.3597 43.5535C26.7233 43.5895 25.4255 44.9423 25.4617 46.5703C25.4979 48.2008 26.8577 49.4919 28.4941 49.4533C30.1331 49.4173 31.4309 48.0645 31.3921 46.4365C31.3559 44.8085 29.9961 43.5175 28.3597 43.5535Z" fill="white"/>
<path d="M28.62 54.5448C29.9618 54.514 31.076 55.5761 31.107 56.9084C31.138 58.2432 30.0703 59.3516 28.7312 59.3825C27.3895 59.4134 26.2753 58.3512 26.2442 57.019C26.2132 55.6842 27.2809 54.5757 28.62 54.5448ZM28.6097 54.015C26.9707 54.051 25.6755 55.4038 25.7117 57.0318C25.7479 58.6624 27.1077 59.9535 28.7441 59.9149C30.3806 59.8763 31.6783 58.5261 31.6421 56.8955C31.6034 55.2675 30.2461 53.9764 28.6097 54.0125V54.015Z" fill="white"/>
<path d="M28.8467 65.0078C30.1884 64.977 31.3026 66.0391 31.3337 67.3714C31.3647 68.7062 30.2996 69.8146 28.9579 69.8455C27.6161 69.8764 26.5019 68.8142 26.4709 67.482C26.4399 66.1472 27.5076 65.0387 28.8467 65.0078ZM28.8364 64.4755C27.1973 64.5115 25.8996 65.8643 25.9383 67.4922C25.9745 69.1228 27.3344 70.4139 28.9708 70.3753C30.6072 70.3393 31.905 68.9865 31.8688 67.3585C31.83 65.7279 30.4728 64.4369 28.8364 64.4755Z" fill="white"/>
<path d="M34.5512 33.0814L55.0622 32.6185C55.1371 32.6185 55.194 32.5568 55.1914 32.4822C55.1914 32.4076 55.1294 32.351 55.0544 32.3536L34.5434 32.8165C34.4684 32.8165 34.4116 32.8783 34.4141 32.9528C34.4141 33.0274 34.4762 33.084 34.5512 33.0814Z" fill="url(#paint16_linear_2967_31069)"/>
<path d="M34.5902 34.9378L53.744 34.5058C53.819 34.5058 53.8758 34.444 53.8733 34.3694C53.8733 34.2949 53.8112 34.2383 53.7362 34.2383L34.5825 34.6704C34.5101 34.6704 34.4506 34.7321 34.4532 34.8067C34.4532 34.8812 34.5153 34.9378 34.5902 34.9353V34.9378Z" fill="url(#paint17_linear_2967_31069)"/>
<path d="M34.6396 36.7917L43.7835 36.5833C43.8559 36.5833 43.9153 36.5216 43.9127 36.447C43.9127 36.3725 43.8507 36.3159 43.7757 36.3184L34.6318 36.5242C34.5569 36.5242 34.5 36.5859 34.5 36.6605C34.5 36.7351 34.562 36.7917 34.637 36.7917H34.6396Z" fill="url(#paint18_linear_2967_31069)"/>
<path d="M44.8872 36.2954C44.8122 36.2954 44.7553 36.3571 44.7579 36.4317C44.7579 36.5063 44.8199 36.5629 44.8949 36.5629L50.4557 36.4369C50.5281 36.4369 50.5875 36.3751 50.5849 36.3005C50.5849 36.2285 50.5229 36.1694 50.4479 36.172L44.8872 36.298V36.2954Z" fill="url(#paint19_linear_2967_31069)"/>
<path d="M34.8168 44.6361L50.6331 44.2787C50.7055 44.2787 50.7649 44.2144 50.7623 44.1423C50.7623 44.0703 50.7003 44.0112 50.6253 44.0138L34.809 44.3712C34.7366 44.3712 34.6772 44.433 34.6798 44.5075C34.6798 44.5821 34.7418 44.6387 34.8168 44.6387V44.6361Z" fill="url(#paint20_linear_2967_31069)"/>
<path d="M34.8583 46.4943L47.8955 46.1986C47.9705 46.1986 48.0274 46.1369 48.0248 46.0623C48.0248 45.9903 47.9628 45.9311 47.8878 45.9337L34.8506 46.2294C34.7782 46.2294 34.7188 46.2912 34.7188 46.3657C34.7188 46.4403 34.7808 46.4969 34.8558 46.4969L34.8583 46.4943Z" fill="url(#paint21_linear_2967_31069)"/>
<path d="M34.8974 48.3477L44.0413 48.1419C44.1163 48.1419 44.1731 48.0776 44.1705 48.0056C44.1705 47.9336 44.1085 47.8745 44.0335 47.877L34.8897 48.0828C34.8147 48.0828 34.7578 48.1445 34.7578 48.2191C34.7578 48.2911 34.8199 48.3503 34.8948 48.3477H34.8974Z" fill="url(#paint22_linear_2967_31069)"/>
<path d="M54.3793 47.7752C54.3793 47.7006 54.3173 47.644 54.2423 47.6466L45.145 47.8523C45.07 47.8523 45.0131 47.914 45.0157 47.9886C45.0157 48.0606 45.0778 48.1198 45.1527 48.1172L54.2501 47.9115C54.325 47.9115 54.3819 47.8497 54.3793 47.7752Z" fill="url(#paint23_linear_2967_31069)"/>
<path d="M48.8204 46.0444C48.8204 46.1164 48.8824 46.1756 48.9574 46.173L56.4002 46.0033C56.4752 46.0033 56.5321 45.9415 56.5295 45.867C56.5295 45.7924 56.4674 45.7358 56.3925 45.7384L48.9497 45.9055C48.8747 45.9055 48.8178 45.9673 48.8204 46.0418V46.0444Z" fill="url(#paint24_linear_2967_31069)"/>
<path d="M35.0512 55.099L48.7243 54.7904C48.7967 54.7904 48.8562 54.7287 48.8536 54.6541C48.8536 54.5795 48.7915 54.5229 48.7165 54.5255L35.0434 54.8341C34.971 54.8341 34.9116 54.8958 34.9141 54.9704C34.9141 55.0424 34.9762 55.1016 35.0512 55.099Z" fill="url(#paint25_linear_2967_31069)"/>
<path d="M35.098 56.9529L54.2518 56.5208C54.3268 56.5208 54.3837 56.4565 54.3811 56.3845C54.3811 56.3125 54.319 56.2534 54.2441 56.2559L35.0903 56.688C35.0153 56.688 34.9584 56.7497 34.961 56.8243C34.961 56.8989 35.0231 56.9555 35.098 56.9529Z" fill="url(#paint26_linear_2967_31069)"/>
<path d="M35.1371 58.8106L44.281 58.6048C44.3534 58.6048 44.4128 58.5405 44.4102 58.4685C44.4102 58.3939 44.3482 58.3374 44.2732 58.3399L35.1293 58.5457C35.057 58.5457 34.9975 58.6074 35.0001 58.682C35.0001 58.754 35.0621 58.8132 35.1371 58.8106Z" fill="url(#paint27_linear_2967_31069)"/>
<path d="M49.9912 54.7601L55.5649 54.6341C55.6372 54.6341 55.6967 54.5698 55.6941 54.4978C55.6941 54.4232 55.6321 54.3667 55.5571 54.3692L49.9834 54.4952C49.9084 54.4952 49.8516 54.557 49.8516 54.6316C49.8516 54.7061 49.9162 54.7627 49.9886 54.7601H49.9912Z" fill="url(#paint28_linear_2967_31069)"/>
<path d="M35.2934 65.5587L44.0908 65.3607C44.1658 65.3607 44.2226 65.299 44.2201 65.2244C44.2201 65.1498 44.158 65.0932 44.083 65.0958L35.2856 65.2938C35.2106 65.2938 35.1537 65.3555 35.1563 65.4301C35.1563 65.5021 35.2184 65.5613 35.2934 65.5587Z" fill="url(#paint29_linear_2967_31069)"/>
<path d="M35.3376 67.4161L48.7885 67.1126C48.8608 67.1126 48.9203 67.0509 48.9177 66.9763C48.9177 66.9043 48.8557 66.8452 48.7807 66.8477L35.3325 67.1512C35.2575 67.1512 35.2006 67.2129 35.2032 67.2875C35.2032 67.3621 35.2653 67.4187 35.3402 67.4187L35.3376 67.4161Z" fill="url(#paint30_linear_2967_31069)"/>
<path d="M43.2822 68.8248L35.374 69.0049C35.3016 69.0049 35.2422 69.0692 35.2422 69.1412C35.2422 69.2158 35.3042 69.2723 35.3792 69.2698L43.2873 69.0897C43.3623 69.0897 43.4192 69.028 43.4192 68.9534C43.4192 68.8788 43.3571 68.8223 43.2822 68.8223V68.8248Z" fill="url(#paint31_linear_2967_31069)"/>
<path d="M54.7267 68.5684L45.6293 68.7742C45.557 68.7742 45.4975 68.8359 45.5001 68.9105C45.5001 68.9825 45.5621 69.0417 45.6371 69.0391L54.7344 68.8334C54.8068 68.8334 54.8663 68.7716 54.8637 68.697C54.8637 68.6225 54.8016 68.5659 54.7267 68.5684Z" fill="url(#paint32_linear_2967_31069)"/>
<path d="M56.8355 64.8048L45.5459 65.0594C45.4709 65.0594 45.4141 65.1211 45.4141 65.1957C45.4141 65.2677 45.4761 65.3269 45.5511 65.3243L56.8407 65.0697C56.913 65.0697 56.9725 65.0079 56.9699 64.9334C56.9699 64.8588 56.9079 64.8022 56.8329 64.8048H56.8355Z" fill="url(#paint33_linear_2967_31069)"/>
<path d="M56.8717 66.6621L49.46 66.8293C49.385 66.8293 49.3281 66.8936 49.3281 66.9656C49.3281 67.0402 49.3902 67.0968 49.4651 67.0968L56.8769 66.9296C56.9519 66.9296 57.0088 66.8679 57.0062 66.7933C57.0062 66.7187 56.9441 66.6621 56.8692 66.6647L56.8717 66.6621Z" fill="url(#paint34_linear_2967_31069)"/>
<path d="M28.4506 48.0887C28.3033 48.0912 28.1585 48.0398 28.0473 47.9421L24.8572 45.1542C24.6116 44.9407 24.5883 44.5678 24.8029 44.326C25.0175 44.0817 25.3923 44.0586 25.6353 44.272L28.3601 46.6536L32.6567 41.3221C32.861 41.0675 33.2332 41.0289 33.4866 41.2295C33.7399 41.4327 33.7813 41.803 33.5771 42.0551L28.8953 47.8675C28.7944 47.9935 28.6471 48.0707 28.4868 48.0861C28.4739 48.0861 28.461 48.0861 28.448 48.0861L28.4506 48.0887Z" fill="url(#paint35_linear_2967_31069)"/>
<path d="M28.1694 35.8948C28.022 35.8974 27.8772 35.846 27.7661 35.7482L24.5759 32.9603C24.3303 32.7469 24.3071 32.3739 24.5216 32.1322C24.7362 31.8879 25.1111 31.8647 25.3541 32.0782L28.0789 34.4597L32.3755 29.1283C32.5797 28.8736 32.952 28.8351 33.2053 29.0382C33.4587 29.2414 33.5001 29.6118 33.2958 29.8638L28.614 35.6762C28.5132 35.8022 28.3658 35.8794 28.2056 35.8948C28.1926 35.8948 28.1797 35.8948 28.1668 35.8948H28.1694Z" fill="url(#paint36_linear_2967_31069)"/>
<path d="M28.685 58.4175C28.5376 58.42 28.3929 58.3686 28.2817 58.2709L25.0916 55.483C24.846 55.2695 24.8227 54.8966 25.0373 54.6548C25.2518 54.4105 25.6267 54.3873 25.8697 54.6008L28.5945 56.9824L32.8911 51.6509C33.0953 51.3988 33.465 51.3577 33.721 51.5609C33.9743 51.764 34.0157 52.1344 33.8114 52.3864L29.1296 58.1988C29.0288 58.3249 28.8815 58.402 28.7212 58.4175C28.7083 58.4175 28.6953 58.4175 28.6824 58.4175H28.685Z" fill="url(#paint37_linear_2967_31069)"/>
<path d="M28.9194 68.5081C28.772 68.5107 28.6272 68.4592 28.5161 68.3615L25.3259 65.5736C25.0803 65.3601 25.0571 64.9872 25.2716 64.7455C25.4862 64.5011 25.8611 64.478 26.1041 64.6915L28.8289 67.073L33.1255 61.7415C33.3297 61.4869 33.702 61.4483 33.9553 61.6515C34.2087 61.8547 34.2501 62.2225 34.0484 62.4771L29.3666 68.2895C29.2658 68.4155 29.1184 68.4927 28.9581 68.5081C28.9452 68.5081 28.9323 68.5081 28.922 68.5081H28.9194Z" fill="url(#paint38_linear_2967_31069)"/>
<path d="M78.9455 97.4005C78.4931 97.9431 77.6839 98.0177 77.1359 97.5677L46.9872 72.6772C46.4417 72.2271 46.3668 71.4195 46.8192 70.8769L82.1744 28.4926C82.6268 27.95 83.436 27.8754 83.9841 28.3254L114.133 53.2159C114.678 53.666 114.753 54.471 114.301 55.0162L78.9455 97.4005Z" fill="white"/>
<path d="M84.2338 90.7904C83.8823 91.4025 83.0989 91.616 82.4811 91.2662L48.452 71.9489C47.8367 71.5992 47.6222 70.8173 47.9738 70.2052L75.4105 22.3686C75.7621 21.7565 76.5454 21.543 77.1633 21.8928L111.192 41.2101C111.808 41.5598 112.022 42.3391 111.671 42.9538L84.2338 90.793V90.7904Z" fill="#D8E5FE"/>
<path d="M75.4336 28.5266L105.07 45.3491C105.132 45.3851 105.21 45.362 105.246 45.3003C105.282 45.2385 105.259 45.1614 105.197 45.1254L75.5602 28.3003C75.4982 28.2643 75.4206 28.2874 75.3844 28.3491C75.3482 28.4109 75.3715 28.488 75.431 28.524L75.4336 28.5266Z" fill="url(#paint39_linear_2967_31069)"/>
<path d="M74.1068 30.8419L92.8676 41.4919C92.9296 41.5279 93.0072 41.5048 93.0434 41.4456C93.0796 41.3839 93.0563 41.3068 92.9943 41.2707L74.2309 30.6207C74.1688 30.5847 74.0913 30.6078 74.0551 30.667C74.0215 30.7287 74.0421 30.8058 74.1042 30.8419H74.1068Z" fill="url(#paint40_linear_2967_31069)"/>
<path d="M93.9429 41.8082C93.8809 41.7722 93.8034 41.7953 93.7672 41.8545C93.731 41.9162 93.7542 41.9933 93.8163 42.0294L103.04 47.2657C103.102 47.3017 103.18 47.2785 103.216 47.2194C103.252 47.1576 103.229 47.0805 103.167 47.0445L93.9455 41.8082H93.9429Z" fill="url(#paint41_linear_2967_31069)"/>
<path d="M72.7825 33.1524L98.9629 48.0152C99.0249 48.0512 99.1025 48.028 99.1387 47.9689C99.1749 47.9072 99.1516 47.83 99.0921 47.794L72.9118 32.9312C72.8497 32.8952 72.7722 32.9184 72.736 32.9775C72.6998 33.0392 72.7231 33.1164 72.7825 33.1524Z" fill="url(#paint42_linear_2967_31069)"/>
<path d="M71.4543 35.4687L93.1442 47.7802C93.2062 47.8162 93.2838 47.7931 93.32 47.7339C93.3562 47.6722 93.3329 47.595 93.2734 47.559L71.5836 35.2475C71.5215 35.2115 71.444 35.2347 71.4078 35.2964C71.3716 35.3581 71.3949 35.4353 71.4569 35.4713L71.4543 35.4687Z" fill="url(#paint43_linear_2967_31069)"/>
<path d="M70.1263 37.7799L96.9762 53.0207C97.0383 53.0567 97.1158 53.0336 97.152 52.9744C97.1882 52.9127 97.1649 52.8356 97.1055 52.7996L70.2555 37.5561C70.1935 37.5201 70.1159 37.5433 70.0797 37.605C70.0436 37.6667 70.0668 37.7439 70.1263 37.7799Z" fill="url(#paint44_linear_2967_31069)"/>
<path d="M68.8007 40.0944L91.2636 52.8457C91.3256 52.8817 91.4032 52.8586 91.4394 52.7968C91.4756 52.7351 91.4523 52.658 91.3903 52.622L68.9274 39.8707C68.8654 39.8347 68.7878 39.8578 68.7516 39.917C68.7154 39.9787 68.7387 40.0558 68.7982 40.0919L68.8007 40.0944Z" fill="url(#paint45_linear_2967_31069)"/>
<path d="M67.47 42.4069L92.3138 56.5084C92.3759 56.5419 92.4534 56.5213 92.4896 56.4596C92.5258 56.3978 92.5026 56.3207 92.4431 56.2847L67.5993 42.1832C67.5372 42.1472 67.4597 42.1703 67.4235 42.2295C67.3873 42.2912 67.4106 42.3683 67.47 42.4044V42.4069Z" fill="url(#paint46_linear_2967_31069)"/>
<path d="M66.1444 44.7207L86.34 56.186C86.4021 56.2195 86.4796 56.1989 86.5158 56.1372C86.552 56.0754 86.5287 55.9983 86.4667 55.9623L66.2711 44.4995C66.209 44.4635 66.1315 44.4866 66.0953 44.5484C66.0591 44.6101 66.0824 44.6872 66.1444 44.7232V44.7207Z" fill="url(#paint47_linear_2967_31069)"/>
<path d="M87.8805 56.7652C87.8184 56.7292 87.7409 56.7523 87.7047 56.8115C87.6685 56.8732 87.6917 56.9504 87.7538 56.9864L92.5131 59.6868C92.5752 59.7228 92.6527 59.6997 92.6889 59.6405C92.7225 59.5788 92.7019 59.5017 92.6398 59.4657L87.8805 56.7626V56.7652Z" fill="url(#paint48_linear_2967_31069)"/>
<path d="M64.8216 47.0333L93.1477 63.1125C93.2097 63.1485 93.2873 63.1254 93.3235 63.0662C93.3597 63.0045 93.3364 62.9274 93.2743 62.8913L64.9509 46.8121C64.8888 46.7761 64.8113 46.7992 64.7751 46.8584C64.7389 46.9201 64.7621 46.9973 64.8216 47.0333Z" fill="url(#paint49_linear_2967_31069)"/>
<path d="M93.2595 65.9497L63.6227 49.1246C63.5607 49.0886 63.4831 49.1117 63.4469 49.1709C63.4107 49.2326 63.434 49.3098 63.4935 49.3458L93.1302 66.1683C93.1923 66.2043 93.2699 66.1812 93.306 66.122C93.3397 66.0603 93.319 65.9831 93.2569 65.9471L93.2595 65.9497Z" fill="url(#paint50_linear_2967_31069)"/>
<path d="M62.1678 51.6608L80.9287 62.3109C80.9907 62.3469 81.0683 62.3238 81.1045 62.262C81.1407 62.2003 81.1174 62.1232 81.0579 62.0872L62.2945 51.4371C62.2325 51.4011 62.1549 51.4242 62.1187 51.4834C62.0825 51.5451 62.1058 51.6223 62.1678 51.6583V51.6608Z" fill="url(#paint51_linear_2967_31069)"/>
<path d="M91.2296 67.8636L82.0055 62.6273C81.9435 62.5938 81.8659 62.6144 81.8297 62.6761C81.7936 62.7378 81.8168 62.815 81.8763 62.851L91.1003 68.0873C91.1623 68.1207 91.2399 68.1002 91.2761 68.0384C91.3123 67.9767 91.289 67.8996 91.227 67.8636H91.2296Z" fill="url(#paint52_linear_2967_31069)"/>
<path d="M60.8371 53.9727L87.0175 68.8355C87.0795 68.8715 87.1571 68.8484 87.1933 68.7892C87.2295 68.7275 87.2062 68.6503 87.1467 68.6143L60.9664 53.7515C60.9043 53.7155 60.8268 53.7387 60.7906 53.7978C60.7544 53.8595 60.7777 53.9367 60.8397 53.9727H60.8371Z" fill="url(#paint53_linear_2967_31069)"/>
<path d="M59.5122 56.2878L81.2021 68.5993C81.2641 68.6327 81.3417 68.6121 81.3779 68.5504C81.4115 68.4887 81.3908 68.4115 81.3288 68.3755L59.6389 56.064C59.5769 56.028 59.4993 56.0512 59.4631 56.1103C59.4269 56.172 59.4476 56.2492 59.5097 56.2852L59.5122 56.2878Z" fill="url(#paint54_linear_2967_31069)"/>
<path d="M58.1836 58.5991L85.0335 73.8399C85.0955 73.8759 85.1731 73.8528 85.2093 73.791C85.2455 73.7293 85.2222 73.6522 85.1602 73.6161L58.3102 58.3753C58.2482 58.3419 58.1706 58.3624 58.1344 58.4242C58.0982 58.4859 58.1215 58.5631 58.181 58.5991H58.1836Z" fill="url(#paint55_linear_2967_31069)"/>
<path d="M56.8606 60.9147L79.3234 73.666C79.3854 73.6995 79.463 73.6789 79.4992 73.6172C79.5354 73.5554 79.5121 73.4783 79.4527 73.4423L56.9898 60.691C56.9278 60.655 56.8502 60.6781 56.814 60.7373C56.7778 60.799 56.8011 60.8762 56.8632 60.9122L56.8606 60.9147Z" fill="url(#paint56_linear_2967_31069)"/>
<path d="M55.5299 63.2254L80.3738 77.3269C80.4358 77.3629 80.5134 77.3398 80.5495 77.2806C80.5857 77.2189 80.5625 77.1417 80.503 77.1057L55.6618 63.0042C55.5997 62.9708 55.5222 62.9913 55.486 63.0531C55.4498 63.1148 55.4731 63.192 55.5325 63.228L55.5299 63.2254Z" fill="url(#paint57_linear_2967_31069)"/>
<path d="M54.207 65.5416L74.4026 77.0044C74.4646 77.0404 74.5422 77.0173 74.5784 76.9581C74.6146 76.8964 74.5913 76.8192 74.5293 76.7832L54.3337 65.3205C54.2716 65.2844 54.1941 65.305 54.1579 65.3667C54.1217 65.4285 54.1449 65.5056 54.2044 65.5416H54.207Z" fill="url(#paint58_linear_2967_31069)"/>
<path d="M75.9418 77.5843C75.8798 77.5509 75.8022 77.5714 75.766 77.6331C75.7324 77.6949 75.7531 77.772 75.8151 77.808L80.5745 80.5111C80.6365 80.5471 80.7141 80.5239 80.7503 80.4622C80.7865 80.4005 80.7632 80.3233 80.7012 80.2873L75.9418 77.5843Z" fill="url(#paint59_linear_2967_31069)"/>
<path d="M81.3315 83.7116L53.0054 67.6323C52.9434 67.5963 52.8659 67.6194 52.8297 67.6812C52.7935 67.7429 52.8167 67.82 52.8788 67.8561L81.2023 83.9353C81.2643 83.9713 81.3419 83.9482 81.3781 83.889C81.4143 83.8273 81.391 83.7502 81.3315 83.7141V83.7116Z" fill="url(#paint60_linear_2967_31069)"/>
<path d="M84.7909 50.4252C84.5039 51.1788 83.656 51.5568 82.9011 51.2688L66.2575 44.9703C65.5001 44.6848 65.12 43.8413 65.4096 43.0903L72.2345 25.239C72.5215 24.4854 73.3694 24.1074 74.1243 24.3954L90.7679 30.6939C91.5253 30.9794 91.9053 31.823 91.6158 32.5739L84.7909 50.4252Z" fill="#8FB3FF"/>
<path d="M84.5214 23.8756C83.5519 23.3252 82.1973 23.3226 81.3597 24.2768L82.1895 24.7474C82.7169 24.2974 83.4795 24.3385 84.0664 24.6729C84.7851 25.0792 85.0333 25.9922 84.6248 26.7046L81.7707 31.6837C81.401 32.3293 80.6824 32.7819 79.912 32.3447C79.1959 31.9384 78.9451 31.0253 79.3536 30.3129L80.6255 28.0934C80.7522 27.8722 80.6746 27.5945 80.4549 27.4685C80.2325 27.3424 79.9533 27.4196 79.8267 27.6408L78.5521 29.8603C77.8903 31.0125 78.2962 32.4862 79.4544 33.1446C80.566 33.7747 81.8767 33.3529 82.5696 32.1415L85.4236 27.1624C86.0854 26.0102 85.6796 24.5365 84.5214 23.8781V23.8756Z" fill="#1D0C8C"/>
<path d="M72.5387 66.8414H34.213V62.2507C34.213 61.4765 33.5822 60.8516 32.8067 60.8516H12.8282C12.0501 60.8516 11.4219 61.4791 11.4219 62.2507V100.597C11.4219 101.371 12.0527 101.996 12.8282 101.996H72.5387C73.3168 101.996 73.945 101.369 73.945 100.597V68.2379C73.945 67.4638 73.3143 66.8389 72.5387 66.8389V66.8414Z" fill="#3652CD"/>
<path d="M81.8425 65.3645C81.3022 64.5801 85.71 59.2692 87.0129 58.3768L116.445 38.2854C117.751 37.3955 120.993 42.0943 119.687 42.9867L90.2548 63.0781C88.9493 63.968 82.3803 66.1464 81.84 65.3645H81.8425Z" fill="white"/>
<path d="M86.9219 58.4466C87.0305 59.2542 87.4725 60.1749 88.1059 61.0905C88.7393 62.0087 89.4424 62.7494 90.1611 63.1429C90.1973 63.1223 90.2284 63.0991 90.2594 63.0811L116.657 45.0627C116.698 44.1523 116.409 43.1286 115.773 42.2079C115.139 41.2898 114.284 40.6494 113.415 40.3613L87.0175 58.3798C86.9891 58.4004 86.9555 58.4235 86.9245 58.4466H86.9219Z" fill="#1D0C8C"/>
<g style="mix-blend-mode:multiply">
<path d="M117.236 41.209C117.854 42.104 118.174 43.089 118.211 43.9994L119.692 42.9887C120.997 42.0963 117.753 37.3975 116.45 38.2873L114.969 39.2981C115.809 39.6581 116.618 40.314 117.236 41.209Z" fill="#8199FD"/>
</g>
<g style="mix-blend-mode:multiply">
<path d="M82.4112 63.7832C81.9407 64.5419 81.6873 65.1411 81.8425 65.3675C81.9976 65.5912 82.6516 65.5732 83.5332 65.4086C83.5435 65.0666 83.4479 64.7168 83.2385 64.4133C83.0291 64.1098 82.7369 63.8964 82.4112 63.7832Z" fill="#8199FD"/>
</g>
<path d="M115.77 42.2079C115.137 41.2898 114.281 40.6494 113.412 40.3613L87.0149 58.3798C86.9865 58.4004 86.9529 58.4235 86.9219 58.4466C87.0305 59.2542 87.4725 60.1749 88.1059 61.0905" fill="#3652CD"/>
</g>
<defs>
<linearGradient id="paint0_linear_2967_31069" x1="-1.23916" y1="19.2268" x2="40.8337" y2="12.7024" gradientUnits="userSpaceOnUse">
<stop stop-color="#6986D9"/>
<stop offset="1" stop-color="#8FB3FF"/>
</linearGradient>
<linearGradient id="paint1_linear_2967_31069" x1="-0.19532" y1="25.9443" x2="41.8827" y2="19.4191" gradientUnits="userSpaceOnUse">
<stop stop-color="#6986D9"/>
<stop offset="1" stop-color="#8FB3FF"/>
</linearGradient>
<linearGradient id="paint2_linear_2967_31069" x1="-0.196083" y1="25.9448" x2="41.8819" y2="19.4197" gradientUnits="userSpaceOnUse">
<stop stop-color="#6986D9"/>
<stop offset="1" stop-color="#8FB3FF"/>
</linearGradient>
<linearGradient id="paint3_linear_2967_31069" x1="1.05727" y1="34.0311" x2="43.1353" y2="27.5059" gradientUnits="userSpaceOnUse">
<stop stop-color="#6986D9"/>
<stop offset="1" stop-color="#8FB3FF"/>
</linearGradient>
<linearGradient id="paint4_linear_2967_31069" x1="1.74892" y1="38.491" x2="43.8243" y2="31.9663" gradientUnits="userSpaceOnUse">
<stop stop-color="#6986D9"/>
<stop offset="1" stop-color="#8FB3FF"/>
</linearGradient>
<linearGradient id="paint5_linear_2967_31069" x1="1.75019" y1="38.4904" x2="43.8282" y2="31.9653" gradientUnits="userSpaceOnUse">
<stop stop-color="#6986D9"/>
<stop offset="1" stop-color="#8FB3FF"/>
</linearGradient>
<linearGradient id="paint6_linear_2967_31069" x1="2.77185" y1="45.09" x2="44.8498" y2="38.5649" gradientUnits="userSpaceOnUse">
<stop stop-color="#6986D9"/>
<stop offset="1" stop-color="#8FB3FF"/>
</linearGradient>
<linearGradient id="paint7_linear_2967_31069" x1="2.77719" y1="45.0897" x2="44.8552" y2="38.5646" gradientUnits="userSpaceOnUse">
<stop stop-color="#6986D9"/>
<stop offset="1" stop-color="#8FB3FF"/>
</linearGradient>
<linearGradient id="paint8_linear_2967_31069" x1="3.46867" y1="49.5509" x2="45.5467" y2="43.0257" gradientUnits="userSpaceOnUse">
<stop stop-color="#6986D9"/>
<stop offset="1" stop-color="#8FB3FF"/>
</linearGradient>
<linearGradient id="paint9_linear_2967_31069" x1="4.49161" y1="56.1484" x2="46.5722" y2="49.6229" gradientUnits="userSpaceOnUse">
<stop stop-color="#6986D9"/>
<stop offset="1" stop-color="#8FB3FF"/>
</linearGradient>
<linearGradient id="paint10_linear_2967_31069" x1="4.49162" y1="56.1483" x2="46.5722" y2="49.6228" gradientUnits="userSpaceOnUse">
<stop stop-color="#6986D9"/>
<stop offset="1" stop-color="#8FB3FF"/>
</linearGradient>
<linearGradient id="paint11_linear_2967_31069" x1="5.18101" y1="60.6129" x2="47.2616" y2="54.0874" gradientUnits="userSpaceOnUse">
<stop stop-color="#6986D9"/>
<stop offset="1" stop-color="#8FB3FF"/>
</linearGradient>
<linearGradient id="paint12_linear_2967_31069" x1="43.5512" y1="48.7718" x2="38.3886" y2="15.1333" gradientUnits="userSpaceOnUse">
<stop stop-color="#6986D9"/>
<stop offset="1" stop-color="#8FB3FF"/>
</linearGradient>
<linearGradient id="paint13_linear_2967_31069" x1="43.5537" y1="48.7723" x2="38.391" y2="15.1338" gradientUnits="userSpaceOnUse">
<stop stop-color="#6986D9"/>
<stop offset="1" stop-color="#8FB3FF"/>
</linearGradient>
<linearGradient id="paint14_linear_2967_31069" x1="43.556" y1="48.771" x2="38.3933" y2="15.1325" gradientUnits="userSpaceOnUse">
<stop stop-color="#6986D9"/>
<stop offset="1" stop-color="#8FB3FF"/>
</linearGradient>
<linearGradient id="paint15_linear_2967_31069" x1="43.5558" y1="48.7715" x2="38.3928" y2="15.1304" gradientUnits="userSpaceOnUse">
<stop stop-color="#6986D9"/>
<stop offset="1" stop-color="#8FB3FF"/>
</linearGradient>
<linearGradient id="paint16_linear_2967_31069" x1="62.2744" y1="30.0243" x2="13.5592" y2="37.6269" gradientUnits="userSpaceOnUse">
<stop stop-color="#6986D9"/>
<stop offset="1" stop-color="#8FB3FF"/>
</linearGradient>
<linearGradient id="paint17_linear_2967_31069" x1="62.5443" y1="31.7541" x2="13.8265" y2="39.3568" gradientUnits="userSpaceOnUse">
<stop stop-color="#6986D9"/>
<stop offset="1" stop-color="#8FB3FF"/>
</linearGradient>
<linearGradient id="paint18_linear_2967_31069" x1="62.7317" y1="32.9277" x2="14.0139" y2="40.5305" gradientUnits="userSpaceOnUse">
<stop stop-color="#6986D9"/>
<stop offset="1" stop-color="#8FB3FF"/>
</linearGradient>
<linearGradient id="paint19_linear_2967_31069" x1="62.9011" y1="34.0173" x2="14.186" y2="41.6226" gradientUnits="userSpaceOnUse">
<stop stop-color="#6986D9"/>
<stop offset="1" stop-color="#8FB3FF"/>
</linearGradient>
<linearGradient id="paint20_linear_2967_31069" x1="63.9965" y1="41.0441" x2="15.2813" y2="48.6467" gradientUnits="userSpaceOnUse">
<stop stop-color="#6986D9"/>
<stop offset="1" stop-color="#8FB3FF"/>
</linearGradient>
<linearGradient id="paint21_linear_2967_31069" x1="64.2539" y1="42.686" x2="15.5362" y2="50.2888" gradientUnits="userSpaceOnUse">
<stop stop-color="#6986D9"/>
<stop offset="1" stop-color="#8FB3FF"/>
</linearGradient>
<linearGradient id="paint22_linear_2967_31069" x1="64.4942" y1="44.2513" x2="15.7765" y2="51.8566" gradientUnits="userSpaceOnUse">
<stop stop-color="#6986D9"/>
<stop offset="1" stop-color="#8FB3FF"/>
</linearGradient>
<linearGradient id="paint23_linear_2967_31069" x1="64.6999" y1="45.5699" x2="15.9822" y2="53.1726" gradientUnits="userSpaceOnUse">
<stop stop-color="#6986D9"/>
<stop offset="1" stop-color="#8FB3FF"/>
</linearGradient>
<linearGradient id="paint24_linear_2967_31069" x1="64.4752" y1="44.1396" x2="15.7601" y2="51.7449" gradientUnits="userSpaceOnUse">
<stop stop-color="#6986D9"/>
<stop offset="1" stop-color="#8FB3FF"/>
</linearGradient>
<linearGradient id="paint25_linear_2967_31069" x1="65.5736" y1="51.1575" x2="16.8558" y2="58.7602" gradientUnits="userSpaceOnUse">
<stop stop-color="#6986D9"/>
<stop offset="1" stop-color="#8FB3FF"/>
</linearGradient>
<linearGradient id="paint26_linear_2967_31069" x1="65.9156" y1="53.3284" x2="17.1979" y2="60.9311" gradientUnits="userSpaceOnUse">
<stop stop-color="#6986D9"/>
<stop offset="1" stop-color="#8FB3FF"/>
</linearGradient>
<linearGradient id="paint27_linear_2967_31069" x1="66.0953" y1="54.5033" x2="17.3775" y2="62.106" gradientUnits="userSpaceOnUse">
<stop stop-color="#6986D9"/>
<stop offset="1" stop-color="#8FB3FF"/>
</linearGradient>
<linearGradient id="paint28_linear_2967_31069" x1="65.7918" y1="52.5604" x2="17.0741" y2="60.1631" gradientUnits="userSpaceOnUse">
<stop stop-color="#6986D9"/>
<stop offset="1" stop-color="#8FB3FF"/>
</linearGradient>
<linearGradient id="paint29_linear_2967_31069" x1="67.1259" y1="61.0936" x2="18.4082" y2="68.6989" gradientUnits="userSpaceOnUse">
<stop stop-color="#6986D9"/>
<stop offset="1" stop-color="#8FB3FF"/>
</linearGradient>
<linearGradient id="paint30_linear_2967_31069" x1="67.4591" y1="63.2141" x2="18.7413" y2="70.8168" gradientUnits="userSpaceOnUse">
<stop stop-color="#6986D9"/>
<stop offset="1" stop-color="#8FB3FF"/>
</linearGradient>
<linearGradient id="paint31_linear_2967_31069" x1="67.6891" y1="64.6746" x2="18.9714" y2="72.2774" gradientUnits="userSpaceOnUse">
<stop stop-color="#6986D9"/>
<stop offset="1" stop-color="#8FB3FF"/>
</linearGradient>
<linearGradient id="paint32_linear_2967_31069" x1="67.9044" y1="66.0725" x2="19.1866" y2="73.6751" gradientUnits="userSpaceOnUse">
<stop stop-color="#6986D9"/>
<stop offset="1" stop-color="#8FB3FF"/>
</linearGradient>
<linearGradient id="paint33_linear_2967_31069" x1="67.3585" y1="62.5749" x2="18.6407" y2="70.1776" gradientUnits="userSpaceOnUse">
<stop stop-color="#6986D9"/>
<stop offset="1" stop-color="#8FB3FF"/>
</linearGradient>
<linearGradient id="paint34_linear_2967_31069" x1="67.6773" y1="64.6441" x2="18.9595" y2="72.2468" gradientUnits="userSpaceOnUse">
<stop stop-color="#6986D9"/>
<stop offset="1" stop-color="#8FB3FF"/>
</linearGradient>
<linearGradient id="paint35_linear_2967_31069" x1="24.6604" y1="44.7397" x2="33.776" y2="44.5317" gradientUnits="userSpaceOnUse">
<stop stop-color="#6986D9"/>
<stop offset="1" stop-color="#8FB3FF"/>
</linearGradient>
<linearGradient id="paint36_linear_2967_31069" x1="24.3802" y1="32.5464" x2="33.4958" y2="32.3385" gradientUnits="userSpaceOnUse">
<stop stop-color="#6986D9"/>
<stop offset="1" stop-color="#8FB3FF"/>
</linearGradient>
<linearGradient id="paint37_linear_2967_31069" x1="24.8951" y1="55.0684" x2="34.0107" y2="54.8604" gradientUnits="userSpaceOnUse">
<stop stop-color="#6986D9"/>
<stop offset="1" stop-color="#8FB3FF"/>
</linearGradient>
<linearGradient id="paint38_linear_2967_31069" x1="25.127" y1="65.159" x2="34.2452" y2="64.951" gradientUnits="userSpaceOnUse">
<stop stop-color="#6986D9"/>
<stop offset="1" stop-color="#8FB3FF"/>
</linearGradient>
<linearGradient id="paint39_linear_2967_31069" x1="90.9991" y1="28.6049" x2="86.3341" y2="84.7855" gradientUnits="userSpaceOnUse">
<stop stop-color="#8FB3FF"/>
<stop offset="1" stop-color="#6986D9"/>
</linearGradient>
<linearGradient id="paint40_linear_2967_31069" x1="84.2167" y1="28.0424" x2="79.5494" y2="84.2217" gradientUnits="userSpaceOnUse">
<stop stop-color="#8FB3FF"/>
<stop offset="1" stop-color="#6986D9"/>
</linearGradient>
<linearGradient id="paint41_linear_2967_31069" x1="99.7582" y1="29.3319" x2="95.0945" y2="85.5102" gradientUnits="userSpaceOnUse">
<stop stop-color="#8FB3FF"/>
<stop offset="1" stop-color="#6986D9"/>
</linearGradient>
<linearGradient id="paint42_linear_2967_31069" x1="86.9553" y1="28.2663" x2="82.2902" y2="84.4469" gradientUnits="userSpaceOnUse">
<stop stop-color="#8FB3FF"/>
<stop offset="1" stop-color="#6986D9"/>
</linearGradient>
<linearGradient id="paint43_linear_2967_31069" x1="83.4919" y1="27.982" x2="78.8247" y2="84.1613" gradientUnits="userSpaceOnUse">
<stop stop-color="#8FB3FF"/>
<stop offset="1" stop-color="#6986D9"/>
</linearGradient>
<linearGradient id="paint44_linear_2967_31069" x1="85.0508" y1="28.109" x2="80.3845" y2="84.2918" gradientUnits="userSpaceOnUse">
<stop stop-color="#8FB3FF"/>
<stop offset="1" stop-color="#6986D9"/>
</linearGradient>
<linearGradient id="paint45_linear_2967_31069" x1="81.6421" y1="27.8258" x2="76.9771" y2="84.0063" gradientUnits="userSpaceOnUse">
<stop stop-color="#8FB3FF"/>
<stop offset="1" stop-color="#6986D9"/>
</linearGradient>
<linearGradient id="paint46_linear_2967_31069" x1="81.7531" y1="27.8369" x2="77.088" y2="84.0175" gradientUnits="userSpaceOnUse">
<stop stop-color="#8FB3FF"/>
<stop offset="1" stop-color="#6986D9"/>
</linearGradient>
<linearGradient id="paint47_linear_2967_31069" x1="78.2118" y1="27.5399" x2="73.5468" y2="83.7204" gradientUnits="userSpaceOnUse">
<stop stop-color="#8FB3FF"/>
<stop offset="1" stop-color="#6986D9"/>
</linearGradient>
<linearGradient id="paint48_linear_2967_31069" x1="92.6626" y1="28.7438" x2="87.9978" y2="84.9187" gradientUnits="userSpaceOnUse">
<stop stop-color="#8FB3FF"/>
<stop offset="1" stop-color="#6986D9"/>
</linearGradient>
<linearGradient id="paint49_linear_2967_31069" x1="81.3203" y1="27.7988" x2="76.6552" y2="83.9793" gradientUnits="userSpaceOnUse">
<stop stop-color="#8FB3FF"/>
<stop offset="1" stop-color="#6986D9"/>
</linearGradient>
<linearGradient id="paint50_linear_2967_31069" x1="80.8772" y1="27.7634" x2="76.2121" y2="83.944" gradientUnits="userSpaceOnUse">
<stop stop-color="#8FB3FF"/>
<stop offset="1" stop-color="#6986D9"/>
</linearGradient>
<linearGradient id="paint51_linear_2967_31069" x1="74.0946" y1="27.1985" x2="69.4295" y2="83.3791" gradientUnits="userSpaceOnUse">
<stop stop-color="#8FB3FF"/>
<stop offset="1" stop-color="#6986D9"/>
</linearGradient>
<linearGradient id="paint52_linear_2967_31069" x1="89.6377" y1="28.4881" x2="84.9736" y2="84.6721" gradientUnits="userSpaceOnUse">
<stop stop-color="#8FB3FF"/>
<stop offset="1" stop-color="#6986D9"/>
</linearGradient>
<linearGradient id="paint53_linear_2967_31069" x1="76.8254" y1="27.426" x2="72.1604" y2="83.6065" gradientUnits="userSpaceOnUse">
<stop stop-color="#8FB3FF"/>
<stop offset="1" stop-color="#6986D9"/>
</linearGradient>
<linearGradient id="paint54_linear_2967_31069" x1="73.3667" y1="27.1382" x2="68.7016" y2="83.3187" gradientUnits="userSpaceOnUse">
<stop stop-color="#8FB3FF"/>
<stop offset="1" stop-color="#6986D9"/>
</linearGradient>
<linearGradient id="paint55_linear_2967_31069" x1="74.9236" y1="27.2675" x2="70.2586" y2="83.4481" gradientUnits="userSpaceOnUse">
<stop stop-color="#8FB3FF"/>
<stop offset="1" stop-color="#6986D9"/>
</linearGradient>
<linearGradient id="paint56_linear_2967_31069" x1="71.5197" y1="26.9867" x2="66.8524" y2="83.166" gradientUnits="userSpaceOnUse">
<stop stop-color="#8FB3FF"/>
<stop offset="1" stop-color="#6986D9"/>
</linearGradient>
<linearGradient id="paint57_linear_2967_31069" x1="71.6298" y1="26.9925" x2="66.9648" y2="83.1731" gradientUnits="userSpaceOnUse">
<stop stop-color="#8FB3FF"/>
<stop offset="1" stop-color="#6986D9"/>
</linearGradient>
<linearGradient id="paint58_linear_2967_31069" x1="68.0922" y1="26.7015" x2="63.4249" y2="82.8807" gradientUnits="userSpaceOnUse">
<stop stop-color="#8FB3FF"/>
<stop offset="1" stop-color="#6986D9"/>
</linearGradient>
<linearGradient id="paint59_linear_2967_31069" x1="82.5398" y1="27.8966" x2="77.8757" y2="84.0806" gradientUnits="userSpaceOnUse">
<stop stop-color="#8FB3FF"/>
<stop offset="1" stop-color="#6986D9"/>
</linearGradient>
<linearGradient id="paint60_linear_2967_31069" x1="71.1943" y1="26.9561" x2="66.528" y2="83.1389" gradientUnits="userSpaceOnUse">
<stop stop-color="#8FB3FF"/>
<stop offset="1" stop-color="#6986D9"/>
</linearGradient>
<clipPath id="clip0_2967_31069">
<rect width="120" height="102" fill="white"/>
</clipPath>
</defs>
</svg>
