<svg width="35" height="40" viewBox="0 0 35 40" fill="none" xmlns="http://www.w3.org/2000/svg">
<g clip-path="url(#clip0_2967_31516)">
<path d="M20.2563 0C20.6803 0.181709 21.0067 0.486646 21.33 0.806203C23.9582 3.40234 26.5885 5.99535 29.2304 8.57896C29.6512 8.99042 29.8444 9.44365 29.8433 10.0337C29.8307 14.0574 29.8391 18.08 29.8307 22.1038C29.8307 22.392 29.8937 22.5591 30.1729 22.7105C33.6996 24.6205 35.4671 28.4594 34.893 32.0789C34.2443 36.1726 31.2802 39.2011 27.3232 39.8569C24.1618 40.3812 21.4318 39.4716 19.1405 37.2545C18.9443 37.0655 18.7553 36.9903 18.4877 36.9914C12.9258 36.9976 7.36506 36.9966 1.80322 36.9966C0.532154 36.9966 0.0115512 36.4828 0.0115512 35.2265C0.0115512 25.3672 0.019948 15.5111 5.57302e-06 5.65386C-0.00209363 4.61791 0.588832 3.81693 1.78748 3.89943C2.39939 3.94121 3.01761 3.8963 3.63163 3.91196C3.86884 3.91823 3.95175 3.85766 3.94336 3.61016C3.92551 3.05041 3.9696 2.48858 3.93076 1.93092C3.86779 1.03491 4.15748 0.364462 5.0213 0L20.2563 0ZM28.8924 22.1006C28.8924 21.9544 28.8924 21.8395 28.8924 21.7236C28.8924 17.9338 28.8871 14.1451 28.9018 10.3553C28.9029 10.0044 28.8105 9.9282 28.4694 9.93029C26.1004 9.94596 23.7315 9.94074 21.3636 9.9376C20.6194 9.9376 20.0568 9.5533 19.9004 8.88494C19.8364 8.6082 19.7189 8.57792 19.4817 8.57896C17.9377 8.58732 16.3927 8.58523 14.8487 8.5821C14.4299 8.5821 14.2137 8.41396 14.2106 8.11007C14.2074 7.80304 14.4152 7.64535 14.8414 7.64535C16.2415 7.64327 17.6417 7.64535 19.0419 7.64535C19.8574 7.64535 19.8427 7.64535 19.8543 6.81722C19.8585 6.51333 19.7556 6.44963 19.4722 6.45276C17.9807 6.46529 16.4882 6.45902 14.9967 6.45798C14.854 6.45798 14.707 6.45798 14.5685 6.42874C14.3355 6.37861 14.2095 6.21674 14.2127 5.97969C14.2158 5.74263 14.3449 5.5839 14.579 5.54004C14.7322 5.51184 14.8907 5.5108 15.0471 5.50975C16.5123 5.50766 17.9786 5.49826 19.4439 5.51602C19.7787 5.52019 19.8574 5.41472 19.8532 5.09621C19.8354 3.85975 19.8333 2.62225 19.8532 1.38475C19.8585 1.04013 19.7839 0.928387 19.4113 0.930475C14.8435 0.945096 10.2767 0.939874 5.70879 0.939874C5.00765 0.939874 4.88065 1.06415 4.88065 1.75025C4.88065 5.77396 4.88065 9.79767 4.88065 13.8214C4.88065 19.681 4.88065 25.5416 4.88065 31.4012C4.88065 31.9808 5.0171 32.1447 5.5335 32.1458C9.10635 32.1489 12.6792 32.1458 16.252 32.151C16.485 32.151 16.5648 32.1124 16.5323 31.8461C16.3948 30.712 16.462 29.5862 16.759 28.4792C16.8377 28.1868 16.9248 27.8976 17.0161 27.5811C16.2909 27.5811 15.6118 27.5811 14.9316 27.5811C14.432 27.5811 14.2169 27.4422 14.2095 27.1206C14.2022 26.7937 14.4215 26.6433 14.9106 26.6423C15.6569 26.6413 16.4021 26.6433 17.1484 26.6402C17.2848 26.6402 17.4297 26.6799 17.5231 26.5086C17.7068 26.1692 17.9104 25.8413 18.1329 25.4633C17.9608 25.4633 17.8348 25.4633 17.7089 25.4633C16.7537 25.4633 15.7986 25.4654 14.8424 25.4622C14.4268 25.4601 14.2095 25.291 14.2085 24.986C14.2085 24.679 14.4142 24.5255 14.8445 24.5244C16.0621 24.5224 17.2785 24.5161 18.4961 24.5297C18.791 24.5328 18.9988 24.4503 19.2172 24.2414C21.3415 22.2113 23.8711 21.331 26.81 21.6328C27.5143 21.7048 28.1891 21.8959 28.8913 22.1017L28.8924 22.1006ZM18.1088 36.041C17.5451 35.1972 17.1222 34.3796 16.8755 33.4856C16.7905 33.1786 16.653 33.0898 16.336 33.0919C12.803 33.1045 9.27008 33.1003 5.73713 33.0992C4.45871 33.0992 3.93496 32.5719 3.93496 31.2895C3.93496 25.7432 3.93496 20.1958 3.93496 14.6495C3.93496 11.5511 3.93601 8.45156 3.93496 5.35311C3.93496 4.77456 4.00004 4.84975 3.4448 4.84557C2.89481 4.8414 2.34586 4.84453 1.79587 4.84557C1.08529 4.84557 0.956192 4.97402 0.956192 5.69042C0.956192 15.534 0.956192 25.3776 0.956192 35.2202C0.956192 35.9283 1.06745 36.04 1.76543 36.04C7.05228 36.04 12.3381 36.04 17.6249 36.04H18.1098L18.1088 36.041ZM23.615 31.3156C21.7677 29.84 21.7761 27.5519 22.938 26.1358C24.1629 24.6445 26.3712 24.3824 27.9047 25.5489C28.6552 26.1201 29.1285 26.8741 29.2723 27.7973C29.4938 29.2196 28.9847 30.3851 27.8438 31.3177C30.0333 31.9641 31.6507 33.2444 32.7801 35.1784C33.9263 33.2966 34.322 31.303 33.8885 29.1883C32.7108 23.4415 26.2904 20.7044 21.2765 23.7882C17.5598 26.0742 16.2898 31.137 18.4887 34.8714C18.6525 35.1502 18.7196 35.1315 18.876 34.8672C19.3473 34.0767 19.955 33.4 20.674 32.8204C21.5389 32.1228 22.515 31.6414 23.615 31.3156ZM25.6953 31.9808C22.9432 32.0957 20.8514 33.3123 19.468 35.7163C19.3316 35.9533 19.3421 36.11 19.5383 36.3178C21.4444 38.3281 23.7661 39.2606 26.5423 39.0121C28.6531 38.8231 30.4028 37.902 31.8638 36.3909C32.1031 36.1434 32.1283 35.945 31.9541 35.6505C30.5508 33.2789 28.4631 32.08 25.6953 31.9818V31.9808ZM20.8251 1.58525C20.8052 1.74817 20.7947 1.79412 20.7947 1.84006C20.7947 4.04041 20.7916 6.23972 20.7968 8.44007C20.7968 8.85361 20.9647 8.9946 21.4213 8.99564C23.6066 8.99773 25.7908 8.99773 27.9761 8.99355C28.0548 8.99355 28.1619 9.04681 28.081 9.05308C25.6848 6.58643 23.2886 4.11978 20.8262 1.58525H20.8251ZM28.3686 28.4134C28.3739 26.9389 27.2214 25.7755 25.752 25.7734C24.2542 25.7703 23.0828 26.9274 23.0818 28.4082C23.0807 29.8629 24.2594 31.0326 25.7257 31.0326C27.2015 31.0326 28.3634 29.8817 28.3697 28.4134H28.3686Z" fill="#1F6FED"/>
<path d="M28.8935 22.1009C28.1913 21.8941 27.5154 21.704 26.8121 21.632C23.8732 21.3302 21.3437 22.2105 19.2193 24.2407C19.001 24.4495 18.7932 24.532 18.4982 24.5289C17.2818 24.5153 16.0642 24.5216 14.8467 24.5237C14.4174 24.5237 14.2106 24.6782 14.2106 24.9853C14.2106 25.2902 14.4279 25.4594 14.8446 25.4615C15.7997 25.4656 16.7549 25.4625 17.711 25.4625C17.837 25.4625 17.9629 25.4625 18.1351 25.4625C17.9126 25.8405 17.7089 26.1684 17.5253 26.5078C17.4318 26.6802 17.287 26.6394 17.1506 26.6394C16.4043 26.6426 15.6591 26.6394 14.9128 26.6415C14.4237 26.6415 14.2043 26.7929 14.2117 27.1198C14.219 27.4415 14.4342 27.5793 14.9338 27.5804C15.6139 27.5804 16.2941 27.5804 17.0183 27.5804C16.928 27.8968 16.8399 28.1871 16.7611 28.4785C16.4652 29.5854 16.398 30.7122 16.5344 31.8453C16.567 32.1116 16.4862 32.1502 16.2542 32.1502C12.6814 32.145 9.10851 32.1481 5.53566 32.145C5.01821 32.145 4.88281 31.981 4.88281 31.4004C4.88281 25.5408 4.88281 19.6802 4.88281 13.8206C4.88281 9.79689 4.88281 5.77318 4.88281 1.74947C4.88281 1.06337 5.00981 0.939093 5.71095 0.939093C10.2788 0.939093 14.8456 0.944315 19.4135 0.929695C19.7861 0.92865 19.8617 1.04039 19.8554 1.38397C19.8354 2.62042 19.8365 3.85793 19.8554 5.09543C19.8596 5.41394 19.7809 5.51941 19.446 5.51524C17.9808 5.49748 16.5145 5.50688 15.0492 5.50897C14.8929 5.50897 14.7333 5.51002 14.5811 5.53926C14.3471 5.58312 14.2169 5.74081 14.2148 5.97891C14.2117 6.21597 14.3376 6.37783 14.5706 6.42796C14.7092 6.45824 14.8561 6.4572 14.9989 6.4572C16.4904 6.45929 17.9829 6.46555 19.4744 6.45198C19.7578 6.44989 19.8606 6.51359 19.8564 6.81644C19.8449 7.64457 19.8596 7.64457 19.044 7.64457C17.6439 7.64457 16.2437 7.64353 14.8435 7.64457C14.4174 7.64457 14.2096 7.80226 14.2127 8.10929C14.2159 8.41318 14.4321 8.58027 14.8509 8.58131C16.3948 8.58445 17.9399 8.58654 19.4838 8.57818C19.721 8.57714 19.8386 8.60742 19.9026 8.88416C20.0579 9.55252 20.6216 9.93578 21.3657 9.93682C23.7347 9.93996 26.1036 9.94518 28.4715 9.92951C28.8137 9.92742 28.9061 10.0047 28.904 10.3545C28.8893 14.1443 28.8945 17.9331 28.8945 21.7228C28.8945 21.8388 28.8945 21.9547 28.8945 22.0998L28.8935 22.1009ZM20.3854 11.8448C18.5927 11.8448 16.7989 11.8448 15.0062 11.8448C14.8761 11.8448 14.7428 11.8427 14.6147 11.8625C14.3618 11.9012 14.2159 12.0568 14.2138 12.3137C14.2106 12.5716 14.3607 12.7251 14.6074 12.7752C14.7207 12.7982 14.8414 12.793 14.959 12.793C18.5843 12.793 22.2096 12.793 25.835 12.793C25.9525 12.793 26.0722 12.7982 26.1866 12.7773C26.4353 12.7314 26.5949 12.5716 26.5917 12.322C26.5886 12.0588 26.4353 11.8845 26.1561 11.8583C26.026 11.8458 25.8948 11.8458 25.7646 11.8458C23.9719 11.8458 22.1781 11.8458 20.3854 11.8458V11.8448ZM20.3907 18.1889C18.5843 18.1889 16.779 18.1889 14.9726 18.1889C14.8551 18.1889 14.7365 18.1847 14.62 18.1983C14.3807 18.2265 14.24 18.3706 14.2159 18.6046C14.1907 18.8604 14.3219 19.0285 14.5664 19.0975C14.6651 19.1257 14.7732 19.1257 14.8771 19.1257C18.5549 19.1267 22.2317 19.1277 25.9095 19.1257C26.0386 19.1257 26.174 19.1173 26.2936 19.0755C26.5004 19.0045 26.6127 18.8353 26.5917 18.6213C26.5697 18.3978 26.4458 18.2286 26.2002 18.2004C26.0711 18.1858 25.9389 18.1889 25.8087 18.1889C24.0023 18.1889 22.197 18.1889 20.3907 18.1889ZM20.4148 13.9783C19.1322 13.9783 17.8496 13.9783 16.567 13.9783C15.9519 13.9783 15.3368 13.9783 14.7218 13.9783C14.4289 13.9783 14.2369 14.114 14.2169 14.4075C14.1959 14.726 14.3964 14.8774 14.6945 14.9129C14.7848 14.9234 14.8771 14.9171 14.9695 14.9171C18.5948 14.9171 22.2201 14.9171 25.8454 14.9161C25.9882 14.9161 26.1351 14.9108 26.2716 14.8753C26.4511 14.8294 26.5529 14.6884 26.5875 14.5109C26.6222 14.3271 26.5445 14.1819 26.4028 14.067C26.2684 13.9574 26.1068 13.9793 25.9515 13.9793C24.1063 13.9793 22.2611 13.9793 20.4148 13.9793V13.9783ZM20.4264 20.3109C19.3789 20.3109 18.3324 20.3109 17.2849 20.3109C16.4347 20.3109 15.5835 20.3109 14.7333 20.3109C14.4226 20.3109 14.2211 20.453 14.2169 20.7684C14.2117 21.0858 14.4216 21.2268 14.7218 21.2466C14.8257 21.254 14.9306 21.2487 15.0356 21.2487C18.2547 21.2487 21.4749 21.2487 24.694 21.2487C25.1391 21.2487 25.5841 21.2466 26.0291 21.2487C26.2401 21.2498 26.4175 21.1861 26.5277 20.9991C26.7313 20.6545 26.4731 20.312 26.0008 20.3109C24.1419 20.3078 22.2841 20.3099 20.4253 20.3099L20.4264 20.3109ZM7.66111 6.27967C7.49527 6.29116 7.33678 6.35799 7.25596 6.52299C7.1552 6.72872 7.18039 6.93236 7.34728 7.09945C7.9466 7.69992 8.54697 8.29935 9.15259 8.89356C9.37301 9.10973 9.62491 9.12644 9.84848 8.90505C10.8802 7.8879 11.9078 6.86552 12.9312 5.84002C13.1358 5.63533 13.1495 5.38992 12.9416 5.17897C12.7349 4.96907 12.4987 4.98473 12.2762 5.1727C12.2069 5.23119 12.145 5.29907 12.0799 5.36381C11.2938 6.146 10.5013 6.924 9.72462 7.71559C9.55774 7.88476 9.46432 7.90147 9.29429 7.71976C8.90174 7.301 8.48294 6.90625 8.0778 6.49897C7.96444 6.38514 7.84164 6.29429 7.66111 6.27862V6.27967ZM7.19508 13.1188C7.18879 13.241 7.27485 13.3653 7.39031 13.4791C7.95604 14.0389 8.51548 14.6028 9.08332 15.1604C9.41184 15.4831 9.61127 15.48 9.94819 15.1458C10.9117 14.1924 11.8721 13.2347 12.8314 12.2771C13.1327 11.9763 13.1621 11.7215 12.9354 11.5022C12.7149 11.2882 12.4557 11.3257 12.1544 11.6255C11.3494 12.4244 10.5391 13.218 9.74771 14.0305C9.55039 14.2331 9.44228 14.2153 9.2607 14.0211C8.85975 13.594 8.43466 13.1877 8.01692 12.7763C7.86788 12.6301 7.69469 12.558 7.48372 12.6468C7.2948 12.7272 7.20243 12.8682 7.19508 13.1188ZM9.5189 21.7228C9.70573 21.7208 9.82748 21.6027 9.94819 21.4816C10.4279 21.0033 10.9086 20.5261 11.3893 20.0478C11.8879 19.5517 12.3906 19.0599 12.8829 18.5565C13.1799 18.2537 13.1222 17.8516 12.7779 17.7367C12.5187 17.6511 12.3329 17.7733 12.1555 17.9519C11.3473 18.7654 10.5265 19.5653 9.72357 20.384C9.55354 20.5574 9.45907 20.5605 9.29324 20.384C8.89124 19.958 8.4651 19.5538 8.05051 19.1403C7.82275 18.9126 7.56454 18.85 7.33048 19.0912C7.10062 19.3283 7.16465 19.5872 7.39136 19.8118C7.96444 20.3809 8.53647 20.9511 9.10851 21.5213C9.22186 21.6341 9.34677 21.7249 9.51785 21.7218L9.5189 21.7228ZM9.49686 28.0524C9.59132 28.0586 9.67949 28.0378 9.75611 27.9814C9.80859 27.9427 9.86002 27.902 9.90515 27.856C10.8939 26.8734 11.8816 25.8896 12.8713 24.9069C13.0949 24.6855 13.1747 24.4485 12.9521 24.1874C12.7653 23.9691 12.4641 23.9994 12.1975 24.249C12.1314 24.3117 12.0684 24.3775 12.0033 24.4422C11.2465 25.1962 10.4824 25.9439 9.73617 26.7084C9.55249 26.8963 9.44963 26.888 9.27644 26.7031C8.88389 26.2865 8.46615 25.8928 8.0631 25.4844C7.83849 25.2578 7.59603 25.1931 7.33678 25.4072C7.11951 25.5868 7.14995 25.9022 7.40395 26.158C7.96444 26.7219 8.53018 27.2796 9.09381 27.8404C9.20612 27.9521 9.32577 28.0524 9.49686 28.0513V28.0524Z" fill="white"/>
<path d="M18.1068 36.0415H17.6218C12.335 36.0415 7.04921 36.0415 1.76237 36.0415C1.06438 36.0415 0.953125 35.9287 0.953125 35.2217C0.953125 25.3781 0.953125 15.5345 0.953125 5.69194C0.953125 4.97555 1.08223 4.8471 1.79281 4.8471C2.3428 4.8471 2.89174 4.84396 3.44173 4.8471C3.99802 4.85127 3.93189 4.77504 3.93189 5.35463C3.93399 8.45308 3.93189 11.5526 3.93189 14.651C3.93189 20.1973 3.93189 25.7447 3.93189 31.291C3.93189 32.5723 4.45564 33.0997 5.73406 33.1008C9.26702 33.1008 12.8 33.106 16.3329 33.0935C16.651 33.0924 16.7885 33.1801 16.8724 33.4872C17.1191 34.38 17.5421 35.1988 18.1057 36.0426L18.1068 36.0415Z" fill="#BDDAFE"/>
<path d="M23.613 31.3146C22.514 31.6404 21.5369 32.1218 20.672 32.8194C19.953 33.399 19.3453 34.0757 18.874 34.8663C18.7166 35.1305 18.6505 35.1493 18.4867 34.8705C16.2878 31.136 17.5578 26.0743 21.2745 23.7872C26.2884 20.7034 32.7088 23.4405 33.8865 29.1873C34.3199 31.301 33.9242 33.2956 32.7781 35.1775C31.6487 33.2434 30.0313 31.9631 27.8418 31.3167C28.9827 30.3841 29.4918 29.2187 29.2703 27.7963C29.1265 26.8732 28.6532 26.1192 27.9027 25.5479C26.3692 24.3815 24.1609 24.6436 22.936 26.1348C21.773 27.5509 21.7657 29.839 23.613 31.3146Z" fill="white"/>
<path d="M25.6945 31.9815C28.4623 32.0797 30.551 33.2785 31.9533 35.6502C32.1275 35.9446 32.1023 36.1431 31.863 36.3906C30.403 37.9017 28.6523 38.8228 26.5415 39.0118C23.7654 39.2603 21.4436 38.3278 19.5376 36.3175C19.3402 36.1096 19.3297 35.953 19.4672 35.7159C20.8506 33.313 22.9425 32.0964 25.6945 31.9805V31.9815Z" fill="#BDDAFE"/>
<path d="M20.8215 1.58594C23.2839 4.12047 25.6801 6.58711 28.0763 9.05376C28.1571 9.04854 28.0501 8.99424 27.9714 8.99424C25.7861 8.99737 23.6019 8.99841 21.4166 8.99632C20.96 8.99632 20.7931 8.8543 20.7921 8.44075C20.7869 6.2404 20.79 4.0411 20.79 1.84075C20.79 1.7948 20.8005 1.74885 20.8204 1.58594H20.8215Z" fill="#BDDAFE"/>
<path d="M28.366 28.4134C28.3608 29.8807 27.1989 31.0326 25.7221 31.0326C24.2558 31.0326 23.0771 29.8629 23.0781 28.4082C23.0792 26.9274 24.2516 25.7703 25.7483 25.7734C27.2178 25.7766 28.3702 26.9399 28.365 28.4134H28.366Z" fill="#BDDAFE"/>
<path d="M20.3826 11.8448C22.1754 11.8448 23.9691 11.8448 25.7618 11.8448C25.893 11.8448 26.0242 11.8448 26.1533 11.8573C26.4336 11.8834 26.5858 12.0578 26.5889 12.321C26.5921 12.5706 26.4315 12.7304 26.1838 12.7763C26.0694 12.7972 25.9497 12.792 25.8322 12.792C22.2068 12.792 18.5815 12.792 14.9562 12.792C14.8386 12.792 14.7179 12.7982 14.6046 12.7742C14.3579 12.7241 14.2078 12.5706 14.211 12.3126C14.2141 12.0568 14.359 11.9012 14.6119 11.8615C14.74 11.8417 14.8722 11.8448 15.0034 11.8438C16.7962 11.8438 18.5899 11.8438 20.3826 11.8438V11.8448Z" fill="#1F6FED"/>
<path d="M20.3888 18.1881C22.1952 18.1881 24.0005 18.1881 25.8069 18.1881C25.9381 18.1881 26.0693 18.185 26.1984 18.1996C26.444 18.2278 26.5678 18.397 26.5899 18.6204C26.6108 18.8345 26.4975 19.0037 26.2918 19.0747C26.1721 19.1165 26.0357 19.1238 25.9076 19.1248C22.2298 19.1269 18.5531 19.1269 14.8753 19.1248C14.7713 19.1248 14.6632 19.1248 14.5646 19.0967C14.32 19.0277 14.1888 18.8585 14.214 18.6037C14.2371 18.3698 14.3788 18.2257 14.6181 18.1975C14.7346 18.1839 14.8532 18.1881 14.9708 18.1881C16.7771 18.1881 18.5824 18.1881 20.3888 18.1881Z" fill="#1F6FED"/>
<path d="M20.4103 13.9784C22.2555 13.9784 24.1007 13.9784 25.947 13.9784C26.1023 13.9784 26.264 13.9564 26.3983 14.0661C26.54 14.1809 26.6177 14.3261 26.583 14.5099C26.5495 14.6874 26.4466 14.8284 26.2671 14.8744C26.1307 14.9088 25.9837 14.9151 25.841 14.9151C22.2157 14.9172 18.5903 14.9172 14.965 14.9161C14.8737 14.9161 14.7813 14.9224 14.69 14.912C14.3909 14.8765 14.1915 14.725 14.2125 14.4065C14.2324 14.1131 14.4245 13.9773 14.7173 13.9773C15.3324 13.9773 15.9474 13.9773 16.5625 13.9773C17.8451 13.9773 19.1277 13.9773 20.4103 13.9773V13.9784Z" fill="#1F6FED"/>
<path d="M20.4272 20.3112C22.2861 20.3112 24.1439 20.3091 26.0027 20.3123C26.475 20.3123 26.7332 20.6558 26.5296 21.0005C26.4184 21.1874 26.242 21.2511 26.0311 21.2501C25.586 21.2469 25.141 21.2501 24.696 21.2501C21.4768 21.2501 18.2567 21.2501 15.0375 21.2501C14.9326 21.2501 14.8276 21.2542 14.7237 21.248C14.4235 21.2281 14.2136 21.0871 14.2188 20.7697C14.2241 20.4533 14.4246 20.3123 14.7352 20.3123C15.5854 20.3123 16.4367 20.3123 17.2868 20.3123C18.3343 20.3123 19.3808 20.3123 20.4283 20.3123L20.4272 20.3112Z" fill="#1F6FED"/>
<path d="M7.65994 6.27936C7.84153 6.29502 7.96328 6.38587 8.07664 6.4997C8.48178 6.90698 8.90057 7.30173 9.29312 7.7205C9.46316 7.90116 9.55657 7.8855 9.72346 7.71632C10.5012 6.92474 11.2926 6.14673 12.0788 5.36454C12.1438 5.2998 12.2058 5.23192 12.275 5.17344C12.4976 4.98546 12.7337 4.9698 12.9405 5.1797C13.1473 5.39065 13.1336 5.63502 12.93 5.84075C11.9066 6.8673 10.8801 7.88863 9.84731 8.90578C9.62375 9.12613 9.37184 9.11047 9.15143 8.89429C8.54581 8.30008 7.94544 7.70065 7.34611 7.10018C7.17923 6.93309 7.15404 6.72945 7.2548 6.52372C7.33562 6.35872 7.49306 6.29189 7.65994 6.2804V6.27936Z" fill="#1F6FED"/>
<path d="M7.19564 13.1176C7.20193 12.868 7.2943 12.726 7.48428 12.6456C7.6963 12.5558 7.86843 12.6289 8.01747 12.7751C8.43627 13.1865 8.8603 13.5928 9.26125 14.0199C9.44388 14.2141 9.55094 14.2319 9.74827 14.0293C10.5397 13.2168 11.35 12.4231 12.155 11.6242C12.4573 11.3245 12.7155 11.2869 12.9359 11.501C13.1626 11.7203 13.1332 11.9751 12.832 12.2759C11.8727 13.2335 10.9123 14.1911 9.94874 15.1446C9.61182 15.4777 9.41239 15.4819 9.08387 15.1592C8.51604 14.6026 7.9566 14.0376 7.39086 13.4779C7.27541 13.363 7.18934 13.2398 7.19564 13.1176Z" fill="#1F6FED"/>
<path d="M9.51925 21.7224C9.34816 21.7256 9.22326 21.6347 9.1099 21.5219C8.53787 20.9517 7.96584 20.3816 7.39276 19.8124C7.16604 19.5879 7.10097 19.3289 7.33188 19.0918C7.56489 18.8506 7.82414 18.9143 8.05191 19.1409C8.4665 19.5555 8.89159 19.9597 9.29463 20.3847C9.46152 20.5612 9.55493 20.558 9.72497 20.3847C10.5279 19.567 11.3487 18.766 12.1569 17.9525C12.3353 17.7739 12.5201 17.6507 12.7793 17.7374C13.1236 17.8522 13.1813 18.2533 12.8843 18.5572C12.392 19.0595 11.8892 19.5513 11.3907 20.0484C10.911 20.5267 10.4293 21.0029 9.94958 21.4822C9.82783 21.6034 9.70713 21.7203 9.51925 21.7224Z" fill="#1F6FED"/>
<path d="M9.49304 28.0523C9.32196 28.0523 9.2023 27.9531 9.08999 27.8403C8.52636 27.2795 7.96062 26.7219 7.40014 26.1579C7.14613 25.9021 7.11464 25.5867 7.33296 25.4071C7.59116 25.193 7.83467 25.2578 8.05929 25.4844C8.46233 25.8916 8.88007 26.2853 9.27262 26.7031C9.44581 26.8869 9.54867 26.8952 9.73235 26.7083C10.4786 25.9439 11.2427 25.1961 11.9995 24.4422C12.0646 24.3774 12.1275 24.3116 12.1937 24.249C12.4603 23.9994 12.7625 23.9691 12.9483 24.1873C13.1708 24.4484 13.0911 24.6855 12.8675 24.9069C11.8777 25.8885 10.8901 26.8733 9.90134 27.856C9.85515 27.9019 9.80372 27.9427 9.75229 27.9813C9.67567 28.0377 9.5875 28.0586 9.49304 28.0523Z" fill="#1F6FED"/>
</g>
<defs>
<clipPath id="clip0_2967_31516">
<rect width="35" height="40" fill="white"/>
</clipPath>
</defs>
</svg>
