<svg width="40" height="40" viewBox="0 0 40 40" fill="none" xmlns="http://www.w3.org/2000/svg">
<path d="M37.8827 9.84874C37.7651 9.7899 37.718 9.76637 37.6709 9.7546C35.6233 8.95436 33.5756 8.14236 31.5279 7.35389C31.3632 7.29505 31.1043 7.35389 30.9513 7.43627C25.3143 10.9079 19.6892 14.403 14.064 17.8864C13.9581 17.957 13.8639 18.0276 13.7109 18.1218C15.688 18.9102 17.618 19.6752 19.5244 20.4519C19.8304 20.5813 20.054 20.5578 20.3364 20.393C25.2202 17.451 30.1158 14.5089 35.0113 11.5787C35.941 11.0138 36.8707 10.4607 37.871 9.86051L37.8827 9.84874Z" fill="white"/>
<path d="M9.70312 17.9219V20.8875C10.3151 21.1346 10.9388 21.3817 11.6331 21.6642C11.6331 20.6992 11.6331 19.8048 11.6331 18.8986C11.6331 18.8045 11.5743 18.675 11.5154 18.6397C10.927 18.3926 10.3386 18.1572 9.71489 17.9219H9.70312Z" fill="#B4D5FB"/>
<path d="M10.5 16.8051C11.0178 17.0169 11.465 17.1699 11.9004 17.37C12.1358 17.4759 12.3005 17.4641 12.5241 17.3229C17.9257 13.9689 23.3391 10.615 28.7407 7.27286C29.0584 7.0728 29.3644 6.87274 29.7292 6.64915C29.2232 6.44909 28.776 6.28434 28.3405 6.08428C28.0934 5.9666 27.9051 6.01367 27.6815 6.15489C23.1625 8.95571 18.6436 11.7565 14.1364 14.5574C12.9478 15.287 11.771 16.0284 10.5 16.8168V16.8051Z" fill="#B4D5FB"/>
<path d="M19.0433 21.6293C17.5958 21.0527 16.1483 20.476 14.7126 19.8994C14.1359 19.664 13.5475 19.4287 12.9238 19.1815C12.9238 20.2995 12.9238 21.3704 12.9238 22.4413C12.9238 23.1239 12.5237 23.3945 11.9 23.1474C10.9115 22.7591 9.93471 22.3589 8.94618 21.9706C8.5696 21.8294 8.40485 21.5822 8.40485 21.1704C8.41662 20.0288 8.40485 18.8873 8.40485 17.7458C8.40485 17.4634 8.32247 17.3339 8.0518 17.228C5.92176 16.3925 3.79173 15.5334 1.66169 14.6743C1.55577 14.6273 1.43809 14.6037 1.29688 14.5566V15.0038C1.29688 18.9697 1.29688 22.9356 1.29688 26.8897C1.29688 27.2074 1.37925 27.3722 1.69699 27.5134C7.0162 29.8082 12.3354 32.1147 17.6429 34.4213C18.2077 34.6684 18.7726 34.9038 19.3375 35.1392C19.3375 35.0568 19.361 35.0097 19.361 34.9744C19.361 30.6673 19.361 26.3483 19.361 22.0412C19.361 21.7705 19.2198 21.6999 19.0315 21.6293H19.0433ZM1.95589 23.3239C3.0268 23.7476 4.02709 24.1477 5.02738 24.5596C5.09799 24.5831 5.1686 24.689 5.1686 24.7596C5.18037 25.0774 5.1686 25.3951 5.1686 25.7717C4.0977 25.3481 3.08564 24.9362 2.07357 24.5243C2.01473 24.5007 1.95589 24.3831 1.94412 24.3124C1.93236 24.0065 1.94412 23.7005 1.94412 23.3239H1.95589ZM5.18037 27.7723C4.12124 27.3486 3.10917 26.9485 2.10888 26.5366C2.03827 26.5013 1.96766 26.3836 1.96766 26.3013C1.95589 25.9953 1.96766 25.6893 1.96766 25.3245C3.0268 25.7482 4.03886 26.1483 5.05092 26.5602C5.12153 26.5837 5.18037 26.7249 5.18037 26.8191C5.19214 27.1133 5.18037 27.4075 5.18037 27.7723Z" fill="white"/>
<path d="M8.64021 16.0865C8.88735 16.1925 9.07564 16.1689 9.29923 16.0277C13.83 13.2151 18.349 10.4143 22.8797 7.60169C24.0683 6.87207 25.2451 6.13067 26.5043 5.35397C24.845 4.70672 23.2563 4.08301 21.6793 3.4593C21.4322 3.36515 21.2439 3.36515 21.0086 3.4946C14.948 6.73085 8.86381 9.95533 2.79143 13.1798C2.61491 13.274 2.45016 13.3681 2.22656 13.4975C2.36778 13.5682 2.46193 13.6035 2.55607 13.6505C4.5802 14.4625 6.61609 15.2745 8.64021 16.0865Z" fill="white"/>
<path d="M30.3896 22.6175C26.4943 22.5822 23.258 25.7596 23.2345 29.6195C23.211 33.5854 26.3413 36.7628 30.2836 36.7981C34.2024 36.8217 37.3916 33.6796 37.4151 29.749C37.4505 25.8655 34.273 22.6528 30.3778 22.6175H30.3896ZM29.1186 33.8208C27.6946 32.6793 26.3178 31.5731 24.9174 30.4551C25.188 30.1256 25.4352 29.8078 25.7176 29.4548C26.8003 30.3139 27.8594 31.1612 28.9656 32.0438C30.6838 30.1138 32.4019 28.1838 34.1436 26.2185C34.4613 26.501 34.7791 26.7716 35.1086 27.0658C33.108 29.3136 31.1192 31.5495 29.1186 33.809V33.8208Z" fill="white"/>
<path d="M38.7126 10.8711C38.5596 10.9535 38.4654 11.0005 38.3831 11.0594C32.5696 14.5428 26.7561 18.0379 20.9426 21.5213C20.7073 21.6625 20.6484 21.8155 20.6484 22.0744C20.6484 26.2403 20.6484 30.4062 20.6484 34.5722V34.9841C21.4251 34.4898 22.1312 34.0426 22.8726 33.5837C21.9194 31.6184 21.6605 29.5942 22.2489 27.4995C22.8373 25.393 24.0847 23.7572 25.9206 22.5922C29.0274 20.6151 33.9935 20.7917 37.018 24.6163C37.4651 24.3339 37.9123 24.0279 38.3713 23.769C38.6184 23.6278 38.7126 23.463 38.7126 23.1688C38.7008 20.8152 38.7126 18.4616 38.7126 16.1197V10.8946V10.8711Z" fill="white"/>
<path d="M39.1645 8.94276C33.3628 6.65973 27.561 4.38848 21.7593 2.09368C21.3945 1.95247 21.1239 1.976 20.7944 2.15253C13.9806 5.77712 7.16681 9.38995 0.341277 13.0028C0.0823772 13.144 0 13.3087 0 13.603C0.0117682 18.2514 0.0235363 22.8998 0 27.5482C0 28.0543 0.141218 28.2896 0.600177 28.4897C6.94322 31.2199 13.2863 33.9736 19.6175 36.7274C19.9588 36.8804 20.2059 36.8333 20.5001 36.645C21.5122 35.986 22.536 35.3505 23.5481 34.7033C26.5608 38.6221 31.6446 38.9163 34.9515 36.7039C38.1524 34.5621 39.9176 30.0902 37.717 25.7242C38.3878 25.3005 39.0232 24.8769 39.6705 24.4885C39.9176 24.3355 40 24.159 40 23.8766C40 19.3105 40 14.7445 40 10.1666C40 9.57039 39.7176 9.16243 39.1527 8.94276H39.1645ZM28.3377 6.08309C28.7732 6.28315 29.2321 6.44791 29.7264 6.64796C29.3616 6.88333 29.0438 7.08339 28.7379 7.27168C23.3363 10.6256 17.9229 13.9678 12.5213 17.3217C12.2977 17.4629 12.133 17.4747 11.8976 17.3688C11.4622 17.1687 11.015 17.0157 10.4972 16.8039C11.7564 16.0154 12.945 15.2858 14.1336 14.5444C18.6525 11.7436 23.1715 8.95453 27.6787 6.14193C27.9023 6.00072 28.0906 5.96541 28.3377 6.07132V6.08309ZM11.6269 21.6641C10.9326 21.3817 10.3207 21.1346 9.69697 20.8874V17.9219C10.3089 18.169 10.9091 18.3926 11.4975 18.6397C11.5681 18.6633 11.6152 18.8045 11.6152 18.8986C11.6152 19.793 11.6152 20.6874 11.6152 21.6641H11.6269ZM2.78906 13.1793C8.86143 9.95482 14.9456 6.73034 21.0179 3.4941C21.2533 3.36465 21.4416 3.36465 21.6887 3.45879C23.2657 4.09427 24.8544 4.70622 26.5137 5.35347C25.2545 6.13017 24.0659 6.87156 22.8891 7.60119C18.3583 10.402 13.8276 13.2146 9.30862 16.0272C9.08502 16.1684 8.89673 16.1919 8.6496 16.086C6.62548 15.2623 4.58959 14.462 2.56546 13.65C2.47132 13.6147 2.37717 13.5676 2.23595 13.497C2.45955 13.3794 2.6243 13.2734 2.80082 13.1793H2.78906ZM19.3586 34.9857C19.3586 34.9857 19.3586 35.0681 19.3351 35.1505C18.7585 34.9033 18.1936 34.668 17.6405 34.4326C12.3213 32.126 7.01383 29.8195 1.69462 27.5247C1.37688 27.3835 1.2945 27.2305 1.2945 26.901C1.2945 22.9351 1.2945 18.9692 1.2945 15.0151V14.5679C1.43572 14.615 1.5534 14.6503 1.65931 14.6856C3.78935 15.5329 5.91939 16.392 8.04943 17.2393C8.32009 17.3452 8.40247 17.4747 8.40247 17.7571C8.3907 18.8986 8.40247 20.0401 8.40247 21.1817C8.40247 21.5818 8.56723 21.8289 8.94381 21.9819C9.93233 22.3702 10.9091 22.7704 11.8976 23.1587C12.5331 23.4058 12.9214 23.1352 12.9214 22.4526C12.9214 21.3817 12.9214 20.3108 12.9214 19.1928C13.5452 19.44 14.1336 19.6753 14.7102 19.9107C16.1577 20.4873 17.5934 21.064 19.0409 21.6406C19.241 21.723 19.3704 21.7818 19.3704 22.0525C19.3704 26.3596 19.3704 30.6786 19.3704 34.9857H19.3586ZM20.3472 20.3814C20.0647 20.5462 19.8411 20.5697 19.5352 20.4403C17.6287 19.6636 15.6987 18.8986 13.7217 18.1102C13.8629 18.016 13.9688 17.9454 14.0747 17.8748C19.6999 14.3914 25.3251 10.8963 30.962 7.42466C31.115 7.33052 31.3739 7.28345 31.5387 7.34229C33.5981 8.13075 35.634 8.94276 37.6817 9.74299C37.7287 9.76653 37.7758 9.7783 37.8935 9.83714C36.8932 10.4373 35.9635 11.0022 35.0338 11.5553C30.1383 14.4973 25.2427 17.4276 20.3589 20.3696L20.3472 20.3814ZM30.2913 36.798C26.3489 36.7745 23.2186 33.5853 23.2421 29.6194C23.2657 25.7595 26.5019 22.5821 30.3972 22.6174C34.2807 22.6527 37.4581 25.8654 37.4345 29.7489C37.3992 33.6794 34.2218 36.8333 30.303 36.798H30.2913ZM38.376 23.7589C37.917 24.0295 37.4698 24.3238 37.0227 24.6062C33.9982 20.7815 29.0321 20.605 25.9253 22.5821C24.0777 23.7589 22.8302 25.3829 22.2536 27.4894C21.6652 29.5841 21.9241 31.6082 22.8773 33.5735C22.1477 34.0325 21.4298 34.4797 20.6531 34.9739V34.5621C20.6531 30.3961 20.6531 26.2302 20.6531 22.0643C20.6531 21.8171 20.712 21.6524 20.9473 21.5112C26.7608 18.0278 32.5743 14.5444 38.3878 11.0493C38.4819 10.9904 38.5643 10.9433 38.7173 10.861V16.086C38.7173 18.4397 38.7173 20.7933 38.7173 23.1352C38.7173 23.4294 38.6231 23.5941 38.376 23.7353V23.7589Z" fill="#1B68E4"/>
<path d="M2.08643 24.5226C3.09849 24.9345 4.11056 25.3464 5.18146 25.77C5.18146 25.3935 5.18146 25.0757 5.18146 24.758C5.18146 24.6874 5.11085 24.5815 5.04024 24.5579C4.03995 24.146 3.03965 23.7459 1.96875 23.3223C1.96875 23.6988 1.96875 24.0048 1.96875 24.3108C1.96875 24.3814 2.02759 24.4991 2.0982 24.5226H2.08643Z" fill="#B4D5FB"/>
<path d="M5.02857 26.5599C4.01651 26.148 3.00445 25.7479 1.94531 25.3242C1.94531 25.689 1.94531 25.995 1.94531 26.301C1.94531 26.3834 2.01592 26.5128 2.08653 26.5363C3.08682 26.9482 4.09889 27.3483 5.15802 27.772C5.15802 27.4072 5.15802 27.113 5.15802 26.8188C5.15802 26.7246 5.09918 26.5952 5.02857 26.5599Z" fill="#B4D5FB"/>
<path d="M28.9623 32.0439C27.8561 31.1613 26.7852 30.314 25.7143 29.4549C25.4319 29.8198 25.173 30.1257 24.9141 30.4552C26.3145 31.5732 27.7031 32.6794 29.1153 33.8209C31.1277 31.5614 33.1165 29.3255 35.1053 27.0778C34.764 26.7836 34.458 26.5129 34.1403 26.2305C32.3986 28.184 30.6805 30.114 28.9623 32.0557V32.0439Z" fill="#1B68E4"/>
</svg>
