<svg width="136" height="102" viewBox="0 0 136 102" fill="none" xmlns="http://www.w3.org/2000/svg">
<g clip-path="url(#clip0_2967_31240)">
<path d="M108.425 49.8223H35.4141V102H108.425V49.8223Z" fill="#3652CD"/>
<path d="M74.6093 49.8223H68.0781V102H74.6093V49.8223Z" fill="#8FB3FF"/>
<path d="M68.7075 35.2592C59.8463 31.9708 48.6619 27.5703 46.5405 17.1803C46.1719 15.3911 46.1997 13.4015 47.1595 11.8126C47.5421 11.184 48.0846 10.659 48.7871 10.5277C49.8513 10.3274 50.839 10.7971 51.7223 11.3498C53.795 12.6416 55.6174 14.493 57.3006 16.2408C58.9838 17.9886 60.4792 19.8193 61.8077 21.8157C64.7568 26.2577 66.7183 31.3215 66.7878 36.6823C66.8157 38.9067 70.2934 38.9067 70.2656 36.6823C70.196 31.1004 68.3528 25.7189 65.4107 20.9937C63.9222 18.6034 62.1625 16.3652 60.2428 14.2996C58.323 12.234 56.2016 10.1892 53.8576 8.60721C51.3745 6.92851 48.175 6.32059 45.685 8.31016C43.7861 9.82306 42.9863 12.3515 42.875 14.6934C42.6037 20.1509 45.9076 25.484 49.7887 29.0763C54.8453 33.7601 61.4321 36.2263 67.8033 38.5889C68.6867 38.9136 69.7091 38.2228 69.9456 37.38C70.2099 36.4128 69.6117 35.5838 68.7284 35.2523L68.7075 35.2592Z" fill="#8FB3FF"/>
<path d="M70.7598 37.2764C70.8155 27.6878 70.8502 17.3807 75.3365 8.62798C75.8721 7.57793 76.4703 6.55551 77.131 5.57454C77.6388 4.81464 78.3274 3.85439 79.2316 3.52971C81.0539 2.88033 81.6938 6.64532 81.8468 7.723C82.5285 12.5035 80.5253 17.3531 78.0144 21.3253C74.794 26.4305 70.5512 30.8172 67.4908 36.0398C66.364 37.9672 69.3687 39.7081 70.4955 37.7807C76.1294 28.1575 86.9452 19.6535 85.2689 7.31542C84.935 4.82845 84.0656 1.65758 81.5895 0.455545C78.6612 -0.96755 75.9764 1.19473 74.3628 3.48135C71.2398 7.91643 69.4731 13.2634 68.5341 18.5482C67.4351 24.7311 67.3169 31.0175 67.2751 37.2764C67.2612 39.5009 70.739 39.5009 70.7529 37.2764H70.7598Z" fill="#8FB3FF"/>
<path d="M108.351 22.3994L28.0703 43.541L30.8601 53.9913L111.141 32.8497L108.351 22.3994Z" fill="#1D0C8C"/>
<path d="M72.9443 31.7257L67.0078 33.2891L69.7976 43.7393L75.7341 42.176L72.9443 31.7257Z" fill="#8FB3FF"/>
<path d="M69.0707 32.4886C65.2799 33.8357 62.7829 37.2968 62.0109 41.1516C61.0719 45.8353 62.5673 50.4846 64.0766 54.8782C64.3827 55.7625 65.273 56.3428 66.2189 56.0871C67.0814 55.8523 67.7422 54.8506 67.4361 53.9594C66.198 50.3602 64.7374 46.4294 65.2799 42.5539C65.6694 39.8044 67.2205 36.7994 69.9957 35.8184C70.8791 35.5006 71.4703 34.644 71.2129 33.6907C70.9764 32.841 69.961 32.1709 69.0707 32.4817V32.4886Z" fill="#8FB3FF"/>
<path d="M69.5447 36.5239C70.8036 35.8814 72.2086 35.163 73.6623 35.1837C74.9213 35.2044 75.7072 36.061 76.3054 37.0696C77.8912 39.7431 78.9346 42.8173 79.8805 45.7602C80.7777 48.5373 81.9115 51.4664 84.7145 52.8342C87.2533 54.0777 90.4597 53.9879 92.7898 52.3161C93.548 51.7704 93.9166 50.8101 93.4158 49.9535C92.9776 49.2074 91.8021 48.786 91.037 49.3317C89.2286 50.6236 86.6203 50.5476 85.0901 48.8274C84.2346 47.8603 83.8034 46.5754 83.4069 45.3733C82.8852 43.7844 82.3636 42.2025 81.7446 40.6481C80.6665 37.9332 79.5605 34.5689 77.0705 32.7865C74.177 30.7141 70.6089 32.0957 67.785 33.5326C65.7887 34.5412 67.5485 37.5256 69.5377 36.517L69.5447 36.5239Z" fill="#8FB3FF"/>
<path d="M115.552 43.7506C114.793 40.8008 116.011 37.5194 118.508 35.7578L120.253 38.1964C118.772 39.2396 118.021 41.2706 118.473 43.0184L115.558 43.7575L115.552 43.7506Z" fill="#D8E5FE"/>
<path d="M1.92606 27.8472L0 32.4609L3.34746 33.8394L5.27352 29.2257L1.92606 27.8472Z" fill="#3652CD"/>
<path d="M131.557 46.8741L129.562 49.8789L133.761 52.6284L135.756 49.6236L131.557 46.8741Z" fill="#5758FF"/>
<path d="M4.34784 43.2731L2.85938 40.6756C4.19482 39.9226 6.12844 37.256 7.03265 35.75L9.62008 37.2767C9.34186 37.7465 6.81007 41.8845 4.34784 43.2731Z" fill="#5758FF"/>
<path d="M135.497 43.3291L134.071 43.0804C134.398 41.236 134.732 39.3293 134.433 37.4986C134.349 36.9874 134.196 36.4347 133.96 35.9028C133.869 35.9926 133.772 36.0755 133.668 36.1515C132.77 36.863 131.706 37.1808 130.67 37.0357C129.647 36.8976 128.653 36.1515 128.201 35.1843C127.832 34.3968 127.874 33.5678 128.298 32.9046C129.126 31.6197 130.941 31.523 132.235 32.0895C132.847 32.3589 133.41 32.7596 133.904 33.2639C133.939 33.1188 133.967 32.9737 133.981 32.8217C134.106 31.295 133.153 29.6163 131.609 28.6353C130.294 27.7994 128.576 27.378 126.364 27.3366C125.37 27.3228 124.34 27.378 123.353 27.4264C122.421 27.4748 121.454 27.53 120.508 27.5231V26.0862C121.433 26.0931 122.365 26.0378 123.276 25.9895C124.292 25.9342 125.342 25.879 126.392 25.8928C128.875 25.9411 130.837 26.4385 132.388 27.4195C134.405 28.6975 135.601 30.8667 135.427 32.9392C135.379 33.5125 135.205 34.0859 134.926 34.6179C135.379 35.4054 135.699 36.3035 135.852 37.2706C136.185 39.3431 135.817 41.457 135.483 43.3291H135.497ZM130.656 33.1948C130.183 33.1948 129.752 33.3398 129.536 33.6783C129.334 33.9961 129.425 34.3415 129.536 34.5833C129.786 35.1153 130.336 35.5367 130.885 35.6127C131.525 35.7025 132.193 35.4952 132.777 35.0324C132.937 34.908 133.076 34.7698 133.208 34.6179C132.798 34.1136 132.29 33.6853 131.671 33.4089C131.365 33.2777 131.004 33.2017 130.67 33.2017L130.656 33.1948Z" fill="#8FB3FF"/>
<path d="M18.1702 49.754C17.7946 48.9319 17.3564 48.1029 16.9321 47.3085C16.4522 46.4104 15.9584 45.4847 15.541 44.5314C14.5394 42.2724 14.1778 40.2897 14.4282 38.4867C14.7551 36.131 16.2366 34.1483 18.205 33.4367C18.7544 33.2364 19.3457 33.1535 19.9438 33.1811C20.4724 32.4489 21.161 31.7788 21.9818 31.233C23.7346 30.0655 25.8281 29.5129 27.6783 29.0293L28.0469 30.4248C26.2246 30.9014 24.3397 31.3988 22.7886 32.4351C22.3574 32.7252 21.9192 33.0913 21.5227 33.5266C21.641 33.5749 21.7592 33.6233 21.8705 33.6854C22.8999 34.1967 23.6302 35.0256 23.9363 36.0204C24.2353 37.0014 23.971 38.2103 23.2755 39.0186C22.7121 39.6749 21.9331 39.9927 21.1471 39.8821C19.6239 39.6749 18.7753 38.0722 18.7544 36.6767C18.7405 36.0066 18.8727 35.3296 19.1231 34.6802C18.977 34.7079 18.831 34.7493 18.6918 34.7977C17.2451 35.3227 16.1044 36.884 15.854 38.687C15.6384 40.2275 15.9723 41.9477 16.8556 43.958C17.259 44.863 17.7389 45.7679 18.198 46.6384C18.6292 47.4535 19.0814 48.2963 19.4778 49.1668L18.1563 49.7609L18.1702 49.754ZM20.6741 34.7562C20.382 35.3365 20.2012 35.9721 20.2151 36.6491C20.229 37.4435 20.6672 38.3623 21.3558 38.4521C21.7244 38.5005 22.0096 38.2794 22.1835 38.0791C22.566 37.63 22.7191 36.953 22.5591 36.4349C22.3713 35.8201 21.8983 35.302 21.2306 34.9704C21.0497 34.8806 20.8619 34.8115 20.6741 34.7562Z" fill="#5758FF"/>
<path d="M12.6262 29.8305C12.5357 30.3348 12.0558 30.6664 11.555 30.5766C11.0473 30.4868 10.7134 30.0101 10.8038 29.5127C10.8943 29.0084 11.3742 28.6768 11.875 28.7666C12.3827 28.8564 12.7166 29.3331 12.6262 29.8305Z" fill="#8FB3FF"/>
<path d="M126.818 41.8567C126.741 42.2919 126.324 42.582 125.893 42.506C125.454 42.43 125.162 42.0156 125.239 41.5872C125.315 41.152 125.733 40.8619 126.164 40.9379C126.595 41.0139 126.894 41.4284 126.818 41.8567Z" fill="#1D0C8C"/>
</g>
<defs>
<clipPath id="clip0_2967_31240">
<rect width="136" height="102" fill="white"/>
</clipPath>
</defs>
</svg>
