<svg width="148" height="84" viewBox="0 0 148 84" fill="none" xmlns="http://www.w3.org/2000/svg">
<g clip-path="url(#clip0_2967_31281)">
<path d="M88.0656 70.0631L3.01562 56.166L1.12191 68.2672L86.1719 82.1643L88.0656 70.0631Z" fill="#1D0C8C"/>
<path d="M129.488 55.8232L44.4355 41.9353L3.01953 56.1639L88.0721 70.0581L129.488 55.8232Z" fill="#8FB3FF"/>
<path d="M88.0589 70.1011L86.1693 82.2038L127.585 67.9752L129.475 55.8726L88.0589 70.1011Z" fill="#D8E5FE"/>
<path d="M86.61 57.4168L13.7031 45.5039L12.0794 55.8799L84.9863 67.7928L86.61 57.4168Z" fill="#3652CD"/>
<path d="M122.121 45.2109L49.2114 33.3036L13.7076 45.5023L86.6168 57.4096L122.121 45.2109Z" fill="#D8E5FE"/>
<path d="M86.6099 57.4537L84.9867 67.8284L120.49 55.6297L122.114 45.255L86.6099 57.4537Z" fill="white"/>
<path d="M89.2687 31.7483L28.0312 21.7422L24.609 43.6113L85.8464 53.6174L89.2687 31.7483Z" fill="#3652CD"/>
<path d="M119.088 21.4955L57.8475 11.4971L28.03 21.7398L89.271 31.7446L119.088 21.4955Z" fill="#D8E5FE"/>
<path d="M89.2655 31.7772L85.845 53.6491L115.663 43.4064L119.083 21.5344L89.2655 31.7772Z" fill="white"/>
<path d="M33.4844 30.248L81.5388 37.1566" stroke="#1D0C8C" stroke-linecap="round" stroke-linejoin="round"/>
<path d="M41.1094 38.8867L69.0975 43.4231" stroke="#1D0C8C" stroke-linecap="round" stroke-linejoin="round"/>
<path d="M102.41 35.1052L117.701 30.3246" stroke="#AEC5F9" stroke-linecap="round" stroke-linejoin="round"/>
<path d="M95.7051 42.8595L113.699 37.3491" stroke="#AEC5F9" stroke-linecap="round" stroke-linejoin="round"/>
<path d="M7.32031 63.4512L81.034 75.6055" stroke="#5758FF" stroke-width="1.8" stroke-linecap="round" stroke-linejoin="round"/>
<path d="M19.6478 57.1124L20.8575 46.6711L38.6653 49.5814L37.5234 60.0339L19.6478 57.1124Z" fill="white"/>
<path d="M32.0427 52.9775L29.8445 53.7595L29.8925 56.1345L28.4889 54.2408L26.2968 55.0227L27.6227 53.0711L26.2193 51.1836L28.4411 51.872L29.7669 49.9204L29.8149 52.2955L32.0427 52.9775Z" fill="#1D0C8C"/>
<path d="M100.436 71.06L128.698 60.8816" stroke="#7594E5" stroke-linecap="round" stroke-linejoin="round"/>
<path d="M109.382 70.8696L128.155 64.3243" stroke="#7594E5" stroke-linecap="round" stroke-linejoin="round"/>
<path d="M96.0186 58.2537L121.336 50.2183" stroke="#AEC5F9" stroke-linecap="round" stroke-linejoin="round"/>
<path d="M61.0921 14.7547L45.5649 20.6214L56.6311 22.5619L70.8213 16.5726L61.0921 14.7547Z" fill="#8FB3FF"/>
</g>
<g clip-path="url(#clip1_2967_31281)">
<path d="M148 21.8406C146.99 21.6173 146.01 21.6782 145.051 21.8102C144.092 21.9624 143.143 22.1857 142.235 22.6931C143.245 22.9164 144.224 22.8555 145.184 22.7236C146.143 22.5713 147.092 22.3481 148 21.8406Z" fill="#3652CD"/>
<path d="M140.391 22.9172C138.472 22.7751 136.585 22.9172 134.707 23.1303C132.829 23.3638 130.962 23.6784 129.125 24.267C131.044 24.4091 132.931 24.267 134.809 24.0539C136.687 23.8103 138.554 23.5058 140.391 22.9172Z" fill="#3652CD"/>
<path d="M134.437 0.000656128C133.591 0.589302 132.968 1.34033 132.407 2.13196C131.866 2.93374 131.386 3.78626 131.152 4.79102C132.009 4.20237 132.621 3.45134 133.182 2.65971C133.713 1.84779 134.193 1.00541 134.437 0.000656128Z" fill="#3652CD"/>
<path d="M130.07 6.29319C128.662 7.60242 127.489 9.08419 126.366 10.5964C125.274 12.1289 124.234 13.702 123.417 15.4375C124.825 14.1283 125.999 12.6465 127.121 11.1343C128.213 9.60179 129.254 8.02868 130.07 6.29319Z" fill="#3652CD"/>
<path d="M126.614 20.3184C127.43 20.227 128.093 19.9022 128.726 19.5166C129.338 19.1106 129.91 18.6438 130.328 17.9435C129.512 18.0348 128.849 18.3596 128.216 18.7453C127.604 19.1512 127.032 19.6181 126.614 20.3184Z" fill="#3652CD"/>
<path d="M131.529 17.2129C132.947 16.7866 134.223 16.1168 135.457 15.3962C136.682 14.6452 137.865 13.8434 138.906 12.7879C137.488 13.2142 136.212 13.8738 134.978 14.6046C133.753 15.3556 132.57 16.1675 131.529 17.2129Z" fill="#3652CD"/>
<path d="M120.161 10.8184C120.651 10.4124 120.855 9.92524 120.998 9.42794C121.11 8.92049 121.161 8.40288 120.937 7.80409C120.447 8.21005 120.243 8.69721 120.1 9.19451C119.988 9.70196 119.937 10.2196 120.161 10.8184Z" fill="#3652CD"/>
<path d="M121.214 6.84961C121.846 5.97679 122.214 5.03293 122.51 4.05862C122.775 3.08431 122.979 2.0897 122.907 1.0139C122.275 1.88672 121.907 2.83058 121.612 3.80489C121.346 4.7792 121.142 5.77381 121.214 6.84961Z" fill="#3652CD"/>
<path d="M131.099 28.6923C131.486 29.1998 131.956 29.4332 132.445 29.6057C132.945 29.7478 133.466 29.829 134.078 29.6463C133.69 29.1389 133.221 28.8953 132.731 28.7329C132.231 28.5908 131.711 28.5096 131.099 28.6923Z" fill="#3652CD"/>
<path d="M135.018 29.9702C135.855 30.6502 136.784 31.0663 137.743 31.4215C138.702 31.7463 139.692 32 140.773 32C139.937 31.32 139.008 30.9039 138.049 30.5487C137.09 30.2239 136.1 29.9702 135.018 29.9702Z" fill="#3652CD"/>
</g>
<defs>
<clipPath id="clip0_2967_31281">
<rect width="128.589" height="71.2912" fill="white" transform="matrix(0.999776 -0.0211784 0.0201922 0.999796 0 12.7227)"/>
</clipPath>
<clipPath id="clip1_2967_31281">
<rect width="28" height="32" fill="white" transform="translate(148 32) rotate(180)"/>
</clipPath>
</defs>
</svg>
