<svg width="35" height="40" viewBox="0 0 35 40" fill="none" xmlns="http://www.w3.org/2000/svg">
<g clip-path="url(#clip0_2967_31544)">
<path d="M19.5002 0C19.9251 0.195265 20.2316 0.539849 20.5544 0.865638C23.0613 3.40303 25.5651 5.94252 28.0821 8.46947C28.4938 8.88193 28.6746 9.33824 28.6726 9.92508C28.6603 13.6612 28.6695 17.3973 28.6593 21.1345C28.6593 21.4321 28.7492 21.5532 29.0209 21.6566C32.9314 23.1425 35.381 27.2034 34.952 31.4647C34.4402 36.5416 30.1538 40.2945 25.1748 39.9812C22.6486 39.8225 20.5176 38.7553 18.8198 36.8288C18.5992 36.5782 18.3836 36.4957 18.068 36.4957C12.617 36.504 7.16611 36.4832 1.71619 36.5166C0.517927 36.5249 -0.00203708 35.7574 5.99613e-06 34.7446C0.0224799 25.02 0.013286 15.2943 0.013286 5.56974C0.013286 4.38562 0.536315 3.84682 1.68453 3.84682C2.28315 3.84682 2.88177 3.83742 3.48039 3.85204C3.71228 3.85726 3.79298 3.78939 3.78583 3.54609C3.76949 2.9864 3.80933 2.42462 3.7746 1.86702C3.71943 0.99303 4.01364 0.351894 4.82576 0.0010442H19.5012L19.5002 0ZM18.8801 24.1073H18.3275C14.5702 24.1073 10.812 24.1073 7.05476 24.1063C6.89029 24.1063 6.72174 24.1073 6.56136 24.075C6.33253 24.029 6.21199 23.8557 6.21506 23.6249C6.21812 23.4119 6.33253 23.2469 6.54297 23.1999C6.70233 23.1644 6.87088 23.1592 7.03535 23.1592C11.2002 23.1571 15.366 23.1571 19.5308 23.1592C19.7402 23.1592 19.916 23.1258 20.0947 22.989C22.2655 21.3308 24.6937 20.7168 27.3671 21.1888C27.7123 21.2494 27.7552 21.1721 27.7542 20.8484C27.743 17.3201 27.7409 13.7907 27.7573 10.2624C27.7593 9.88644 27.6408 9.82275 27.3099 9.82484C25.1064 9.83841 22.9029 9.83215 20.6995 9.83215C19.5799 9.83215 19.0476 9.28081 19.0466 8.12593C19.0466 7.95677 19.0282 7.78448 19.0507 7.61845C19.1028 7.22897 18.9863 7.10053 18.5706 7.10262C14.6479 7.12141 10.7241 7.1141 6.80142 7.11306C6.42754 7.11306 6.21506 6.94181 6.21199 6.65361C6.2079 6.36751 6.42651 6.18581 6.79018 6.17537C6.89234 6.17224 6.99347 6.17537 7.09562 6.17537C10.955 6.17537 14.8144 6.17224 18.6738 6.18164C18.9669 6.18164 19.0579 6.11481 19.0538 5.80051C19.0364 4.3167 19.0323 2.83186 19.0558 1.34806C19.0619 0.987809 18.9537 0.930378 18.6319 0.931422C14.3394 0.942909 10.0469 0.938732 5.75434 0.938732C5.57557 0.938732 5.39782 0.936643 5.21905 0.938732C4.91463 0.942909 4.74812 1.10894 4.71033 1.40966C4.69398 1.5381 4.69909 1.66967 4.69909 1.79915C4.69909 11.4872 4.69909 21.1742 4.69909 30.8622C4.69909 30.9531 4.695 31.045 4.70113 31.1358C4.72565 31.5556 4.88501 31.7174 5.30384 31.7185C8.94665 31.7206 12.5895 31.7185 16.2323 31.7258C16.4805 31.7258 16.5347 31.6527 16.5009 31.4136C16.3743 30.5145 16.4437 29.6176 16.6184 28.7352C16.6838 28.4053 16.6184 28.352 16.312 28.353C13.2044 28.3635 10.0959 28.3593 6.98836 28.3593C6.87395 28.3593 6.75749 28.3677 6.64512 28.351C6.38667 28.3134 6.21403 28.1567 6.21812 27.8863C6.22221 27.6023 6.38667 27.4321 6.67883 27.4227C6.78099 27.4195 6.88212 27.4206 6.98428 27.4206C10.194 27.4206 13.4036 27.4206 16.6133 27.4185C16.7655 27.4185 16.9392 27.4832 17.0209 27.2483C17.4173 26.1101 18.0353 25.1025 18.8801 24.1084V24.1073ZM25.7091 39.0665C30.3306 39.0707 34.0898 35.2322 34.0929 30.5041C34.0959 25.8303 30.3224 21.9636 25.7622 21.9657C21.1009 21.9678 17.3764 25.7749 17.3652 30.5479C17.3539 35.2082 21.1295 39.0623 25.7101 39.0665H25.7091ZM17.8545 35.5611C17.3805 34.731 16.9964 33.9384 16.7951 33.078C16.7114 32.7188 16.5571 32.6499 16.2251 32.651C12.6211 32.6635 9.01714 32.6593 5.41315 32.6572C5.2354 32.6572 5.05356 32.6604 4.88195 32.6217C4.17402 32.462 3.77357 31.8762 3.77357 31.0168C3.77357 22.5149 3.77357 14.0141 3.77357 5.51231C3.77357 5.40789 3.76336 5.30242 3.77562 5.20009C3.81239 4.90354 3.71535 4.78346 3.40071 4.79703C2.82865 4.82209 2.25454 4.8033 1.68146 4.80434C1.03789 4.80434 0.931651 4.91503 0.931651 5.58018C0.931651 15.3183 0.931651 25.0565 0.931651 34.7947C0.931651 35.4452 1.04504 35.559 1.69168 35.559C6.92605 35.559 12.1604 35.559 17.3948 35.559H17.8545V35.5611ZM27.1883 8.89341C24.7499 6.43016 22.3922 4.0473 20.0028 1.63417C19.9813 1.72814 19.966 1.7626 19.966 1.79602C19.965 3.9575 19.9619 6.11899 19.966 8.28047C19.966 8.70964 20.1509 8.88715 20.584 8.89133C21.246 8.89863 21.909 8.89341 22.5709 8.89341C24.0706 8.89341 25.5702 8.89341 27.1863 8.89341H27.1883Z" fill="#1F6FED"/>
<path d="M18.8772 24.1066C18.0324 25.1007 17.4144 26.1073 17.018 27.2465C16.9363 27.4815 16.7627 27.4168 16.6104 27.4168C13.4008 27.4199 10.1911 27.4188 6.98141 27.4188C6.87926 27.4188 6.7771 27.4167 6.67597 27.4209C6.38381 27.4314 6.21934 27.6005 6.21525 27.8845C6.21117 28.155 6.38381 28.3106 6.64226 28.3492C6.75463 28.3659 6.87108 28.3576 6.9855 28.3576C10.093 28.3576 13.2016 28.3617 16.3091 28.3513C16.6145 28.3513 16.6809 28.4035 16.6156 28.7335C16.4409 29.6158 16.3704 30.5128 16.4981 31.4118C16.5318 31.651 16.4776 31.7251 16.2294 31.7241C12.5866 31.7157 8.94379 31.7199 5.30098 31.7167C4.88317 31.7167 4.72381 31.5539 4.69827 31.1341C4.69316 31.0432 4.69622 30.9514 4.69622 30.8605C4.69622 21.1725 4.69622 11.4855 4.69622 1.79741C4.69622 1.66689 4.69112 1.53637 4.70746 1.40793C4.74526 1.1072 4.91279 0.941174 5.21619 0.936997C5.39496 0.934908 5.57271 0.936997 5.75148 0.936997C10.044 0.936997 14.3365 0.941174 18.629 0.929688C18.9508 0.929688 19.0591 0.987118 19.0529 1.34632C19.0295 2.83012 19.0335 4.31497 19.0509 5.79877C19.055 6.11307 18.9631 6.1799 18.6709 6.1799C14.8115 6.16946 10.9521 6.17364 7.09276 6.17364C6.9906 6.17364 6.88845 6.17155 6.78732 6.17364C6.42365 6.18408 6.20504 6.36473 6.20913 6.65188C6.21321 6.93903 6.42467 7.11133 6.79855 7.11133C10.7213 7.11237 14.645 7.11968 18.5677 7.10088C18.9825 7.09879 19.0999 7.22723 19.0478 7.61671C19.0254 7.78274 19.0438 7.95503 19.0438 8.12419C19.0438 9.27907 19.577 9.83041 20.6966 9.83041C22.9001 9.83041 25.1035 9.83772 27.307 9.8231C27.638 9.82101 27.7565 9.88471 27.7544 10.2606C27.7381 13.789 27.7411 17.3183 27.7514 20.8467C27.7514 21.1704 27.7095 21.2476 27.3642 21.1871C24.6908 20.7151 22.2636 21.3291 20.0919 22.9873C19.9131 23.1241 19.7364 23.1575 19.528 23.1575C15.3631 23.1543 11.1973 23.1543 7.03249 23.1575C6.86802 23.1575 6.69946 23.1627 6.5401 23.1982C6.32865 23.2452 6.21423 23.4102 6.21219 23.6232C6.20912 23.854 6.32865 24.0273 6.55849 24.0732C6.71887 24.1056 6.88743 24.1046 7.0519 24.1046C10.8091 24.1056 14.5674 24.1056 18.3246 24.1056H18.8772V24.1066ZM16.2498 10.4204C13.1168 10.4204 9.98371 10.4204 6.85065 10.4204C6.44204 10.4204 6.2224 10.5822 6.2081 10.8736C6.1938 11.1785 6.42773 11.3591 6.84963 11.3685C6.88743 11.3685 6.92625 11.3685 6.96404 11.3685C13.128 11.3685 19.292 11.3685 25.457 11.3675C25.5959 11.3675 25.7389 11.3664 25.8748 11.3372C26.1026 11.2892 26.2231 11.1283 26.2242 10.8913C26.2252 10.6522 26.0995 10.4945 25.8748 10.4444C25.7399 10.4141 25.5969 10.4193 25.457 10.4193C22.3873 10.4183 19.3185 10.4193 16.2488 10.4193L16.2498 10.4204ZM16.2509 14.6786C13.1556 14.6786 10.0614 14.6786 6.96609 14.6786C6.85167 14.6786 6.73624 14.6734 6.62285 14.6849C6.36746 14.7099 6.23058 14.877 6.21423 15.1213C6.19891 15.3542 6.32762 15.5223 6.54725 15.585C6.66677 15.6194 6.79855 15.6163 6.92522 15.6163C13.128 15.6173 19.3298 15.6173 25.5326 15.6163C25.647 15.6163 25.7655 15.6226 25.8738 15.5923C26.1097 15.5275 26.2456 15.3615 26.2231 15.1046C26.2017 14.8509 26.0536 14.7047 25.8033 14.6838C25.6899 14.6744 25.5745 14.6786 25.46 14.6786C22.3903 14.6786 19.3216 14.6786 16.2519 14.6786H16.2509ZM16.2509 19.8516C19.3206 19.8516 22.3893 19.8516 25.459 19.8516C25.5734 19.8516 25.6889 19.8578 25.8023 19.8463C26.0505 19.8223 26.2027 19.6782 26.2221 19.4234C26.2436 19.1457 26.0903 18.9838 25.837 18.9254C25.7399 18.9024 25.6347 18.9128 25.5326 18.9128C19.3298 18.9128 13.128 18.9128 6.92522 18.9128C6.81081 18.9128 6.69231 18.9034 6.58301 18.9306C6.34601 18.989 6.19993 19.154 6.21423 19.4067C6.22853 19.6532 6.37155 19.815 6.62285 19.8442C6.73624 19.8578 6.85167 19.8505 6.96609 19.8505C10.0614 19.8505 13.1556 19.8505 16.2509 19.8505V19.8516Z" fill="white"/>
<path d="M25.7122 39.0656C21.1316 39.0615 17.356 35.2073 17.3672 30.5471C17.3795 25.7741 21.104 21.9669 25.7643 21.9648C30.3254 21.9628 34.099 25.8305 34.0949 30.5032C34.0919 35.2303 30.3326 39.0698 25.7112 39.0656H25.7122ZM24.5486 34.0096C24.7642 34.0159 24.8847 33.8541 25.0185 33.7173C26.891 31.8043 28.7625 29.8903 30.635 27.9763C30.6983 27.9115 30.7647 27.8499 30.8199 27.7789C30.9874 27.5638 30.9864 27.3362 30.7994 27.1461C30.6115 26.9561 30.3857 26.9655 30.1763 27.1273C30.0854 27.1973 30.0098 27.2882 29.9291 27.3706C28.219 29.1186 26.5049 30.8635 24.804 32.6198C24.5946 32.836 24.4822 32.8433 24.2708 32.6219C23.3197 31.6257 22.3513 30.6463 21.3849 29.6658C21.1244 29.4006 20.8404 29.3724 20.6535 29.5885C20.4329 29.8443 20.4972 30.0856 20.7168 30.309C21.861 31.4764 23.003 32.6449 24.1451 33.8144C24.2575 33.9292 24.3791 34.0138 24.5497 34.0076L24.5486 34.0096Z" fill="white"/>
<path d="M17.8525 35.5619H17.3928C12.1585 35.5619 6.92408 35.5619 1.68971 35.5619C1.04308 35.5619 0.929688 35.448 0.929688 34.7975C0.929688 25.0593 0.929688 15.3212 0.929688 5.583C0.929688 4.91785 1.03593 4.80821 1.6795 4.80717C2.25258 4.80717 2.82669 4.82492 3.39875 4.79986C3.71338 4.78628 3.81043 4.90636 3.77365 5.20292C3.7614 5.30525 3.77161 5.41071 3.77161 5.51513C3.77161 14.017 3.77161 22.5178 3.77161 31.0196C3.77161 31.879 4.17206 32.4648 4.87998 32.6245C5.0516 32.6632 5.23344 32.66 5.41118 32.66C9.01518 32.6621 12.6192 32.6663 16.2232 32.6538C16.5541 32.6527 16.7094 32.7216 16.7932 33.0808C16.9934 33.9423 17.3775 34.7349 17.8525 35.5639V35.5619Z" fill="#BDDAFE"/>
<path d="M27.1914 8.89401C25.5753 8.89401 24.0757 8.89401 22.576 8.89401C21.9141 8.89401 21.2511 8.89923 20.5891 8.89192C20.155 8.8867 19.9711 8.71024 19.9711 8.28107C19.967 6.11959 19.9691 3.9581 19.9711 1.79662C19.9711 1.76216 19.9854 1.72874 20.0079 1.63477C22.3962 4.0479 24.755 6.43076 27.1934 8.89401H27.1914Z" fill="#BDDAFE"/>
<path d="M16.2523 10.4201C19.322 10.4201 22.3907 10.4201 25.4604 10.4201C25.6004 10.4201 25.7434 10.416 25.8782 10.4452C26.103 10.4953 26.2297 10.6519 26.2276 10.8921C26.2266 11.1291 26.106 11.2899 25.8782 11.338C25.7424 11.3662 25.6004 11.3683 25.4604 11.3683C19.2965 11.3693 13.1325 11.3693 6.9675 11.3693C6.9297 11.3693 6.89088 11.3693 6.85308 11.3693C6.43119 11.3599 6.19726 11.1793 6.21156 10.8744C6.22484 10.583 6.44447 10.4212 6.85411 10.4212C9.98717 10.4191 13.1202 10.4212 16.2533 10.4212L16.2523 10.4201Z" fill="#1F6FED"/>
<path d="M16.25 14.679C19.3197 14.679 22.3884 14.679 25.4581 14.679C25.5725 14.679 25.688 14.6738 25.8014 14.6843C26.0516 14.7062 26.1998 14.8524 26.2212 15.1051C26.2437 15.3619 26.1078 15.528 25.8719 15.5927C25.7636 15.623 25.6451 15.6167 25.5307 15.6167C19.3279 15.6167 13.1261 15.6167 6.92331 15.6167C6.79664 15.6167 6.66486 15.6199 6.54534 15.5854C6.32571 15.5227 6.19597 15.3536 6.21232 15.1218C6.22866 14.8774 6.36555 14.7104 6.62094 14.6853C6.73433 14.6738 6.84976 14.679 6.96417 14.679C10.0594 14.679 13.1537 14.679 16.249 14.679H16.25Z" fill="#1F6FED"/>
<path d="M16.2563 19.8522C13.1611 19.8522 10.0668 19.8522 6.97156 19.8522C6.85715 19.8522 6.74171 19.8584 6.62832 19.8459C6.37702 19.8167 6.23299 19.6548 6.21971 19.4084C6.20541 19.1567 6.35251 18.9907 6.58848 18.9322C6.69779 18.9051 6.81629 18.9145 6.9307 18.9145C13.1335 18.9145 19.3353 18.9145 25.538 18.9145C25.6402 18.9145 25.7454 18.904 25.8425 18.927C26.0968 18.9855 26.249 19.1473 26.2276 19.4251C26.2082 19.6799 26.056 19.824 25.8077 19.848C25.6943 19.8595 25.5789 19.8532 25.4645 19.8532C22.3948 19.8532 19.3261 19.8532 16.2563 19.8532V19.8522Z" fill="#1F6FED"/>
<path d="M24.5491 34.011C24.3795 34.0183 24.2569 33.9327 24.1445 33.8178C23.0025 32.6483 21.8594 31.4799 20.7163 30.3124C20.4966 30.089 20.4312 29.8478 20.6529 29.592C20.8399 29.3758 21.1238 29.404 21.3843 29.6692C22.3507 30.6508 23.3191 31.6292 24.2702 32.6253C24.4816 32.8467 24.594 32.8394 24.8034 32.6233C26.5043 30.8659 28.2184 29.1221 29.9285 27.3741C30.0092 27.2916 30.0848 27.2007 30.1757 27.1308C30.3841 26.9689 30.6109 26.9585 30.7989 27.1496C30.9858 27.3396 30.9868 27.5673 30.8193 27.7824C30.7641 27.8534 30.6977 27.915 30.6344 27.9797C28.7629 29.8937 26.8904 31.8077 25.018 33.7207C24.8841 33.8575 24.7636 34.0193 24.548 34.0131L24.5491 34.011Z" fill="#1F6FED"/>
</g>
<defs>
<clipPath id="clip0_2967_31544">
<rect width="35" height="40" fill="white"/>
</clipPath>
</defs>
</svg>
