<svg width="80" height="80" viewBox="0 0 80 80" fill="none" xmlns="http://www.w3.org/2000/svg">
<rect width="80" height="80" rx="24" fill="#F7F7F8"/>
<path d="M49.7923 38.2C49.4203 38.536 49.2763 39.028 49.0003 39.436C47.2723 41.992 44.9083 43.588 41.8603 44.14C41.7163 44.164 41.5723 44.2 41.4283 44.224C40.4803 44.344 39.5203 44.344 38.5723 44.224C35.9923 43.84 33.7963 42.7 32.0323 40.78C31.4323 40.132 30.9283 39.412 30.5203 38.632C30.4363 38.476 30.4003 38.296 30.2083 38.212C30.2443 37.852 29.9923 37.576 29.8963 37.264C29.7163 36.616 29.5123 35.98 29.3203 35.332C29.3923 34.78 29.2243 34.24 29.2363 33.688C29.2363 32.296 29.2363 30.892 29.2363 29.5C29.2363 28.552 29.2363 27.592 29.2363 26.644C29.1163 24.448 30.8683 22.756 33.0523 22.78C37.6843 22.828 42.3163 22.828 46.9483 22.78C49.1323 22.756 50.8843 24.448 50.7643 26.644C50.7643 27.592 50.7643 28.552 50.7643 29.5C50.7403 31.444 50.8003 33.388 50.6803 35.332C50.5483 35.416 50.5603 35.572 50.5363 35.692C50.3803 36.448 50.1523 37.18 49.8403 37.876C49.7923 37.984 49.7443 38.092 49.7803 38.212L49.7923 38.2Z" fill="white"/>
<path d="M41.431 48.616C43.303 48.616 45.163 48.616 47.035 48.616C48.043 48.616 48.607 49.192 48.607 50.212C48.607 52.024 48.607 53.836 48.607 55.636C48.607 56.668 48.055 57.232 47.035 57.232C42.343 57.232 37.651 57.232 32.947 57.232C31.963 57.232 31.375 56.656 31.375 55.684C31.375 53.848 31.375 52.012 31.375 50.164C31.375 49.204 31.951 48.628 32.911 48.628C34.795 48.628 36.679 48.628 38.563 48.628H41.419L41.431 48.616Z" fill="white"/>
<path d="M29.3212 35.32C29.5132 35.968 29.7172 36.604 29.8972 37.252C29.9932 37.576 30.2332 37.84 30.2092 38.2C29.5372 38.2 28.8652 38.236 28.1932 38.164C26.0092 37.948 24.4252 36.328 24.2812 34.132C24.2092 32.968 24.1972 31.804 24.2812 30.64C24.4492 28.276 26.2252 26.656 28.6012 26.608C28.8052 26.608 29.0212 26.608 29.2252 26.608C29.2252 27.556 29.2252 28.516 29.2252 29.464C29.0812 29.464 28.9252 29.464 28.7812 29.464C27.6652 29.464 27.1372 30.004 27.1372 31.12C27.1372 31.996 27.1372 32.884 27.1372 33.76C27.1372 34.696 27.7132 35.272 28.6372 35.296C28.8652 35.296 29.0812 35.296 29.3092 35.296L29.3212 35.32Z" fill="#2E7DF2"/>
<path d="M49.7917 38.2C49.7557 38.08 49.7917 37.972 49.8517 37.864C50.1637 37.156 50.3917 36.436 50.5477 35.68C50.5717 35.56 50.5597 35.404 50.6917 35.32C50.8597 35.32 51.0157 35.32 51.1837 35.32C52.3237 35.32 52.8637 34.78 52.8637 33.652C52.8637 32.776 52.8637 31.888 52.8637 31.012C52.8637 30.064 52.2997 29.512 51.3637 29.5C51.1717 29.5 50.9797 29.5 50.7757 29.5C50.7757 28.552 50.7757 27.592 50.7757 26.644C52.4917 26.512 53.9317 27.028 54.9637 28.456C55.4437 29.128 55.7197 29.884 55.7437 30.712C55.7797 31.888 55.8277 33.076 55.7317 34.252C55.5517 36.472 53.7997 38.128 51.5557 38.212C50.9797 38.236 50.3917 38.212 49.8037 38.212L49.7917 38.2Z" fill="#2E7DF2"/>
<path d="M41.4302 48.616H38.5742C38.5742 47.152 38.5742 45.688 38.5742 44.224C39.5222 44.344 40.4822 44.344 41.4302 44.224C41.4302 45.688 41.4302 47.152 41.4302 48.616Z" fill="#2E7DF2"/>
<path d="M49.7923 38.2C49.4203 38.536 49.2763 39.028 49.0003 39.436C47.2723 41.992 44.9083 43.588 41.8603 44.14C41.7163 44.164 41.5723 44.2 41.4283 44.224C40.4803 44.344 39.5203 44.344 38.5723 44.224C35.9923 43.84 33.7963 42.7 32.0323 40.78C31.4323 40.132 30.9283 39.412 30.5203 38.632C30.4363 38.476 30.4003 38.296 30.2083 38.212C30.2443 37.852 29.9923 37.576 29.8963 37.264C29.7163 36.616 29.5123 35.98 29.3203 35.332C29.3923 34.78 29.2243 34.24 29.2363 33.688C29.2363 32.296 29.2363 30.892 29.2363 29.5C29.2363 28.552 29.2363 27.592 29.2363 26.644C29.1163 24.448 30.8683 22.756 33.0523 22.78C37.6843 22.828 42.3163 22.828 46.9483 22.78C49.1323 22.756 50.8843 24.448 50.7643 26.644C50.7643 27.592 50.7643 28.552 50.7643 29.5C50.7403 31.444 50.8003 33.388 50.6803 35.332C50.5483 35.416 50.5603 35.572 50.5363 35.692C50.3803 36.448 50.1523 37.18 49.8403 37.876C49.7923 37.984 49.7443 38.092 49.7803 38.212L49.7923 38.2Z" stroke="#231815" stroke-miterlimit="10"/>
<path d="M41.431 48.616C43.303 48.616 45.163 48.616 47.035 48.616C48.043 48.616 48.607 49.192 48.607 50.212C48.607 52.024 48.607 53.836 48.607 55.636C48.607 56.668 48.055 57.232 47.035 57.232C42.343 57.232 37.651 57.232 32.947 57.232C31.963 57.232 31.375 56.656 31.375 55.684C31.375 53.848 31.375 52.012 31.375 50.164C31.375 49.204 31.951 48.628 32.911 48.628C34.795 48.628 36.679 48.628 38.563 48.628H41.419L41.431 48.616Z" stroke="#231815" stroke-miterlimit="10"/>
</svg>
