<svg width="81" height="80" viewBox="0 0 81 80" fill="none" xmlns="http://www.w3.org/2000/svg">
<rect x="0.5" width="80" height="80" rx="24" fill="#F7F7F8"/>
<path d="M53.4481 51.832C53.5201 52.672 53.1721 53.02 52.6801 53.14C52.3921 53.212 52.0801 53.188 51.7801 53.176C51.4921 53.152 51.4201 53.26 51.4321 53.536C51.4561 53.992 51.4441 54.46 51.4321 54.916C51.4321 55.132 51.5041 55.204 51.7201 55.204C52.1161 55.216 52.5241 55.108 52.9081 55.324C53.2801 55.528 53.5321 55.984 53.4481 56.38C53.3641 56.812 52.9441 57.184 52.5121 57.22C52.4281 57.22 52.3561 57.22 52.2721 57.22C45.5161 57.22 38.7481 57.22 31.9921 57.22C31.6561 57.22 31.3561 57.148 31.0561 57.016C30.9961 56.884 30.8641 56.872 30.7681 56.8C29.5801 56.104 28.9921 54.724 29.3281 53.44C29.6881 52.072 30.8521 51.16 32.2681 51.148C38.9521 51.148 45.6481 51.148 52.3321 51.148C52.6681 51.148 52.9321 51.268 53.1721 51.496C53.2801 51.592 53.2921 51.76 53.4481 51.82V51.832Z" fill="#2083FE"/>
<path d="M53.4353 37.84C53.4353 34.876 53.4353 31.924 53.4353 28.96C53.4353 27.34 53.4233 25.708 53.4473 24.088C53.4473 23.464 53.2673 23.02 52.7033 22.768H31.5833C31.5473 22.84 31.4753 22.828 31.4033 22.84C29.5193 23.224 28.2233 24.304 27.5153 26.08C27.1433 27.004 27.1913 27.988 27.2153 28.96C27.2153 31.336 27.2153 33.712 27.2153 36.088C27.2153 38.524 27.2153 40.96 27.2153 43.396C27.2153 44.416 27.2153 45.424 27.2153 46.444C27.2153 48.388 27.2033 50.32 27.2153 52.264C27.2153 54.148 28.3673 56.272 30.9473 57.064C30.9953 57.076 31.0313 57.064 31.0553 57.016C30.9953 56.884 30.8633 56.872 30.7673 56.8C29.5793 56.104 28.9913 54.724 29.3273 53.44C29.6873 52.072 30.8513 51.16 32.2673 51.148C38.9513 51.148 45.6473 51.148 52.3313 51.148C52.6673 51.148 52.9313 51.268 53.1713 51.496C53.2793 51.592 53.2913 51.76 53.4473 51.82C53.4473 50.032 53.4473 48.232 53.4473 46.444C53.4473 43.576 53.4473 40.708 53.4473 37.828L53.4353 37.84ZM36.5033 34.888C37.3193 34.888 38.1353 34.876 38.9513 34.888C39.2393 34.888 39.3353 34.828 39.3233 34.528C39.2993 33.676 39.3233 32.824 39.3233 31.972C39.3233 31.288 39.7313 30.832 40.3433 30.844C40.9313 30.844 41.3393 31.3 41.3393 31.96C41.3393 32.836 41.3393 33.712 41.3393 34.576C41.3393 34.804 41.3993 34.888 41.6393 34.876C42.5273 34.864 43.4033 34.876 44.2913 34.876C44.9273 34.876 45.3713 35.284 45.3833 35.872C45.3833 36.46 44.9393 36.88 44.2793 36.88C43.3913 36.88 42.5153 36.88 41.6273 36.88C41.4113 36.88 41.3273 36.94 41.3393 37.168C41.3633 37.396 41.3393 37.612 41.3513 37.84C41.3513 38.02 41.3513 38.2 41.3393 38.368C41.3393 40.252 41.3513 42.136 41.3393 44.02C41.3393 44.548 40.8473 44.98 40.3193 44.968C39.8033 44.968 39.3353 44.536 39.3353 44.02C39.3353 42.136 39.3353 40.252 39.3353 38.368C39.3353 37.972 39.3113 37.588 39.3353 37.192C39.3473 36.928 39.2513 36.88 39.0113 36.88C38.1833 36.892 37.3553 36.88 36.5273 36.88C35.9153 36.892 35.4953 36.664 35.2913 36.076C35.2913 35.248 35.6753 34.876 36.5033 34.876V34.888Z" fill="white"/>
<path d="M44.2812 34.888C43.3933 34.888 42.5173 34.888 41.6293 34.888C41.3893 34.888 41.3293 34.816 41.3293 34.588C41.3413 33.712 41.3293 32.836 41.3293 31.972C41.3293 31.312 40.9213 30.856 40.3333 30.856C39.7333 30.856 39.3133 31.3 39.3133 31.984C39.3133 32.836 39.3013 33.688 39.3133 34.54C39.3133 34.852 39.2173 34.912 38.9413 34.9C38.1253 34.876 37.3093 34.9 36.4933 34.9C35.6653 34.9 35.2812 35.272 35.2812 36.1C35.4853 36.688 35.8933 36.928 36.5173 36.904C37.3453 36.88 38.1733 36.904 39.0013 36.904C39.2413 36.904 39.3373 36.952 39.3253 37.216C39.3013 37.612 39.3253 37.996 39.3253 38.392C39.3253 40.276 39.3133 42.16 39.3253 44.044C39.3253 44.56 39.8053 44.992 40.3093 44.992C40.8373 44.992 41.3293 44.572 41.3293 44.044C41.3293 42.16 41.3293 40.276 41.3293 38.392C41.3293 38.212 41.3293 38.032 41.3413 37.864C41.3413 37.636 41.3413 37.42 41.3293 37.192C41.3053 36.976 41.3893 36.904 41.6173 36.904C42.5053 36.904 43.3813 36.904 44.2692 36.904C44.9292 36.904 45.3733 36.484 45.3733 35.896C45.3733 35.32 44.9173 34.912 44.2812 34.9V34.888Z" fill="#2083FE"/>
<path d="M53.4353 37.84C53.4353 34.876 53.4353 31.924 53.4353 28.96C53.4353 27.34 53.4233 25.708 53.4473 24.088C53.4473 23.464 53.2673 23.02 52.7033 22.768H31.5833C31.5473 22.84 31.4753 22.828 31.4033 22.84C29.5193 23.224 28.2233 24.304 27.5153 26.08C27.1433 27.004 27.1913 27.988 27.2153 28.96C27.2153 31.336 27.2153 33.712 27.2153 36.088C27.2153 38.524 27.2153 40.96 27.2153 43.396C27.2153 44.416 27.2153 45.424 27.2153 46.444C27.2153 48.388 27.2033 50.32 27.2153 52.264C27.2153 54.148 28.3673 56.272 30.9473 57.064C30.9953 57.076 31.0313 57.064 31.0553 57.016C30.9953 56.884 30.8633 56.872 30.7673 56.8C29.5793 56.104 28.9913 54.724 29.3273 53.44C29.6873 52.072 30.8513 51.16 32.2673 51.148C38.9513 51.148 45.6473 51.148 52.3313 51.148C52.6673 51.148 52.9313 51.268 53.1713 51.496C53.2793 51.592 53.2913 51.76 53.4473 51.82V46.444C53.4473 43.576 53.4473 40.708 53.4473 37.828L53.4353 37.84Z" stroke="#231815" stroke-linejoin="round"/>
</svg>
