<svg width="80" height="80" viewBox="0 0 80 80" fill="none" xmlns="http://www.w3.org/2000/svg">
<rect width="80" height="80" rx="24" fill="#F7F7F8"/>
<path d="M43.5381 55.1626C47.8077 53.8438 50.9099 49.8661 50.9099 45.1641C50.9099 43.1861 50.3586 41.3377 49.4074 39.7704C49.2777 39.4785 49.148 39.1867 49.0075 38.9057C48.3698 37.6194 47.732 36.3331 47.0835 35.0576C46.2079 33.3281 45.3216 31.5987 44.4352 29.88C43.5705 28.1938 42.7058 26.4968 41.8411 24.8106C41.6465 24.4323 41.4411 24.0647 41.2574 23.6864C41.1277 23.427 40.9007 23.3189 40.6629 23.2H40.1548C39.7873 23.3405 39.5928 23.6324 39.4198 23.9675C38.4794 25.8266 37.539 27.675 36.5878 29.5233C35.7663 31.1231 34.9665 32.7228 34.1342 34.3118C33.3667 35.771 32.6425 37.2519 31.9075 38.7219C31.594 39.3488 31.313 39.9866 31.0103 40.6243C30.7833 41.0891 30.5996 41.5647 30.4483 42.0619C30.2645 42.5807 30.1132 43.1212 30.0375 43.6725C30.0051 43.8238 30.0916 43.9859 29.9727 44.1156V46.018H30.0051H30.0159C30.0159 46.0937 30.0267 46.1694 30.0375 46.245C30.0699 46.9693 30.2537 47.6718 30.4807 48.3636C30.6861 49.0554 30.9455 49.7256 31.3454 50.3309C31.3995 50.4282 31.4535 50.5146 31.5076 50.6119C31.8859 51.3145 32.3939 51.9198 32.9452 52.4819C33.691 53.2926 34.5773 53.9411 35.5502 54.4492C37.3877 55.4004 39.3333 55.8111 41.4087 55.6057C42.0681 55.5409 42.695 55.422 43.3111 55.2382C43.3868 55.2166 43.4624 55.195 43.5273 55.1734L43.5381 55.1626Z" fill="white"/>
<path d="M43.5381 55.1626C47.8077 53.8438 50.9099 49.8661 50.9099 45.1641C50.9099 43.1861 50.3586 41.3377 49.4074 39.7704C49.2777 39.4785 49.148 39.1867 49.0075 38.9057C48.3698 37.6194 47.732 36.3331 47.0835 35.0576C46.2079 33.3282 45.3216 31.5987 44.4352 29.88C43.5705 28.1938 42.7058 26.4968 41.8411 24.8106C41.6465 24.4323 41.4411 24.0647 41.2574 23.6864C41.1277 23.427 40.9007 23.3189 40.6629 23.2H40.1548C39.7873 23.3405 39.5928 23.6324 39.4198 23.9675C38.4794 25.8266 37.539 27.675 36.5878 29.5233C35.7663 31.1231 34.9665 32.7228 34.1342 34.3118C33.3667 35.771 32.6425 37.2519 31.9075 38.7219C31.594 39.3488 31.313 39.9866 31.0103 40.6243C30.7833 41.0891 30.5996 41.5647 30.4483 42.0619C30.2645 42.5808 30.1132 43.1212 30.0375 43.6725C30.0051 43.8238 30.0916 43.9859 29.9727 44.1156V46.018H30.0051H30.0159C30.0159 46.0937 30.0267 46.1694 30.0375 46.245C30.0699 46.9693 30.2537 47.6718 30.4807 48.3636C30.6861 49.0554 30.9455 49.7256 31.3454 50.3309C31.3995 50.4282 31.4535 50.5146 31.5076 50.6119C31.8859 51.3145 32.3939 51.9198 32.9452 52.4819C33.691 53.2926 34.5773 53.9411 35.5502 54.4492C37.3877 55.4004 39.3333 55.8111 41.4087 55.6057C42.0681 55.5409 42.695 55.422 43.3111 55.2382C43.3868 55.2166 43.4624 55.195 43.5273 55.1734L43.5381 55.1626Z" stroke="#231815" stroke-miterlimit="10"/>
<path d="M44.1784 40.4405C43.3244 40.4405 42.4705 40.4405 41.6166 40.4405C41.4869 40.4405 41.3139 40.4945 41.368 40.2459C41.368 39.9541 41.3572 39.6514 41.3464 39.3596C41.3464 38.7543 41.368 38.1598 41.3464 37.5545C41.3356 37.0248 40.9032 36.6249 40.3844 36.6249C39.8763 36.6249 39.4656 37.0356 39.4548 37.5545C39.444 38.149 39.4548 38.7543 39.4548 39.3596C39.4548 39.6082 39.4223 39.8676 39.4548 40.1162C39.4764 40.3973 39.3683 40.4405 39.1197 40.4405C38.3522 40.4189 37.574 40.4405 36.8065 40.4297C36.4715 40.4297 36.1796 40.4945 35.9202 40.6999C35.6716 41.0566 35.5203 41.4133 35.7797 41.8349C35.9526 42.2024 36.2661 42.3429 36.6552 42.3429C37.347 42.3429 38.0496 42.3429 38.7414 42.3429C39.2026 42.3429 39.4404 42.5771 39.4548 43.0455C39.4548 43.0455 39.4548 43.0887 39.4548 43.1103C39.4548 43.2833 39.444 43.4454 39.4332 43.6184C39.4332 44.3534 39.444 45.0992 39.4548 45.8342C39.4548 45.8991 39.444 45.964 39.4332 46.018C39.4332 46.7963 39.4332 47.5853 39.4332 48.3636C39.4332 48.5798 39.4332 48.8067 39.444 49.0229C39.4656 49.5742 39.8655 49.9525 40.3952 49.9417C40.8924 49.9417 41.3248 49.4985 41.3356 48.9905C41.3356 48.8392 41.3356 48.6987 41.3464 48.5473C41.3464 47.9528 41.3464 47.3691 41.3464 46.7746C41.3464 46.4612 41.3356 46.1369 41.3248 45.8234C41.3248 45.4235 41.3356 45.0236 41.3464 44.6128C41.3464 44.1048 41.3356 43.5968 41.3248 43.0887C41.3248 42.9374 41.3464 42.7969 41.3248 42.6456C41.2923 42.3753 41.4004 42.3105 41.6598 42.3213C42.4273 42.3429 43.1947 42.3213 43.9622 42.3213C44.1892 42.3213 44.4053 42.3213 44.6107 42.224C44.762 42.1159 44.935 42.0078 44.989 41.8133C45.3349 41.1431 44.9134 40.4297 44.1459 40.4189L44.1784 40.4405Z" fill="#2083FE"/>
</svg>
