<svg width="20" height="20" viewBox="0 0 20 20" fill="none" xmlns="http://www.w3.org/2000/svg">
<mask id="mask0_2967_26692" style="mask-type:alpha" maskUnits="userSpaceOnUse" x="0" y="0" width="20" height="20">
<rect width="20" height="20" fill="#D9D9D9"/>
</mask>
<g mask="url(#mask0_2967_26692)">
<path d="M10.0042 9.88706C10.3742 9.88706 10.689 9.75532 10.9485 9.49185C11.2083 9.22838 11.3381 8.91164 11.3381 8.54164C11.3381 8.17164 11.2063 7.85678 10.9427 7.59706C10.6792 7.33747 10.3625 7.20768 9.9925 7.20768C9.6225 7.20768 9.30771 7.33942 9.04813 7.60289C8.7884 7.8665 8.65854 8.18331 8.65854 8.55331C8.65854 8.92331 8.79035 9.2381 9.05396 9.49768C9.31743 9.75727 9.63417 9.88706 10.0042 9.88706ZM9.99833 16.1564C11.5869 14.7664 12.8241 13.4117 13.7098 12.0923C14.5955 10.7728 15.0383 9.60935 15.0383 8.60185C15.0383 7.13824 14.5626 5.9206 13.6112 4.94893C12.6599 3.97727 11.4556 3.49143 9.99833 3.49143C8.54111 3.49143 7.33681 3.97727 6.38542 4.94893C5.43403 5.9206 4.95833 7.13824 4.95833 8.60185C4.95833 9.60935 5.40118 10.7728 6.28688 12.0923C7.17257 13.4117 8.40972 14.7664 9.99833 16.1564ZM9.99833 17.5906C7.95708 15.8552 6.42618 14.24 5.40562 12.745C4.38521 11.25 3.875 9.86893 3.875 8.60185C3.875 6.90102 4.44493 5.44483 5.58479 4.23331C6.72479 3.02178 8.1925 2.41602 9.98792 2.41602C11.7833 2.41602 13.2545 3.02178 14.4015 4.23331C15.5483 5.44483 16.1217 6.90102 16.1217 8.60185C16.1217 9.86893 15.615 11.2469 14.6017 12.7358C13.5883 14.2246 12.0539 15.8428 9.99833 17.5906Z" fill="#37383C" fill-opacity="0.6"/>
</g>
</svg>
