<svg width="20" height="20" viewBox="0 0 20 20" fill="none" xmlns="http://www.w3.org/2000/svg">
<mask id="mask0_2941_28322" style="mask-type:alpha" maskUnits="userSpaceOnUse" x="0" y="0" width="20" height="20">
<rect width="20" height="20" fill="#D9D9D9"/>
</mask>
<g mask="url(#mask0_2941_28322)">
<path d="M10.773 9.99935L8.46052 12.3118L9.22656 13.0779L12.3051 9.99935L9.22656 6.92081L8.46052 7.68685L10.773 9.99935ZM9.99885 17.5827C8.95941 17.5827 7.97878 17.3853 7.05698 16.9906C6.13517 16.5959 5.32837 16.0528 4.63656 15.3612C3.94476 14.6697 3.40135 13.8632 3.00635 12.9418C2.61149 12.0205 2.41406 11.0401 2.41406 10.0008C2.41406 8.94747 2.61142 7.96338 3.00615 7.04852C3.40087 6.13365 3.94399 5.33032 4.63552 4.63852C5.32705 3.94671 6.13351 3.40331 7.0549 3.00831C7.97628 2.61345 8.95663 2.41602 9.99594 2.41602C11.0493 2.41602 12.0334 2.61338 12.9482 3.0081C13.8631 3.40282 14.6664 3.94595 15.3582 4.63747C16.05 5.329 16.5934 6.13199 16.9884 7.04643C17.3833 7.96088 17.5807 8.9447 17.5807 9.99789C17.5807 11.0373 17.3834 12.018 16.9886 12.9398C16.5939 13.8616 16.0508 14.6684 15.3593 15.3602C14.6677 16.052 13.8648 16.5954 12.9503 16.9904C12.0359 17.3853 11.052 17.5827 9.99885 17.5827Z" fill="#1C1B1F"/>
</g>
</svg>
