<svg width="20" height="20" viewBox="0 0 20 20" fill="none" xmlns="http://www.w3.org/2000/svg">
<mask id="mask0_2967_26701" style="mask-type:alpha" maskUnits="userSpaceOnUse" x="0" y="0" width="20" height="20">
<rect width="20" height="20" fill="#D9D9D9"/>
</mask>
<g mask="url(#mask0_2967_26701)">
<path d="M15.4736 16.5618C13.9587 16.4368 12.5025 16.037 11.105 15.3623C9.70765 14.6875 8.44244 13.7824 7.30939 12.6468C6.17647 11.5112 5.27959 10.2493 4.61876 8.86143C3.95793 7.47365 3.55807 6.02234 3.41918 4.50747C3.3914 4.21345 3.47675 3.95803 3.67522 3.74122C3.87355 3.52442 4.12154 3.41602 4.41918 3.41602H6.59543C6.84751 3.41602 7.06439 3.49164 7.24605 3.64289C7.42772 3.794 7.55432 3.99136 7.62584 4.23497L8.06189 5.97852C8.09494 6.16435 8.08453 6.34595 8.03064 6.52331C7.97661 6.70067 7.88869 6.8449 7.76689 6.95602L5.8423 8.82956C6.15203 9.41067 6.4955 9.95768 6.87272 10.4706C7.2498 10.9834 7.66307 11.463 8.11251 11.9093C8.55626 12.353 9.03564 12.7639 9.55064 13.1421C10.0656 13.5203 10.6217 13.8643 11.219 14.1741L13.1931 12.2462C13.3097 12.1244 13.4433 12.0432 13.594 12.0025C13.7445 11.9619 13.9128 11.9555 14.0988 11.9833L15.7669 12.3504C16.019 12.4198 16.2185 12.548 16.3654 12.735C16.5124 12.9219 16.5858 13.1441 16.5858 13.4016V15.5618C16.5858 15.8595 16.474 16.1075 16.2502 16.3058C16.0265 16.5043 15.7676 16.5896 15.4736 16.5618ZM5.35501 7.77185L6.92564 6.26539C6.9523 6.244 6.96966 6.21463 6.97772 6.17727C6.98578 6.1399 6.98446 6.10518 6.97376 6.0731L6.60814 4.62747C6.59744 4.58484 6.57876 4.55282 6.55209 4.53143C6.52543 4.51004 6.49071 4.49935 6.44793 4.49935H4.64834C4.61626 4.49935 4.58953 4.51004 4.56814 4.53143C4.54689 4.55282 4.53626 4.57956 4.53626 4.61164C4.5789 5.13942 4.67209 5.66581 4.81584 6.19081C4.95946 6.71595 5.13918 7.24296 5.35501 7.77185ZM12.3133 14.6821C12.8115 14.9012 13.3324 15.0677 13.8761 15.1814C14.4198 15.295 14.9245 15.3786 15.3902 15.4321C15.4223 15.4321 15.449 15.4214 15.4704 15.4C15.4918 15.3786 15.5025 15.3518 15.5025 15.3198V13.525C15.5025 13.4822 15.4918 13.4475 15.4704 13.4208C15.449 13.3941 15.417 13.3755 15.3744 13.3648L14.0202 13.0714C13.9881 13.0607 13.9601 13.0594 13.9361 13.0675C13.912 13.0755 13.8866 13.0929 13.8598 13.1196L12.3133 14.6821Z" fill="#37383C" fill-opacity="0.6"/>
</g>
</svg>
