<svg width="24" height="24" viewBox="0 0 24 24" fill="none" xmlns="http://www.w3.org/2000/svg">
<g clip-path="url(#clip0_2745_10479)">
<path d="M12 24C18.6274 24 24 18.6274 24 12C24 5.37258 18.6274 0 12 0C5.37258 0 0 5.37258 0 12C0 18.6274 5.37258 24 12 24Z" fill="#2083FE"/>
<path d="M20.4863 20.488L23.2463 23.248L16.2383 23.096L20.4863 20.488Z" fill="#2083FE"/>
<path d="M12.057 13.5999C12.9407 13.5999 13.657 12.8836 13.657 11.9999C13.657 11.1162 12.9407 10.3999 12.057 10.3999C11.1734 10.3999 10.457 11.1162 10.457 11.9999C10.457 12.8836 11.1734 13.5999 12.057 13.5999Z" fill="white"/>
<path d="M7.87344 13.5999C8.75709 13.5999 9.47344 12.8836 9.47344 11.9999C9.47344 11.1162 8.75709 10.3999 7.87344 10.3999C6.98978 10.3999 6.27344 11.1162 6.27344 11.9999C6.27344 12.8836 6.98978 13.5999 7.87344 13.5999Z" fill="white"/>
<path d="M16.2406 13.5999C17.1243 13.5999 17.8406 12.8836 17.8406 11.9999C17.8406 11.1162 17.1243 10.3999 16.2406 10.3999C15.357 10.3999 14.6406 11.1162 14.6406 11.9999C14.6406 12.8836 15.357 13.5999 16.2406 13.5999Z" fill="white"/>
</g>
<defs>
<clipPath id="clip0_2745_10479">
<rect width="24" height="24" fill="white"/>
</clipPath>
</defs>
</svg>
