<svg width="20" height="20" viewBox="0 0 20 20" fill="none" xmlns="http://www.w3.org/2000/svg">
<mask id="mask0_2967_27345" style="mask-type:alpha" maskUnits="userSpaceOnUse" x="0" y="0" width="20" height="20">
<rect width="20" height="20" fill="#D9D9D9"/>
</mask>
<g mask="url(#mask0_2967_27345)">
<path d="M12.9332 13.3968L13.7074 12.6227L10.5391 9.45435V4.99935H9.45573V9.91914L12.9332 13.3968ZM9.99885 17.5827C8.95427 17.5827 7.97233 17.3853 7.05302 16.9906C6.13385 16.5959 5.32837 16.0528 4.63656 15.3612C3.94476 14.6697 3.40135 13.8635 3.00635 12.9427C2.61149 12.022 2.41406 11.0382 2.41406 9.99122C2.41406 8.94428 2.61142 7.9599 3.00615 7.0381C3.40087 6.11629 3.94399 5.31296 4.63552 4.6281C5.32705 3.94324 6.13323 3.40331 7.05406 3.00831C7.97476 2.61345 8.95858 2.41602 10.0055 2.41602C11.0525 2.41602 12.0368 2.61504 12.9586 3.0131C13.8806 3.41115 14.6825 3.95136 15.3645 4.63372C16.0464 5.31609 16.5863 6.11852 16.9841 7.04102C17.3818 7.96352 17.5807 8.94914 17.5807 9.99789C17.5807 11.0425 17.3834 12.0244 16.9886 12.9437C16.5939 13.8629 16.0543 14.6684 15.3697 15.3602C14.6851 16.052 13.8812 16.5954 12.958 16.9904C12.0348 17.3853 11.0484 17.5827 9.99885 17.5827ZM10.0074 16.4993C11.8056 16.4993 13.3368 15.8639 14.6011 14.5931C15.8653 13.3223 16.4974 11.7877 16.4974 9.98935C16.4974 8.19115 15.8653 6.6599 14.6011 5.3956C13.3368 4.13143 11.8056 3.49935 10.0074 3.49935C8.20906 3.49935 6.67448 4.13143 5.40365 5.3956C4.13281 6.6599 3.4974 8.19115 3.4974 9.98935C3.4974 11.7877 4.13281 13.3223 5.40365 14.5931C6.67448 15.8639 8.20906 16.4993 10.0074 16.4993Z" fill="#37383C" fill-opacity="0.6"/>
</g>
</svg>
