<svg width="23" height="25" viewBox="0 0 23 25" fill="none" xmlns="http://www.w3.org/2000/svg">
<path d="M11.3463 0.5C5.08085 0.5 0 5.19906 0 10.9938C0 15.2745 1.79385 17.3194 4.24929 19.1812L4.25975 19.1864V24.2097C4.25975 24.4477 4.53171 24.5837 4.71998 24.4399L9.02157 21.2444L9.11571 21.2836C9.83744 21.417 10.5827 21.4876 11.3463 21.4876C17.6117 21.4876 22.6925 16.7885 22.6925 10.9912C22.6925 5.19383 17.6143 0.5 11.3463 0.5ZM7.54413 13.6532C8.65548 13.6532 9.60732 12.9864 9.89497 11.9587H11.5398C11.1371 13.9382 9.59686 15.2352 7.54413 15.2352C5.15929 15.2352 3.26869 13.4571 3.26869 10.9807C3.26869 8.50436 5.15929 6.72619 7.54413 6.72619C9.61778 6.72619 11.1684 8.04936 11.5502 10.0629H9.91066C9.66224 8.9672 8.6764 8.2847 7.54413 8.2847C5.94116 8.2847 4.87426 9.42743 4.87426 10.9781C4.87426 12.5288 6.0876 13.6506 7.54413 13.6506M18.3831 15.0731H16.8743V11.6711C16.8743 10.8892 16.4193 10.4682 15.7185 10.4682C14.9366 10.4682 14.4319 10.9467 14.4319 11.9169V15.0731H12.9231V6.75496H14.4319V9.88505C14.7928 9.33591 15.3785 9.06657 16.1735 9.06657C16.8167 9.06657 17.3423 9.27577 17.7503 9.70985C18.1713 10.1413 18.3831 10.7271 18.3831 11.4854V15.0731Z" fill="#020303"/>
</svg>
