<svg width="38" height="38" viewBox="0 0 38 38" fill="none" xmlns="http://www.w3.org/2000/svg">
<g clip-path="url(#clip0_2745_10586)">
<path d="M19.0014 29.9679C18.0799 29.9679 17.1478 29.9893 16.2264 29.9679C14.6299 29.9357 13.0442 29.9036 11.4478 29.8071C10.2049 29.7321 8.95137 29.625 7.71923 29.4429C6.03709 29.1964 4.89066 28.0393 4.53709 26.3571C4.31209 25.2536 4.20495 24.1393 4.12995 23.025C4.01209 21.4393 3.96923 19.8429 4.0228 18.2571C4.07637 16.3714 4.16209 14.475 4.5478 12.6214C4.90137 10.8643 6.13352 9.69643 7.91209 9.48214C9.1978 9.33214 10.4942 9.225 11.7799 9.15C13.1621 9.075 14.5442 9.03214 15.9264 9.02143C17.8978 9 19.8692 9 21.8299 9C23.1692 9 24.5085 9.05357 25.8371 9.11786C27.0799 9.18214 28.3121 9.27857 29.5549 9.39643C30.3049 9.46071 31.0442 9.6 31.6978 10.0071C32.7478 10.65 33.3049 11.6036 33.5192 12.7929C33.7442 14.0357 33.8728 15.2893 33.9157 16.5536C33.9585 17.925 34.0121 19.3071 33.9907 20.6893C33.9585 22.5214 33.8514 24.3536 33.5192 26.175C33.2621 27.5679 32.5549 28.6071 31.2478 29.1964C30.7014 29.4429 30.1228 29.5286 29.5335 29.5821C28.0549 29.7 26.5764 29.7964 25.0871 29.8714C24.0907 29.925 23.0942 29.9464 22.0871 29.9571C21.0585 29.9679 20.0192 29.9571 18.9907 29.9571C18.9907 29.9571 18.9907 29.9679 18.9907 29.9786L19.0014 29.9679ZM16.0014 24.0107C18.6264 22.5 21.2192 21 23.8442 19.4786C21.2085 17.9571 18.6157 16.4571 16.0014 14.9464V24.0107Z" fill="#ED3023"/>
<path d="M16 24.0106V14.957C18.6143 16.4677 21.2071 17.9677 23.8429 19.4892C21.2071 21.0106 18.6143 22.5106 16 24.0213V24.0106Z" fill="white"/>
</g>
<defs>
<clipPath id="clip0_2745_10586">
<rect width="30" height="20.9786" fill="white" transform="translate(4 9)"/>
</clipPath>
</defs>
</svg>
