<svg width="56" height="26" viewBox="0 0 56 26" fill="none" xmlns="http://www.w3.org/2000/svg">
<path d="M16.352 5.576L11.06 10.7C14.728 11.092 17.276 13.92 17.276 17.448V18.204C17.276 23.188 13.328 25.96 8.736 25.96C4.452 25.96 1.148 23.524 0.56 19.716L5.292 18.708C5.684 20.22 7 21.256 8.736 21.256C10.584 21.256 12.068 20.08 12.068 17.924V17.728C12.068 15.6 10.584 14.34 8.036 14.34H4.928V10.644L10.164 5.576H1.904V0.956H16.352V5.576ZM27.7889 25.96C23.0849 25.96 19.5289 23.272 19.5289 18.036V8.432C19.5289 3.224 23.0849 0.507999 27.7889 0.507999C32.4929 0.507999 36.0489 3.224 36.0489 8.432V18.036C36.0489 23.272 32.4929 25.96 27.7889 25.96ZM27.7889 21.256C29.3289 21.256 30.7009 20.388 30.7009 18.428V8.04C30.7009 6.136 29.3289 5.212 27.7889 5.212C26.2489 5.212 24.8769 6.136 24.8769 8.04V18.428C24.8769 20.388 26.2489 21.256 27.7889 21.256ZM47.1209 25.96C42.4169 25.96 38.8609 23.272 38.8609 18.036V8.432C38.8609 3.224 42.4169 0.507999 47.1209 0.507999C51.8249 0.507999 55.3809 3.224 55.3809 8.432V18.036C55.3809 23.272 51.8249 25.96 47.1209 25.96ZM47.1209 21.256C48.6609 21.256 50.0329 20.388 50.0329 18.428V8.04C50.0329 6.136 48.6609 5.212 47.1209 5.212C45.5809 5.212 44.2089 6.136 44.2089 8.04V18.428C44.2089 20.388 45.5809 21.256 47.1209 21.256Z" fill="url(#paint0_linear_2682_10605)"/>
<defs>
<linearGradient id="paint0_linear_2682_10605" x1="1.20067" y1="-7.59454" x2="64.7118" y2="12.827" gradientUnits="userSpaceOnUse">
<stop stop-color="#0C98E7"/>
<stop offset="0.535" stop-color="#B956EA"/>
<stop offset="1" stop-color="#F03964"/>
</linearGradient>
</defs>
</svg>
