<svg width="70" height="70" viewBox="0 0 70 70" fill="none" xmlns="http://www.w3.org/2000/svg">
<path d="M37.8891 0.888952L41.5437 3.37802C42.6005 4.09905 43.8648 4.43488 45.139 4.34599L49.5442 4.02004C51.6481 3.862 53.6334 5.00776 54.552 6.91407L56.4682 10.8946C57.0213 12.0502 57.9498 12.9787 59.1054 13.5318L63.0859 15.448C64.9824 16.3666 66.1281 18.3519 65.98 20.4558L65.654 24.861C65.5552 26.1352 65.9009 27.3995 66.622 28.4563L69.111 32.1109C70.2963 33.8493 70.2963 36.1507 69.111 37.8891L66.622 41.5437C65.9009 42.6005 65.5651 43.8648 65.654 45.139L65.98 49.5442C66.138 51.6481 64.9922 53.6334 63.0859 54.552L59.1054 56.4682C57.9498 57.0213 57.0213 57.9498 56.4682 59.1054L54.552 63.0859C53.6334 64.9824 51.6481 66.1281 49.5442 65.98L45.139 65.654C43.8648 65.5552 42.6005 65.9009 41.5437 66.622L37.8891 69.111C36.1507 70.2963 33.8493 70.2963 32.1109 69.111L28.4563 66.622C27.3995 65.9009 26.1352 65.5651 24.861 65.654L20.4558 65.98C18.3519 66.138 16.3666 64.9922 15.448 63.0859L13.5318 59.1054C12.9787 57.9498 12.0502 57.0213 10.8946 56.4682L6.91407 54.552C5.01764 53.6334 3.87188 51.6481 4.02004 49.5442L4.34599 45.139C4.44476 43.8648 4.09905 42.6005 3.37802 41.5437L0.888952 37.8891C-0.296317 36.1507 -0.296317 33.8493 0.888952 32.1109L3.37802 28.4563C4.09905 27.3995 4.43488 26.1352 4.34599 24.861L4.02004 20.4558C3.862 18.3519 5.00776 16.3666 6.91407 15.448L10.8946 13.5318C12.0502 12.9787 12.9787 12.0502 13.5318 10.8946L15.448 6.91407C16.3666 5.01764 18.3519 3.87188 20.4558 4.02004L24.861 4.34599C26.1352 4.44476 27.3995 4.09905 28.4563 3.37802L32.1109 0.888952C33.8493 -0.296317 36.1507 -0.296317 37.8891 0.888952Z" fill="#EAEBEC"/>
</svg>
