<svg width="48" height="50" viewBox="0 0 48 50" fill="none" xmlns="http://www.w3.org/2000/svg">
<g clip-path="url(#clip0_3651_43241)">
<g opacity="0.19">
<path d="M24.9636 1.78246L24.3649 21.7271L24.2943 24.0946L24.2753 24.7258V24.7991H23.6128V24.7258L23.5911 24.0946L23.5205 21.7271L22.9219 1.78246C23.2599 1.76889 23.6006 1.76074 23.9427 1.76074C24.2848 1.76074 24.6256 1.76889 24.9636 1.78246Z" fill="#C0A43E"/>
<path d="M24.0684 24.7514L24.0453 24.7569H24.044L23.9435 24.7786L23.8431 24.8003L23.6489 24.841L23.5485 24.8628L23.4453 24.8858L23.4236 24.8899L23.4059 24.8166L23.2566 24.2057L22.6946 21.902L17.9609 2.51127C18.6139 2.34429 19.2791 2.20447 19.9551 2.0918L23.52 21.7269L23.9421 24.055L24.0548 24.6754L24.0684 24.7514Z" fill="#C0A43E"/>
<path d="M23.8559 24.7476L23.8369 24.7571L23.7378 24.7991L23.6442 24.8399L23.4595 24.9213L23.3699 24.962L23.2722 25.0055L23.2505 25.015L23.2193 24.9485L22.945 24.3797L21.9215 22.2538L13.2578 4.26401C13.8646 3.96264 14.4864 3.68435 15.1203 3.43457L22.6898 21.9022L23.5871 24.0946L23.8261 24.6756L23.8546 24.7476H23.8559Z" fill="#C0A43E"/>
<path d="M23.653 24.7867L23.634 24.8003L23.5499 24.8627H23.5485L23.4684 24.9211H23.4644L23.3082 25.0378L23.2227 25.0976L23.1372 25.1614L23.1182 25.1749L23.0734 25.1166L22.6865 24.617L21.2367 22.7409L9.03125 6.95845C9.5634 6.53626 10.1132 6.13444 10.6806 5.75977L21.9263 22.2549V22.259L23.2553 24.207L23.611 24.7283L23.6517 24.7881L23.653 24.7867Z" fill="#C0A43E"/>
<path d="M23.4541 24.8685L23.4392 24.8861L23.3686 24.9635L23.3021 25.0368H23.3007L23.169 25.1848V25.1888L23.0984 25.2621L23.0265 25.3422L23.0116 25.3599L22.9545 25.311H22.9532L22.4767 24.9065H22.4726L20.6685 23.3752H20.6671L5.44531 10.4707C5.87836 9.9453 6.33313 9.44302 6.80962 8.95703L21.2305 22.7426H21.2319L22.9437 24.3811L23.3985 24.8169L23.4528 24.8698L23.4541 24.8685Z" fill="#C0A43E"/>
<path d="M23.283 24.9895L23.2735 25.0072L23.2206 25.0968H23.2192L23.169 25.1904L23.0699 25.3615L23.017 25.4511L22.9627 25.5447L22.9531 25.5624L22.8866 25.5271L22.3328 25.2284L20.2571 24.1112L2.67188 14.6466C2.98682 14.0425 3.3262 13.4533 3.69273 12.8818L20.6698 23.3727L22.683 24.6162L23.2219 24.9488L23.2844 24.9882L23.283 24.9895Z" fill="#C0A43E"/>
<path d="M23.143 25.1425L23.1375 25.1615L23.1049 25.2619L23.0737 25.3597L23.0099 25.5525L22.9787 25.6502L22.9461 25.7507L22.9407 25.7697L22.8701 25.7507L22.2619 25.5715L19.9922 24.909L0.828125 19.312C1.01275 18.6536 1.22316 18.006 1.45937 17.3721L20.2596 24.1081L22.4778 24.9049L23.0724 25.1167L23.143 25.1425Z" fill="#C0A43E"/>
<path d="M23.0316 25.3202V25.3419L23.018 25.4491L23.0058 25.5523L22.9868 25.7505L22.9746 25.8496L22.9624 25.9541V25.9799L22.885 25.9745L22.2578 25.9283L19.889 25.7519L0 24.2572C0.0407255 23.5731 0.111316 22.897 0.210415 22.2305L19.9881 24.9088L22.3338 25.2251L22.9556 25.3107L23.0316 25.3202Z" fill="#C0A43E"/>
<path d="M23.0316 26.1779L22.9556 26.1874L22.3298 26.273L19.9881 26.5893L0.210415 29.2676C0.111316 28.6011 0.0407255 27.925 0 27.2409L19.889 25.7503L22.2578 25.5711L22.8877 25.525L22.961 25.5195V25.5426L22.9746 25.6499L22.9868 25.7503L23.0058 25.9471L23.018 26.0476L23.0302 26.1562V26.1779H23.0316Z" fill="#C0A43E"/>
<path d="M23.1402 26.3567L23.0697 26.3825L22.4751 26.5942L20.246 27.3952L1.45801 34.1271C1.22045 33.4931 1.01139 32.8469 0.828125 32.1872L19.9881 26.5902L22.2579 25.9277L22.866 25.7512L22.9366 25.7295L22.942 25.7512L22.9746 25.8503L23.0059 25.9481L23.0683 26.1381L23.1009 26.2372L23.1335 26.3377L23.1389 26.3567H23.1402Z" fill="#C0A43E"/>
<path d="M23.2844 26.5113L23.2219 26.5507L22.683 26.8833L20.6698 28.1268L3.69273 38.6177C3.32755 38.0462 2.98682 37.457 2.67188 36.8529L20.2449 27.3951L22.3287 26.2738L22.8839 25.9751L22.9518 25.9385L22.9613 25.9561L23.0156 26.0498L23.0658 26.1394L23.1663 26.3145L23.2192 26.4041L23.2722 26.4951L23.2817 26.5127L23.2844 26.5113Z" fill="#C0A43E"/>
<path d="M23.4528 26.6301L23.3985 26.683L22.9437 27.1161L21.2319 28.7546H21.2305L6.80962 42.5415C6.33313 42.0555 5.87836 41.5519 5.44531 41.0279L20.6671 28.1247H20.6685L22.4726 26.5934H22.4767L22.9532 26.1875H22.9545L23.0116 26.1387L23.0265 26.1563L23.0984 26.2364L23.1663 26.3097L23.3007 26.459H23.3021L23.3686 26.5351L23.4392 26.6124L23.4541 26.6301H23.4528Z" fill="#C0A43E"/>
<path d="M23.6517 26.7119L23.611 26.7716L23.2553 27.2929L21.9236 29.2436L21.9195 29.2491L10.6806 45.7388C10.1132 45.3614 9.5634 44.9609 9.03125 44.5374L21.2367 28.7563L22.6865 26.8802L23.0734 26.3806L23.1182 26.3223L23.1372 26.3358L23.2241 26.3996L23.3082 26.4594L23.4644 26.5734H23.4684L23.5485 26.6331H23.5499L23.634 26.6956L23.653 26.7092L23.6517 26.7119Z" fill="#C0A43E"/>
<path d="M23.8546 26.7508L23.8261 26.8228L23.5871 27.4038L22.6898 29.5962L15.1203 48.0638C14.4864 47.8127 13.8646 47.5357 13.2578 47.2317L21.9201 29.2446L22.9464 27.1187L23.2179 26.5499H23.2193L23.2505 26.4834L23.2722 26.4929L23.3699 26.535L23.4595 26.5757L23.6442 26.6572L23.7378 26.6979L23.8369 26.7413L23.8559 26.7508H23.8546Z" fill="#C0A43E"/>
<path d="M24.0684 26.7472L24.0548 26.8233L23.9421 27.4437L23.52 29.7718L19.9551 49.4069C19.2791 49.2942 18.6139 49.1544 17.9609 48.9847L22.6919 29.5953L23.2539 27.2916L23.4032 26.6807L23.4209 26.6074L23.4426 26.6115L23.5458 26.6346L23.6462 26.6563L23.8403 26.697L23.9408 26.7187L24.044 26.7405L24.067 26.7459L24.0684 26.7472Z" fill="#C0A43E"/>
<path d="M24.9636 49.7159C24.6256 49.7295 24.2848 49.7376 23.9427 49.7376C23.6006 49.7376 23.2599 49.7295 22.9219 49.7159L23.5205 29.7713L23.5911 27.4038L23.6101 26.7725V26.6992H24.2726V26.7725L24.2943 27.4038L24.3649 29.7713L24.9636 49.7159Z" fill="#C0A43E"/>
<path d="M29.92 48.9863C29.267 49.156 28.6018 49.2958 27.9258 49.4085L24.3609 29.7734L23.9387 27.4452L23.8261 26.8248L23.8125 26.7488L23.8356 26.7434L23.9387 26.7217L24.0392 26.6999L24.2333 26.6592L24.3338 26.6375L24.437 26.6144L24.4587 26.6104L24.4763 26.6837L24.6257 27.2945L25.1877 29.5982L29.9186 48.9876L29.92 48.9863Z" fill="#C0A43E"/>
<path d="M34.6202 47.2317C34.0134 47.5344 33.3917 47.8127 32.7577 48.0638L25.1882 29.5962L24.2909 27.4038L24.0519 26.8228L24.0234 26.7508L24.0424 26.7413L24.1415 26.6979L24.2352 26.6572L24.4198 26.5757L24.5094 26.535L24.6072 26.4929L24.6289 26.4834L24.6601 26.5499H24.6615L24.933 27.1187L25.9593 29.2446L34.6216 47.2317H34.6202Z" fill="#C0A43E"/>
<path d="M38.8562 44.539C38.324 44.9625 37.7742 45.363 37.2054 45.7404L25.9666 29.2506L25.9625 29.2452L24.6308 27.2945L24.2751 26.7732L24.2344 26.7134L24.2534 26.6999L24.3375 26.6374H24.3389L24.419 26.579H24.4231L24.5792 26.4623L24.6634 26.4026L24.7502 26.3388L24.7692 26.3252L24.814 26.3836L25.2009 26.8831L26.6508 28.7592L38.8562 44.5403V44.539Z" fill="#C0A43E"/>
<path d="M42.4307 41.0283C41.9976 41.5536 41.5429 42.0559 41.0664 42.5419L26.6455 28.7563L24.9309 27.1178L24.4762 26.6821L24.4219 26.6291L24.4368 26.6115L24.5074 26.5341L24.5739 26.4608L24.7097 26.3115L24.7775 26.2354L24.8495 26.1553L24.8644 26.1377L24.9214 26.1866H24.9228L25.3993 26.5911H25.4034L27.2075 28.1224H27.2089L42.4307 41.0269V41.0283Z" fill="#C0A43E"/>
<path d="M45.2063 36.8523C44.8913 37.4564 44.5519 38.0456 44.1854 38.6171L27.2083 28.1262L25.1951 26.8827L24.6562 26.5501L24.5938 26.5108L24.6033 26.4931L24.6562 26.4022L24.7091 26.3126L24.8096 26.1374L24.8598 26.0478L24.9141 25.9542L24.9236 25.9365L24.9915 25.9732L25.5467 26.2718L27.6305 27.3931L45.2035 36.8509L45.2063 36.8523Z" fill="#C0A43E"/>
<path d="M47.0543 32.1882C46.871 32.8466 46.662 33.4941 46.4244 34.1281L27.6364 27.3961L25.4074 26.5952L24.8128 26.3834L24.7422 26.3576L24.7476 26.3386L24.7802 26.2382L24.8128 26.1391L24.8752 25.949L24.9064 25.8513L24.939 25.7522L24.9445 25.7305L25.015 25.7522L25.6232 25.9287L27.893 26.5911L47.0529 32.1882H47.0543Z" fill="#C0A43E"/>
<path d="M47.8832 27.2409C47.8424 27.925 47.7718 28.6011 47.6728 29.2676L27.8951 26.5893L25.5534 26.273L24.9276 26.1874L24.8516 26.1779V26.1562L24.8651 26.0476L24.8774 25.9471L24.8964 25.7503L24.9086 25.6499L24.9208 25.5426V25.5195L24.9968 25.525L25.6267 25.5711L27.9956 25.7503L47.8845 27.2409H47.8832Z" fill="#C0A43E"/>
<path d="M47.8818 24.2576L27.9929 25.7509L25.624 25.9274L24.9968 25.9735L24.9208 25.9789V25.9532L24.9072 25.8486L24.895 25.7495L24.876 25.5513L24.8638 25.4482L24.8516 25.3409V25.3192L24.9249 25.3097L25.5466 25.2242L27.8924 24.9079L47.67 22.2295C47.7691 22.896 47.8397 23.5721 47.8805 24.2563L47.8818 24.2576Z" fill="#C0A43E"/>
<path d="M47.0543 19.312L27.893 24.909L25.6232 25.5715L25.015 25.7507L24.9445 25.7697L24.939 25.7507L24.9064 25.6502L24.8752 25.5525L24.8114 25.3597L24.7802 25.2619L24.7476 25.1615L24.7422 25.1425L24.8128 25.1167L25.4074 24.9049L27.6255 24.1081L46.4258 17.3721C46.6633 18.006 46.8724 18.6522 47.057 19.312H47.0543Z" fill="#C0A43E"/>
<path d="M45.2127 14.646L27.6275 24.1065L25.5518 25.2238L24.998 25.5224L24.9314 25.5577L24.9219 25.5401L24.8676 25.4464L24.8147 25.3568L24.7156 25.1858L24.6654 25.0948L24.6111 25.0039L24.6016 24.9862L24.664 24.9468L25.2029 24.6142L27.2161 23.3708L44.1932 12.8799C44.5584 13.4514 44.8991 14.0406 45.2141 14.6447L45.2127 14.646Z" fill="#C0A43E"/>
<path d="M42.4307 10.471L27.2089 23.3742H27.2075L25.4034 24.9055H25.3993L24.9228 25.3114H24.9214L24.8644 25.3603L24.8495 25.3426L24.7775 25.2625L24.7097 25.1892V25.1851L24.5739 25.0372L24.5074 24.9639L24.4368 24.8865L24.4219 24.8688L24.4762 24.8159L24.9309 24.3801L26.6455 22.7416L41.0664 8.95605C41.5429 9.44205 41.9976 9.94568 42.4307 10.4697V10.471Z" fill="#C0A43E"/>
<path d="M38.8548 6.95845L26.6508 22.7396H26.6494L25.1996 24.617L24.8127 25.1166L24.7679 25.1749L24.7489 25.1614L24.6647 25.0989H24.6634L24.5778 25.0365H24.5765L24.4231 24.9225L24.3389 24.8627L24.2534 24.8003L24.2344 24.7867L24.2751 24.727L24.6308 24.2057L25.9598 22.2549L37.2054 5.75977C37.7729 6.13444 38.3227 6.53762 38.8562 6.95845H38.8548Z" fill="#C0A43E"/>
<path d="M34.6202 4.26401L25.9565 22.2538L24.9343 24.3783H24.933L24.6615 24.9498H24.6601L24.6289 25.0163L24.6072 25.0068L24.5094 24.9634L24.4198 24.9227L24.2352 24.8412L24.1415 24.8005L24.0424 24.7584L24.0234 24.7489L24.0519 24.677L24.2909 24.096L25.1882 21.9036L32.759 3.43457C33.393 3.68571 34.0148 3.96264 34.6216 4.26401H34.6202Z" fill="#C0A43E"/>
<path d="M29.9172 2.51127L25.1863 21.902L24.6243 24.2057L24.475 24.8166L24.4573 24.8899L24.4356 24.8858L24.3351 24.8641H24.3338L24.2347 24.8424H24.2333L24.0392 24.8003L23.9387 24.7786L23.8356 24.7569L23.8125 24.7514L23.8261 24.6754L23.9387 24.055L24.3609 21.7269L27.9231 2.0918C28.5991 2.20447 29.2643 2.34429 29.9172 2.51127Z" fill="#C0A43E"/>
</g>
<path d="M31.2533 7.31022C31.2533 11.3475 27.9803 14.6191 23.943 14.6191C19.9058 14.6191 16.6328 11.3461 16.6328 7.31022C16.6328 3.27433 19.9071 0 23.9444 0C27.9816 0 31.2546 3.27297 31.2546 7.31022H31.2533Z" fill="white"/>
<path d="M23.9417 13.8265C20.0375 13.8265 16.8487 10.7653 16.6437 6.91406C16.6369 7.04574 16.6328 7.17742 16.6328 7.31046C16.6328 11.3477 19.9058 14.6193 23.943 14.6193C27.9803 14.6193 31.2533 11.3463 31.2533 7.31046C31.2533 7.17742 31.2492 7.04574 31.2424 6.91406C31.036 10.7667 27.8472 13.8265 23.9444 13.8265H23.9417Z" fill="#C0A43E"/>
<path opacity="0.5" d="M26.4862 5.02266H24.9481V3.39636C24.9481 3.23481 24.8273 3.10449 24.678 3.10449H23.2159C23.0679 3.10449 22.9471 3.23481 22.9471 3.39636V5.02266H21.4091C21.2475 5.02266 21.1172 5.14348 21.1172 5.29416V6.74942C21.1172 6.89875 21.2475 7.02092 21.4091 7.02092H22.9471V11.0704C22.9471 11.2319 23.0679 11.3623 23.2159 11.3623H24.678C24.8259 11.3623 24.9481 11.2319 24.9481 11.0704V7.02092H26.4862C26.6477 7.02092 26.778 6.9001 26.778 6.74942V5.29416C26.778 5.14484 26.6477 5.02266 26.4862 5.02266Z" fill="#C0A43E"/>
<path d="M11.6586 49.877C11.641 49.9055 11.6328 49.9109 11.6328 49.8906C11.6328 49.8851 11.6423 49.8811 11.6586 49.877ZM29.7529 46.0597C23.8301 44.2542 25.3274 32.585 25.3274 26.244L23.94 25.6494L22.5527 26.244C22.5527 32.585 24.05 44.2542 18.1272 46.0597C12.8546 47.667 11.8161 49.6326 11.6572 49.877C12.2491 49.7032 23.94 49.8906 23.94 49.8906C23.94 49.8906 35.6296 49.7019 36.2228 49.877C36.064 49.6326 35.0255 47.667 29.7529 46.0597ZM36.2228 49.877C36.2405 49.9055 36.2486 49.9109 36.2486 49.8906C36.2486 49.8851 36.2391 49.8811 36.2228 49.877Z" fill="#F4911E"/>
<path d="M12.8274 13.8262C12.7989 14.1751 12.7812 14.5266 12.7812 14.8823C12.7812 21.4853 17.7783 26.838 23.9441 26.838C30.1099 26.838 35.1069 21.4853 35.1069 14.8823C35.1069 14.5253 35.0893 14.1737 35.0608 13.8262H12.8274Z" fill="#F4911E"/>
<path d="M37.2157 13.8932C37.2157 14.5136 36.7134 15.0158 36.093 15.0158H11.7867C11.1663 15.0158 10.6641 14.5136 10.6641 13.8932C10.6641 13.2728 11.1663 12.7705 11.7867 12.7705H36.093C36.7134 12.7705 37.2157 13.2728 37.2157 13.8932Z" fill="#FDBB43"/>
<path opacity="0.4" d="M36.093 14.0918H11.7867C11.332 14.0918 10.9424 13.8203 10.7659 13.4307C10.7021 13.5718 10.6641 13.728 10.6641 13.8936C10.6641 14.514 11.1663 15.0162 11.7867 15.0162H36.093C36.7134 15.0162 37.2157 14.514 37.2157 13.8936C37.2157 13.728 37.1777 13.5732 37.1139 13.4307C36.9374 13.8189 36.5478 14.0918 36.093 14.0918Z" fill="#F4911E"/>
<path d="M9.875 50C9.875 49.1855 11.0642 48.5244 11.8787 48.5244H36.0099C36.8244 48.5244 38.0136 49.1842 38.0136 50H9.875Z" fill="#F9AE3B"/>
<path d="M26.6268 29.7681C26.6268 30.2867 26.1164 30.7062 25.4865 30.7062H22.3981C21.7682 30.7062 21.2578 30.2867 21.2578 29.7681C21.2578 29.2496 21.7682 28.8301 22.3981 28.8301H25.4865C26.1164 28.8301 26.6268 29.2509 26.6268 29.7681Z" fill="#F9AE3B"/>
<path d="M26.6268 36.2701C26.6268 36.7886 26.1164 37.2081 25.4865 37.2081H22.3981C21.7682 37.2081 21.2578 36.7886 21.2578 36.2701C21.2578 35.7515 21.7682 35.332 22.3981 35.332H25.4865C26.1164 35.332 26.6268 35.7529 26.6268 36.2701Z" fill="#F9AE3B"/>
<path d="M27.3426 41.4354C27.3426 41.9661 26.8688 42.3951 26.2864 42.3951H21.603C21.0193 42.3951 20.5469 41.9648 20.5469 41.4354C20.5469 40.9046 21.0206 40.4756 21.603 40.4756H26.2864C26.8702 40.4756 27.3426 40.9059 27.3426 41.4354Z" fill="#F9AE3B"/>
<path d="M27.8296 21.9177C26.8807 20.2194 24.8729 18.0094 23.962 17.9592V17.9551C23.962 17.9551 23.9511 17.9578 23.9457 17.9578C23.9403 17.9578 23.9349 17.9551 23.9294 17.9551V17.9592C23.0185 18.0094 21.0094 20.2194 20.0619 21.9177C14.3698 16.8976 13.2512 18.0202 13.315 19.9031C13.2838 20.7624 14.6603 22.6779 14.7879 21.7208C14.7241 18.8144 18.8469 22.5462 20.7325 23.9987C21.2728 22.8489 22.8896 20.6538 23.9457 20.6321C25.0019 20.6538 26.6173 22.8489 27.159 23.9987C29.0459 22.5462 33.1252 18.8795 33.0614 21.786C33.189 22.7444 34.609 20.7624 34.5778 19.9031C34.6416 18.0202 33.523 16.8976 27.8309 21.9177H27.8296Z" fill="#FDBB43"/>
</g>
<defs>
<clipPath id="clip0_3651_43241">
<rect width="48" height="50" fill="white"/>
</clipPath>
</defs>
</svg>
