<svg width="20" height="20" viewBox="0 0 20 20" fill="none" xmlns="http://www.w3.org/2000/svg">
<mask id="mask0_3528_72044" style="mask-type:alpha" maskUnits="userSpaceOnUse" x="0" y="0" width="20" height="20">
<rect width="20" height="20" fill="#D9D9D9"/>
</mask>
<g mask="url(#mask0_3528_72044)">
<path d="M10.773 10.0003L8.46052 12.3128L9.22656 13.0789L12.3051 10.0003L9.22656 6.92178L8.46052 7.68783L10.773 10.0003ZM9.99885 17.5837C8.95941 17.5837 7.97878 17.3863 7.05698 16.9916C6.13517 16.5969 5.32837 16.0537 4.63656 15.3622C3.94476 14.6707 3.40135 13.8642 3.00635 12.9428C2.61149 12.0214 2.41406 11.0411 2.41406 10.0018C2.41406 8.94845 2.61142 7.96435 3.00615 7.04949C3.40087 6.13463 3.94399 5.3313 4.63552 4.63949C5.32705 3.94769 6.13351 3.40428 7.0549 3.00928C7.97628 2.61442 8.95663 2.41699 9.99594 2.41699C11.0493 2.41699 12.0334 2.61435 12.9482 3.00908C13.8631 3.4038 14.6664 3.94692 15.3582 4.63845C16.05 5.32998 16.5934 6.13296 16.9884 7.04741C17.3833 7.96185 17.5807 8.94567 17.5807 9.99887C17.5807 11.0383 17.3834 12.0189 16.9886 12.9407C16.5939 13.8625 16.0508 14.6694 15.3593 15.3612C14.6677 16.053 13.8648 16.5964 12.9503 16.9914C12.0359 17.3862 11.052 17.5837 9.99885 17.5837Z" fill="#1C1B1F"/>
</g>
</svg>
