<svg width="48" height="48" viewBox="0 0 48 48" fill="none" xmlns="http://www.w3.org/2000/svg">
<g clip-path="url(#clip0_3780_42565)">
<path d="M30.4513 4C32.8013 4.28 35.2913 6.76 35.2913 9.19V16.8L40.0913 12.04C41.6113 10.34 44.3213 12.52 43.2113 14.38C42.9513 14.82 41.2613 16.32 41.2313 16.47C41.2213 16.54 41.7713 17.13 41.7813 17.71C41.8013 18.95 39.6413 20.31 38.9313 21.26C38.4213 21.49 38.2013 21.14 38.5313 20.71C39.0913 19.98 40.5913 18.93 40.9813 18.24C41.1613 17.92 41.1413 17.63 41.0013 17.3C40.9713 17.22 40.8213 16.92 40.7213 16.97L35.2913 22.39V38.04H40.8713C41.2413 38.04 41.1613 38.83 41.1313 39.08C40.8813 41.6 38.6613 43.7 36.1713 43.96H14.1813C11.0413 43.66 8.64129 41.08 8.52129 37.92V8.34C8.26129 6.59 6.90129 5.12 5.18129 4.72C4.69129 4.61 3.60129 4.76 4.15129 4H30.4513ZM30.0613 22.03H12.1513C11.9113 22.03 11.9113 21.41 12.1513 21.41H30.7213L34.5713 17.53L34.5913 9.04C34.5213 7.01 32.2113 4.63 30.1813 4.63H6.73129L7.43129 5.14C8.52129 6.08 9.11129 7.37 9.22129 8.81V38.39C9.68129 44.32 18.7213 45.19 19.6713 39.16C19.7113 38.92 19.5813 38.04 20.0313 38.04H34.5913V23.13L28.1513 29.53L26.1613 30.39H31.4313C31.9313 30.39 31.8713 31.21 31.2813 31.1H12.4613C11.7313 31.11 11.8213 30.33 12.5413 30.39H23.9213C24.1213 30.35 25.0613 26.91 25.5313 26.57H12.1513C11.9113 26.57 11.9113 25.95 12.1513 25.95H26.2013L30.0613 22.05V22.03ZM41.2813 12.06C40.6913 12.16 40.1113 13.04 39.6613 13.41C39.9513 13.63 41.2913 15.17 41.4913 15.17C41.9613 14.79 42.8813 14.07 42.8613 13.41C42.8413 12.75 41.9313 11.95 41.2813 12.06ZM39.1713 13.92L26.0113 27.06L27.8413 28.89L40.9513 15.78L40.9913 15.66C40.9913 15.59 40.9513 15.55 40.9113 15.5C40.8113 15.35 39.5313 14.08 39.3913 13.98C39.3113 13.93 39.2813 13.89 39.1713 13.91V13.92ZM27.2513 29.29C27.2813 29.17 27.2213 29.16 27.1713 29.09C27.0513 28.91 25.9813 27.85 25.8013 27.72C25.7313 27.67 25.7213 27.61 25.6013 27.64L24.7413 30.14L27.2413 29.28L27.2513 29.29ZM40.5213 38.73H20.4213C20.2313 38.88 20.3313 39.15 20.2813 39.37C20.0013 40.69 19.3913 41.74 18.3913 42.63L17.4113 43.33H36.0213C36.2713 43.33 36.9413 43.13 37.2113 43.04C39.0613 42.4 40.3413 40.67 40.5113 38.73H40.5213Z" fill="#272727"/>
<path d="M40.5219 38.7305C40.3519 40.6705 39.0719 42.4005 37.2219 43.0405C36.9519 43.1305 36.2819 43.3305 36.0319 43.3305H17.4219L18.4019 42.6305C19.4019 41.7405 20.0119 40.6905 20.2919 39.3705C20.3419 39.1405 20.2319 38.8805 20.4319 38.7305H40.5319H40.5219Z" fill="#FFA938"/>
<path d="M39.1678 13.9204C39.2778 13.8904 39.3078 13.9304 39.3878 13.9904C39.5378 14.0904 40.8178 15.3704 40.9078 15.5104C40.9378 15.5604 40.9878 15.6004 40.9878 15.6704L40.9478 15.7904L27.8378 28.9004L26.0078 27.0704L39.1678 13.9304V13.9204Z" fill="#FFA938"/>
<path d="M41.2762 12.0599C41.9262 11.9499 42.8363 12.7599 42.8563 13.4099C42.8763 14.0599 41.9563 14.7899 41.4863 15.1699C41.2863 15.1699 39.9363 13.6299 39.6562 13.4099C40.1062 13.0399 40.6862 12.1599 41.2762 12.0599Z" fill="#FFA938"/>
<path d="M27.25 29.2896L24.75 30.1496L25.61 27.6496C25.73 27.6196 25.74 27.6796 25.81 27.7296C25.99 27.8496 27.05 28.9196 27.18 29.0996C27.23 29.1696 27.29 29.1796 27.26 29.2996L27.25 29.2896Z" fill="#FFA938"/>
<path d="M31.6834 16.9704C31.9434 17.2304 31.6534 17.6704 31.2734 17.5804H12.4634C11.7934 17.6304 11.7934 16.8204 12.4634 16.8704H31.2834C31.4034 16.8704 31.6034 16.8804 31.6934 16.9704H31.6834Z" fill="#272727"/>
<path d="M12.1484 13.0498C11.8584 12.9698 11.8884 12.4998 12.2584 12.3798L31.2684 12.3398C31.9984 12.4298 31.7284 13.0398 31.5784 13.0398H12.1484V13.0498Z" fill="#272727"/>
<path d="M31.5079 34.9104C31.8979 34.9704 31.8879 35.5404 31.2779 35.6104L12.2679 35.5704C11.8079 35.4304 11.9679 34.9004 12.1579 34.9004H31.5179L31.5079 34.9104Z" fill="#272727"/>
</g>
<defs>
<clipPath id="clip0_3780_42565">
<rect width="39.47" height="39.96" fill="white" transform="translate(4 4)"/>
</clipPath>
</defs>
</svg>
