<svg width="25" height="24" viewBox="0 0 25 24" fill="none" xmlns="http://www.w3.org/2000/svg">
<mask id="mask0_3894_40156" style="mask-type:alpha" maskUnits="userSpaceOnUse" x="0" y="0" width="25" height="24">
<rect x="0.625" width="24" height="24" fill="#D9D9D9"/>
</mask>
<g mask="url(#mask0_3894_40156)">
<path d="M5.93275 21.5C5.43408 21.5 5.00808 21.3234 4.65475 20.9703C4.30158 20.6169 4.125 20.1909 4.125 19.6923V8.30775C4.125 7.80908 4.30158 7.38308 4.65475 7.02975C5.00808 6.67658 5.43408 6.5 5.93275 6.5H8.125C8.125 5.25133 8.56283 4.18917 9.4385 3.3135C10.3142 2.43783 11.3763 2 12.625 2C13.8737 2 14.9358 2.43783 15.8115 3.3135C16.6872 4.18917 17.125 5.25133 17.125 6.5H19.3173C19.8159 6.5 20.2419 6.67658 20.5953 7.02975C20.9484 7.38308 21.125 7.80908 21.125 8.30775V19.6923C21.125 20.1909 20.9484 20.6169 20.5953 20.9703C20.2419 21.3234 19.8159 21.5 19.3173 21.5H5.93275ZM5.93275 20H19.3173C19.3942 20 19.4648 19.9679 19.5288 19.9038C19.5929 19.8398 19.625 19.7693 19.625 19.6923V8.30775C19.625 8.23075 19.5929 8.16025 19.5288 8.09625C19.4648 8.03208 19.3942 8 19.3173 8H5.93275C5.85575 8 5.78525 8.03208 5.72125 8.09625C5.65708 8.16025 5.625 8.23075 5.625 8.30775V19.6923C5.625 19.7693 5.65708 19.8398 5.72125 19.9038C5.78525 19.9679 5.85575 20 5.93275 20ZM12.625 13.5C13.8737 13.5 14.9358 13.0622 15.8115 12.1865C16.6872 11.3108 17.125 10.2487 17.125 9H15.625C15.625 9.83333 15.3333 10.5417 14.75 11.125C14.1667 11.7083 13.4583 12 12.625 12C11.7917 12 11.0833 11.7083 10.5 11.125C9.91667 10.5417 9.625 9.83333 9.625 9H8.125C8.125 10.2487 8.56283 11.3108 9.4385 12.1865C10.3142 13.0622 11.3763 13.5 12.625 13.5ZM9.625 6.5H15.625C15.625 5.66667 15.3333 4.95833 14.75 4.375C14.1667 3.79167 13.4583 3.5 12.625 3.5C11.7917 3.5 11.0833 3.79167 10.5 4.375C9.91667 4.95833 9.625 5.66667 9.625 6.5Z" fill="#2E2F33" fill-opacity="0.88"/>
</g>
</svg>
