<svg width="25" height="24" viewBox="0 0 25 24" fill="none" xmlns="http://www.w3.org/2000/svg">
<mask id="mask0_3894_40245" style="mask-type:alpha" maskUnits="userSpaceOnUse" x="0" y="0" width="25" height="24">
<rect x="0.375" width="24" height="24" fill="#D9D9D9"/>
</mask>
<g mask="url(#mask0_3894_40245)">
<path d="M12.375 20.3267L11.2713 19.3345C9.61358 17.8307 8.24275 16.5384 7.15875 15.4577C6.07475 14.3769 5.21575 13.415 4.58175 12.572C3.94775 11.7292 3.50483 10.9602 3.253 10.2652C3.001 9.57042 2.875 8.86533 2.875 8.15C2.875 6.73083 3.3535 5.54267 4.3105 4.5855C5.26767 3.6285 6.45583 3.15 7.875 3.15C8.748 3.15 9.573 3.35417 10.35 3.7625C11.127 4.17083 11.802 4.75642 12.375 5.51925C12.948 4.75642 13.623 4.17083 14.4 3.7625C15.177 3.35417 16.002 3.15 16.875 3.15C18.2942 3.15 19.4823 3.6285 20.4395 4.5855C21.3965 5.54267 21.875 6.73083 21.875 8.15C21.875 8.86533 21.749 9.57042 21.497 10.2652C21.2452 10.9602 20.8022 11.7292 20.1682 12.572C19.5342 13.415 18.6768 14.3769 17.596 15.4577C16.5153 16.5384 15.1429 17.8307 13.4788 19.3345L12.375 20.3267ZM12.375 18.3C13.975 16.8603 15.2917 15.6263 16.325 14.598C17.3583 13.5698 18.175 12.6766 18.775 11.9183C19.375 11.1599 19.7917 10.4865 20.025 9.898C20.2583 9.30967 20.375 8.727 20.375 8.15C20.375 7.15 20.0417 6.31667 19.375 5.65C18.7083 4.98333 17.875 4.65 16.875 4.65C16.0853 4.65 15.3555 4.874 14.6855 5.322C14.0157 5.77017 13.4852 6.39358 13.0942 7.19225H11.6558C11.2583 6.38708 10.7262 5.76208 10.0595 5.31725C9.39283 4.87242 8.66467 4.65 7.875 4.65C6.88133 4.65 6.04958 4.98333 5.37975 5.65C4.70992 6.31667 4.375 7.15 4.375 8.15C4.375 8.727 4.49167 9.30967 4.725 9.898C4.95833 10.4865 5.375 11.1599 5.975 11.9183C6.575 12.6766 7.39167 13.5683 8.425 14.5933C9.45833 15.6182 10.775 16.8538 12.375 18.3Z" fill="#2E2F33" fill-opacity="0.88"/>
</g>
</svg>
