<svg width="56" height="56" viewBox="0 0 56 56" fill="none" xmlns="http://www.w3.org/2000/svg">
<g filter="url(#filter0_d_3528_39168)">
<rect x="2" width="48" height="48" rx="24" fill="url(#paint0_linear_3528_39168)"/>
<mask id="mask0_3528_39168" style="mask-type:alpha" maskUnits="userSpaceOnUse" x="14" y="5" width="24" height="25">
<rect x="14" y="5.99976" width="24" height="24" fill="white"/>
</mask>
<g mask="url(#mask0_3528_39168)">
<path d="M26 17.692C25.0375 17.692 24.2136 17.3493 23.5283 16.664C22.8428 15.9785 22.5 15.1545 22.5 14.192C22.5 13.2295 22.8428 12.4056 23.5283 11.7203C24.2136 11.0348 25.0375 10.692 26 10.692C26.9625 10.692 27.7864 11.0348 28.4718 11.7203C29.1573 12.4056 29.5 13.2295 29.5 14.192C29.5 15.1545 29.1573 15.9785 28.4718 16.664C27.7864 17.3493 26.9625 17.692 26 17.692ZM18.5 25.3075V23.0843C18.5 22.5946 18.633 22.1411 18.899 21.7238C19.165 21.3064 19.5205 20.9856 19.9655 20.7613C20.9538 20.2768 21.9509 19.9134 22.9567 19.671C23.9626 19.4287 24.977 19.3075 26 19.3075C27.023 19.3075 28.0374 19.4287 29.0433 19.671C30.0491 19.9134 31.0462 20.2768 32.0345 20.7613C32.4795 20.9856 32.835 21.3064 33.101 21.7238C33.367 22.1411 33.5 22.5946 33.5 23.0843V25.3075H18.5ZM20 23.8075H32V23.0843C32 22.8818 31.9413 22.6943 31.824 22.5218C31.7067 22.3494 31.5474 22.2088 31.3462 22.0998C30.4846 21.6754 29.6061 21.3539 28.7107 21.1353C27.8152 20.9168 26.9117 20.8075 26 20.8075C25.0883 20.8075 24.1848 20.9168 23.2893 21.1353C22.3939 21.3539 21.5154 21.6754 20.6537 22.0998C20.4526 22.2088 20.2933 22.3494 20.176 22.5218C20.0587 22.6943 20 22.8818 20 23.0843V23.8075ZM26 16.192C26.55 16.192 27.0208 15.9962 27.4125 15.6045C27.8042 15.2128 28 14.742 28 14.192C28 13.642 27.8042 13.1712 27.4125 12.7795C27.0208 12.3879 26.55 12.192 26 12.192C25.45 12.192 24.9792 12.3879 24.5875 12.7795C24.1958 13.1712 24 13.642 24 14.192C24 14.742 24.1958 15.2128 24.5875 15.6045C24.9792 15.9962 25.45 16.192 26 16.192Z" fill="white"/>
</g>
<path d="M18.7182 28.9279H20.0269L22.2714 34.4079H22.3543L24.5953 28.9279H25.904V35.9998H24.8785V30.8962H24.8128L22.7341 35.9894H21.8847L19.8059 30.8858H19.7472V35.9998H18.7182V28.9279ZM27.1067 28.9279H28.3291L30.1695 32.1358H30.2455L32.086 28.9279H33.3084L30.7462 33.227V35.9998H29.6689V33.227L27.1067 28.9279Z" fill="white"/>
</g>
<defs>
<filter id="filter0_d_3528_39168" x="0" y="0" width="56" height="56" filterUnits="userSpaceOnUse" color-interpolation-filters="sRGB">
<feFlood flood-opacity="0" result="BackgroundImageFix"/>
<feColorMatrix in="SourceAlpha" type="matrix" values="0 0 0 0 0 0 0 0 0 0 0 0 0 0 0 0 0 0 127 0" result="hardAlpha"/>
<feOffset dx="2" dy="4"/>
<feGaussianBlur stdDeviation="2"/>
<feComposite in2="hardAlpha" operator="out"/>
<feColorMatrix type="matrix" values="0 0 0 0 1 0 0 0 0 0.319515 0 0 0 0 0.480807 0 0 0 0.18 0"/>
<feBlend mode="normal" in2="BackgroundImageFix" result="effect1_dropShadow_3528_39168"/>
<feBlend mode="normal" in="SourceGraphic" in2="effect1_dropShadow_3528_39168" result="shape"/>
</filter>
<linearGradient id="paint0_linear_3528_39168" x1="12.5" y1="4" x2="41.5" y2="42.5" gradientUnits="userSpaceOnUse">
<stop stop-color="#7BB5FF"/>
<stop offset="0.435656" stop-color="#2083FE"/>
<stop offset="1" stop-color="#882BFF"/>
</linearGradient>
</defs>
</svg>
