<svg width="20" height="20" viewBox="0 0 20 20" fill="none" xmlns="http://www.w3.org/2000/svg">
<mask id="mask0_3704_38091" style="mask-type:alpha" maskUnits="userSpaceOnUse" x="0" y="0" width="20" height="20">
<rect width="20" height="20" fill="#D9D9D9"/>
</mask>
<g mask="url(#mask0_3704_38091)">
<path d="M10.7769 9.99999L8.46443 12.3125L9.23047 13.0785L12.309 9.99999L9.23047 6.92145L8.46443 7.68749L10.7769 9.99999ZM10.0028 17.5833C8.96332 17.5833 7.98269 17.386 7.06089 16.9912C6.13908 16.5965 5.33227 16.0534 4.64047 15.3619C3.94866 14.6703 3.40526 13.8639 3.01026 12.9425C2.6154 12.0211 2.41797 11.0408 2.41797 10.0014C2.41797 8.94812 2.61533 7.96402 3.01005 7.04916C3.40477 6.13429 3.9479 5.33096 4.63943 4.63916C5.33096 3.94735 6.13741 3.40395 7.0588 3.00895C7.98019 2.61409 8.96054 2.41666 9.99984 2.41666C11.0532 2.41666 12.0373 2.61402 12.9521 3.00874C13.867 3.40346 14.6703 3.94659 15.3621 4.63811C16.0539 5.32964 16.5973 6.13263 16.9923 7.04707C17.3872 7.96152 17.5846 8.94534 17.5846 9.99853C17.5846 11.038 17.3873 12.0186 16.9926 12.9404C16.5978 13.8622 16.0547 14.669 15.3632 15.3608C14.6716 16.0526 13.8687 16.596 12.9542 16.991C12.0398 17.3859 11.056 17.5833 10.0028 17.5833ZM10.0013 16.5C11.8069 16.5 13.3416 15.868 14.6055 14.6042C15.8694 13.3403 16.5013 11.8055 16.5013 9.99999C16.5013 8.19443 15.8694 6.65971 14.6055 5.39582C13.3416 4.13193 11.8069 3.49999 10.0013 3.49999C8.19575 3.49999 6.66102 4.13193 5.39714 5.39582C4.13325 6.65971 3.5013 8.19443 3.5013 9.99999C3.5013 11.8055 4.13325 13.3403 5.39714 14.6042C6.66102 15.868 8.19575 16.5 10.0013 16.5Z" fill="#171719"/>
</g>
</svg>
