<svg width="25" height="24" viewBox="0 0 25 24" fill="none" xmlns="http://www.w3.org/2000/svg">
<mask id="mask0_3894_40237" style="mask-type:alpha" maskUnits="userSpaceOnUse" x="0" y="0" width="25" height="24">
<rect x="0.125" width="24" height="24" fill="#D9D9D9"/>
</mask>
<g mask="url(#mask0_3894_40237)">
<path d="M10.125 10.0385L12.125 9.0385L14.125 10.0385V5H10.125V10.0385ZM7.125 16.75V15.25H12.125V16.75H7.125ZM5.43275 20.5C4.92758 20.5 4.5 20.325 4.15 19.975C3.8 19.625 3.625 19.1974 3.625 18.6923V5.30775C3.625 4.80258 3.8 4.375 4.15 4.025C4.5 3.675 4.92758 3.5 5.43275 3.5H18.8173C19.3224 3.5 19.75 3.675 20.1 4.025C20.45 4.375 20.625 4.80258 20.625 5.30775V18.6923C20.625 19.1974 20.45 19.625 20.1 19.975C19.75 20.325 19.3224 20.5 18.8173 20.5H5.43275ZM5.43275 19H18.8173C18.8942 19 18.9648 18.9679 19.0288 18.9038C19.0929 18.8398 19.125 18.7692 19.125 18.6923V5.30775C19.125 5.23075 19.0929 5.16025 19.0288 5.09625C18.9648 5.03208 18.8942 5 18.8173 5H15.625V12.4808L12.125 10.7307L8.625 12.4808V5H5.43275C5.35575 5 5.28525 5.03208 5.22125 5.09625C5.15708 5.16025 5.125 5.23075 5.125 5.30775V18.6923C5.125 18.7692 5.15708 18.8398 5.22125 18.9038C5.28525 18.9679 5.35575 19 5.43275 19Z" fill="#2E2F33" fill-opacity="0.88"/>
</g>
</svg>
