<svg width="25" height="24" viewBox="0 0 25 24" fill="none" xmlns="http://www.w3.org/2000/svg">
<mask id="mask0_3894_40242" style="mask-type:alpha" maskUnits="userSpaceOnUse" x="0" y="0" width="25" height="24">
<rect x="0.875" width="24" height="24" fill="#D9D9D9"/>
</mask>
<g mask="url(#mask0_3894_40242)">
<path d="M6.18275 20.5C5.68408 20.5 5.25808 20.3234 4.90475 19.9703C4.55158 19.6169 4.375 19.1909 4.375 18.6923V5.30775C4.375 4.80908 4.55158 4.38308 4.90475 4.02975C5.25808 3.67658 5.68408 3.5 6.18275 3.5H19.5673C20.0659 3.5 20.4919 3.67658 20.8453 4.02975C21.1984 4.38308 21.375 4.80908 21.375 5.30775V8.029H19.875V5.30775C19.875 5.21792 19.8462 5.14417 19.7885 5.0865C19.7308 5.02883 19.6571 5 19.5673 5H6.18275C6.09292 5 6.01917 5.02883 5.9615 5.0865C5.90383 5.14417 5.875 5.21792 5.875 5.30775V18.6923C5.875 18.7821 5.90383 18.8558 5.9615 18.9135C6.01917 18.9712 6.09292 19 6.18275 19H19.5673C19.6571 19 19.7308 18.9712 19.7885 18.9135C19.8462 18.8558 19.875 18.7821 19.875 18.6923V15.971H21.375V18.6923C21.375 19.1909 21.1984 19.6169 20.8453 19.9703C20.4919 20.3234 20.0659 20.5 19.5673 20.5H6.18275ZM14.1827 16.5C13.6841 16.5 13.2581 16.3234 12.9047 15.9703C12.5516 15.6169 12.375 15.1909 12.375 14.6923V9.30775C12.375 8.80908 12.5516 8.38308 12.9047 8.02975C13.2581 7.67658 13.6841 7.5 14.1827 7.5H20.5673C21.0659 7.5 21.4919 7.67658 21.8453 8.02975C22.1984 8.38308 22.375 8.80908 22.375 9.30775V14.6923C22.375 15.1909 22.1984 15.6169 21.8453 15.9703C21.4919 16.3234 21.0659 16.5 20.5673 16.5H14.1827ZM20.5673 15C20.6571 15 20.7308 14.9712 20.7885 14.9135C20.8462 14.8558 20.875 14.7821 20.875 14.6923V9.30775C20.875 9.21792 20.8462 9.14417 20.7885 9.0865C20.7308 9.02883 20.6571 9 20.5673 9H14.1827C14.0929 9 14.0192 9.02883 13.9615 9.0865C13.9038 9.14417 13.875 9.21792 13.875 9.30775V14.6923C13.875 14.7821 13.9038 14.8558 13.9615 14.9135C14.0192 14.9712 14.0929 15 14.1827 15H20.5673ZM16.875 13.5C17.2917 13.5 17.6458 13.3542 17.9375 13.0625C18.2292 12.7708 18.375 12.4167 18.375 12C18.375 11.5833 18.2292 11.2292 17.9375 10.9375C17.6458 10.6458 17.2917 10.5 16.875 10.5C16.4583 10.5 16.1042 10.6458 15.8125 10.9375C15.5208 11.2292 15.375 11.5833 15.375 12C15.375 12.4167 15.5208 12.7708 15.8125 13.0625C16.1042 13.3542 16.4583 13.5 16.875 13.5Z" fill="#2E2F33" fill-opacity="0.88"/>
</g>
</svg>
