<svg width="32" height="32" viewBox="0 0 32 32" fill="none" xmlns="http://www.w3.org/2000/svg">
<rect width="32" height="32" rx="16" fill="white"/>
<g clip-path="url(#clip0_3895_28303)">
<path d="M24.3477 12.1765C23.4093 11.2242 21.857 11.3917 20.9395 12.3614C19.75 13.6138 18.8221 14.0777 17.7198 14.0324C16.1779 13.9661 15.4174 12.7765 14.6256 11.2731C13.8023 9.69631 12.5395 8.82422 10.9663 8.82422C8.48605 8.82422 7 10.83 7 13.0661C7 16.5091 9.42093 18.5672 11.0953 19.4358C12.4872 20.1614 14.036 20.4614 15.414 20.4963C15.3337 21.3196 15.0895 22.4079 14.8209 23.1754H17.657C17.3779 22.4079 17.1302 21.2324 17.0535 20.4056C21.2047 19.8649 23.1756 17.9812 24.257 16.1847C24.7419 15.3963 25 14.58 24.9965 13.844C24.9965 13.1986 24.7872 12.6161 24.3407 12.1731L24.3477 12.1765ZM10.9837 14.3289C10.1779 14.3812 9.49419 13.7707 9.44186 12.9719C9.39302 12.1731 9.99651 11.4824 10.8023 11.43C11.5977 11.3777 12.2849 11.9882 12.3372 12.787C12.3895 13.5858 11.7826 14.2765 10.9872 14.3254L10.9837 14.3289Z" fill="#91E561"/>
</g>
<defs>
<clipPath id="clip0_3895_28303">
<rect width="18" height="14.3512" fill="white" transform="translate(7 8.82422)"/>
</clipPath>
</defs>
</svg>
