<svg width="32" height="32" viewBox="0 0 32 32" fill="none" xmlns="http://www.w3.org/2000/svg">
<rect width="32" height="32" rx="16" fill="white"/>
<g clip-path="url(#clip0_3895_28320)">
<path d="M10.7818 11.7363H9.61027V15.9744H10.7818V14.0981H11.986V13.2532H10.7818V11.7363ZM6.65578 18.8308V18.7282H10.7818V16.4691H5.44691V17.2673H9.5916V17.9487H5.46558V18.5135C5.46558 19.839 6.18436 20.2544 7.27188 20.2544H10.8378V19.4563H7.27655C6.7818 19.4563 6.66044 19.2649 6.66044 18.8262L6.65578 18.8308ZM8.43874 13.8273C8.43874 12.7072 7.44457 11.797 6.21704 11.797C4.9895 11.797 4 12.7072 4 13.8273C4 14.9475 4.99417 15.8577 6.21704 15.8577C7.43991 15.8577 8.43874 14.9475 8.43874 13.8273ZM5.09685 13.8273C5.09685 13.1506 5.60093 12.6045 6.21704 12.6045C6.83314 12.6045 7.34189 13.1506 7.34189 13.8273C7.34189 14.5041 6.83781 15.0502 6.21704 15.0502C5.59627 15.0502 5.09685 14.5041 5.09685 13.8273ZM26.7725 15.8343V17.86H27.9347V11.7363H26.7725V15.0035C26.2077 15.573 24.9942 15.7877 24.168 15.7877C23.4072 15.7877 22.7911 15.503 22.7911 14.6722V12.9825H25.5636V12.1611H21.6103V14.5601C21.6103 16.2451 22.6464 16.6138 24.098 16.6138C24.9382 16.6138 26.0443 16.4038 26.7725 15.8343ZM24.6114 19.4329C24.098 19.4329 23.818 19.1669 23.818 18.6581V17.4493H22.6278V18.3874C22.6278 19.7083 23.3886 20.2544 24.8261 20.2544H27.9953V19.4283H24.6114V19.4329ZM19.2672 11.7363H18.0957V16.4411C17.4609 16.9592 16.5741 17.2486 15.4586 17.2206C14.6978 17.2019 14.077 16.8985 14.077 15.937V15.4469H16.7935V12.2451H12.8821V13.0712H15.6219V14.6301H12.8821V15.6243C12.8821 17.4446 13.8716 18.0374 15.3699 18.0374C16.4247 18.0374 17.5543 17.7153 18.091 17.2626V20.2591H19.2625V15.1249H20.4667V14.2427H19.2625V11.7363H19.2672Z" fill="#3D62AD"/>
</g>
<defs>
<clipPath id="clip0_3895_28320">
<rect width="24" height="8.52742" fill="white" transform="translate(4 11.7363)"/>
</clipPath>
</defs>
</svg>
