<svg width="32" height="32" viewBox="0 0 32 32" fill="none" xmlns="http://www.w3.org/2000/svg">
<rect width="32" height="32" rx="16" fill="white"/>
<g clip-path="url(#clip0_3895_28307)">
<path d="M12.2622 14.8387V14.8191C12.2622 13.3151 11.2162 12.3809 9.53213 12.3809H6V19.6272H7.78605V17.3956H9.01671L10.4913 19.6258H12.5902L10.8592 17.0632C11.7647 16.6611 12.2622 15.8776 12.2622 14.8387ZM10.4569 14.9183C10.4569 15.4489 10.0737 15.9042 9.43292 15.9042H7.78605V13.903H9.40397C9.88492 13.903 10.4569 14.1893 10.4569 14.8987V14.9183Z" fill="#1E9EFF"/>
<path d="M15.3095 12.3809H13.5234V19.6272H15.3095V12.3809Z" fill="#1E9EFF"/>
<path d="M19.9001 12.3809H16.6133V19.6272H19.9001C22.0968 19.6272 23.2117 18.1036 23.2117 16.0047V15.9852C23.2117 13.896 22.0968 12.3809 19.9001 12.3809ZM21.3582 16.0229C21.3582 17.1848 20.8551 18.0492 19.6961 18.0492H18.3993V13.9575H19.6961C20.8551 13.9575 21.3582 14.8289 21.3582 16.0033V16.0229Z" fill="#1E9EFF"/>
<path d="M25.9774 12.3809H24.1914V19.6272H25.9774V12.3809Z" fill="#1E9EFF"/>
</g>
<defs>
<clipPath id="clip0_3895_28307">
<rect width="20" height="7.54098" fill="white" transform="translate(6 12.2305)"/>
</clipPath>
</defs>
</svg>
