<svg width="32" height="32" viewBox="0 0 32 32" fill="none" xmlns="http://www.w3.org/2000/svg">
<rect width="32" height="32" rx="16" fill="white"/>
<g clip-path="url(#clip0_3895_28314)">
<path d="M18.9721 10.5898C18.9721 10.5898 18.0614 14.1245 17.8935 14.7729C17.2993 17.066 16.0553 18.3477 14.3221 18.3589C13.168 18.3661 12.7306 17.4729 13.095 15.8074C13.095 15.8074 14.0985 11.6403 14.3129 10.7515C14.3327 10.6687 14.2698 10.5903 14.1851 10.5903H11.4411C11.4411 10.5903 10.7729 13.3489 10.3379 15.0129C9.53272 18.0942 10.439 20.5034 13.1264 20.6887C14.5742 20.7884 15.8332 20.0795 16.7893 19.1539L16.8368 19.1587C16.2847 21.026 15.3522 22.0615 13.5179 22.4123C12.8168 22.5463 11.8132 22.4292 11.084 22.0489C11.0192 22.015 10.9403 22.0479 10.9224 22.119L10.259 24.7557C10.9669 24.9715 12.2685 25.1103 13.6659 24.8897C16.1201 24.5021 19.0722 22.6527 20.0709 18.3753L21.943 10.7568C21.9639 10.6726 21.9 10.5913 21.8129 10.5908H18.973L18.9721 10.5898Z" fill="#060000"/>
<path d="M15.1282 10.0344C15.9033 10.0344 16.2038 9.44403 16.4012 8.51694C16.5928 7.615 16.5488 7 15.7732 7C14.998 7 14.6922 7.615 14.5001 8.51742C14.3032 9.44403 14.353 10.0348 15.1282 10.0348V10.0344Z" fill="#0080FF"/>
<path d="M18.0969 10.0344C18.8721 10.0344 19.1726 9.44403 19.37 8.51694C19.5616 7.615 19.5171 7 18.7419 7C17.9668 7 17.6609 7.615 17.4689 8.51742C17.2719 9.44403 17.3218 10.0348 18.0969 10.0348V10.0344Z" fill="#0080FF"/>
</g>
<defs>
<clipPath id="clip0_3895_28314">
<rect width="11.8911" height="18" fill="white" transform="translate(10.0547 7)"/>
</clipPath>
</defs>
</svg>
