<svg width="24" height="24" viewBox="0 0 24 24" fill="none" xmlns="http://www.w3.org/2000/svg">
<rect width="24" height="24" rx="4" fill="#FAE100"/>
<path d="M12.0009 5.0874C7.58209 5.0874 4 8.39976 4 12.487C4 15.5055 5.26447 16.947 6.99624 18.2595L7.00483 18.263V21.8055C7.00483 21.9739 7.19553 22.0684 7.32954 21.9688L10.3636 19.7164L10.4289 19.7439C10.9374 19.8384 11.4631 19.8865 12.0009 19.8865C16.4196 19.8865 20 16.5741 20 12.487C20 8.39976 16.4179 5.0874 12.0009 5.0874Z" fill="#FEDC00"/>
<path d="M12.0009 4C7.58209 4 4 7.31236 4 11.3995C4 14.4181 5.26447 15.8596 6.99624 17.1721L7.00483 17.1756V20.7181C7.00483 20.8865 7.19553 20.981 7.32954 20.8813L10.3636 18.629L10.4289 18.6565C10.9374 18.751 11.4631 18.7991 12.0009 18.7991C16.4196 18.7991 20 15.485 20 11.3995C20 7.31408 16.4179 4 12.0009 4ZM9.31902 13.2756C10.1042 13.2756 10.7742 12.8066 10.9769 12.0816H12.1366C11.8531 13.4766 10.7673 14.3924 9.32073 14.3924C7.63878 14.3924 6.30559 13.1382 6.30559 11.3927C6.30559 9.64716 7.63878 8.393 9.32073 8.393C10.7828 8.393 11.8754 9.32589 12.1452 10.7467H10.9889C10.8137 9.9753 10.1196 9.49426 9.32073 9.49426C8.19027 9.49426 7.43778 10.3 7.43778 11.3927C7.43778 12.4853 8.29335 13.2756 9.32073 13.2756M16.9625 14.2755H15.8991V11.8772C15.8991 11.3257 15.5778 11.0285 15.083 11.0285C14.5315 11.0285 14.1776 11.3669 14.1776 12.0507V14.2755H13.1141V8.41018H14.1776V10.6161C14.4319 10.2296 14.8442 10.0389 15.4043 10.0389C15.8578 10.0389 16.2289 10.1866 16.5158 10.4924C16.8131 10.7965 16.9608 11.2088 16.9608 11.7449V14.2755H16.9625Z" fill="#020303"/>
</svg>
