<svg width="24" height="24" viewBox="0 0 24 24" fill="none" xmlns="http://www.w3.org/2000/svg">
<rect width="24" height="24" rx="4" fill="#ED2F2A"/>
<path d="M19.6664 7.76155C19.4825 7.06919 18.9398 6.52288 18.2511 6.33716C17.0034 6 12 6 12 6C12 6 6.99662 6 5.74893 6.33716C5.06018 6.52288 4.51747 7.06739 4.33356 7.76155C4 9.01645 4 11.638 4 11.638C4 11.638 4 14.2578 4.33356 15.5145C4.51747 16.2069 5.06018 16.7532 5.74893 16.9389C6.99662 17.2761 12 17.2761 12 17.2761C12 17.2761 17.0034 17.2761 18.2511 16.9389C18.9398 16.7532 19.4807 16.2087 19.6664 15.5145C20 14.2578 20 11.638 20 11.638C20 11.638 20 9.01826 19.6664 7.76155Z" fill="white"/>
<path d="M10.3672 14.0165L14.5484 11.6383L10.3672 9.2583V14.0165Z" fill="#ED2F2A"/>
</svg>
