<svg width="20" height="20" viewBox="0 0 20 20" fill="none" xmlns="http://www.w3.org/2000/svg">
<mask id="mask0_3935_25503" style="mask-type:alpha" maskUnits="userSpaceOnUse" x="0" y="0" width="20" height="20">
<rect width="20" height="20" fill="#D9D9D9"/>
</mask>
<g mask="url(#mask0_3935_25503)">
<path d="M4.75385 17.5833C4.38413 17.5833 4.06837 17.4524 3.80656 17.1908C3.5449 16.9289 3.41406 16.6132 3.41406 16.2435V6.75638C3.41406 6.38665 3.5449 6.07089 3.80656 5.80909C4.06837 5.54742 4.38413 5.41659 4.75385 5.41659H6.41406C6.41406 4.42214 6.76316 3.57631 7.46135 2.87909C8.15941 2.18186 9.00635 1.83325 10.0022 1.83325C10.9979 1.83325 11.8432 2.18186 12.5382 2.87909C13.2332 3.57631 13.5807 4.42214 13.5807 5.41659H15.2409C15.6107 5.41659 15.9264 5.54742 16.1882 5.80909C16.4499 6.07089 16.5807 6.38665 16.5807 6.75638V16.2435C16.5807 16.6132 16.4499 16.9289 16.1882 17.1908C15.9264 17.4524 15.6107 17.5833 15.2409 17.5833H4.75385ZM4.75385 16.4999H15.2409C15.3051 16.4999 15.3639 16.4732 15.4172 16.4197C15.4707 16.3664 15.4974 16.3076 15.4974 16.2435V6.75638C15.4974 6.69221 15.4707 6.63346 15.4172 6.58013C15.3639 6.52665 15.3051 6.49992 15.2409 6.49992H4.75385C4.68969 6.49992 4.63094 6.52665 4.5776 6.58013C4.52413 6.63346 4.4974 6.69221 4.4974 6.75638V16.2435C4.4974 16.3076 4.52413 16.3664 4.5776 16.4197C4.63094 16.4732 4.68969 16.4999 4.75385 16.4999ZM10.0022 11.5833C10.9979 11.5833 11.8432 11.2346 12.5382 10.5374C13.2332 9.8402 13.5807 8.99436 13.5807 7.99992H12.4974C12.4974 8.69436 12.2543 9.28464 11.7682 9.77075C11.2821 10.2569 10.6918 10.4999 9.9974 10.4999C9.30295 10.4999 8.71267 10.2569 8.22656 9.77075C7.74045 9.28464 7.4974 8.69436 7.4974 7.99992H6.41406C6.41406 8.99881 6.76316 9.84575 7.46135 10.5408C8.15941 11.2358 9.00635 11.5833 10.0022 11.5833ZM7.4974 5.41659H12.4974C12.4974 4.72214 12.2543 4.13186 11.7682 3.64575C11.2821 3.15964 10.6918 2.91659 9.9974 2.91659C9.30295 2.91659 8.71267 3.15964 8.22656 3.64575C7.74045 4.13186 7.4974 4.72214 7.4974 5.41659Z" fill="#171719"/>
</g>
</svg>
