<svg width="24" height="24" viewBox="0 0 24 24" fill="none" xmlns="http://www.w3.org/2000/svg">
<g clip-path="url(#clip0_3576_77437)">
<path d="M14.5947 17.8478V20.4301C14.6755 20.4301 14.7472 20.4301 14.8188 20.4301C15.5849 20.4301 16.3516 20.4285 17.1177 20.4301C17.9 20.4322 18.4522 20.9813 18.4576 21.7608C18.4603 22.1698 18.4576 22.5787 18.4576 22.9995H5.56015C5.56015 22.5119 5.52352 22.0265 5.56877 21.5491C5.63073 20.8977 6.1835 20.4355 6.83972 20.4312C7.61931 20.4258 8.3989 20.4296 9.17903 20.4296C9.25176 20.4296 9.3245 20.4296 9.40962 20.4296V17.8473H9.16664C7.25079 17.8473 5.33549 17.8473 3.41964 17.8473C2.52907 17.8478 2 17.3214 2 16.4346C2 12.4278 2 8.42104 2 4.41372C2 3.52583 2.52799 3 3.41857 3C9.14563 3 14.8722 3 20.5992 3C21.4763 3 22.0075 3.52907 22.0075 4.40402C22.0075 8.41781 22.0075 12.4316 22.0075 16.4454C22.0075 17.3182 21.4747 17.8478 20.5976 17.8478C18.6818 17.8478 16.7664 17.8478 14.8506 17.8478H14.5947ZM11.9833 17.2024C14.8538 17.2024 17.7244 17.2024 20.5949 17.2024C21.1191 17.2024 21.3621 16.9615 21.3621 16.4405C21.3621 12.4327 21.3621 8.42535 21.3621 4.41749C21.3621 3.88465 21.1207 3.64544 20.5852 3.64544C14.8641 3.64544 9.14347 3.64544 3.42234 3.64544C2.88303 3.64544 2.64598 3.88088 2.64598 4.41695C2.64598 8.41781 2.64598 12.4187 2.64598 16.4195C2.64598 16.9675 2.88196 17.2018 3.43257 17.2024C6.28317 17.2024 9.13324 17.2024 11.9838 17.2024H11.9833ZM17.8127 22.3594C17.8127 22.1778 17.8127 22.0173 17.8127 21.8567C17.8127 21.3115 17.5746 21.0755 17.0251 21.0755C13.6777 21.0755 10.3304 21.0755 6.98303 21.0755C6.92269 21.0755 6.86181 21.0734 6.80147 21.0772C6.50084 21.0976 6.23846 21.3174 6.20829 21.6148C6.1835 21.8584 6.20344 22.1067 6.20344 22.3594H17.8133H17.8127ZM10.0761 20.4199H13.9282V17.8613H10.0761V20.4199Z" fill="#171719"/>
<path d="M7.16407 10.4145C7.1673 7.74111 9.34337 5.5769 12.0232 5.58229C14.6847 5.58767 16.8532 7.76859 16.8451 10.4317C16.837 13.1077 14.6653 15.2671 11.9844 15.2655C9.3272 15.2639 7.16083 13.0835 7.16407 10.4145ZM12.0194 6.22826C9.70703 6.22772 7.81166 8.10047 7.81004 10.3886C7.80843 12.7371 9.67363 14.6163 12.0097 14.619C14.3167 14.6217 16.1959 12.7381 16.1991 10.4188C16.2029 8.12256 14.314 6.22934 12.0189 6.22826H12.0194Z" fill="#171719"/>
<path d="M11.7234 7.53911H12.3678V11.0648H8.84375V10.4436H11.7234V7.53857V7.53911Z" fill="#171719"/>
</g>
<defs>
<clipPath id="clip0_3576_77437">
<rect width="20.0081" height="20" fill="white" transform="translate(2 3)"/>
</clipPath>
</defs>
</svg>
