<svg width="279" height="52" viewBox="0 0 279 52" fill="none" xmlns="http://www.w3.org/2000/svg">
<path d="M5.99344 14.6177C5.9817 16.6723 7.17921 18.5331 9.52141 19.2787L8.52935 20.7227C6.89745 20.1416 5.74689 19.0497 5.10704 17.6233C4.44959 19.261 3.19924 20.5466 1.38536 21.1806L0.399171 19.6954C2.88225 18.8795 4.12673 16.8719 4.13847 14.6999V13.2852H5.99344V14.6177ZM2.88225 24.5853C2.87638 22.7597 4.81941 21.6972 7.9893 21.6972C11.1651 21.6972 13.1081 22.7597 13.1081 24.5853C13.1081 26.4168 11.1651 27.4617 7.9893 27.4558C4.81941 27.4617 2.87638 26.4168 2.88225 24.5853ZM4.71961 24.5853C4.70787 25.501 5.89952 26.0117 7.9893 26.0059C10.0849 26.0117 11.2707 25.501 11.2766 24.5853C11.2707 23.6402 10.0849 23.1354 7.9893 23.1354C5.89952 23.1354 4.70787 23.6402 4.71961 24.5853ZM8.23584 16.8895V15.375H11.2238V12.4751H13.067V21.2921H11.2238V16.8895H8.23584ZM26.9434 12.4751V18.1809H29.2563V19.7365H26.9434V27.4675H25.0943V12.4751H26.9434ZM15.7138 23.9572V13.6961H17.5512V17.4472H21.0909V13.6961H22.9224V23.9572H15.7138ZM17.5512 22.4427H21.0909V18.8912H17.5512V22.4427ZM36.7107 13.3146C39.9276 13.3204 42.305 14.9289 42.305 17.3591C42.305 19.6191 40.3737 21.116 37.6265 21.386V24.1392H43.6023V25.6537H29.8837V24.1392H35.795V21.386C33.0654 21.116 31.1341 19.6133 31.1399 17.3591C31.1341 14.9289 33.5115 13.3204 36.7107 13.3146ZM32.948 17.3591C32.948 18.991 34.5094 19.9537 36.7107 19.9596C38.9297 19.9537 40.4911 18.991 40.4911 17.3591C40.4911 15.7977 38.9297 14.7997 36.7107 14.8056C34.5094 14.7997 32.948 15.7977 32.948 17.3591ZM58.2947 24.2096V25.7358H44.5761V24.2096H50.4874V21.7617H46.2021V16.8543H54.843V14.9876H46.1787V13.4965H56.6687V18.316H48.0454V20.2531H57.015V21.7617H52.3189V24.2096H58.2947ZM71.4139 12.4751V15.5394H73.216V17.0363H71.4139V20.1298H69.5589V12.4751H71.4139ZM59.7029 19.4489V13.3791H63.5596V14.8584H61.4581V17.9637C62.1801 17.9403 62.9139 17.8757 63.724 17.7113L63.8883 19.1906C62.5734 19.4489 61.5579 19.4606 60.4249 19.4489H59.7029ZM61.2878 22.155V20.711H71.4139V24.6381H63.1311V25.8298H71.9246V27.2914H61.3113V23.2939H69.6059V22.155H61.2878ZM64.3403 19.4137V13.3791H68.3555V14.8584H66.119V17.952C67.1873 17.9344 67.9035 17.8698 68.7664 17.6526L68.9249 19.1436C67.7626 19.4078 66.8704 19.4195 65.1093 19.4137H64.3403Z" fill="white"/>
<path d="M86.8111 17.8933C86.5352 16.8954 85.7251 16.3025 84.5335 16.3025C82.7724 16.3025 81.6512 17.6409 81.6512 19.9713C81.6512 22.3253 82.7196 23.6754 84.5394 23.6754C86.1419 23.6754 87.0459 22.8419 87.0753 21.5328H84.6568V19.4548H89.8049V21.028C89.8049 24.239 87.6036 26.1644 84.5218 26.1644C81.0877 26.1644 78.7573 23.8104 78.7573 20.0066C78.7573 16.0794 81.2814 13.8135 84.4807 13.8135C87.2514 13.8135 89.3823 15.5041 89.6816 17.8933H86.8111ZM91.5105 26V13.9779H96.4297C99.1358 13.9779 100.803 15.51 100.803 17.9696C100.803 19.625 100.04 20.8049 98.7132 21.4095L101.22 26H98.1144L95.9072 21.8615H94.3399V26H91.5105ZM94.3399 19.6133H95.8309C97.1634 19.6133 97.8679 19.0967 97.8679 17.9696C97.8679 16.8367 97.1634 16.2731 95.8309 16.2731H94.3399V19.6133ZM104.857 26H101.816L105.89 13.9779H109.641L113.715 26H110.674L109.864 23.4347H105.667L104.857 26ZM106.354 21.2686H109.177L107.81 16.9541H107.716L106.354 21.2686ZM125.176 13.9779V26H122.769L117.897 18.9382H117.814V26H114.985V13.9779H117.433L122.252 21.028H122.352V13.9779H125.176ZM131.396 26H126.988V13.9779H131.396C135.059 13.9779 137.319 16.232 137.319 19.9831C137.319 23.74 135.059 26 131.396 26ZM129.817 23.5815H131.285C133.351 23.5815 134.484 22.5953 134.484 19.9831C134.484 17.3767 133.351 16.3964 131.25 16.3964H129.817V23.5815ZM154.075 19.989C154.075 23.9513 151.574 26.1644 148.358 26.1644C145.123 26.1644 142.64 23.9337 142.64 19.989C142.64 16.0266 145.123 13.8135 148.358 13.8135C151.574 13.8135 154.075 16.0266 154.075 19.989ZM145.534 19.989C145.534 22.3781 146.602 23.6754 148.358 23.6754C150.113 23.6754 151.187 22.3781 151.187 19.989C151.187 17.5998 150.113 16.3025 148.358 16.3025C146.602 16.3025 145.534 17.5998 145.534 19.989ZM155.742 26V13.9779H160.661C163.367 13.9779 165.034 15.6685 165.034 18.1222C165.034 20.5994 163.332 22.2372 160.579 22.2372H158.571V26H155.742ZM158.571 19.9948H160.062C161.395 19.9948 162.099 19.2493 162.099 18.1222C162.099 16.9893 161.395 16.2731 160.062 16.2731H158.571V19.9948ZM166.45 26V13.9779H174.78V16.2907H169.279V18.8325H174.345V21.1395H169.279V23.6872H174.78V26H166.45ZM186.767 13.9779V26H184.361L179.488 18.9382H179.406V26H176.577V13.9779H179.025L183.844 21.028H183.944V13.9779H186.767Z" fill="url(#paint0_linear_3528_38862)"/>
<g clip-path="url(#clip0_3528_38862)">
<path d="M217.536 26.5576H269.709L276.097 42.6687H211.148L217.536 26.5576Z" fill="#EBEBEB"/>
<path d="M269.708 26.5576H217.535V42.6687H269.708V26.5576Z" fill="#EFEFEF"/>
<path d="M249.272 2.91424L232.055 3.89429L234.036 38.0205L251.253 37.0405L249.272 2.91424Z" fill="#DAC3FF"/>
<path d="M265.5 29C270.194 29 274 25.1944 274 20.5C274 15.8056 270.194 12 265.5 12C260.806 12 257 15.8056 257 20.5C257 25.1944 260.806 29 265.5 29Z" fill="#FFC01E"/>
<path d="M264.37 13.5964L245.961 10L241.002 34.8918L259.411 38.4882L264.37 13.5964Z" fill="white"/>
<path d="M239.935 67.0503C244.256 67.0503 247.76 63.5811 247.76 59.3016C247.76 55.0221 244.256 51.5529 239.935 51.5529C235.613 51.5529 232.109 55.0221 232.109 59.3016C232.109 63.5811 235.613 67.0503 239.935 67.0503Z" fill="#FFDF38"/>
<path d="M258.114 50.9323C266.461 50.9323 273.227 44.2317 273.227 35.9661C273.227 27.7006 266.461 21 258.114 21C249.767 21 243 27.7006 243 35.9661C243 44.2317 249.767 50.9323 258.114 50.9323Z" fill="#E73F7D"/>
<path d="M236.381 10.8435L212.344 16.9417L221.265 51.4247L245.303 45.3265L236.381 10.8435Z" fill="#1F87E6"/>
<path d="M244.306 45.1894L242.642 47.5045L234.031 14.2071L235.695 11.892L244.306 45.1894Z" fill="#E8E8E8"/>
<path d="M221.304 51.594L219.001 54.763L210.039 20.1088L212.339 16.9397L221.304 51.594Z" fill="#399CF6"/>
<path d="M234.123 14.1777L210.086 20.2759L219.008 54.7589L243.045 48.6607L234.123 14.1777Z" fill="#50ABFF"/>
<path d="M234.027 14.2071L210.887 20.0772L212.551 17.762L235.691 11.892L234.027 14.2071Z" fill="white"/>
<g filter="url(#filter0_b_3528_38862)">
<path d="M272.903 72H214.342L211.148 42.6687H276.097L272.903 72Z" fill="#F7F8F8" fill-opacity="0.6"/>
</g>
<path d="M214.829 1.75488C212.041 2.58668 209.435 4.40843 208.559 7.2802C208.147 8.62754 208.128 10.3417 209.393 11.2526C210.54 12.0781 212.188 11.8219 213.478 11.5594C214.906 11.2684 216.295 10.7213 217.541 9.96854C218.132 9.61115 218.809 9.20316 219.275 8.69079C219.585 8.34921 219.697 7.86215 219.457 7.44783C219.23 7.05881 218.799 6.91332 218.371 6.89435C215.698 6.77416 212.897 8.29861 211.424 10.4777C210.964 11.1609 210.655 12.056 210.955 12.8625C211.233 13.612 211.942 14.0706 212.715 14.2003C213.488 14.33 214.34 14.2762 215.142 14.1813C216.078 14.0738 217.001 13.8967 217.908 13.6342C218.892 13.3495 218.473 11.8219 217.483 12.1097C216.203 12.4798 214.858 12.7201 213.52 12.6948C213.213 12.6885 212.712 12.66 212.526 12.4481C212.204 12.0781 212.699 11.4076 212.913 11.1198C213.561 10.2564 214.446 9.58585 215.417 9.12092C215.902 8.88688 216.423 8.72242 216.95 8.61172C217.372 8.52 218.065 8.35554 218.461 8.50735L218.109 8.30493L218.103 8.28596L217.994 7.88745V7.98866C218.033 7.85582 218.068 7.72299 218.103 7.59015C218.026 7.7641 217.736 7.92857 217.566 8.05191C217.298 8.24484 217.023 8.42828 216.739 8.59907C216.215 8.91535 215.663 9.20316 215.091 9.42771C213.941 9.88315 212.664 10.2184 211.418 10.2184C210.996 10.2184 210.46 10.1773 210.166 9.83254C209.853 9.46566 209.872 8.87107 209.933 8.42828C210.099 7.25174 210.728 6.17008 211.565 5.33827C212.581 4.32936 213.89 3.68416 215.254 3.27616C216.234 2.98203 215.816 1.45758 214.829 1.75172V1.75488Z" fill="#33E4AF"/>
<path d="M277.125 25.227C276.933 25.442 276.729 25.6445 276.515 25.8342C276.406 25.9291 276.297 26.0208 276.186 26.1125C276.16 26.1315 276.135 26.1505 276.109 26.1726C276.16 26.1284 276.234 26.0778 276.138 26.1505C276.08 26.1948 276.023 26.2359 275.962 26.277C275.732 26.4383 275.493 26.5838 275.247 26.7166C275.119 26.7862 274.991 26.8495 274.86 26.9127C274.796 26.9444 274.729 26.9728 274.662 27.0013C274.633 27.0139 274.601 27.0266 274.573 27.0392C274.787 26.9412 274.63 27.0139 274.585 27.0329C274.384 27.112 274.221 27.2037 274.11 27.3966C274.011 27.5674 273.966 27.8173 274.03 28.007C274.094 28.1968 274.212 28.3834 274.397 28.4783C274.582 28.5732 274.819 28.6364 275.013 28.5574C276.246 28.0671 277.364 27.3334 278.252 26.3466C278.53 26.0366 278.581 25.5274 278.252 25.227C277.949 24.9518 277.419 24.8981 277.121 25.227H277.125Z" fill="#33E4AF"/>
<path d="M256.142 2.36258C256.075 2.83383 256.142 3.28294 256.353 3.70991C256.545 4.09893 256.864 4.43102 257.244 4.64292C257.426 4.74413 257.688 4.69353 257.79 4.5006C257.892 4.30767 257.841 4.0673 257.647 3.95977C257.608 3.93763 257.57 3.91549 257.532 3.89019C257.516 3.8807 257.503 3.87121 257.487 3.86172C257.484 3.85856 257.41 3.80796 257.464 3.84591C257.519 3.88386 257.452 3.83642 257.442 3.82693C257.426 3.81112 257.407 3.79847 257.391 3.78265C257.362 3.75419 257.334 3.72889 257.305 3.70042C257.273 3.66879 257.244 3.634 257.215 3.60238C257.167 3.54861 257.247 3.64982 257.222 3.6087C257.209 3.58973 257.196 3.57391 257.183 3.55494C257.136 3.48536 257.091 3.41261 257.052 3.33671C257.043 3.32089 257.036 3.30508 257.03 3.28926C257.001 3.23234 257.008 3.27345 257.03 3.29875C257.008 3.27345 256.995 3.20703 256.982 3.17541C256.957 3.09634 256.934 3.01411 256.918 2.93187C256.915 2.90974 256.912 2.8876 256.909 2.86546C256.915 2.88443 256.918 2.94453 256.912 2.89076C256.909 2.84648 256.906 2.8022 256.902 2.75792C256.899 2.71364 256.902 2.66937 256.902 2.62509C256.902 2.5903 256.922 2.4543 256.902 2.57132C256.918 2.46062 256.922 2.36574 256.861 2.2677C256.813 2.18547 256.717 2.1064 256.621 2.08742C256.433 2.0463 256.161 2.14435 256.129 2.36258H256.142Z" fill="#50ABFF"/>
<path d="M207.474 27.7129C207.407 28.1842 207.474 28.6333 207.685 29.0603C207.877 29.4493 208.196 29.7814 208.576 29.9933C208.758 30.0945 209.02 30.0439 209.122 29.8509C209.225 29.658 209.173 29.4176 208.979 29.3101C208.94 29.288 208.902 29.2658 208.864 29.2405C208.848 29.231 208.835 29.2216 208.819 29.2121C208.816 29.2089 208.742 29.1583 208.797 29.1963C208.851 29.2342 208.784 29.1868 208.774 29.1773C208.758 29.1615 208.739 29.1488 208.723 29.133C208.694 29.1045 208.666 29.0792 208.637 29.0508C208.605 29.0191 208.576 28.9843 208.547 28.9527C208.499 28.899 208.579 29.0002 208.554 28.959C208.541 28.9401 208.528 28.9243 208.515 28.9053C208.468 28.8357 208.423 28.763 208.384 28.687C208.375 28.6712 208.369 28.6554 208.362 28.6396C208.333 28.5827 208.34 28.6238 208.362 28.6491C208.34 28.6238 208.327 28.5574 208.314 28.5257C208.289 28.4467 208.266 28.3644 208.25 28.2822C208.247 28.2601 208.244 28.2379 208.241 28.2158C208.247 28.2348 208.25 28.2949 208.244 28.2411C208.241 28.1968 208.238 28.1525 208.234 28.1083C208.231 28.064 208.234 28.0197 208.234 27.9754C208.234 27.9406 208.254 27.8046 208.234 27.9217C208.25 27.811 208.254 27.7161 208.193 27.618C208.145 27.5358 208.049 27.4567 207.953 27.4378C207.765 27.3966 207.493 27.4947 207.461 27.7129H207.474Z" fill="#F15370"/>
<path d="M266.364 3.90735C266.971 4.02379 267.552 4.20775 268.103 4.48149C268.483 4.66988 269.282 5.09899 269.035 5.6405C268.829 6.08541 268.078 6.26899 267.658 6.3989C267.019 6.60041 266.362 6.72975 265.694 6.78036C265.025 6.83097 264.399 6.81978 263.769 6.70102C263.624 6.67481 263.48 6.64226 263.338 6.60011C263.286 6.58622 262.946 6.42486 262.902 6.44237L262.871 6.68426L262.931 6.65033C262.963 6.65545 263.139 6.56961 263.148 6.56609C263.306 6.50944 263.467 6.45584 263.632 6.41161C264.271 6.23542 264.936 6.16911 265.595 6.2044C266.117 6.23222 266.719 6.31082 267.166 6.59803C267.368 6.72977 267.616 6.98016 267.57 7.24796C267.522 7.53171 267.143 7.67271 266.91 7.76705C266.195 8.06015 265.446 8.19932 264.676 8.19671C264.162 8.19712 264.188 8.98806 264.702 8.98765C265.87 8.98785 269.139 8.47158 268.223 6.60561C267.902 5.95571 267.174 5.64746 266.493 5.51797C265.612 5.3485 264.706 5.37006 263.827 5.54897C263.31 5.65402 261.882 5.91705 262.135 6.73423C262.253 7.1194 262.752 7.24942 263.094 7.35055C263.532 7.48286 263.991 7.5384 264.445 7.57191C265.373 7.63821 266.312 7.54889 267.219 7.33727C267.976 7.15978 268.92 6.91823 269.486 6.34886C270.135 5.69397 269.882 4.79124 269.236 4.25182C268.504 3.63961 267.481 3.3108 266.553 3.13365C266.048 3.03867 265.863 3.80908 266.367 3.90407L266.364 3.90735Z" fill="#C6E4FF"/>
</g>
<defs>
<filter id="filter0_b_3528_38862" x="191.148" y="22.6687" width="104.949" height="69.3313" filterUnits="userSpaceOnUse" color-interpolation-filters="sRGB">
<feFlood flood-opacity="0" result="BackgroundImageFix"/>
<feGaussianBlur in="BackgroundImageFix" stdDeviation="10"/>
<feComposite in2="SourceAlpha" operator="in" result="effect1_backgroundBlur_3528_38862"/>
<feBlend mode="normal" in="SourceGraphic" in2="effect1_backgroundBlur_3528_38862" result="shape"/>
</filter>
<linearGradient id="paint0_linear_3528_38862" x1="80.3171" y1="3.34503" x2="156.603" y2="70.4059" gradientUnits="userSpaceOnUse">
<stop stop-color="#0C98E7"/>
<stop offset="0.535" stop-color="#B956EA"/>
<stop offset="1" stop-color="#F03964"/>
</linearGradient>
<clipPath id="clip0_3528_38862">
<rect width="75" height="72" fill="white" transform="translate(204)"/>
</clipPath>
</defs>
</svg>
