<svg width="32" height="32" viewBox="0 0 32 32" fill="none" xmlns="http://www.w3.org/2000/svg">
<rect width="32" height="32" rx="16" fill="white"/>
<path d="M15.5748 6.18744C21.0502 6.11246 22.2884 10.2549 22.2884 13.0291C22.2884 15.8032 20.0635 16.1781 20.0635 16.1781C22.1337 16.4967 23.7782 18.2587 23.7782 21.8201C23.7782 25.3814 20.2182 25.5876 20.2182 25.5876L14.2398 26L10.97 12.2043C10.97 11.1546 11.6859 10.3112 13.0983 10.3112C14.5107 10.3112 14.8009 11.5483 14.8009 11.5483L15.4394 14.3974C15.4394 14.3974 17.1033 14.3974 17.3161 14.3974C17.5289 14.3974 19.1735 14.0037 18.593 11.6232C18.0319 9.24274 16.1165 9.20525 16.1165 9.20525C16.1165 9.20525 13.0983 9.20525 11.5698 9.20525C10.0607 9.20525 9.32548 7.94939 9.32548 7.94939L8.22266 6L15.5748 6.18744ZM17.0839 22.6823L18.8639 22.5323C18.8639 22.5323 20.2569 22.4574 20.2569 20.7142C20.2569 18.9709 19.3282 17.3964 17.7804 17.3964H16.0778L17.0839 22.6823Z" fill="#FF3C28"/>
</svg>
