<svg width="32" height="32" viewBox="0 0 32 32" fill="none" xmlns="http://www.w3.org/2000/svg">
<rect width="32" height="32" rx="16" fill="white"/>
<path d="M22.5078 6.01393C21.9648 6.31719 20.2821 7.09896 18.2969 7.02236C15.5649 6.91743 15.3989 5.96671 12.2909 6.06954C10.8404 6.11781 9.93599 6.54175 9.33203 7.00557V10.905C9.33203 10.9942 9.43392 11.0435 9.50429 10.9879C10.0305 10.5713 11.0746 10.1043 12.4747 10.056C15.379 9.95426 15.7445 10.9207 18.425 11.0078C20.5426 11.076 22.1035 10.288 22.6654 9.95111V6.10627C22.6654 6.02442 22.5792 5.97405 22.5078 6.01393ZM22.5184 13.5861C21.9448 13.8316 20.4302 14.392 18.6908 14.3815C15.9882 14.3647 15.3328 13.4486 12.7184 13.5168C10.979 13.563 9.89083 14.137 9.33203 14.7603V26H13.314V17.4057C15.9682 17.3932 16.2613 18.1696 18.8536 18.2946C20.8493 18.3911 22.1717 17.7593 22.6654 17.5516V13.6837C22.6654 13.6071 22.5888 13.5557 22.5184 13.5861Z" fill="#3F3FFF"/>
</svg>
