<svg width="32" height="32" viewBox="0 0 32 32" fill="none" xmlns="http://www.w3.org/2000/svg">
<rect width="32" height="32" rx="16" fill="white"/>
<path d="M19.56 6.13196L18.248 6.88026C17.576 6.55956 16.808 6.36103 15.992 6.36103C13.256 6.36103 11.032 8.46848 11 11.0799V15.9973C11.032 18.6087 13.256 20.7161 15.992 20.7161C16.632 20.7161 17.256 20.5939 17.816 20.3801V21.2353C17.816 22.1974 17 22.9763 15.992 22.9763C15.32 22.9763 14.744 22.6098 14.424 22.2738C14.152 21.9989 13.768 21.8462 13.384 21.8462C11.928 21.8462 11.176 23.5108 12.184 24.5034C13.096 25.4044 14.472 26 16.008 26C18.744 26 20.984 23.8926 21 21.2812V21.2353V15.9973V15.9514V11.1257V11.0799V6.89553C21 6.20832 20.2 5.76545 19.56 6.13196ZM17.832 15.9056C17.832 16.8525 17.064 17.6618 16.072 17.6924C15.032 17.7229 14.168 16.9288 14.168 15.9514V11.1715C14.168 10.2247 14.936 9.41531 15.928 9.38476C16.968 9.35422 17.832 10.1483 17.832 11.1257V15.9056Z" fill="#0096FF"/>
</svg>
