<svg width="32" height="32" viewBox="0 0 32 32" fill="none" xmlns="http://www.w3.org/2000/svg">
<rect width="32" height="32" rx="16" fill="white"/>
<path d="M21.061 11.2712C22.5165 11.2712 23.6963 10.0912 23.6963 8.63558C23.6963 7.17999 22.5165 6 21.061 6C19.6056 6 18.4258 7.17999 18.4258 8.63558C18.4258 10.0912 19.6056 11.2712 21.061 11.2712Z" fill="#00CD3C"/>
<path fill-rule="evenodd" clip-rule="evenodd" d="M15.3785 11.8438C11.4673 11.8438 8.30078 15.0158 8.30078 18.9223C8.30078 22.8288 11.4725 26.0008 15.3785 26.0008C19.2845 26.0008 22.4562 22.8288 22.4562 18.9223C22.4562 15.0158 19.2845 11.8438 15.3785 11.8438ZM15.3785 22.3913C13.6442 22.3913 12.238 20.8391 12.238 18.9223C12.238 17.0055 13.6442 15.4533 15.3785 15.4533C17.1128 15.4533 18.5189 17.0055 18.5189 18.9223C18.5189 20.8391 17.1128 22.3913 15.3785 22.3913Z" fill="#00CD3C"/>
</svg>
