<svg width="32" height="32" viewBox="0 0 32 32" fill="none" xmlns="http://www.w3.org/2000/svg">
<rect width="32" height="32" rx="16" fill="white"/>
<path d="M6.19508 14.9109H7.99192C8.04361 14.9109 8.09321 14.8912 8.12986 14.8561C8.1665 14.821 8.18722 14.7734 8.18748 14.7237V10.2141C8.18748 10.1894 8.18242 10.165 8.17258 10.1422C8.16275 10.1194 8.14834 10.0987 8.13017 10.0813C8.112 10.0638 8.09044 10.05 8.06672 10.0406C8.04299 10.0312 8.01757 10.0264 7.99192 10.0265H6.19508C6.14334 10.0265 6.09372 10.0463 6.05714 10.0814C6.02055 10.1166 6 10.1644 6 10.2141V14.7237C6.00019 14.7734 6.02082 14.8209 6.05738 14.856C6.09393 14.8911 6.14344 14.9108 6.19508 14.9109ZM9.16383 17.7665H10.9607C11.0691 17.7665 11.1567 17.6827 11.1567 17.5789V8.41077C11.1567 8.38603 11.1516 8.36153 11.1418 8.33867C11.1319 8.31582 11.1175 8.29506 11.0993 8.27759C11.0811 8.26011 11.0594 8.24627 11.0357 8.23684C11.0119 8.22742 10.9864 8.2226 10.9607 8.22266H9.16383C9.11196 8.22266 9.06222 8.24248 9.02555 8.27775C8.98887 8.31303 8.96827 8.36088 8.96827 8.41077V17.5789C8.9684 17.6287 8.98906 17.6764 9.02572 17.7116C9.06238 17.7468 9.11205 17.7665 9.16383 17.7665ZM12.1331 20.6976H13.9299C13.9816 20.6976 14.0313 20.6779 14.0678 20.6427C14.1044 20.6075 14.125 20.5598 14.125 20.51V11.3419C14.125 11.3172 14.1201 11.2927 14.1103 11.2698C14.1005 11.247 14.0862 11.2262 14.068 11.2087C14.0499 11.1912 14.0284 11.1773 14.0047 11.1678C13.981 11.1583 13.9556 11.1534 13.9299 11.1533H12.1331C12.1073 11.1533 12.0819 11.1582 12.0581 11.1677C12.0344 11.1771 12.0128 11.191 11.9946 11.2086C11.9764 11.2261 11.9621 11.2469 11.9523 11.2697C11.9425 11.2926 11.9374 11.3171 11.9375 11.3419V20.51C11.9376 20.5598 11.9583 20.6075 11.995 20.6427C12.0316 20.6779 12.0813 20.6976 12.1331 20.6976ZM18.0706 20.6976H19.8674C19.9191 20.6975 19.9686 20.6777 20.005 20.6425C20.0415 20.6073 20.062 20.5597 20.062 20.51V11.3419C20.0621 11.2921 20.0417 11.2442 20.0052 11.2089C19.9688 11.1735 19.9192 11.1535 19.8674 11.1533H18.0706C18.0449 11.1533 18.0194 11.1582 17.9956 11.1677C17.9719 11.1771 17.9503 11.191 17.9321 11.2086C17.914 11.2261 17.8996 11.2469 17.8898 11.2697C17.88 11.2926 17.875 11.3171 17.875 11.3419V20.51C17.8751 20.5598 17.8958 20.6075 17.9325 20.6427C17.9691 20.6779 18.0188 20.6976 18.0706 20.6976ZM21.0388 17.7665H22.8357C22.8613 17.7666 22.8868 17.7618 22.9105 17.7524C22.9342 17.743 22.9557 17.7291 22.9739 17.7117C22.9921 17.6943 23.0065 17.6736 23.0163 17.6508C23.0262 17.628 23.0312 17.6036 23.0312 17.5789V8.41077C23.0312 8.38607 23.0262 8.3616 23.0164 8.33878C23.0065 8.31596 22.9921 8.29522 22.974 8.27775C22.9558 8.26029 22.9342 8.24643 22.9105 8.23698C22.8868 8.22752 22.8614 8.22266 22.8357 8.22266H21.0388C21.0132 8.22266 20.9878 8.22753 20.9642 8.23699C20.9405 8.24646 20.919 8.26033 20.9009 8.27781C20.8828 8.29529 20.8685 8.31603 20.8588 8.33885C20.8491 8.36167 20.8441 8.38611 20.8443 8.41077V17.5789C20.8442 17.6035 20.8491 17.6279 20.8589 17.6507C20.8686 17.6735 20.8829 17.6942 20.901 17.7116C20.9191 17.729 20.9406 17.7429 20.9642 17.7523C20.9879 17.7617 21.0132 17.7666 21.0388 17.7665ZM24.0076 14.9109H25.8044C25.8301 14.9109 25.8554 14.9061 25.8791 14.8968C25.9028 14.8874 25.9244 14.8736 25.9425 14.8562C25.9607 14.8389 25.9751 14.8182 25.985 14.7955C25.9948 14.7727 25.9999 14.7483 26 14.7237V10.2141C26 10.1894 25.9949 10.165 25.9851 10.1422C25.9753 10.1194 25.9609 10.0987 25.9427 10.0813C25.9245 10.0638 25.903 10.05 25.8792 10.0406C25.8555 10.0312 25.8301 10.0264 25.8044 10.0265H24.0076C23.9559 10.0265 23.9062 10.0463 23.8697 10.0814C23.8331 10.1166 23.8125 10.1644 23.8125 10.2141V14.7237C23.8125 14.7483 23.8176 14.7727 23.8274 14.7954C23.8372 14.8182 23.8516 14.8388 23.8697 14.8562C23.8878 14.8736 23.9093 14.8874 23.933 14.8968C23.9566 14.9061 23.982 14.9109 24.0076 14.9109ZM15.1013 23.7782H16.8982C17.0061 23.7782 17.0942 23.6944 17.0942 23.591V14.4229C17.0942 14.3981 17.0892 14.3736 17.0793 14.3507C17.0694 14.3279 17.055 14.3071 17.0368 14.2896C17.0186 14.272 16.997 14.2582 16.9732 14.2487C16.9494 14.2392 16.9239 14.2343 16.8982 14.2343H15.1013C15.0756 14.2343 15.0501 14.2392 15.0264 14.2487C15.0026 14.2582 14.981 14.2721 14.9629 14.2896C14.9447 14.3071 14.9303 14.3279 14.9205 14.3508C14.9107 14.3736 14.9057 14.3982 14.9058 14.4229V23.591C14.906 23.6408 14.9268 23.6884 14.9634 23.7234C15 23.7585 15.0496 23.7782 15.1013 23.7782Z" fill="#1A1A1A"/>
</svg>
